  0
SECTION
  2
HEADER
  9
$EXTMIN
 10
-1.586907
 20
-1.000000
  9
$EXTMAX
 10
1.586907
 20
2.000000
  0
ENDSEC
  0
SECTION
  2
TABLES
  0
TABLE
  2
LTYPE
 70
1
  0
LTYPE
  2
CONTINUOUS
 70
64
  3
Solid Line
 72
65
 73
0
 40
0.000000
  0
ENDTAB
  0
TABLE
  2
LAYER
 70
16
  0
LAYER
  2
0
 70
0
 62
7
  6
CONTINUOUS
  0
LAYER
  2
1
 70
0
 62
7
  6
CONTINUOUS
  0
LAYER
  2
2
 70
0
 62
7
  6
CONTINUOUS
  0
LAYER
  2
3
 70
0
 62
7
  6
CONTINUOUS
  0
LAYER
  2
4
 70
0
 62
7
  6
CONTINUOUS
  0
LAYER
  2
5
 70
0
 62
7
  6
CONTINUOUS
  0
LAYER
  2
6
 70
0
 62
7
  6
CONTINUOUS
  0
LAYER
  2
7
 70
0
 62
7
  6
CONTINUOUS
  0
LAYER
  2
8
 70
0
 62
7
  6
CONTINUOUS
  0
LAYER
  2
9
 70
0
 62
7
  6
CONTINUOUS
  0
LAYER
  2
10
 70
0
 62
7
  6
CONTINUOUS
  0
LAYER
  2
11
 70
0
 62
7
  6
CONTINUOUS
  0
LAYER
  2
12
 70
0
 62
7
  6
CONTINUOUS
  0
LAYER
  2
13
 70
0
 62
7
  6
CONTINUOUS
  0
LAYER
  2
14
 70
0
 62
7
  6
CONTINUOUS
  0
LAYER
  2
15
 70
0
 62
7
  6
CONTINUOUS
  0
ENDTAB
  0
ENDSEC
  0
SECTION
  2
ENTITIES
  0
LINE
  8
1
 10
0.000000
 20
2.000000
 11
0.034900
 21
1.999695
  0
LINE
  8
1
 10
0.034900
 20
1.999695
 11
0.069775
 21
1.998782
  0
LINE
  8
1
 10
0.069775
 20
1.998782
 11
0.104600
 21
1.997260
  0
LINE
  8
1
 10
0.104600
 20
1.997260
 11
0.139352
 21
1.995131
  0
LINE
  8
1
 10
0.139352
 20
1.995131
 11
0.174008
 21
1.992396
  0
LINE
  8
1
 10
0.174008
 20
1.992396
 11
0.208546
 21
1.989058
  0
LINE
  8
1
 10
0.208546
 20
1.989058
 11
0.242946
 21
1.985117
  0
LINE
  8
1
 10
0.242946
 20
1.985117
 11
0.277187
 21
1.980576
  0
LINE
  8
1
 10
0.277187
 20
1.980576
 11
0.311250
 21
1.975438
  0
LINE
  8
1
 10
0.311250
 20
1.975438
 11
0.345115
 21
1.969707
  0
LINE
  8
1
 10
0.345115
 20
1.969707
 11
0.378766
 21
1.963385
  0
LINE
  8
1
 10
0.378766
 20
1.963385
 11
0.412183
 21
1.956476
  0
LINE
  8
1
 10
0.412183
 20
1.956476
 11
0.445350
 21
1.948984
  0
LINE
  8
1
 10
0.445350
 20
1.948984
 11
0.478250
 21
1.940912
  0
LINE
  8
1
 10
0.478250
 20
1.940912
 11
0.510869
 21
1.932267
  0
LINE
  8
1
 10
0.510869
 20
1.932267
 11
0.543190
 21
1.923051
  0
LINE
  8
1
 10
0.543190
 20
1.923051
 11
0.575198
 21
1.913271
  0
LINE
  8
1
 10
0.575198
 20
1.913271
 11
0.606880
 21
1.902931
  0
LINE
  8
1
 10
0.606880
 20
1.902931
 11
0.638221
 21
1.892037
  0
LINE
  8
1
 10
0.638221
 20
1.892037
 11
0.669208
 21
1.880595
  0
LINE
  8
1
 10
0.669208
 20
1.880595
 11
0.699827
 21
1.868610
  0
LINE
  8
1
 10
0.699827
 20
1.868610
 11
0.730067
 21
1.856090
  0
LINE
  8
1
 10
0.730067
 20
1.856090
 11
0.759914
 21
1.843041
  0
LINE
  8
1
 10
0.759914
 20
1.843041
 11
0.789358
 21
1.829469
  0
LINE
  8
1
 10
0.789358
 20
1.829469
 11
0.818387
 21
1.815382
  0
LINE
  8
1
 10
0.818387
 20
1.815382
 11
0.846989
 21
1.800787
  0
LINE
  8
1
 10
0.846989
 20
1.800787
 11
0.875154
 21
1.785692
  0
LINE
  8
1
 10
0.875154
 20
1.785692
 11
0.902871
 21
1.770105
  0
LINE
  8
1
 10
0.902871
 20
1.770105
 11
0.930132
 21
1.754033
  0
LINE
  8
1
 10
0.930132
 20
1.754033
 11
0.956925
 21
1.737485
  0
LINE
  8
1
 10
0.956925
 20
1.737485
 11
0.983243
 21
1.720469
  0
LINE
  8
1
 10
0.983243
 20
1.720469
 11
1.009075
 21
1.702995
  0
LINE
  8
1
 10
1.009075
 20
1.702995
 11
1.034414
 21
1.685070
  0
LINE
  8
1
 10
1.034414
 20
1.685070
 11
1.059250
 21
1.666706
  0
LINE
  8
1
 10
1.059250
 20
1.666706
 11
1.083577
 21
1.647909
  0
LINE
  8
1
 10
1.083577
 20
1.647909
 11
1.107386
 21
1.628691
  0
LINE
  8
1
 10
1.107386
 20
1.628691
 11
1.130671
 21
1.609061
  0
LINE
  8
1
 10
1.130671
 20
1.609061
 11
1.153424
 21
1.589029
  0
LINE
  8
1
 10
1.153424
 20
1.589029
 11
1.175639
 21
1.568605
  0
LINE
  8
1
 10
1.175639
 20
1.568605
 11
1.197310
 21
1.547799
  0
LINE
  8
1
 10
1.197310
 20
1.547799
 11
1.218429
 21
1.526621
  0
LINE
  8
1
 10
1.218429
 20
1.526621
 11
1.238993
 21
1.505082
  0
LINE
  8
1
 10
1.238993
 20
1.505082
 11
1.258995
 21
1.483193
  0
LINE
  8
1
 10
1.258995
 20
1.483193
 11
1.278431
 21
1.460965
  0
LINE
  8
1
 10
1.278431
 20
1.460965
 11
1.297296
 21
1.438407
  0
LINE
  8
1
 10
1.297296
 20
1.438407
 11
1.315584
 21
1.415532
  0
LINE
  8
1
 10
1.315584
 20
1.415532
 11
1.333293
 21
1.392351
  0
LINE
  8
1
 10
1.333293
 20
1.392351
 11
1.350418
 21
1.368874
  0
LINE
  8
1
 10
1.350418
 20
1.368874
 11
1.366956
 21
1.345113
  0
LINE
  8
1
 10
1.366956
 20
1.345113
 11
1.382904
 21
1.321079
  0
LINE
  8
1
 10
1.382904
 20
1.321079
 11
1.398258
 21
1.296784
  0
LINE
  8
1
 10
1.398258
 20
1.296784
 11
1.413017
 21
1.272239
  0
LINE
  8
1
 10
1.413017
 20
1.272239
 11
1.427177
 21
1.247457
  0
LINE
  8
1
 10
1.427177
 20
1.247457
 11
1.440737
 21
1.222448
  0
LINE
  8
1
 10
1.440737
 20
1.222448
 11
1.453694
 21
1.197224
  0
LINE
  8
1
 10
1.453694
 20
1.197224
 11
1.466049
 21
1.171797
  0
LINE
  8
1
 10
1.466049
 20
1.171797
 11
1.477799
 21
1.146178
  0
LINE
  8
1
 10
1.477799
 20
1.146178
 11
1.488944
 21
1.120381
  0
LINE
  8
1
 10
1.488944
 20
1.120381
 11
1.499483
 21
1.094415
  0
LINE
  8
1
 10
1.499483
 20
1.094415
 11
1.509415
 21
1.068294
  0
LINE
  8
1
 10
1.509415
 20
1.068294
 11
1.518742
 21
1.042028
  0
LINE
  8
1
 10
1.518742
 20
1.042028
 11
1.527463
 21
1.015631
  0
LINE
  8
1
 10
1.527463
 20
1.015631
 11
1.535580
 21
0.989112
  0
LINE
  8
1
 10
1.535580
 20
0.989112
 11
1.543092
 21
0.962486
  0
LINE
  8
1
 10
1.543092
 20
0.962486
 11
1.550002
 21
0.935762
  0
LINE
  8
1
 10
1.550002
 20
0.935762
 11
1.556311
 21
0.908953
  0
LINE
  8
1
 10
1.556311
 20
0.908953
 11
1.562020
 21
0.882070
  0
LINE
  8
1
 10
1.562020
 20
0.882070
 11
1.567133
 21
0.855124
  0
LINE
  8
1
 10
1.567133
 20
0.855124
 11
1.571651
 21
0.828129
  0
LINE
  8
1
 10
1.571651
 20
0.828129
 11
1.575578
 21
0.801093
  0
LINE
  8
1
 10
1.575578
 20
0.801093
 11
1.578916
 21
0.774030
  0
LINE
  8
1
 10
1.578916
 20
0.774030
 11
1.581669
 21
0.746950
  0
LINE
  8
1
 10
1.581669
 20
0.746950
 11
1.583841
 21
0.719863
  0
LINE
  8
1
 10
1.583841
 20
0.719863
 11
1.585435
 21
0.692782
  0
LINE
  8
1
 10
1.585435
 20
0.692782
 11
1.586455
 21
0.665716
  0
LINE
  8
1
 10
1.586455
 20
0.665716
 11
1.586907
 21
0.638676
  0
LINE
  8
1
 10
1.586907
 20
0.638676
 11
1.586795
 21
0.611673
  0
LINE
  8
1
 10
1.586795
 20
0.611673
 11
1.586124
 21
0.584717
  0
LINE
  8
1
 10
1.586124
 20
0.584717
 11
1.584900
 21
0.557817
  0
LINE
  8
1
 10
1.584900
 20
0.557817
 11
1.583128
 21
0.530984
  0
LINE
  8
1
 10
1.583128
 20
0.530984
 11
1.580813
 21
0.504227
  0
LINE
  8
1
 10
1.580813
 20
0.504227
 11
1.577963
 21
0.477555
  0
LINE
  8
1
 10
1.577963
 20
0.477555
 11
1.574583
 21
0.450977
  0
LINE
  8
1
 10
1.574583
 20
0.450977
 11
1.570679
 21
0.424502
  0
LINE
  8
1
 10
1.570679
 20
0.424502
 11
1.566259
 21
0.398139
  0
LINE
  8
1
 10
1.566259
 20
0.398139
 11
1.561330
 21
0.371896
  0
LINE
  8
1
 10
1.561330
 20
0.371896
 11
1.555897
 21
0.345781
  0
LINE
  8
1
 10
1.555897
 20
0.345781
 11
1.549970
 21
0.319801
  0
LINE
  8
1
 10
1.549970
 20
0.319801
 11
1.543554
 21
0.293965
  0
LINE
  8
1
 10
1.543554
 20
0.293965
 11
1.536658
 21
0.268278
  0
LINE
  8
1
 10
1.536658
 20
0.268278
 11
1.529290
 21
0.242748
  0
LINE
  8
1
 10
1.529290
 20
0.242748
 11
1.521457
 21
0.217381
  0
LINE
  8
1
 10
1.521457
 20
0.217381
 11
1.513167
 21
0.192184
  0
LINE
  8
1
 10
1.513167
 20
0.192184
 11
1.504428
 21
0.167162
  0
LINE
  8
1
 10
1.504428
 20
0.167162
 11
1.495248
 21
0.142321
  0
LINE
  8
1
 10
1.495248
 20
0.142321
 11
1.485636
 21
0.117666
  0
LINE
  8
1
 10
1.485636
 20
0.117666
 11
1.475599
 21
0.093203
  0
LINE
  8
1
 10
1.475599
 20
0.093203
 11
1.465147
 21
0.068935
  0
LINE
  8
1
 10
1.465147
 20
0.068935
 11
1.454287
 21
0.044868
  0
LINE
  8
1
 10
1.454287
 20
0.044868
 11
1.443027
 21
0.021005
  0
LINE
  8
1
 10
1.443027
 20
0.021005
 11
1.431377
 21
-0.002649
  0
LINE
  8
1
 10
1.431377
 20
-0.002649
 11
1.419344
 21
-0.026091
  0
LINE
  8
1
 10
1.419344
 20
-0.026091
 11
1.406938
 21
-0.049318
  0
LINE
  8
1
 10
1.406938
 20
-0.049318
 11
1.394166
 21
-0.072326
  0
LINE
  8
1
 10
1.394166
 20
-0.072326
 11
1.381036
 21
-0.095113
  0
LINE
  8
1
 10
1.381036
 20
-0.095113
 11
1.367559
 21
-0.117675
  0
LINE
  8
1
 10
1.367559
 20
-0.117675
 11
1.353740
 21
-0.140010
  0
LINE
  8
1
 10
1.353740
 20
-0.140010
 11
1.339591
 21
-0.162116
  0
LINE
  8
1
 10
1.339591
 20
-0.162116
 11
1.325117
 21
-0.183990
  0
LINE
  8
1
 10
1.325117
 20
-0.183990
 11
1.310329
 21
-0.205630
  0
LINE
  8
1
 10
1.310329
 20
-0.205630
 11
1.295235
 21
-0.227034
  0
LINE
  8
1
 10
1.295235
 20
-0.227034
 11
1.279842
 21
-0.248200
  0
LINE
  8
1
 10
1.279842
 20
-0.248200
 11
1.264160
 21
-0.269126
  0
LINE
  8
1
 10
1.264160
 20
-0.269126
 11
1.248197
 21
-0.289810
  0
LINE
  8
1
 10
1.248197
 20
-0.289810
 11
1.231961
 21
-0.310251
  0
LINE
  8
1
 10
1.231961
 20
-0.310251
 11
1.215460
 21
-0.330447
  0
LINE
  8
1
 10
1.215460
 20
-0.330447
 11
1.198704
 21
-0.350395
  0
LINE
  8
1
 10
1.198704
 20
-0.350395
 11
1.181701
 21
-0.370094
  0
LINE
  8
1
 10
1.181701
 20
-0.370094
 11
1.164459
 21
-0.389542
  0
LINE
  8
1
 10
1.164459
 20
-0.389542
 11
1.146986
 21
-0.408737
  0
LINE
  8
1
 10
1.146986
 20
-0.408737
 11
1.129293
 21
-0.427677
  0
LINE
  8
1
 10
1.129293
 20
-0.427677
 11
1.111387
 21
-0.446360
  0
LINE
  8
1
 10
1.111387
 20
-0.446360
 11
1.093276
 21
-0.464784
  0
LINE
  8
1
 10
1.093276
 20
-0.464784
 11
1.074971
 21
-0.482946
  0
LINE
  8
1
 10
1.074971
 20
-0.482946
 11
1.056480
 21
-0.500844
  0
LINE
  8
1
 10
1.056480
 20
-0.500844
 11
1.037811
 21
-0.518476
  0
LINE
  8
1
 10
1.037811
 20
-0.518476
 11
1.018974
 21
-0.535838
  0
LINE
  8
1
 10
1.018974
 20
-0.535838
 11
0.999979
 21
-0.552928
  0
LINE
  8
1
 10
0.999979
 20
-0.552928
 11
0.980833
 21
-0.569743
  0
LINE
  8
1
 10
0.980833
 20
-0.569743
 11
0.961547
 21
-0.586281
  0
LINE
  8
1
 10
0.961547
 20
-0.586281
 11
0.942130
 21
-0.602536
  0
LINE
  8
1
 10
0.942130
 20
-0.602536
 11
0.922591
 21
-0.618508
  0
LINE
  8
1
 10
0.922591
 20
-0.618508
 11
0.902940
 21
-0.634191
  0
LINE
  8
1
 10
0.902940
 20
-0.634191
 11
0.883185
 21
-0.649583
  0
LINE
  8
1
 10
0.883185
 20
-0.649583
 11
0.863338
 21
-0.664680
  0
LINE
  8
1
 10
0.863338
 20
-0.664680
 11
0.843407
 21
-0.679478
  0
LINE
  8
1
 10
0.843407
 20
-0.679478
 11
0.823402
 21
-0.693974
  0
LINE
  8
1
 10
0.823402
 20
-0.693974
 11
0.803332
 21
-0.708164
  0
LINE
  8
1
 10
0.803332
 20
-0.708164
 11
0.783207
 21
-0.722044
  0
LINE
  8
1
 10
0.783207
 20
-0.722044
 11
0.763037
 21
-0.735611
  0
LINE
  8
1
 10
0.763037
 20
-0.735611
 11
0.742831
 21
-0.748860
  0
LINE
  8
1
 10
0.742831
 20
-0.748860
 11
0.722599
 21
-0.761789
  0
LINE
  8
1
 10
0.722599
 20
-0.761789
 11
0.702349
 21
-0.774392
  0
LINE
  8
1
 10
0.702349
 20
-0.774392
 11
0.682091
 21
-0.786668
  0
LINE
  8
1
 10
0.682091
 20
-0.786668
 11
0.661834
 21
-0.798613
  0
LINE
  8
1
 10
0.661834
 20
-0.798613
 11
0.641587
 21
-0.810223
  0
LINE
  8
1
 10
0.641587
 20
-0.810223
 11
0.621359
 21
-0.821495
  0
LINE
  8
1
 10
0.621359
 20
-0.821495
 11
0.601159
 21
-0.832427
  0
LINE
  8
1
 10
0.601159
 20
-0.832427
 11
0.580994
 21
-0.843016
  0
LINE
  8
1
 10
0.580994
 20
-0.843016
 11
0.560873
 21
-0.853259
  0
LINE
  8
1
 10
0.560873
 20
-0.853259
 11
0.540804
 21
-0.863155
  0
LINE
  8
1
 10
0.540804
 20
-0.863155
 11
0.520793
 21
-0.872701
  0
LINE
  8
1
 10
0.520793
 20
-0.872701
 11
0.500850
 21
-0.881896
  0
LINE
  8
1
 10
0.500850
 20
-0.881896
 11
0.480980
 21
-0.890739
  0
LINE
  8
1
 10
0.480980
 20
-0.890739
 11
0.461190
 21
-0.899229
  0
LINE
  8
1
 10
0.461190
 20
-0.899229
 11
0.441486
 21
-0.907365
  0
LINE
  8
1
 10
0.441486
 20
-0.907365
 11
0.421874
 21
-0.915146
  0
LINE
  8
1
 10
0.421874
 20
-0.915146
 11
0.402359
 21
-0.922573
  0
LINE
  8
1
 10
0.402359
 20
-0.922573
 11
0.382946
 21
-0.929647
  0
LINE
  8
1
 10
0.382946
 20
-0.929647
 11
0.363639
 21
-0.936368
  0
LINE
  8
1
 10
0.363639
 20
-0.936368
 11
0.344442
 21
-0.942736
  0
LINE
  8
1
 10
0.344442
 20
-0.942736
 11
0.325358
 21
-0.948754
  0
LINE
  8
1
 10
0.325358
 20
-0.948754
 11
0.306390
 21
-0.954423
  0
LINE
  8
1
 10
0.306390
 20
-0.954423
 11
0.287538
 21
-0.959745
  0
LINE
  8
1
 10
0.287538
 20
-0.959745
 11
0.268805
 21
-0.964723
  0
LINE
  8
1
 10
0.268805
 20
-0.964723
 11
0.250191
 21
-0.969358
  0
LINE
  8
1
 10
0.250191
 20
-0.969358
 11
0.231694
 21
-0.973654
  0
LINE
  8
1
 10
0.231694
 20
-0.973654
 11
0.213314
 21
-0.977614
  0
LINE
  8
1
 10
0.213314
 20
-0.977614
 11
0.195049
 21
-0.981240
  0
LINE
  8
1
 10
0.195049
 20
-0.981240
 11
0.176895
 21
-0.984536
  0
LINE
  8
1
 10
0.176895
 20
-0.984536
 11
0.158848
 21
-0.987505
  0
LINE
  8
1
 10
0.158848
 20
-0.987505
 11
0.140903
 21
-0.990150
  0
LINE
  8
1
 10
0.140903
 20
-0.990150
 11
0.123054
 21
-0.992475
  0
LINE
  8
1
 10
0.123054
 20
-0.992475
 11
0.105292
 21
-0.994482
  0
LINE
  8
1
 10
0.105292
 20
-0.994482
 11
0.087611
 21
-0.996175
  0
LINE
  8
1
 10
0.087611
 20
-0.996175
 11
0.069998
 21
-0.997555
  0
LINE
  8
1
 10
0.069998
 20
-0.997555
 11
0.052444
 21
-0.998626
  0
LINE
  8
1
 10
0.052444
 20
-0.998626
 11
0.034936
 21
-0.999390
  0
LINE
  8
1
 10
0.034936
 20
-0.999390
 11
0.017460
 21
-0.999848
  0
LINE
  8
1
 10
0.017460
 20
-0.999848
 11
-0.000000
 21
-1.000000
  0
LINE
  8
1
 10
-0.000000
 20
-1.000000
 11
-0.017460
 21
-0.999848
  0
LINE
  8
1
 10
-0.017460
 20
-0.999848
 11
-0.034936
 21
-0.999390
  0
LINE
  8
1
 10
-0.034936
 20
-0.999390
 11
-0.052444
 21
-0.998626
  0
LINE
  8
1
 10
-0.052444
 20
-0.998626
 11
-0.069998
 21
-0.997555
  0
LINE
  8
1
 10
-0.069998
 20
-0.997555
 11
-0.087611
 21
-0.996175
  0
LINE
  8
1
 10
-0.087611
 20
-0.996175
 11
-0.105292
 21
-0.994482
  0
LINE
  8
1
 10
-0.105292
 20
-0.994482
 11
-0.123054
 21
-0.992475
  0
LINE
  8
1
 10
-0.123054
 20
-0.992475
 11
-0.140903
 21
-0.990150
  0
LINE
  8
1
 10
-0.140903
 20
-0.990150
 11
-0.158848
 21
-0.987505
  0
LINE
  8
1
 10
-0.158848
 20
-0.987505
 11
-0.176895
 21
-0.984536
  0
LINE
  8
1
 10
-0.176895
 20
-0.984536
 11
-0.195049
 21
-0.981240
  0
LINE
  8
1
 10
-0.195049
 20
-0.981240
 11
-0.213314
 21
-0.977614
  0
LINE
  8
1
 10
-0.213314
 20
-0.977614
 11
-0.231694
 21
-0.973654
  0
LINE
  8
1
 10
-0.231694
 20
-0.973654
 11
-0.250191
 21
-0.969358
  0
LINE
  8
1
 10
-0.250191
 20
-0.969358
 11
-0.268805
 21
-0.964723
  0
LINE
  8
1
 10
-0.268805
 20
-0.964723
 11
-0.287538
 21
-0.959745
  0
LINE
  8
1
 10
-0.287538
 20
-0.959745
 11
-0.306390
 21
-0.954423
  0
LINE
  8
1
 10
-0.306390
 20
-0.954423
 11
-0.325358
 21
-0.948754
  0
LINE
  8
1
 10
-0.325358
 20
-0.948754
 11
-0.344442
 21
-0.942736
  0
LINE
  8
1
 10
-0.344442
 20
-0.942736
 11
-0.363639
 21
-0.936368
  0
LINE
  8
1
 10
-0.363639
 20
-0.936368
 11
-0.382946
 21
-0.929647
  0
LINE
  8
1
 10
-0.382946
 20
-0.929647
 11
-0.402359
 21
-0.922573
  0
LINE
  8
1
 10
-0.402359
 20
-0.922573
 11
-0.421874
 21
-0.915146
  0
LINE
  8
1
 10
-0.421874
 20
-0.915146
 11
-0.441486
 21
-0.907365
  0
LINE
  8
1
 10
-0.441486
 20
-0.907365
 11
-0.461190
 21
-0.899229
  0
LINE
  8
1
 10
-0.461190
 20
-0.899229
 11
-0.480980
 21
-0.890739
  0
LINE
  8
1
 10
-0.480980
 20
-0.890739
 11
-0.500850
 21
-0.881896
  0
LINE
  8
1
 10
-0.500850
 20
-0.881896
 11
-0.520793
 21
-0.872701
  0
LINE
  8
1
 10
-0.520793
 20
-0.872701
 11
-0.540804
 21
-0.863155
  0
LINE
  8
1
 10
-0.540804
 20
-0.863155
 11
-0.560873
 21
-0.853259
  0
LINE
  8
1
 10
-0.560873
 20
-0.853259
 11
-0.580994
 21
-0.843016
  0
LINE
  8
1
 10
-0.580994
 20
-0.843016
 11
-0.601159
 21
-0.832427
  0
LINE
  8
1
 10
-0.601159
 20
-0.832427
 11
-0.621359
 21
-0.821495
  0
LINE
  8
1
 10
-0.621359
 20
-0.821495
 11
-0.641587
 21
-0.810223
  0
LINE
  8
1
 10
-0.641587
 20
-0.810223
 11
-0.661834
 21
-0.798613
  0
LINE
  8
1
 10
-0.661834
 20
-0.798613
 11
-0.682091
 21
-0.786668
  0
LINE
  8
1
 10
-0.682091
 20
-0.786668
 11
-0.702349
 21
-0.774392
  0
LINE
  8
1
 10
-0.702349
 20
-0.774392
 11
-0.722599
 21
-0.761789
  0
LINE
  8
1
 10
-0.722599
 20
-0.761789
 11
-0.742831
 21
-0.748860
  0
LINE
  8
1
 10
-0.742831
 20
-0.748860
 11
-0.763037
 21
-0.735611
  0
LINE
  8
1
 10
-0.763037
 20
-0.735611
 11
-0.783207
 21
-0.722044
  0
LINE
  8
1
 10
-0.783207
 20
-0.722044
 11
-0.803332
 21
-0.708164
  0
LINE
  8
1
 10
-0.803332
 20
-0.708164
 11
-0.823402
 21
-0.693974
  0
LINE
  8
1
 10
-0.823402
 20
-0.693974
 11
-0.843407
 21
-0.679478
  0
LINE
  8
1
 10
-0.843407
 20
-0.679478
 11
-0.863338
 21
-0.664680
  0
LINE
  8
1
 10
-0.863338
 20
-0.664680
 11
-0.883185
 21
-0.649583
  0
LINE
  8
1
 10
-0.883185
 20
-0.649583
 11
-0.902940
 21
-0.634191
  0
LINE
  8
1
 10
-0.902940
 20
-0.634191
 11
-0.922591
 21
-0.618508
  0
LINE
  8
1
 10
-0.922591
 20
-0.618508
 11
-0.942130
 21
-0.602536
  0
LINE
  8
1
 10
-0.942130
 20
-0.602536
 11
-0.961547
 21
-0.586281
  0
LINE
  8
1
 10
-0.961547
 20
-0.586281
 11
-0.980833
 21
-0.569743
  0
LINE
  8
1
 10
-0.980833
 20
-0.569743
 11
-0.999979
 21
-0.552928
  0
LINE
  8
1
 10
-0.999979
 20
-0.552928
 11
-1.018974
 21
-0.535838
  0
LINE
  8
1
 10
-1.018974
 20
-0.535838
 11
-1.037811
 21
-0.518476
  0
LINE
  8
1
 10
-1.037811
 20
-0.518476
 11
-1.056480
 21
-0.500844
  0
LINE
  8
1
 10
-1.056480
 20
-0.500844
 11
-1.074971
 21
-0.482946
  0
LINE
  8
1
 10
-1.074971
 20
-0.482946
 11
-1.093276
 21
-0.464784
  0
LINE
  8
1
 10
-1.093276
 20
-0.464784
 11
-1.111387
 21
-0.446360
  0
LINE
  8
1
 10
-1.111387
 20
-0.446360
 11
-1.129293
 21
-0.427677
  0
LINE
  8
1
 10
-1.129293
 20
-0.427677
 11
-1.146986
 21
-0.408737
  0
LINE
  8
1
 10
-1.146986
 20
-0.408737
 11
-1.164459
 21
-0.389542
  0
LINE
  8
1
 10
-1.164459
 20
-0.389542
 11
-1.181701
 21
-0.370094
  0
LINE
  8
1
 10
-1.181701
 20
-0.370094
 11
-1.198704
 21
-0.350395
  0
LINE
  8
1
 10
-1.198704
 20
-0.350395
 11
-1.215460
 21
-0.330447
  0
LINE
  8
1
 10
-1.215460
 20
-0.330447
 11
-1.231961
 21
-0.310251
  0
LINE
  8
1
 10
-1.231961
 20
-0.310251
 11
-1.248197
 21
-0.289810
  0
LINE
  8
1
 10
-1.248197
 20
-0.289810
 11
-1.264160
 21
-0.269126
  0
LINE
  8
1
 10
-1.264160
 20
-0.269126
 11
-1.279842
 21
-0.248200
  0
LINE
  8
1
 10
-1.279842
 20
-0.248200
 11
-1.295235
 21
-0.227034
  0
LINE
  8
1
 10
-1.295235
 20
-0.227034
 11
-1.310329
 21
-0.205630
  0
LINE
  8
1
 10
-1.310329
 20
-0.205630
 11
-1.325117
 21
-0.183990
  0
LINE
  8
1
 10
-1.325117
 20
-0.183990
 11
-1.339591
 21
-0.162116
  0
LINE
  8
1
 10
-1.339591
 20
-0.162116
 11
-1.353740
 21
-0.140010
  0
LINE
  8
1
 10
-1.353740
 20
-0.140010
 11
-1.367559
 21
-0.117675
  0
LINE
  8
1
 10
-1.367559
 20
-0.117675
 11
-1.381036
 21
-0.095113
  0
LINE
  8
1
 10
-1.381036
 20
-0.095113
 11
-1.394166
 21
-0.072326
  0
LINE
  8
1
 10
-1.394166
 20
-0.072326
 11
-1.406938
 21
-0.049318
  0
LINE
  8
1
 10
-1.406938
 20
-0.049318
 11
-1.419344
 21
-0.026091
  0
LINE
  8
1
 10
-1.419344
 20
-0.026091
 11
-1.431377
 21
-0.002649
  0
LINE
  8
1
 10
-1.431377
 20
-0.002649
 11
-1.443027
 21
0.021005
  0
LINE
  8
1
 10
-1.443027
 20
0.021005
 11
-1.454287
 21
0.044868
  0
LINE
  8
1
 10
-1.454287
 20
0.044868
 11
-1.465147
 21
0.068935
  0
LINE
  8
1
 10
-1.465147
 20
0.068935
 11
-1.475599
 21
0.093203
  0
LINE
  8
1
 10
-1.475599
 20
0.093203
 11
-1.485636
 21
0.117666
  0
LINE
  8
1
 10
-1.485636
 20
0.117666
 11
-1.495248
 21
0.142321
  0
LINE
  8
1
 10
-1.495248
 20
0.142321
 11
-1.504428
 21
0.167162
  0
LINE
  8
1
 10
-1.504428
 20
0.167162
 11
-1.513167
 21
0.192184
  0
LINE
  8
1
 10
-1.513167
 20
0.192184
 11
-1.521457
 21
0.217381
  0
LINE
  8
1
 10
-1.521457
 20
0.217381
 11
-1.529290
 21
0.242748
  0
LINE
  8
1
 10
-1.529290
 20
0.242748
 11
-1.536658
 21
0.268278
  0
LINE
  8
1
 10
-1.536658
 20
0.268278
 11
-1.543554
 21
0.293965
  0
LINE
  8
1
 10
-1.543554
 20
0.293965
 11
-1.549970
 21
0.319801
  0
LINE
  8
1
 10
-1.549970
 20
0.319801
 11
-1.555897
 21
0.345781
  0
LINE
  8
1
 10
-1.555897
 20
0.345781
 11
-1.561330
 21
0.371896
  0
LINE
  8
1
 10
-1.561330
 20
0.371896
 11
-1.566259
 21
0.398139
  0
LINE
  8
1
 10
-1.566259
 20
0.398139
 11
-1.570679
 21
0.424502
  0
LINE
  8
1
 10
-1.570679
 20
0.424502
 11
-1.574583
 21
0.450977
  0
LINE
  8
1
 10
-1.574583
 20
0.450977
 11
-1.577963
 21
0.477555
  0
LINE
  8
1
 10
-1.577963
 20
0.477555
 11
-1.580813
 21
0.504227
  0
LINE
  8
1
 10
-1.580813
 20
0.504227
 11
-1.583128
 21
0.530984
  0
LINE
  8
1
 10
-1.583128
 20
0.530984
 11
-1.584900
 21
0.557817
  0
LINE
  8
1
 10
-1.584900
 20
0.557817
 11
-1.586124
 21
0.584717
  0
LINE
  8
1
 10
-1.586124
 20
0.584717
 11
-1.586795
 21
0.611673
  0
LINE
  8
1
 10
-1.586795
 20
0.611673
 11
-1.586907
 21
0.638676
  0
LINE
  8
1
 10
-1.586907
 20
0.638676
 11
-1.586455
 21
0.665716
  0
LINE
  8
1
 10
-1.586455
 20
0.665716
 11
-1.585435
 21
0.692782
  0
LINE
  8
1
 10
-1.585435
 20
0.692782
 11
-1.583841
 21
0.719863
  0
LINE
  8
1
 10
-1.583841
 20
0.719863
 11
-1.581669
 21
0.746950
  0
LINE
  8
1
 10
-1.581669
 20
0.746950
 11
-1.578916
 21
0.774030
  0
LINE
  8
1
 10
-1.578916
 20
0.774030
 11
-1.575578
 21
0.801093
  0
LINE
  8
1
 10
-1.575578
 20
0.801093
 11
-1.571651
 21
0.828129
  0
LINE
  8
1
 10
-1.571651
 20
0.828129
 11
-1.567133
 21
0.855124
  0
LINE
  8
1
 10
-1.567133
 20
0.855124
 11
-1.562020
 21
0.882070
  0
LINE
  8
1
 10
-1.562020
 20
0.882070
 11
-1.556311
 21
0.908953
  0
LINE
  8
1
 10
-1.556311
 20
0.908953
 11
-1.550002
 21
0.935762
  0
LINE
  8
1
 10
-1.550002
 20
0.935762
 11
-1.543092
 21
0.962486
  0
LINE
  8
1
 10
-1.543092
 20
0.962486
 11
-1.535580
 21
0.989112
  0
LINE
  8
1
 10
-1.535580
 20
0.989112
 11
-1.527463
 21
1.015631
  0
LINE
  8
1
 10
-1.527463
 20
1.015631
 11
-1.518742
 21
1.042028
  0
LINE
  8
1
 10
-1.518742
 20
1.042028
 11
-1.509415
 21
1.068294
  0
LINE
  8
1
 10
-1.509415
 20
1.068294
 11
-1.499483
 21
1.094415
  0
LINE
  8
1
 10
-1.499483
 20
1.094415
 11
-1.488944
 21
1.120381
  0
LINE
  8
1
 10
-1.488944
 20
1.120381
 11
-1.477799
 21
1.146178
  0
LINE
  8
1
 10
-1.477799
 20
1.146178
 11
-1.466049
 21
1.171797
  0
LINE
  8
1
 10
-1.466049
 20
1.171797
 11
-1.453694
 21
1.197224
  0
LINE
  8
1
 10
-1.453694
 20
1.197224
 11
-1.440737
 21
1.222448
  0
LINE
  8
1
 10
-1.440737
 20
1.222448
 11
-1.427177
 21
1.247457
  0
LINE
  8
1
 10
-1.427177
 20
1.247457
 11
-1.413017
 21
1.272239
  0
LINE
  8
1
 10
-1.413017
 20
1.272239
 11
-1.398258
 21
1.296784
  0
LINE
  8
1
 10
-1.398258
 20
1.296784
 11
-1.382904
 21
1.321079
  0
LINE
  8
1
 10
-1.382904
 20
1.321079
 11
-1.366956
 21
1.345113
  0
LINE
  8
1
 10
-1.366956
 20
1.345113
 11
-1.350418
 21
1.368874
  0
LINE
  8
1
 10
-1.350418
 20
1.368874
 11
-1.333293
 21
1.392351
  0
LINE
  8
1
 10
-1.333293
 20
1.392351
 11
-1.315584
 21
1.415532
  0
LINE
  8
1
 10
-1.315584
 20
1.415532
 11
-1.297296
 21
1.438407
  0
LINE
  8
1
 10
-1.297296
 20
1.438407
 11
-1.278431
 21
1.460965
  0
LINE
  8
1
 10
-1.278431
 20
1.460965
 11
-1.258995
 21
1.483193
  0
LINE
  8
1
 10
-1.258995
 20
1.483193
 11
-1.238993
 21
1.505082
  0
LINE
  8
1
 10
-1.238993
 20
1.505082
 11
-1.218429
 21
1.526621
  0
LINE
  8
1
 10
-1.218429
 20
1.526621
 11
-1.197310
 21
1.547799
  0
LINE
  8
1
 10
-1.197310
 20
1.547799
 11
-1.175639
 21
1.568605
  0
LINE
  8
1
 10
-1.175639
 20
1.568605
 11
-1.153424
 21
1.589029
  0
LINE
  8
1
 10
-1.153424
 20
1.589029
 11
-1.130671
 21
1.609061
  0
LINE
  8
1
 10
-1.130671
 20
1.609061
 11
-1.107386
 21
1.628691
  0
LINE
  8
1
 10
-1.107386
 20
1.628691
 11
-1.083577
 21
1.647909
  0
LINE
  8
1
 10
-1.083577
 20
1.647909
 11
-1.059250
 21
1.666706
  0
LINE
  8
1
 10
-1.059250
 20
1.666706
 11
-1.034414
 21
1.685070
  0
LINE
  8
1
 10
-1.034414
 20
1.685070
 11
-1.009075
 21
1.702995
  0
LINE
  8
1
 10
-1.009075
 20
1.702995
 11
-0.983243
 21
1.720469
  0
LINE
  8
1
 10
-0.983243
 20
1.720469
 11
-0.956925
 21
1.737485
  0
LINE
  8
1
 10
-0.956925
 20
1.737485
 11
-0.930132
 21
1.754033
  0
LINE
  8
1
 10
-0.930132
 20
1.754033
 11
-0.902871
 21
1.770105
  0
LINE
  8
1
 10
-0.902871
 20
1.770105
 11
-0.875154
 21
1.785692
  0
LINE
  8
1
 10
-0.875154
 20
1.785692
 11
-0.846989
 21
1.800787
  0
LINE
  8
1
 10
-0.846989
 20
1.800787
 11
-0.818387
 21
1.815382
  0
LINE
  8
1
 10
-0.818387
 20
1.815382
 11
-0.789358
 21
1.829469
  0
LINE
  8
1
 10
-0.789358
 20
1.829469
 11
-0.759914
 21
1.843041
  0
LINE
  8
1
 10
-0.759914
 20
1.843041
 11
-0.730067
 21
1.856090
  0
LINE
  8
1
 10
-0.730067
 20
1.856090
 11
-0.699827
 21
1.868610
  0
LINE
  8
1
 10
-0.699827
 20
1.868610
 11
-0.669208
 21
1.880595
  0
LINE
  8
1
 10
-0.669208
 20
1.880595
 11
-0.638221
 21
1.892037
  0
LINE
  8
1
 10
-0.638221
 20
1.892037
 11
-0.606880
 21
1.902931
  0
LINE
  8
1
 10
-0.606880
 20
1.902931
 11
-0.575198
 21
1.913271
  0
LINE
  8
1
 10
-0.575198
 20
1.913271
 11
-0.543190
 21
1.923051
  0
LINE
  8
1
 10
-0.543190
 20
1.923051
 11
-0.510869
 21
1.932267
  0
LINE
  8
1
 10
-0.510869
 20
1.932267
 11
-0.478250
 21
1.940912
  0
LINE
  8
1
 10
-0.478250
 20
1.940912
 11
-0.445350
 21
1.948984
  0
LINE
  8
1
 10
-0.445350
 20
1.948984
 11
-0.412183
 21
1.956476
  0
LINE
  8
1
 10
-0.412183
 20
1.956476
 11
-0.378766
 21
1.963385
  0
LINE
  8
1
 10
-0.378766
 20
1.963385
 11
-0.345115
 21
1.969707
  0
LINE
  8
1
 10
-0.345115
 20
1.969707
 11
-0.311250
 21
1.975438
  0
LINE
  8
1
 10
-0.311250
 20
1.975438
 11
-0.277187
 21
1.980576
  0
LINE
  8
1
 10
-0.277187
 20
1.980576
 11
-0.242946
 21
1.985117
  0
LINE
  8
1
 10
-0.242946
 20
1.985117
 11
-0.208546
 21
1.989058
  0
LINE
  8
1
 10
-0.208546
 20
1.989058
 11
-0.174008
 21
1.992396
  0
LINE
  8
1
 10
-0.174008
 20
1.992396
 11
-0.139352
 21
1.995131
  0
LINE
  8
1
 10
-0.139352
 20
1.995131
 11
-0.104600
 21
1.997260
  0
LINE
  8
1
 10
-0.104600
 20
1.997260
 11
-0.069775
 21
1.998782
  0
LINE
  8
1
 10
-0.069775
 20
1.998782
 11
-0.034900
 21
1.999695
  0
LINE
  8
1
 10
-0.034900
 20
1.999695
 11
0.000000
 21
2.000000
  0
ENDSEC
  0
EOF
