  0
SECTION
  2
HEADER
  9
$EXTMIN
 10
-1.843444
 20
-1.200816
  9
$EXTMAX
 10
1.000000
 20
2.000000
  0
ENDSEC
  0
SECTION
  2
TABLES
  0
TABLE
  2
LTYPE
 70
1
  0
LTYPE
  2
CONTINUOUS
 70
64
  3
Solid Line
 72
65
 73
0
 40
0.000000
  0
ENDTAB
  0
TABLE
  2
LAYER
 70
16
  0
LAYER
  2
0
 70
0
 62
7
  6
CONTINUOUS
  0
LAYER
  2
1
 70
0
 62
7
  6
CONTINUOUS
  0
LAYER
  2
2
 70
0
 62
7
  6
CONTINUOUS
  0
LAYER
  2
3
 70
0
 62
7
  6
CONTINUOUS
  0
LAYER
  2
4
 70
0
 62
7
  6
CONTINUOUS
  0
LAYER
  2
5
 70
0
 62
7
  6
CONTINUOUS
  0
LAYER
  2
6
 70
0
 62
7
  6
CONTINUOUS
  0
LAYER
  2
7
 70
0
 62
7
  6
CONTINUOUS
  0
LAYER
  2
8
 70
0
 62
7
  6
CONTINUOUS
  0
LAYER
  2
9
 70
0
 62
7
  6
CONTINUOUS
  0
LAYER
  2
10
 70
0
 62
7
  6
CONTINUOUS
  0
LAYER
  2
11
 70
0
 62
7
  6
CONTINUOUS
  0
LAYER
  2
12
 70
0
 62
7
  6
CONTINUOUS
  0
LAYER
  2
13
 70
0
 62
7
  6
CONTINUOUS
  0
LAYER
  2
14
 70
0
 62
7
  6
CONTINUOUS
  0
LAYER
  2
15
 70
0
 62
7
  6
CONTINUOUS
  0
ENDTAB
  0
ENDSEC
  0
SECTION
  2
ENTITIES
  0
LINE
  8
1
 10
-0.000005
 20
2.000000
 11
0.034828
 21
1.999696
  0
LINE
  8
1
 10
0.034828
 20
1.999696
 11
0.069423
 21
1.998787
  0
LINE
  8
1
 10
0.069423
 20
1.998787
 11
0.103579
 21
1.997277
  0
LINE
  8
1
 10
0.103579
 20
1.997277
 11
0.137112
 21
1.995176
  0
LINE
  8
1
 10
0.137112
 20
1.995176
 11
0.169870
 21
1.992496
  0
LINE
  8
1
 10
0.169870
 20
1.992496
 11
0.201723
 21
1.989251
  0
LINE
  8
1
 10
0.201723
 20
1.989251
 11
0.232565
 21
1.985462
  0
LINE
  8
1
 10
0.232565
 20
1.985462
 11
0.262310
 21
1.981149
  0
LINE
  8
1
 10
0.262310
 20
1.981149
 11
0.290895
 21
1.976337
  0
LINE
  8
1
 10
0.290895
 20
1.976337
 11
0.318273
 21
1.971053
  0
LINE
  8
1
 10
0.318273
 20
1.971053
 11
0.344417
 21
1.965328
  0
LINE
  8
1
 10
0.344417
 20
1.965328
 11
0.369316
 21
1.959190
  0
LINE
  8
1
 10
0.369316
 20
1.959190
 11
0.392975
 21
1.952672
  0
LINE
  8
1
 10
0.392975
 20
1.952672
 11
0.415413
 21
1.945803
  0
LINE
  8
1
 10
0.415413
 20
1.945803
 11
0.436662
 21
1.938610
  0
LINE
  8
1
 10
0.436662
 20
1.938610
 11
0.456768
 21
1.931118
  0
LINE
  8
1
 10
0.456768
 20
1.931118
 11
0.475786
 21
1.923348
  0
LINE
  8
1
 10
0.475786
 20
1.923348
 11
0.493781
 21
1.915312
  0
LINE
  8
1
 10
0.493781
 20
1.915312
 11
0.510825
 21
1.907019
  0
LINE
  8
1
 10
0.510825
 20
1.907019
 11
0.526995
 21
1.898468
  0
LINE
  8
1
 10
0.526995
 20
1.898468
 11
0.542373
 21
1.889650
  0
LINE
  8
1
 10
0.542373
 20
1.889650
 11
0.557040
 21
1.880548
  0
LINE
  8
1
 10
0.557040
 20
1.880548
 11
0.571080
 21
1.871138
  0
LINE
  8
1
 10
0.571080
 20
1.871138
 11
0.584572
 21
1.861384
  0
LINE
  8
1
 10
0.584572
 20
1.861384
 11
0.597590
 21
1.851247
  0
LINE
  8
1
 10
0.597590
 20
1.851247
 11
0.610203
 21
1.840679
  0
LINE
  8
1
 10
0.610203
 20
1.840679
 11
0.622474
 21
1.829628
  0
LINE
  8
1
 10
0.622474
 20
1.829628
 11
0.634454
 21
1.818038
  0
LINE
  8
1
 10
0.634454
 20
1.818038
 11
0.646189
 21
1.805851
  0
LINE
  8
1
 10
0.646189
 20
1.805851
 11
0.657712
 21
1.793009
  0
LINE
  8
1
 10
0.657712
 20
1.793009
 11
0.669048
 21
1.779455
  0
LINE
  8
1
 10
0.669048
 20
1.779455
 11
0.680214
 21
1.765133
  0
LINE
  8
1
 10
0.680214
 20
1.765133
 11
0.691215
 21
1.749993
  0
LINE
  8
1
 10
0.691215
 20
1.749993
 11
0.702052
 21
1.733990
  0
LINE
  8
1
 10
0.702052
 20
1.733990
 11
0.712718
 21
1.717082
  0
LINE
  8
1
 10
0.712718
 20
1.717082
 11
0.723200
 21
1.699236
  0
LINE
  8
1
 10
0.723200
 20
1.699236
 11
0.733481
 21
1.680424
  0
LINE
  8
1
 10
0.733481
 20
1.680424
 11
0.743540
 21
1.660626
  0
LINE
  8
1
 10
0.743540
 20
1.660626
 11
0.753357
 21
1.639828
  0
LINE
  8
1
 10
0.753357
 20
1.639828
 11
0.762910
 21
1.618021
  0
LINE
  8
1
 10
0.762910
 20
1.618021
 11
0.772175
 21
1.595203
  0
LINE
  8
1
 10
0.772175
 20
1.595203
 11
0.781132
 21
1.571377
  0
LINE
  8
1
 10
0.781132
 20
1.571377
 11
0.789763
 21
1.546550
  0
LINE
  8
1
 10
0.789763
 20
1.546550
 11
0.798053
 21
1.520732
  0
LINE
  8
1
 10
0.798053
 20
1.520732
 11
0.805989
 21
1.493936
  0
LINE
  8
1
 10
0.805989
 20
1.493936
 11
0.813563
 21
1.466178
  0
LINE
  8
1
 10
0.813563
 20
1.466178
 11
0.820771
 21
1.437473
  0
LINE
  8
1
 10
0.820771
 20
1.437473
 11
0.827613
 21
1.407840
  0
LINE
  8
1
 10
0.827613
 20
1.407840
 11
0.834093
 21
1.377294
  0
LINE
  8
1
 10
0.834093
 20
1.377294
 11
0.840222
 21
1.345854
  0
LINE
  8
1
 10
0.840222
 20
1.345854
 11
0.846012
 21
1.313534
  0
LINE
  8
1
 10
0.846012
 20
1.313534
 11
0.851483
 21
1.280352
  0
LINE
  8
1
 10
0.851483
 20
1.280352
 11
0.856657
 21
1.246322
  0
LINE
  8
1
 10
0.856657
 20
1.246322
 11
0.861560
 21
1.211462
  0
LINE
  8
1
 10
0.861560
 20
1.211462
 11
0.866222
 21
1.175787
  0
LINE
  8
1
 10
0.866222
 20
1.175787
 11
0.870678
 21
1.139316
  0
LINE
  8
1
 10
0.870678
 20
1.139316
 11
0.874964
 21
1.102073
  0
LINE
  8
1
 10
0.874964
 20
1.102073
 11
0.879120
 21
1.064083
  0
LINE
  8
1
 10
0.879120
 20
1.064083
 11
0.883187
 21
1.025380
  0
LINE
  8
1
 10
0.883187
 20
1.025380
 11
0.887208
 21
0.986004
  0
LINE
  8
1
 10
0.887208
 20
0.986004
 11
0.891224
 21
0.946007
  0
LINE
  8
1
 10
0.891224
 20
0.946007
 11
0.895276
 21
0.905450
  0
LINE
  8
1
 10
0.895276
 20
0.905450
 11
0.899404
 21
0.864409
  0
LINE
  8
1
 10
0.899404
 20
0.864409
 11
0.903642
 21
0.822973
  0
LINE
  8
1
 10
0.903642
 20
0.822973
 11
0.908018
 21
0.781246
  0
LINE
  8
1
 10
0.908018
 20
0.781246
 11
0.912555
 21
0.739346
  0
LINE
  8
1
 10
0.912555
 20
0.739346
 11
0.917264
 21
0.697405
  0
LINE
  8
1
 10
0.917264
 20
0.697405
 11
0.922149
 21
0.655567
  0
LINE
  8
1
 10
0.922149
 20
0.655567
 11
0.927200
 21
0.613987
  0
LINE
  8
1
 10
0.927200
 20
0.613987
 11
0.932399
 21
0.572826
  0
LINE
  8
1
 10
0.932399
 20
0.572826
 11
0.937715
 21
0.532247
  0
LINE
  8
1
 10
0.937715
 20
0.532247
 11
0.943106
 21
0.492414
  0
LINE
  8
1
 10
0.943106
 20
0.492414
 11
0.948522
 21
0.453486
  0
LINE
  8
1
 10
0.948522
 20
0.453486
 11
0.953907
 21
0.415611
  0
LINE
  8
1
 10
0.953907
 20
0.415611
 11
0.959200
 21
0.378927
  0
LINE
  8
1
 10
0.959200
 20
0.378927
 11
0.964340
 21
0.343556
  0
LINE
  8
1
 10
0.964340
 20
0.343556
 11
0.969264
 21
0.309600
  0
LINE
  8
1
 10
0.969264
 20
0.309600
 11
0.973917
 21
0.277142
  0
LINE
  8
1
 10
0.973917
 20
0.277142
 11
0.978249
 21
0.246242
  0
LINE
  8
1
 10
0.978249
 20
0.246242
 11
0.982219
 21
0.216937
  0
LINE
  8
1
 10
0.982219
 20
0.216937
 11
0.985796
 21
0.189239
  0
LINE
  8
1
 10
0.985796
 20
0.189239
 11
0.988959
 21
0.163133
  0
LINE
  8
1
 10
0.988959
 20
0.163133
 11
0.991700
 21
0.138578
  0
LINE
  8
1
 10
0.991700
 20
0.138578
 11
0.994019
 21
0.115503
  0
LINE
  8
1
 10
0.994019
 20
0.115503
 11
0.995927
 21
0.093806
  0
LINE
  8
1
 10
0.995927
 20
0.093806
 11
0.997442
 21
0.073354
  0
LINE
  8
1
 10
0.997442
 20
0.073354
 11
0.998585
 21
0.053975
  0
LINE
  8
1
 10
0.998585
 20
0.053975
 11
0.999379
 21
0.035463
  0
LINE
  8
1
 10
0.999379
 20
0.035463
 11
0.999846
 21
0.017568
  0
LINE
  8
1
 10
0.999846
 20
0.017568
 11
1.000000
 21
0.000007
  0
LINE
  8
1
 10
1.000000
 20
0.000007
 11
0.999848
 21
-0.017454
  0
LINE
  8
1
 10
0.999848
 20
-0.017454
 11
0.999391
 21
-0.034907
  0
LINE
  8
1
 10
0.999391
 20
-0.034907
 11
0.998629
 21
-0.052358
  0
LINE
  8
1
 10
0.998629
 20
-0.052358
 11
0.997562
 21
-0.069805
  0
LINE
  8
1
 10
0.997562
 20
-0.069805
 11
0.996191
 21
-0.087248
  0
LINE
  8
1
 10
0.996191
 20
-0.087248
 11
0.994514
 21
-0.104685
  0
LINE
  8
1
 10
0.994514
 20
-0.104685
 11
0.992531
 21
-0.122113
  0
LINE
  8
1
 10
0.992531
 20
-0.122113
 11
0.990243
 21
-0.139531
  0
LINE
  8
1
 10
0.990243
 20
-0.139531
 11
0.987649
 21
-0.156937
  0
LINE
  8
1
 10
0.987649
 20
-0.156937
 11
0.984749
 21
-0.174328
  0
LINE
  8
1
 10
0.984749
 20
-0.174328
 11
0.981543
 21
-0.191702
  0
LINE
  8
1
 10
0.981543
 20
-0.191702
 11
0.978030
 21
-0.209057
  0
LINE
  8
1
 10
0.978030
 20
-0.209057
 11
0.974211
 21
-0.226389
  0
LINE
  8
1
 10
0.974211
 20
-0.226389
 11
0.970085
 21
-0.243696
  0
LINE
  8
1
 10
0.970085
 20
-0.243696
 11
0.965652
 21
-0.260975
  0
LINE
  8
1
 10
0.965652
 20
-0.260975
 11
0.960912
 21
-0.278222
  0
LINE
  8
1
 10
0.960912
 20
-0.278222
 11
0.955866
 21
-0.295436
  0
LINE
  8
1
 10
0.955866
 20
-0.295436
 11
0.950513
 21
-0.312611
  0
LINE
  8
1
 10
0.950513
 20
-0.312611
 11
0.944853
 21
-0.329745
  0
LINE
  8
1
 10
0.944853
 20
-0.329745
 11
0.938887
 21
-0.346835
  0
LINE
  8
1
 10
0.938887
 20
-0.346835
 11
0.932614
 21
-0.363876
  0
LINE
  8
1
 10
0.932614
 20
-0.363876
 11
0.926036
 21
-0.380865
  0
LINE
  8
1
 10
0.926036
 20
-0.380865
 11
0.919153
 21
-0.397799
  0
LINE
  8
1
 10
0.919153
 20
-0.397799
 11
0.911964
 21
-0.414673
  0
LINE
  8
1
 10
0.911964
 20
-0.414673
 11
0.904472
 21
-0.431484
  0
LINE
  8
1
 10
0.904472
 20
-0.431484
 11
0.896675
 21
-0.448227
  0
LINE
  8
1
 10
0.896675
 20
-0.448227
 11
0.888576
 21
-0.464899
  0
LINE
  8
1
 10
0.888576
 20
-0.464899
 11
0.880174
 21
-0.481496
  0
LINE
  8
1
 10
0.880174
 20
-0.481496
 11
0.871470
 21
-0.498013
  0
LINE
  8
1
 10
0.871470
 20
-0.498013
 11
0.862467
 21
-0.514447
  0
LINE
  8
1
 10
0.862467
 20
-0.514447
 11
0.853164
 21
-0.530793
  0
LINE
  8
1
 10
0.853164
 20
-0.530793
 11
0.843562
 21
-0.547047
  0
LINE
  8
1
 10
0.843562
 20
-0.547047
 11
0.833663
 21
-0.563204
  0
LINE
  8
1
 10
0.833663
 20
-0.563204
 11
0.823469
 21
-0.579261
  0
LINE
  8
1
 10
0.823469
 20
-0.579261
 11
0.812980
 21
-0.595213
  0
LINE
  8
1
 10
0.812980
 20
-0.595213
 11
0.802198
 21
-0.611056
  0
LINE
  8
1
 10
0.802198
 20
-0.611056
 11
0.791124
 21
-0.626785
  0
LINE
  8
1
 10
0.791124
 20
-0.626785
 11
0.779760
 21
-0.642396
  0
LINE
  8
1
 10
0.779760
 20
-0.642396
 11
0.768108
 21
-0.657885
  0
LINE
  8
1
 10
0.768108
 20
-0.657885
 11
0.756170
 21
-0.673247
  0
LINE
  8
1
 10
0.756170
 20
-0.673247
 11
0.743946
 21
-0.688479
  0
LINE
  8
1
 10
0.743946
 20
-0.688479
 11
0.731440
 21
-0.703574
  0
LINE
  8
1
 10
0.731440
 20
-0.703574
 11
0.718653
 21
-0.718530
  0
LINE
  8
1
 10
0.718653
 20
-0.718530
 11
0.705587
 21
-0.733342
  0
LINE
  8
1
 10
0.705587
 20
-0.733342
 11
0.692245
 21
-0.748004
  0
LINE
  8
1
 10
0.692245
 20
-0.748004
 11
0.678628
 21
-0.762514
  0
LINE
  8
1
 10
0.678628
 20
-0.762514
 11
0.664739
 21
-0.776867
  0
LINE
  8
1
 10
0.664739
 20
-0.776867
 11
0.650580
 21
-0.791057
  0
LINE
  8
1
 10
0.650580
 20
-0.791057
 11
0.636154
 21
-0.805081
  0
LINE
  8
1
 10
0.636154
 20
-0.805081
 11
0.621463
 21
-0.818935
  0
LINE
  8
1
 10
0.621463
 20
-0.818935
 11
0.606509
 21
-0.832613
  0
LINE
  8
1
 10
0.606509
 20
-0.832613
 11
0.591295
 21
-0.846113
  0
LINE
  8
1
 10
0.591295
 20
-0.846113
 11
0.575824
 21
-0.859428
  0
LINE
  8
1
 10
0.575824
 20
-0.859428
 11
0.560099
 21
-0.872556
  0
LINE
  8
1
 10
0.560099
 20
-0.872556
 11
0.544122
 21
-0.885491
  0
LINE
  8
1
 10
0.544122
 20
-0.885491
 11
0.527896
 21
-0.898229
  0
LINE
  8
1
 10
0.527896
 20
-0.898229
 11
0.511425
 21
-0.910767
  0
LINE
  8
1
 10
0.511425
 20
-0.910767
 11
0.494710
 21
-0.923099
  0
LINE
  8
1
 10
0.494710
 20
-0.923099
 11
0.477755
 21
-0.935222
  0
LINE
  8
1
 10
0.477755
 20
-0.935222
 11
0.460563
 21
-0.947130
  0
LINE
  8
1
 10
0.460563
 20
-0.947130
 11
0.443137
 21
-0.958821
  0
LINE
  8
1
 10
0.443137
 20
-0.958821
 11
0.425480
 21
-0.970290
  0
LINE
  8
1
 10
0.425480
 20
-0.970290
 11
0.407596
 21
-0.981532
  0
LINE
  8
1
 10
0.407596
 20
-0.981532
 11
0.389488
 21
-0.992543
  0
LINE
  8
1
 10
0.389488
 20
-0.992543
 11
0.371158
 21
-1.003319
  0
LINE
  8
1
 10
0.371158
 20
-1.003319
 11
0.352611
 21
-1.013857
  0
LINE
  8
1
 10
0.352611
 20
-1.013857
 11
0.333849
 21
-1.024151
  0
LINE
  8
1
 10
0.333849
 20
-1.024151
 11
0.314877
 21
-1.034197
  0
LINE
  8
1
 10
0.314877
 20
-1.034197
 11
0.295697
 21
-1.043992
  0
LINE
  8
1
 10
0.295697
 20
-1.043992
 11
0.276313
 21
-1.053531
  0
LINE
  8
1
 10
0.276313
 20
-1.053531
 11
0.256729
 21
-1.062811
  0
LINE
  8
1
 10
0.256729
 20
-1.062811
 11
0.236948
 21
-1.071826
  0
LINE
  8
1
 10
0.236948
 20
-1.071826
 11
0.216974
 21
-1.080574
  0
LINE
  8
1
 10
0.216974
 20
-1.080574
 11
0.196811
 21
-1.089049
  0
LINE
  8
1
 10
0.196811
 20
-1.089049
 11
0.176462
 21
-1.097248
  0
LINE
  8
1
 10
0.176462
 20
-1.097248
 11
0.155931
 21
-1.105167
  0
LINE
  8
1
 10
0.155931
 20
-1.105167
 11
0.135222
 21
-1.112802
  0
LINE
  8
1
 10
0.135222
 20
-1.112802
 11
0.114339
 21
-1.120148
  0
LINE
  8
1
 10
0.114339
 20
-1.120148
 11
0.093286
 21
-1.127202
  0
LINE
  8
1
 10
0.093286
 20
-1.127202
 11
0.072066
 21
-1.133960
  0
LINE
  8
1
 10
0.072066
 20
-1.133960
 11
0.050685
 21
-1.140417
  0
LINE
  8
1
 10
0.050685
 20
-1.140417
 11
0.029145
 21
-1.146570
  0
LINE
  8
1
 10
0.029145
 20
-1.146570
 11
0.007452
 21
-1.152415
  0
LINE
  8
1
 10
0.007452
 20
-1.152415
 11
-0.014391
 21
-1.157947
  0
LINE
  8
1
 10
-0.014391
 20
-1.157947
 11
-0.036380
 21
-1.163163
  0
LINE
  8
1
 10
-0.036380
 20
-1.163163
 11
-0.058509
 21
-1.168059
  0
LINE
  8
1
 10
-0.058509
 20
-1.168059
 11
-0.080776
 21
-1.172630
  0
LINE
  8
1
 10
-0.080776
 20
-1.172630
 11
-0.103174
 21
-1.176874
  0
LINE
  8
1
 10
-0.103174
 20
-1.176874
 11
-0.125700
 21
-1.180786
  0
LINE
  8
1
 10
-0.125700
 20
-1.180786
 11
-0.148349
 21
-1.184362
  0
LINE
  8
1
 10
-0.148349
 20
-1.184362
 11
-0.171116
 21
-1.187598
  0
LINE
  8
1
 10
-0.171116
 20
-1.187598
 11
-0.193997
 21
-1.190491
  0
LINE
  8
1
 10
-0.193997
 20
-1.190491
 11
-0.216987
 21
-1.193036
  0
LINE
  8
1
 10
-0.216987
 20
-1.193036
 11
-0.240081
 21
-1.195231
  0
LINE
  8
1
 10
-0.240081
 20
-1.195231
 11
-0.263273
 21
-1.197070
  0
LINE
  8
1
 10
-0.263273
 20
-1.197070
 11
-0.286559
 21
-1.198551
  0
LINE
  8
1
 10
-0.286559
 20
-1.198551
 11
-0.309934
 21
-1.199670
  0
LINE
  8
1
 10
-0.309934
 20
-1.199670
 11
-0.333391
 21
-1.200423
  0
LINE
  8
1
 10
-0.333391
 20
-1.200423
 11
-0.356927
 21
-1.200806
  0
LINE
  8
1
 10
-0.356927
 20
-1.200806
 11
-0.380535
 21
-1.200816
  0
LINE
  8
1
 10
-0.380535
 20
-1.200816
 11
-0.404210
 21
-1.200450
  0
LINE
  8
1
 10
-0.404210
 20
-1.200450
 11
-0.427946
 21
-1.199703
  0
LINE
  8
1
 10
-0.427946
 20
-1.199703
 11
-0.451738
 21
-1.198573
  0
LINE
  8
1
 10
-0.451738
 20
-1.198573
 11
-0.475578
 21
-1.197055
  0
LINE
  8
1
 10
-0.475578
 20
-1.197055
 11
-0.499463
 21
-1.195148
  0
LINE
  8
1
 10
-0.499463
 20
-1.195148
 11
-0.523384
 21
-1.192846
  0
LINE
  8
1
 10
-0.523384
 20
-1.192846
 11
-0.547337
 21
-1.190148
  0
LINE
  8
1
 10
-0.547337
 20
-1.190148
 11
-0.571315
 21
-1.187050
  0
LINE
  8
1
 10
-0.571315
 20
-1.187050
 11
-0.595311
 21
-1.183549
  0
LINE
  8
1
 10
-0.595311
 20
-1.183549
 11
-0.619319
 21
-1.179641
  0
LINE
  8
1
 10
-0.619319
 20
-1.179641
 11
-0.643331
 21
-1.175325
  0
LINE
  8
1
 10
-0.643331
 20
-1.175325
 11
-0.667342
 21
-1.170597
  0
LINE
  8
1
 10
-0.667342
 20
-1.170597
 11
-0.691345
 21
-1.165454
  0
LINE
  8
1
 10
-0.691345
 20
-1.165454
 11
-0.715331
 21
-1.159894
  0
LINE
  8
1
 10
-0.715331
 20
-1.159894
 11
-0.739295
 21
-1.153915
  0
LINE
  8
1
 10
-0.739295
 20
-1.153915
 11
-0.763228
 21
-1.147513
  0
LINE
  8
1
 10
-0.763228
 20
-1.147513
 11
-0.787124
 21
-1.140687
  0
LINE
  8
1
 10
-0.787124
 20
-1.140687
 11
-0.810974
 21
-1.133435
  0
LINE
  8
1
 10
-0.810974
 20
-1.133435
 11
-0.834772
 21
-1.125754
  0
LINE
  8
1
 10
-0.834772
 20
-1.125754
 11
-0.858509
 21
-1.117642
  0
LINE
  8
1
 10
-0.858509
 20
-1.117642
 11
-0.882177
 21
-1.109098
  0
LINE
  8
1
 10
-0.882177
 20
-1.109098
 11
-0.905768
 21
-1.100120
  0
LINE
  8
1
 10
-0.905768
 20
-1.100120
 11
-0.929275
 21
-1.090707
  0
LINE
  8
1
 10
-0.929275
 20
-1.090707
 11
-0.952689
 21
-1.080856
  0
LINE
  8
1
 10
-0.952689
 20
-1.080856
 11
-0.976001
 21
-1.070568
  0
LINE
  8
1
 10
-0.976001
 20
-1.070568
 11
-0.999203
 21
-1.059841
  0
LINE
  8
1
 10
-0.999203
 20
-1.059841
 11
-1.022287
 21
-1.048674
  0
LINE
  8
1
 10
-1.022287
 20
-1.048674
 11
-1.045243
 21
-1.037066
  0
LINE
  8
1
 10
-1.045243
 20
-1.037066
 11
-1.068063
 21
-1.025017
  0
LINE
  8
1
 10
-1.068063
 20
-1.025017
 11
-1.090739
 21
-1.012527
  0
LINE
  8
1
 10
-1.090739
 20
-1.012527
 11
-1.113260
 21
-0.999595
  0
LINE
  8
1
 10
-1.113260
 20
-0.999595
 11
-1.135619
 21
-0.986222
  0
LINE
  8
1
 10
-1.135619
 20
-0.986222
 11
-1.157805
 21
-0.972408
  0
LINE
  8
1
 10
-1.157805
 20
-0.972408
 11
-1.179811
 21
-0.958154
  0
LINE
  8
1
 10
-1.179811
 20
-0.958154
 11
-1.201625
 21
-0.943459
  0
LINE
  8
1
 10
-1.201625
 20
-0.943459
 11
-1.223239
 21
-0.928326
  0
LINE
  8
1
 10
-1.223239
 20
-0.928326
 11
-1.244644
 21
-0.912755
  0
LINE
  8
1
 10
-1.244644
 20
-0.912755
 11
-1.265830
 21
-0.896747
  0
LINE
  8
1
 10
-1.265830
 20
-0.896747
 11
-1.286787
 21
-0.880304
  0
LINE
  8
1
 10
-1.286787
 20
-0.880304
 11
-1.307506
 21
-0.863429
  0
LINE
  8
1
 10
-1.307506
 20
-0.863429
 11
-1.327977
 21
-0.846123
  0
LINE
  8
1
 10
-1.327977
 20
-0.846123
 11
-1.348191
 21
-0.828388
  0
LINE
  8
1
 10
-1.348191
 20
-0.828388
 11
-1.368137
 21
-0.810227
  0
LINE
  8
1
 10
-1.368137
 20
-0.810227
 11
-1.387807
 21
-0.791642
  0
LINE
  8
1
 10
-1.387807
 20
-0.791642
 11
-1.407190
 21
-0.772638
  0
LINE
  8
1
 10
-1.407190
 20
-0.772638
 11
-1.426276
 21
-0.753217
  0
LINE
  8
1
 10
-1.426276
 20
-0.753217
 11
-1.445057
 21
-0.733382
  0
LINE
  8
1
 10
-1.445057
 20
-0.733382
 11
-1.463522
 21
-0.713138
  0
LINE
  8
1
 10
-1.463522
 20
-0.713138
 11
-1.481661
 21
-0.692489
  0
LINE
  8
1
 10
-1.481661
 20
-0.692489
 11
-1.499465
 21
-0.671438
  0
LINE
  8
1
 10
-1.499465
 20
-0.671438
 11
-1.516925
 21
-0.649991
  0
LINE
  8
1
 10
-1.516925
 20
-0.649991
 11
-1.534030
 21
-0.628153
  0
LINE
  8
1
 10
-1.534030
 20
-0.628153
 11
-1.550771
 21
-0.605928
  0
LINE
  8
1
 10
-1.550771
 20
-0.605928
 11
-1.567140
 21
-0.583321
  0
LINE
  8
1
 10
-1.567140
 20
-0.583321
 11
-1.583125
 21
-0.560340
  0
LINE
  8
1
 10
-1.583125
 20
-0.560340
 11
-1.598718
 21
-0.536989
  0
LINE
  8
1
 10
-1.598718
 20
-0.536989
 11
-1.613910
 21
-0.513274
  0
LINE
  8
1
 10
-1.613910
 20
-0.513274
 11
-1.628692
 21
-0.489203
  0
LINE
  8
1
 10
-1.628692
 20
-0.489203
 11
-1.643054
 21
-0.464781
  0
LINE
  8
1
 10
-1.643054
 20
-0.464781
 11
-1.656988
 21
-0.440016
  0
LINE
  8
1
 10
-1.656988
 20
-0.440016
 11
-1.670485
 21
-0.414914
  0
LINE
  8
1
 10
-1.670485
 20
-0.414914
 11
-1.683535
 21
-0.389484
  0
LINE
  8
1
 10
-1.683535
 20
-0.389484
 11
-1.696132
 21
-0.363733
  0
LINE
  8
1
 10
-1.696132
 20
-0.363733
 11
-1.708265
 21
-0.337669
  0
LINE
  8
1
 10
-1.708265
 20
-0.337669
 11
-1.719928
 21
-0.311300
  0
LINE
  8
1
 10
-1.719928
 20
-0.311300
 11
-1.731111
 21
-0.284635
  0
LINE
  8
1
 10
-1.731111
 20
-0.284635
 11
-1.741808
 21
-0.257681
  0
LINE
  8
1
 10
-1.741808
 20
-0.257681
 11
-1.752009
 21
-0.230449
  0
LINE
  8
1
 10
-1.752009
 20
-0.230449
 11
-1.761708
 21
-0.202947
  0
LINE
  8
1
 10
-1.761708
 20
-0.202947
 11
-1.770898
 21
-0.175184
  0
LINE
  8
1
 10
-1.770898
 20
-0.175184
 11
-1.779571
 21
-0.147170
  0
LINE
  8
1
 10
-1.779571
 20
-0.147170
 11
-1.787719
 21
-0.118915
  0
LINE
  8
1
 10
-1.787719
 20
-0.118915
 11
-1.795337
 21
-0.090429
  0
LINE
  8
1
 10
-1.795337
 20
-0.090429
 11
-1.802418
 21
-0.061722
  0
LINE
  8
1
 10
-1.802418
 20
-0.061722
 11
-1.808956
 21
-0.032804
  0
LINE
  8
1
 10
-1.808956
 20
-0.032804
 11
-1.814944
 21
-0.003685
  0
LINE
  8
1
 10
-1.814944
 20
-0.003685
 11
-1.820377
 21
0.025623
  0
LINE
  8
1
 10
-1.820377
 20
0.025623
 11
-1.825249
 21
0.055109
  0
LINE
  8
1
 10
-1.825249
 20
0.055109
 11
-1.829554
 21
0.084764
  0
LINE
  8
1
 10
-1.829554
 20
0.084764
 11
-1.833289
 21
0.114574
  0
LINE
  8
1
 10
-1.833289
 20
0.114574
 11
-1.836447
 21
0.144530
  0
LINE
  8
1
 10
-1.836447
 20
0.144530
 11
-1.839024
 21
0.174619
  0
LINE
  8
1
 10
-1.839024
 20
0.174619
 11
-1.841016
 21
0.204830
  0
LINE
  8
1
 10
-1.841016
 20
0.204830
 11
-1.842419
 21
0.235151
  0
LINE
  8
1
 10
-1.842419
 20
0.235151
 11
-1.843230
 21
0.265570
  0
LINE
  8
1
 10
-1.843230
 20
0.265570
 11
-1.843444
 21
0.296075
  0
LINE
  8
1
 10
-1.843444
 20
0.296075
 11
-1.843059
 21
0.326655
  0
LINE
  8
1
 10
-1.843059
 20
0.326655
 11
-1.842072
 21
0.357296
  0
LINE
  8
1
 10
-1.842072
 20
0.357296
 11
-1.840480
 21
0.387987
  0
LINE
  8
1
 10
-1.840480
 20
0.387987
 11
-1.838281
 21
0.418716
  0
LINE
  8
1
 10
-1.838281
 20
0.418716
 11
-1.835472
 21
0.449469
  0
LINE
  8
1
 10
-1.835472
 20
0.449469
 11
-1.832053
 21
0.480234
  0
LINE
  8
1
 10
-1.832053
 20
0.480234
 11
-1.828022
 21
0.511000
  0
LINE
  8
1
 10
-1.828022
 20
0.511000
 11
-1.823377
 21
0.541752
  0
LINE
  8
1
 10
-1.823377
 20
0.541752
 11
-1.818118
 21
0.572479
  0
LINE
  8
1
 10
-1.818118
 20
0.572479
 11
-1.812245
 21
0.603168
  0
LINE
  8
1
 10
-1.812245
 20
0.603168
 11
-1.805757
 21
0.633806
  0
LINE
  8
1
 10
-1.805757
 20
0.633806
 11
-1.798654
 21
0.664381
  0
LINE
  8
1
 10
-1.798654
 20
0.664381
 11
-1.790937
 21
0.694880
  0
LINE
  8
1
 10
-1.790937
 20
0.694880
 11
-1.782607
 21
0.725290
  0
LINE
  8
1
 10
-1.782607
 20
0.725290
 11
-1.773664
 21
0.755599
  0
LINE
  8
1
 10
-1.773664
 20
0.755599
 11
-1.764110
 21
0.785794
  0
LINE
  8
1
 10
-1.764110
 20
0.785794
 11
-1.753947
 21
0.815862
  0
LINE
  8
1
 10
-1.753947
 20
0.815862
 11
-1.743176
 21
0.845791
  0
LINE
  8
1
 10
-1.743176
 20
0.845791
 11
-1.731800
 21
0.875568
  0
LINE
  8
1
 10
-1.731800
 20
0.875568
 11
-1.719821
 21
0.905182
  0
LINE
  8
1
 10
-1.719821
 20
0.905182
 11
-1.707243
 21
0.934619
  0
LINE
  8
1
 10
-1.707243
 20
0.934619
 11
-1.694067
 21
0.963868
  0
LINE
  8
1
 10
-1.694067
 20
0.963868
 11
-1.680298
 21
0.992916
  0
LINE
  8
1
 10
-1.680298
 20
0.992916
 11
-1.665940
 21
1.021750
  0
LINE
  8
1
 10
-1.665940
 20
1.021750
 11
-1.650995
 21
1.050361
  0
LINE
  8
1
 10
-1.650995
 20
1.050361
 11
-1.635469
 21
1.078734
  0
LINE
  8
1
 10
-1.635469
 20
1.078734
 11
-1.619367
 21
1.106859
  0
LINE
  8
1
 10
-1.619367
 20
1.106859
 11
-1.602692
 21
1.134723
  0
LINE
  8
1
 10
-1.602692
 20
1.134723
 11
-1.585450
 21
1.162316
  0
LINE
  8
1
 10
-1.585450
 20
1.162316
 11
-1.567646
 21
1.189626
  0
LINE
  8
1
 10
-1.567646
 20
1.189626
 11
-1.549285
 21
1.216641
  0
LINE
  8
1
 10
-1.549285
 20
1.216641
 11
-1.530375
 21
1.243351
  0
LINE
  8
1
 10
-1.530375
 20
1.243351
 11
-1.510920
 21
1.269744
  0
LINE
  8
1
 10
-1.510920
 20
1.269744
 11
-1.490927
 21
1.295810
  0
LINE
  8
1
 10
-1.490927
 20
1.295810
 11
-1.470402
 21
1.321539
  0
LINE
  8
1
 10
-1.470402
 20
1.321539
 11
-1.449353
 21
1.346919
  0
LINE
  8
1
 10
-1.449353
 20
1.346919
 11
-1.427786
 21
1.371940
  0
LINE
  8
1
 10
-1.427786
 20
1.371940
 11
-1.405709
 21
1.396593
  0
LINE
  8
1
 10
-1.405709
 20
1.396593
 11
-1.383128
 21
1.420866
  0
LINE
  8
1
 10
-1.383128
 20
1.420866
 11
-1.360052
 21
1.444752
  0
LINE
  8
1
 10
-1.360052
 20
1.444752
 11
-1.336489
 21
1.468239
  0
LINE
  8
1
 10
-1.336489
 20
1.468239
 11
-1.312446
 21
1.491319
  0
LINE
  8
1
 10
-1.312446
 20
1.491319
 11
-1.287932
 21
1.513983
  0
LINE
  8
1
 10
-1.287932
 20
1.513983
 11
-1.262956
 21
1.536221
  0
LINE
  8
1
 10
-1.262956
 20
1.536221
 11
-1.237525
 21
1.558025
  0
LINE
  8
1
 10
-1.237525
 20
1.558025
 11
-1.211649
 21
1.579386
  0
LINE
  8
1
 10
-1.211649
 20
1.579386
 11
-1.185337
 21
1.600295
  0
LINE
  8
1
 10
-1.185337
 20
1.600295
 11
-1.158597
 21
1.620746
  0
LINE
  8
1
 10
-1.158597
 20
1.620746
 11
-1.131440
 21
1.640729
  0
LINE
  8
1
 10
-1.131440
 20
1.640729
 11
-1.103874
 21
1.660237
  0
LINE
  8
1
 10
-1.103874
 20
1.660237
 11
-1.075910
 21
1.679262
  0
LINE
  8
1
 10
-1.075910
 20
1.679262
 11
-1.047557
 21
1.697798
  0
LINE
  8
1
 10
-1.047557
 20
1.697798
 11
-1.018825
 21
1.715837
  0
LINE
  8
1
 10
-1.018825
 20
1.715837
 11
-0.989724
 21
1.733372
  0
LINE
  8
1
 10
-0.989724
 20
1.733372
 11
-0.960264
 21
1.750397
  0
LINE
  8
1
 10
-0.960264
 20
1.750397
 11
-0.930456
 21
1.766904
  0
LINE
  8
1
 10
-0.930456
 20
1.766904
 11
-0.900310
 21
1.782889
  0
LINE
  8
1
 10
-0.900310
 20
1.782889
 11
-0.869837
 21
1.798345
  0
LINE
  8
1
 10
-0.869837
 20
1.798345
 11
-0.839047
 21
1.813266
  0
LINE
  8
1
 10
-0.839047
 20
1.813266
 11
-0.807952
 21
1.827646
  0
LINE
  8
1
 10
-0.807952
 20
1.827646
 11
-0.776561
 21
1.841481
  0
LINE
  8
1
 10
-0.776561
 20
1.841481
 11
-0.744887
 21
1.854765
  0
LINE
  8
1
 10
-0.744887
 20
1.854765
 11
-0.712941
 21
1.867493
  0
LINE
  8
1
 10
-0.712941
 20
1.867493
 11
-0.680733
 21
1.879660
  0
LINE
  8
1
 10
-0.680733
 20
1.879660
 11
-0.648275
 21
1.891263
  0
LINE
  8
1
 10
-0.648275
 20
1.891263
 11
-0.615579
 21
1.902297
  0
LINE
  8
1
 10
-0.615579
 20
1.902297
 11
-0.582656
 21
1.912757
  0
LINE
  8
1
 10
-0.582656
 20
1.912757
 11
-0.549518
 21
1.922641
  0
LINE
  8
1
 10
-0.549518
 20
1.922641
 11
-0.516176
 21
1.931943
  0
LINE
  8
1
 10
-0.516176
 20
1.931943
 11
-0.482643
 21
1.940662
  0
LINE
  8
1
 10
-0.482643
 20
1.940662
 11
-0.448931
 21
1.948793
  0
LINE
  8
1
 10
-0.448931
 20
1.948793
 11
-0.415052
 21
1.956334
  0
LINE
  8
1
 10
-0.415052
 20
1.956334
 11
-0.381017
 21
1.963282
  0
LINE
  8
1
 10
-0.381017
 20
1.963282
 11
-0.346840
 21
1.969635
  0
LINE
  8
1
 10
-0.346840
 20
1.969635
 11
-0.312532
 21
1.975390
  0
LINE
  8
1
 10
-0.312532
 20
1.975390
 11
-0.278106
 21
1.980545
  0
LINE
  8
1
 10
-0.278106
 20
1.980545
 11
-0.243576
 21
1.985097
  0
LINE
  8
1
 10
-0.243576
 20
1.985097
 11
-0.208952
 21
1.989047
  0
LINE
  8
1
 10
-0.208952
 20
1.989047
 11
-0.174250
 21
1.992391
  0
LINE
  8
1
 10
-0.174250
 20
1.992391
 11
-0.139480
 21
1.995129
  0
LINE
  8
1
 10
-0.139480
 20
1.995129
 11
-0.104657
 21
1.997259
  0
LINE
  8
1
 10
-0.104657
 20
1.997259
 11
-0.069794
 21
1.998782
  0
LINE
  8
1
 10
-0.069794
 20
1.998782
 11
-0.034904
 21
1.999695
  0
LINE
  8
1
 10
-0.034904
 20
1.999695
 11
-0.000005
 21
2.000000
  0
ENDSEC
  0
EOF
