  0
SECTION
  2
HEADER
  9
$EXTMIN
 10
-1.869219
 20
-1.273769
  9
$EXTMAX
 10
1.000462
 20
2.000000
  0
ENDSEC
  0
SECTION
  2
TABLES
  0
TABLE
  2
LTYPE
 70
1
  0
LTYPE
  2
CONTINUOUS
 70
64
  3
Solid Line
 72
65
 73
0
 40
0.000000
  0
ENDTAB
  0
TABLE
  2
LAYER
 70
16
  0
LAYER
  2
0
 70
0
 62
7
  6
CONTINUOUS
  0
LAYER
  2
1
 70
0
 62
7
  6
CONTINUOUS
  0
LAYER
  2
2
 70
0
 62
7
  6
CONTINUOUS
  0
LAYER
  2
3
 70
0
 62
7
  6
CONTINUOUS
  0
LAYER
  2
4
 70
0
 62
7
  6
CONTINUOUS
  0
LAYER
  2
5
 70
0
 62
7
  6
CONTINUOUS
  0
LAYER
  2
6
 70
0
 62
7
  6
CONTINUOUS
  0
LAYER
  2
7
 70
0
 62
7
  6
CONTINUOUS
  0
LAYER
  2
8
 70
0
 62
7
  6
CONTINUOUS
  0
LAYER
  2
9
 70
0
 62
7
  6
CONTINUOUS
  0
LAYER
  2
10
 70
0
 62
7
  6
CONTINUOUS
  0
LAYER
  2
11
 70
0
 62
7
  6
CONTINUOUS
  0
LAYER
  2
12
 70
0
 62
7
  6
CONTINUOUS
  0
LAYER
  2
13
 70
0
 62
7
  6
CONTINUOUS
  0
LAYER
  2
14
 70
0
 62
7
  6
CONTINUOUS
  0
LAYER
  2
15
 70
0
 62
7
  6
CONTINUOUS
  0
ENDTAB
  0
ENDSEC
  0
SECTION
  2
ENTITIES
  0
LINE
  8
1
 10
-0.000012
 20
2.000000
 11
0.034719
 21
1.999697
  0
LINE
  8
1
 10
0.034719
 20
1.999697
 11
0.068901
 21
1.998794
  0
LINE
  8
1
 10
0.068901
 20
1.998794
 11
0.102078
 21
1.997303
  0
LINE
  8
1
 10
0.102078
 20
1.997303
 11
0.133866
 21
1.995247
  0
LINE
  8
1
 10
0.133866
 20
1.995247
 11
0.163959
 21
1.992660
  0
LINE
  8
1
 10
0.163959
 20
1.992660
 11
0.192124
 21
1.989586
  0
LINE
  8
1
 10
0.192124
 20
1.989586
 11
0.218195
 21
1.986082
  0
LINE
  8
1
 10
0.218195
 20
1.986082
 11
0.242067
 21
1.982216
  0
LINE
  8
1
 10
0.242067
 20
1.982216
 11
0.263696
 21
1.978064
  0
LINE
  8
1
 10
0.263696
 20
1.978064
 11
0.283093
 21
1.973708
  0
LINE
  8
1
 10
0.283093
 20
1.973708
 11
0.300322
 21
1.969230
  0
LINE
  8
1
 10
0.300322
 20
1.969230
 11
0.315494
 21
1.964707
  0
LINE
  8
1
 10
0.315494
 20
1.964707
 11
0.328763
 21
1.960206
  0
LINE
  8
1
 10
0.328763
 20
1.960206
 11
0.340322
 21
1.955774
  0
LINE
  8
1
 10
0.340322
 20
1.955774
 11
0.350393
 21
1.951434
  0
LINE
  8
1
 10
0.350393
 20
1.951434
 11
0.359221
 21
1.947180
  0
LINE
  8
1
 10
0.359221
 20
1.947180
 11
0.367061
 21
1.942973
  0
LINE
  8
1
 10
0.367061
 20
1.942973
 11
0.374173
 21
1.938741
  0
LINE
  8
1
 10
0.374173
 20
1.938741
 11
0.380806
 21
1.934378
  0
LINE
  8
1
 10
0.380806
 20
1.934378
 11
0.387192
 21
1.929750
  0
LINE
  8
1
 10
0.387192
 20
1.929750
 11
0.393536
 21
1.924697
  0
LINE
  8
1
 10
0.393536
 20
1.924697
 11
0.400011
 21
1.919044
  0
LINE
  8
1
 10
0.400011
 20
1.919044
 11
0.406754
 21
1.912604
  0
LINE
  8
1
 10
0.406754
 20
1.912604
 11
0.413862
 21
1.905190
  0
LINE
  8
1
 10
0.413862
 20
1.905190
 11
0.421395
 21
1.896624
  0
LINE
  8
1
 10
0.421395
 20
1.896624
 11
0.429380
 21
1.886738
  0
LINE
  8
1
 10
0.429380
 20
1.886738
 11
0.437812
 21
1.875384
  0
LINE
  8
1
 10
0.437812
 20
1.875384
 11
0.446659
 21
1.862436
  0
LINE
  8
1
 10
0.446659
 20
1.862436
 11
0.455873
 21
1.847792
  0
LINE
  8
1
 10
0.455873
 20
1.847792
 11
0.465389
 21
1.831377
  0
LINE
  8
1
 10
0.465389
 20
1.831377
 11
0.475138
 21
1.813138
  0
LINE
  8
1
 10
0.475138
 20
1.813138
 11
0.485045
 21
1.793044
  0
LINE
  8
1
 10
0.485045
 20
1.793044
 11
0.495038
 21
1.771087
  0
LINE
  8
1
 10
0.495038
 20
1.771087
 11
0.505051
 21
1.747272
  0
LINE
  8
1
 10
0.505051
 20
1.747272
 11
0.515028
 21
1.721617
  0
LINE
  8
1
 10
0.515028
 20
1.721617
 11
0.524921
 21
1.694152
  0
LINE
  8
1
 10
0.524921
 20
1.694152
 11
0.534698
 21
1.664910
  0
LINE
  8
1
 10
0.534698
 20
1.664910
 11
0.544338
 21
1.633927
  0
LINE
  8
1
 10
0.544338
 20
1.633927
 11
0.553837
 21
1.601241
  0
LINE
  8
1
 10
0.553837
 20
1.601241
 11
0.563205
 21
1.566884
  0
LINE
  8
1
 10
0.563205
 20
1.566884
 11
0.572466
 21
1.530888
  0
LINE
  8
1
 10
0.572466
 20
1.530888
 11
0.581660
 21
1.493280
  0
LINE
  8
1
 10
0.581660
 20
1.493280
 11
0.590842
 21
1.454083
  0
LINE
  8
1
 10
0.590842
 20
1.454083
 11
0.600078
 21
1.413319
  0
LINE
  8
1
 10
0.600078
 20
1.413319
 11
0.609451
 21
1.371012
  0
LINE
  8
1
 10
0.609451
 20
1.371012
 11
0.619052
 21
1.327193
  0
LINE
  8
1
 10
0.619052
 20
1.327193
 11
0.628983
 21
1.281906
  0
LINE
  8
1
 10
0.628983
 20
1.281906
 11
0.639351
 21
1.235213
  0
LINE
  8
1
 10
0.639351
 20
1.235213
 11
0.650266
 21
1.187207
  0
LINE
  8
1
 10
0.650266
 20
1.187207
 11
0.661833
 21
1.138016
  0
LINE
  8
1
 10
0.661833
 20
1.138016
 11
0.674145
 21
1.087813
  0
LINE
  8
1
 10
0.674145
 20
1.087813
 11
0.687276
 21
1.036818
  0
LINE
  8
1
 10
0.687276
 20
1.036818
 11
0.701268
 21
0.985308
  0
LINE
  8
1
 10
0.701268
 20
0.985308
 11
0.716124
 21
0.933608
  0
LINE
  8
1
 10
0.716124
 20
0.933608
 11
0.731799
 21
0.882087
  0
LINE
  8
1
 10
0.731799
 20
0.882087
 11
0.748195
 21
0.831147
  0
LINE
  8
1
 10
0.748195
 20
0.831147
 11
0.765160
 21
0.781203
  0
LINE
  8
1
 10
0.765160
 20
0.781203
 11
0.782494
 21
0.732670
  0
LINE
  8
1
 10
0.782494
 20
0.732670
 11
0.799957
 21
0.685936
  0
LINE
  8
1
 10
0.799957
 20
0.685936
 11
0.817285
 21
0.641349
  0
LINE
  8
1
 10
0.817285
 20
0.641349
 11
0.834205
 21
0.599203
  0
LINE
  8
1
 10
0.834205
 20
0.599203
 11
0.850455
 21
0.559725
  0
LINE
  8
1
 10
0.850455
 20
0.559725
 11
0.865804
 21
0.523072
  0
LINE
  8
1
 10
0.865804
 20
0.523072
 11
0.880058
 21
0.489330
  0
LINE
  8
1
 10
0.880058
 20
0.489330
 11
0.893082
 21
0.458510
  0
LINE
  8
1
 10
0.893082
 20
0.458510
 11
0.904798
 21
0.430548
  0
LINE
  8
1
 10
0.904798
 20
0.430548
 11
0.915193
 21
0.405309
  0
LINE
  8
1
 10
0.915193
 20
0.405309
 11
0.924318
 21
0.382573
  0
LINE
  8
1
 10
0.924318
 20
0.382573
 11
0.932283
 21
0.362035
  0
LINE
  8
1
 10
0.932283
 20
0.362035
 11
0.939251
 21
0.343293
  0
LINE
  8
1
 10
0.939251
 20
0.343293
 11
0.945429
 21
0.325832
  0
LINE
  8
1
 10
0.945429
 20
0.325832
 11
0.951051
 21
0.309034
  0
LINE
  8
1
 10
0.951051
 20
0.309034
 11
0.956305
 21
0.292371
  0
LINE
  8
1
 10
0.956305
 20
0.292371
 11
0.961263
 21
0.275632
  0
LINE
  8
1
 10
0.961263
 20
0.275632
 11
0.965931
 21
0.258803
  0
LINE
  8
1
 10
0.965931
 20
0.258803
 11
0.970306
 21
0.241885
  0
LINE
  8
1
 10
0.970306
 20
0.241885
 11
0.974389
 21
0.224882
  0
LINE
  8
1
 10
0.974389
 20
0.224882
 11
0.978179
 21
0.207794
  0
LINE
  8
1
 10
0.978179
 20
0.207794
 11
0.981675
 21
0.190625
  0
LINE
  8
1
 10
0.981675
 20
0.190625
 11
0.984875
 21
0.173378
  0
LINE
  8
1
 10
0.984875
 20
0.173378
 11
0.987780
 21
0.156053
  0
LINE
  8
1
 10
0.987780
 20
0.156053
 11
0.990388
 21
0.138656
  0
LINE
  8
1
 10
0.990388
 20
0.138656
 11
0.992699
 21
0.121187
  0
LINE
  8
1
 10
0.992699
 20
0.121187
 11
0.994710
 21
0.103651
  0
LINE
  8
1
 10
0.994710
 20
0.103651
 11
0.996423
 21
0.086051
  0
LINE
  8
1
 10
0.996423
 20
0.086051
 11
0.997835
 21
0.068389
  0
LINE
  8
1
 10
0.997835
 20
0.068389
 11
0.998945
 21
0.050668
  0
LINE
  8
1
 10
0.998945
 20
0.050668
 11
0.999754
 21
0.032893
  0
LINE
  8
1
 10
0.999754
 20
0.032893
 11
1.000260
 21
0.015067
  0
LINE
  8
1
 10
1.000260
 20
0.015067
 11
1.000462
 21
-0.002808
  0
LINE
  8
1
 10
1.000462
 20
-0.002808
 11
1.000360
 21
-0.020726
  0
LINE
  8
1
 10
1.000360
 20
-0.020726
 11
0.999952
 21
-0.038686
  0
LINE
  8
1
 10
0.999952
 20
-0.038686
 11
0.999239
 21
-0.056681
  0
LINE
  8
1
 10
0.999239
 20
-0.056681
 11
0.998219
 21
-0.074710
  0
LINE
  8
1
 10
0.998219
 20
-0.074710
 11
0.996892
 21
-0.092768
  0
LINE
  8
1
 10
0.996892
 20
-0.092768
 11
0.995258
 21
-0.110851
  0
LINE
  8
1
 10
0.995258
 20
-0.110851
 11
0.993315
 21
-0.128955
  0
LINE
  8
1
 10
0.993315
 20
-0.128955
 11
0.991064
 21
-0.147076
  0
LINE
  8
1
 10
0.991064
 20
-0.147076
 11
0.988504
 21
-0.165209
  0
LINE
  8
1
 10
0.988504
 20
-0.165209
 11
0.985635
 21
-0.183351
  0
LINE
  8
1
 10
0.985635
 20
-0.183351
 11
0.982456
 21
-0.201498
  0
LINE
  8
1
 10
0.982456
 20
-0.201498
 11
0.978967
 21
-0.219644
  0
LINE
  8
1
 10
0.978967
 20
-0.219644
 11
0.975169
 21
-0.237786
  0
LINE
  8
1
 10
0.975169
 20
-0.237786
 11
0.971061
 21
-0.255920
  0
LINE
  8
1
 10
0.971061
 20
-0.255920
 11
0.966644
 21
-0.274040
  0
LINE
  8
1
 10
0.966644
 20
-0.274040
 11
0.961916
 21
-0.292142
  0
LINE
  8
1
 10
0.961916
 20
-0.292142
 11
0.956879
 21
-0.310223
  0
LINE
  8
1
 10
0.956879
 20
-0.310223
 11
0.951532
 21
-0.328277
  0
LINE
  8
1
 10
0.951532
 20
-0.328277
 11
0.945876
 21
-0.346299
  0
LINE
  8
1
 10
0.945876
 20
-0.346299
 11
0.939912
 21
-0.364286
  0
LINE
  8
1
 10
0.939912
 20
-0.364286
 11
0.933639
 21
-0.382233
  0
LINE
  8
1
 10
0.933639
 20
-0.382233
 11
0.927058
 21
-0.400135
  0
LINE
  8
1
 10
0.927058
 20
-0.400135
 11
0.920170
 21
-0.417987
  0
LINE
  8
1
 10
0.920170
 20
-0.417987
 11
0.912975
 21
-0.435785
  0
LINE
  8
1
 10
0.912975
 20
-0.435785
 11
0.905474
 21
-0.453524
  0
LINE
  8
1
 10
0.905474
 20
-0.453524
 11
0.897667
 21
-0.471199
  0
LINE
  8
1
 10
0.897667
 20
-0.471199
 11
0.889556
 21
-0.488806
  0
LINE
  8
1
 10
0.889556
 20
-0.488806
 11
0.881141
 21
-0.506341
  0
LINE
  8
1
 10
0.881141
 20
-0.506341
 11
0.872424
 21
-0.523797
  0
LINE
  8
1
 10
0.872424
 20
-0.523797
 11
0.863405
 21
-0.541172
  0
LINE
  8
1
 10
0.863405
 20
-0.541172
 11
0.854085
 21
-0.558459
  0
LINE
  8
1
 10
0.854085
 20
-0.558459
 11
0.844465
 21
-0.575654
  0
LINE
  8
1
 10
0.844465
 20
-0.575654
 11
0.834548
 21
-0.592753
  0
LINE
  8
1
 10
0.834548
 20
-0.592753
 11
0.824333
 21
-0.609751
  0
LINE
  8
1
 10
0.824333
 20
-0.609751
 11
0.813822
 21
-0.626643
  0
LINE
  8
1
 10
0.813822
 20
-0.626643
 11
0.803017
 21
-0.643424
  0
LINE
  8
1
 10
0.803017
 20
-0.643424
 11
0.791920
 21
-0.660089
  0
LINE
  8
1
 10
0.791920
 20
-0.660089
 11
0.780530
 21
-0.676635
  0
LINE
  8
1
 10
0.780530
 20
-0.676635
 11
0.768851
 21
-0.693055
  0
LINE
  8
1
 10
0.768851
 20
-0.693055
 11
0.756884
 21
-0.709346
  0
LINE
  8
1
 10
0.756884
 20
-0.709346
 11
0.744629
 21
-0.725503
  0
LINE
  8
1
 10
0.744629
 20
-0.725503
 11
0.732090
 21
-0.741521
  0
LINE
  8
1
 10
0.732090
 20
-0.741521
 11
0.719268
 21
-0.757394
  0
LINE
  8
1
 10
0.719268
 20
-0.757394
 11
0.706165
 21
-0.773120
  0
LINE
  8
1
 10
0.706165
 20
-0.773120
 11
0.692782
 21
-0.788692
  0
LINE
  8
1
 10
0.692782
 20
-0.788692
 11
0.679122
 21
-0.804106
  0
LINE
  8
1
 10
0.679122
 20
-0.804106
 11
0.665186
 21
-0.819358
  0
LINE
  8
1
 10
0.665186
 20
-0.819358
 11
0.650976
 21
-0.834443
  0
LINE
  8
1
 10
0.650976
 20
-0.834443
 11
0.636496
 21
-0.849356
  0
LINE
  8
1
 10
0.636496
 20
-0.849356
 11
0.621746
 21
-0.864092
  0
LINE
  8
1
 10
0.621746
 20
-0.864092
 11
0.606729
 21
-0.878646
  0
LINE
  8
1
 10
0.606729
 20
-0.878646
 11
0.591447
 21
-0.893015
  0
LINE
  8
1
 10
0.591447
 20
-0.893015
 11
0.575903
 21
-0.907194
  0
LINE
  8
1
 10
0.575903
 20
-0.907194
 11
0.560098
 21
-0.921177
  0
LINE
  8
1
 10
0.560098
 20
-0.921177
 11
0.544036
 21
-0.934960
  0
LINE
  8
1
 10
0.544036
 20
-0.934960
 11
0.527718
 21
-0.948538
  0
LINE
  8
1
 10
0.527718
 20
-0.948538
 11
0.511148
 21
-0.961907
  0
LINE
  8
1
 10
0.511148
 20
-0.961907
 11
0.494327
 21
-0.975063
  0
LINE
  8
1
 10
0.494327
 20
-0.975063
 11
0.477259
 21
-0.988000
  0
LINE
  8
1
 10
0.477259
 20
-0.988000
 11
0.459945
 21
-1.000713
  0
LINE
  8
1
 10
0.459945
 20
-1.000713
 11
0.442389
 21
-1.013199
  0
LINE
  8
1
 10
0.442389
 20
-1.013199
 11
0.424594
 21
-1.025453
  0
LINE
  8
1
 10
0.424594
 20
-1.025453
 11
0.406562
 21
-1.037469
  0
LINE
  8
1
 10
0.406562
 20
-1.037469
 11
0.388295
 21
-1.049244
  0
LINE
  8
1
 10
0.388295
 20
-1.049244
 11
0.369798
 21
-1.060773
  0
LINE
  8
1
 10
0.369798
 20
-1.060773
 11
0.351073
 21
-1.072051
  0
LINE
  8
1
 10
0.351073
 20
-1.072051
 11
0.332123
 21
-1.083073
  0
LINE
  8
1
 10
0.332123
 20
-1.083073
 11
0.312950
 21
-1.093835
  0
LINE
  8
1
 10
0.312950
 20
-1.093835
 11
0.293559
 21
-1.104333
  0
LINE
  8
1
 10
0.293559
 20
-1.104333
 11
0.273953
 21
-1.114561
  0
LINE
  8
1
 10
0.273953
 20
-1.114561
 11
0.254134
 21
-1.124516
  0
LINE
  8
1
 10
0.254134
 20
-1.124516
 11
0.234106
 21
-1.134192
  0
LINE
  8
1
 10
0.234106
 20
-1.134192
 11
0.213873
 21
-1.143585
  0
LINE
  8
1
 10
0.213873
 20
-1.143585
 11
0.193437
 21
-1.152690
  0
LINE
  8
1
 10
0.193437
 20
-1.152690
 11
0.172804
 21
-1.161503
  0
LINE
  8
1
 10
0.172804
 20
-1.161503
 11
0.151975
 21
-1.170019
  0
LINE
  8
1
 10
0.151975
 20
-1.170019
 11
0.130955
 21
-1.178234
  0
LINE
  8
1
 10
0.130955
 20
-1.178234
 11
0.109748
 21
-1.186144
  0
LINE
  8
1
 10
0.109748
 20
-1.186144
 11
0.088357
 21
-1.193742
  0
LINE
  8
1
 10
0.088357
 20
-1.193742
 11
0.066787
 21
-1.201026
  0
LINE
  8
1
 10
0.066787
 20
-1.201026
 11
0.045041
 21
-1.207991
  0
LINE
  8
1
 10
0.045041
 20
-1.207991
 11
0.023124
 21
-1.214631
  0
LINE
  8
1
 10
0.023124
 20
-1.214631
 11
0.001040
 21
-1.220943
  0
LINE
  8
1
 10
0.001040
 20
-1.220943
 11
-0.021207
 21
-1.226922
  0
LINE
  8
1
 10
-0.021207
 20
-1.226922
 11
-0.043612
 21
-1.232564
  0
LINE
  8
1
 10
-0.043612
 20
-1.232564
 11
-0.066172
 21
-1.237864
  0
LINE
  8
1
 10
-0.066172
 20
-1.237864
 11
-0.088881
 21
-1.242818
  0
LINE
  8
1
 10
-0.088881
 20
-1.242818
 11
-0.111735
 21
-1.247421
  0
LINE
  8
1
 10
-0.111735
 20
-1.247421
 11
-0.134728
 21
-1.251670
  0
LINE
  8
1
 10
-0.134728
 20
-1.251670
 11
-0.157857
 21
-1.255559
  0
LINE
  8
1
 10
-0.157857
 20
-1.255559
 11
-0.181115
 21
-1.259085
  0
LINE
  8
1
 10
-0.181115
 20
-1.259085
 11
-0.204498
 21
-1.262242
  0
LINE
  8
1
 10
-0.204498
 20
-1.262242
 11
-0.228001
 21
-1.265028
  0
LINE
  8
1
 10
-0.228001
 20
-1.265028
 11
-0.251618
 21
-1.267438
  0
LINE
  8
1
 10
-0.251618
 20
-1.267438
 11
-0.275344
 21
-1.269467
  0
LINE
  8
1
 10
-0.275344
 20
-1.269467
 11
-0.299173
 21
-1.271112
  0
LINE
  8
1
 10
-0.299173
 20
-1.271112
 11
-0.323100
 21
-1.272369
  0
LINE
  8
1
 10
-0.323100
 20
-1.272369
 11
-0.347118
 21
-1.273233
  0
LINE
  8
1
 10
-0.347118
 20
-1.273233
 11
-0.371222
 21
-1.273701
  0
LINE
  8
1
 10
-0.371222
 20
-1.273701
 11
-0.395405
 21
-1.273769
  0
LINE
  8
1
 10
-0.395405
 20
-1.273769
 11
-0.419662
 21
-1.273433
  0
LINE
  8
1
 10
-0.419662
 20
-1.273433
 11
-0.443986
 21
-1.272690
  0
LINE
  8
1
 10
-0.443986
 20
-1.272690
 11
-0.468370
 21
-1.271535
  0
LINE
  8
1
 10
-0.468370
 20
-1.271535
 11
-0.492808
 21
-1.269966
  0
LINE
  8
1
 10
-0.492808
 20
-1.269966
 11
-0.517294
 21
-1.267978
  0
LINE
  8
1
 10
-0.517294
 20
-1.267978
 11
-0.541820
 21
-1.265569
  0
LINE
  8
1
 10
-0.541820
 20
-1.265569
 11
-0.566379
 21
-1.262735
  0
LINE
  8
1
 10
-0.566379
 20
-1.262735
 11
-0.590965
 21
-1.259473
  0
LINE
  8
1
 10
-0.590965
 20
-1.259473
 11
-0.615569
 21
-1.255780
  0
LINE
  8
1
 10
-0.615569
 20
-1.255780
 11
-0.640185
 21
-1.251653
  0
LINE
  8
1
 10
-0.640185
 20
-1.251653
 11
-0.664806
 21
-1.247089
  0
LINE
  8
1
 10
-0.664806
 20
-1.247089
 11
-0.689423
 21
-1.242086
  0
LINE
  8
1
 10
-0.689423
 20
-1.242086
 11
-0.714028
 21
-1.236641
  0
LINE
  8
1
 10
-0.714028
 20
-1.236641
 11
-0.738615
 21
-1.230751
  0
LINE
  8
1
 10
-0.738615
 20
-1.230751
 11
-0.763174
 21
-1.224414
  0
LINE
  8
1
 10
-0.763174
 20
-1.224414
 11
-0.787698
 21
-1.217628
  0
LINE
  8
1
 10
-0.787698
 20
-1.217628
 11
-0.812178
 21
-1.210391
  0
LINE
  8
1
 10
-0.812178
 20
-1.210391
 11
-0.836607
 21
-1.202702
  0
LINE
  8
1
 10
-0.836607
 20
-1.202702
 11
-0.860975
 21
-1.194558
  0
LINE
  8
1
 10
-0.860975
 20
-1.194558
 11
-0.885274
 21
-1.185957
  0
LINE
  8
1
 10
-0.885274
 20
-1.185957
 11
-0.909495
 21
-1.176899
  0
LINE
  8
1
 10
-0.909495
 20
-1.176899
 11
-0.933630
 21
-1.167383
  0
LINE
  8
1
 10
-0.933630
 20
-1.167383
 11
-0.957669
 21
-1.157406
  0
LINE
  8
1
 10
-0.957669
 20
-1.157406
 11
-0.981603
 21
-1.146969
  0
LINE
  8
1
 10
-0.981603
 20
-1.146969
 11
-1.005424
 21
-1.136071
  0
LINE
  8
1
 10
-1.005424
 20
-1.136071
 11
-1.029123
 21
-1.124712
  0
LINE
  8
1
 10
-1.029123
 20
-1.124712
 11
-1.052688
 21
-1.112890
  0
LINE
  8
1
 10
-1.052688
 20
-1.112890
 11
-1.076113
 21
-1.100606
  0
LINE
  8
1
 10
-1.076113
 20
-1.100606
 11
-1.099386
 21
-1.087861
  0
LINE
  8
1
 10
-1.099386
 20
-1.087861
 11
-1.122499
 21
-1.074654
  0
LINE
  8
1
 10
-1.122499
 20
-1.074654
 11
-1.145442
 21
-1.060986
  0
LINE
  8
1
 10
-1.145442
 20
-1.060986
 11
-1.168205
 21
-1.046859
  0
LINE
  8
1
 10
-1.168205
 20
-1.046859
 11
-1.190778
 21
-1.032272
  0
LINE
  8
1
 10
-1.190778
 20
-1.032272
 11
-1.213152
 21
-1.017227
  0
LINE
  8
1
 10
-1.213152
 20
-1.017227
 11
-1.235317
 21
-1.001726
  0
LINE
  8
1
 10
-1.235317
 20
-1.001726
 11
-1.257263
 21
-0.985771
  0
LINE
  8
1
 10
-1.257263
 20
-0.985771
 11
-1.278980
 21
-0.969363
  0
LINE
  8
1
 10
-1.278980
 20
-0.969363
 11
-1.300458
 21
-0.952504
  0
LINE
  8
1
 10
-1.300458
 20
-0.952504
 11
-1.321688
 21
-0.935198
  0
LINE
  8
1
 10
-1.321688
 20
-0.935198
 11
-1.342659
 21
-0.917446
  0
LINE
  8
1
 10
-1.342659
 20
-0.917446
 11
-1.363361
 21
-0.899252
  0
LINE
  8
1
 10
-1.363361
 20
-0.899252
 11
-1.383785
 21
-0.880618
  0
LINE
  8
1
 10
-1.383785
 20
-0.880618
 11
-1.403921
 21
-0.861549
  0
LINE
  8
1
 10
-1.403921
 20
-0.861549
 11
-1.423758
 21
-0.842048
  0
LINE
  8
1
 10
-1.423758
 20
-0.842048
 11
-1.443286
 21
-0.822119
  0
LINE
  8
1
 10
-1.443286
 20
-0.822119
 11
-1.462497
 21
-0.801765
  0
LINE
  8
1
 10
-1.462497
 20
-0.801765
 11
-1.481379
 21
-0.780992
  0
LINE
  8
1
 10
-1.481379
 20
-0.780992
 11
-1.499924
 21
-0.759805
  0
LINE
  8
1
 10
-1.499924
 20
-0.759805
 11
-1.518121
 21
-0.738207
  0
LINE
  8
1
 10
-1.518121
 20
-0.738207
 11
-1.535961
 21
-0.716205
  0
LINE
  8
1
 10
-1.535961
 20
-0.716205
 11
-1.553435
 21
-0.693804
  0
LINE
  8
1
 10
-1.553435
 20
-0.693804
 11
-1.570532
 21
-0.671009
  0
LINE
  8
1
 10
-1.570532
 20
-0.671009
 11
-1.587243
 21
-0.647826
  0
LINE
  8
1
 10
-1.587243
 20
-0.647826
 11
-1.603559
 21
-0.624263
  0
LINE
  8
1
 10
-1.603559
 20
-0.624263
 11
-1.619471
 21
-0.600324
  0
LINE
  8
1
 10
-1.619471
 20
-0.600324
 11
-1.634970
 21
-0.576018
  0
LINE
  8
1
 10
-1.634970
 20
-0.576018
 11
-1.650046
 21
-0.551350
  0
LINE
  8
1
 10
-1.650046
 20
-0.551350
 11
-1.664691
 21
-0.526329
  0
LINE
  8
1
 10
-1.664691
 20
-0.526329
 11
-1.678896
 21
-0.500961
  0
LINE
  8
1
 10
-1.678896
 20
-0.500961
 11
-1.692652
 21
-0.475254
  0
LINE
  8
1
 10
-1.692652
 20
-0.475254
 11
-1.705951
 21
-0.449217
  0
LINE
  8
1
 10
-1.705951
 20
-0.449217
 11
-1.718784
 21
-0.422856
  0
LINE
  8
1
 10
-1.718784
 20
-0.422856
 11
-1.731144
 21
-0.396182
  0
LINE
  8
1
 10
-1.731144
 20
-0.396182
 11
-1.743023
 21
-0.369202
  0
LINE
  8
1
 10
-1.743023
 20
-0.369202
 11
-1.754412
 21
-0.341925
  0
LINE
  8
1
 10
-1.754412
 20
-0.341925
 11
-1.765304
 21
-0.314360
  0
LINE
  8
1
 10
-1.765304
 20
-0.314360
 11
-1.775691
 21
-0.286517
  0
LINE
  8
1
 10
-1.775691
 20
-0.286517
 11
-1.785567
 21
-0.258405
  0
LINE
  8
1
 10
-1.785567
 20
-0.258405
 11
-1.794924
 21
-0.230034
  0
LINE
  8
1
 10
-1.794924
 20
-0.230034
 11
-1.803755
 21
-0.201413
  0
LINE
  8
1
 10
-1.803755
 20
-0.201413
 11
-1.812054
 21
-0.172552
  0
LINE
  8
1
 10
-1.812054
 20
-0.172552
 11
-1.819815
 21
-0.143463
  0
LINE
  8
1
 10
-1.819815
 20
-0.143463
 11
-1.827031
 21
-0.114155
  0
LINE
  8
1
 10
-1.827031
 20
-0.114155
 11
-1.833696
 21
-0.084638
  0
LINE
  8
1
 10
-1.833696
 20
-0.084638
 11
-1.839805
 21
-0.054924
  0
LINE
  8
1
 10
-1.839805
 20
-0.054924
 11
-1.845352
 21
-0.025024
  0
LINE
  8
1
 10
-1.845352
 20
-0.025024
 11
-1.850332
 21
0.005052
  0
LINE
  8
1
 10
-1.850332
 20
0.005052
 11
-1.854740
 21
0.035292
  0
LINE
  8
1
 10
-1.854740
 20
0.035292
 11
-1.858571
 21
0.065685
  0
LINE
  8
1
 10
-1.858571
 20
0.065685
 11
-1.861821
 21
0.096219
  0
LINE
  8
1
 10
-1.861821
 20
0.096219
 11
-1.864486
 21
0.126883
  0
LINE
  8
1
 10
-1.864486
 20
0.126883
 11
-1.866562
 21
0.157665
  0
LINE
  8
1
 10
-1.866562
 20
0.157665
 11
-1.868045
 21
0.188553
  0
LINE
  8
1
 10
-1.868045
 20
0.188553
 11
-1.868932
 21
0.219535
  0
LINE
  8
1
 10
-1.868932
 20
0.219535
 11
-1.869219
 21
0.250600
  0
LINE
  8
1
 10
-1.869219
 20
0.250600
 11
-1.868904
 21
0.281734
  0
LINE
  8
1
 10
-1.868904
 20
0.281734
 11
-1.867985
 21
0.312927
  0
LINE
  8
1
 10
-1.867985
 20
0.312927
 11
-1.866459
 21
0.344165
  0
LINE
  8
1
 10
-1.866459
 20
0.344165
 11
-1.864325
 21
0.375437
  0
LINE
  8
1
 10
-1.864325
 20
0.375437
 11
-1.861579
 21
0.406729
  0
LINE
  8
1
 10
-1.861579
 20
0.406729
 11
-1.858223
 21
0.438030
  0
LINE
  8
1
 10
-1.858223
 20
0.438030
 11
-1.854253
 21
0.469327
  0
LINE
  8
1
 10
-1.854253
 20
0.469327
 11
-1.849670
 21
0.500608
  0
LINE
  8
1
 10
-1.849670
 20
0.500608
 11
-1.844472
 21
0.531859
  0
LINE
  8
1
 10
-1.844472
 20
0.531859
 11
-1.838661
 21
0.563069
  0
LINE
  8
1
 10
-1.838661
 20
0.563069
 11
-1.832235
 21
0.594225
  0
LINE
  8
1
 10
-1.832235
 20
0.594225
 11
-1.825195
 21
0.625315
  0
LINE
  8
1
 10
-1.825195
 20
0.625315
 11
-1.817543
 21
0.656326
  0
LINE
  8
1
 10
-1.817543
 20
0.656326
 11
-1.809278
 21
0.687245
  0
LINE
  8
1
 10
-1.809278
 20
0.687245
 11
-1.800402
 21
0.718059
  0
LINE
  8
1
 10
-1.800402
 20
0.718059
 11
-1.790917
 21
0.748758
  0
LINE
  8
1
 10
-1.790917
 20
0.748758
 11
-1.780825
 21
0.779328
  0
LINE
  8
1
 10
-1.780825
 20
0.779328
 11
-1.770127
 21
0.809756
  0
LINE
  8
1
 10
-1.770127
 20
0.809756
 11
-1.758826
 21
0.840031
  0
LINE
  8
1
 10
-1.758826
 20
0.840031
 11
-1.746925
 21
0.870140
  0
LINE
  8
1
 10
-1.746925
 20
0.870140
 11
-1.734427
 21
0.900072
  0
LINE
  8
1
 10
-1.734427
 20
0.900072
 11
-1.721335
 21
0.929813
  0
LINE
  8
1
 10
-1.721335
 20
0.929813
 11
-1.707652
 21
0.959353
  0
LINE
  8
1
 10
-1.707652
 20
0.959353
 11
-1.693383
 21
0.988679
  0
LINE
  8
1
 10
-1.693383
 20
0.988679
 11
-1.678531
 21
1.017779
  0
LINE
  8
1
 10
-1.678531
 20
1.017779
 11
-1.663100
 21
1.046643
  0
LINE
  8
1
 10
-1.663100
 20
1.046643
 11
-1.647096
 21
1.075257
  0
LINE
  8
1
 10
-1.647096
 20
1.075257
 11
-1.630522
 21
1.103611
  0
LINE
  8
1
 10
-1.630522
 20
1.103611
 11
-1.613385
 21
1.131693
  0
LINE
  8
1
 10
-1.613385
 20
1.131693
 11
-1.595690
 21
1.159493
  0
LINE
  8
1
 10
-1.595690
 20
1.159493
 11
-1.577441
 21
1.186999
  0
LINE
  8
1
 10
-1.577441
 20
1.186999
 11
-1.558645
 21
1.214200
  0
LINE
  8
1
 10
-1.558645
 20
1.214200
 11
-1.539308
 21
1.241086
  0
LINE
  8
1
 10
-1.539308
 20
1.241086
 11
-1.519437
 21
1.267646
  0
LINE
  8
1
 10
-1.519437
 20
1.267646
 11
-1.499037
 21
1.293869
  0
LINE
  8
1
 10
-1.499037
 20
1.293869
 11
-1.478115
 21
1.319745
  0
LINE
  8
1
 10
-1.478115
 20
1.319745
 11
-1.456679
 21
1.345264
  0
LINE
  8
1
 10
-1.456679
 20
1.345264
 11
-1.434735
 21
1.370416
  0
LINE
  8
1
 10
-1.434735
 20
1.370416
 11
-1.412291
 21
1.395192
  0
LINE
  8
1
 10
-1.412291
 20
1.395192
 11
-1.389354
 21
1.419581
  0
LINE
  8
1
 10
-1.389354
 20
1.419581
 11
-1.365932
 21
1.443574
  0
LINE
  8
1
 10
-1.365932
 20
1.443574
 11
-1.342034
 21
1.467162
  0
LINE
  8
1
 10
-1.342034
 20
1.467162
 11
-1.317667
 21
1.490337
  0
LINE
  8
1
 10
-1.317667
 20
1.490337
 11
-1.292839
 21
1.513088
  0
LINE
  8
1
 10
-1.292839
 20
1.513088
 11
-1.267559
 21
1.535408
  0
LINE
  8
1
 10
-1.267559
 20
1.535408
 11
-1.241836
 21
1.557287
  0
LINE
  8
1
 10
-1.241836
 20
1.557287
 11
-1.215678
 21
1.578719
  0
LINE
  8
1
 10
-1.215678
 20
1.578719
 11
-1.189095
 21
1.599694
  0
LINE
  8
1
 10
-1.189095
 20
1.599694
 11
-1.162095
 21
1.620204
  0
LINE
  8
1
 10
-1.162095
 20
1.620204
 11
-1.134688
 21
1.640243
  0
LINE
  8
1
 10
-1.134688
 20
1.640243
 11
-1.106883
 21
1.659802
  0
LINE
  8
1
 10
-1.106883
 20
1.659802
 11
-1.078691
 21
1.678875
  0
LINE
  8
1
 10
-1.078691
 20
1.678875
 11
-1.050119
 21
1.697454
  0
LINE
  8
1
 10
-1.050119
 20
1.697454
 11
-1.021179
 21
1.715532
  0
LINE
  8
1
 10
-1.021179
 20
1.715532
 11
-0.991881
 21
1.733103
  0
LINE
  8
1
 10
-0.991881
 20
1.733103
 11
-0.962234
 21
1.750160
  0
LINE
  8
1
 10
-0.962234
 20
1.750160
 11
-0.932248
 21
1.766697
  0
LINE
  8
1
 10
-0.932248
 20
1.766697
 11
-0.901935
 21
1.782709
  0
LINE
  8
1
 10
-0.901935
 20
1.782709
 11
-0.871304
 21
1.798188
  0
LINE
  8
1
 10
-0.871304
 20
1.798188
 11
-0.840366
 21
1.813131
  0
LINE
  8
1
 10
-0.840366
 20
1.813131
 11
-0.809131
 21
1.827530
  0
LINE
  8
1
 10
-0.809131
 20
1.827530
 11
-0.777611
 21
1.841382
  0
LINE
  8
1
 10
-0.777611
 20
1.841382
 11
-0.745817
 21
1.854681
  0
LINE
  8
1
 10
-0.745817
 20
1.854681
 11
-0.713758
 21
1.867423
  0
LINE
  8
1
 10
-0.713758
 20
1.867423
 11
-0.681447
 21
1.879602
  0
LINE
  8
1
 10
-0.681447
 20
1.879602
 11
-0.648895
 21
1.891215
  0
LINE
  8
1
 10
-0.648895
 20
1.891215
 11
-0.616112
 21
1.902258
  0
LINE
  8
1
 10
-0.616112
 20
1.902258
 11
-0.583110
 21
1.912726
  0
LINE
  8
1
 10
-0.583110
 20
1.912726
 11
-0.549901
 21
1.922615
  0
LINE
  8
1
 10
-0.549901
 20
1.922615
 11
-0.516496
 21
1.931924
  0
LINE
  8
1
 10
-0.516496
 20
1.931924
 11
-0.482907
 21
1.940647
  0
LINE
  8
1
 10
-0.482907
 20
1.940647
 11
-0.449145
 21
1.948782
  0
LINE
  8
1
 10
-0.449145
 20
1.948782
 11
-0.415222
 21
1.956326
  0
LINE
  8
1
 10
-0.415222
 20
1.956326
 11
-0.381150
 21
1.963276
  0
LINE
  8
1
 10
-0.381150
 20
1.963276
 11
-0.346941
 21
1.969631
  0
LINE
  8
1
 10
-0.346941
 20
1.969631
 11
-0.312607
 21
1.975387
  0
LINE
  8
1
 10
-0.312607
 20
1.975387
 11
-0.278160
 21
1.980543
  0
LINE
  8
1
 10
-0.278160
 20
1.980543
 11
-0.243612
 21
1.985096
  0
LINE
  8
1
 10
-0.243612
 20
1.985096
 11
-0.208976
 21
1.989046
  0
LINE
  8
1
 10
-0.208976
 20
1.989046
 11
-0.174264
 21
1.992391
  0
LINE
  8
1
 10
-0.174264
 20
1.992391
 11
-0.139488
 21
1.995129
  0
LINE
  8
1
 10
-0.139488
 20
1.995129
 11
-0.104661
 21
1.997259
  0
LINE
  8
1
 10
-0.104661
 20
1.997259
 11
-0.069795
 21
1.998782
  0
LINE
  8
1
 10
-0.069795
 20
1.998782
 11
-0.034904
 21
1.999695
  0
LINE
  8
1
 10
-0.034904
 20
1.999695
 11
-0.000012
 21
2.000000
  0
ENDSEC
  0
EOF
