  0
SECTION
  2
HEADER
  9
$EXTMIN
 10
-1.185390
 20
-1.085008
  9
$EXTMAX
 10
1.786294
 20
2.000000
  0
ENDSEC
  0
SECTION
  2
TABLES
  0
TABLE
  2
LTYPE
 70
1
  0
LTYPE
  2
CONTINUOUS
 70
64
  3
Solid Line
 72
65
 73
0
 40
0.000000
  0
ENDTAB
  0
TABLE
  2
LAYER
 70
16
  0
LAYER
  2
0
 70
0
 62
7
  6
CONTINUOUS
  0
LAYER
  2
1
 70
0
 62
7
  6
CONTINUOUS
  0
LAYER
  2
2
 70
0
 62
7
  6
CONTINUOUS
  0
LAYER
  2
3
 70
0
 62
7
  6
CONTINUOUS
  0
LAYER
  2
4
 70
0
 62
7
  6
CONTINUOUS
  0
LAYER
  2
5
 70
0
 62
7
  6
CONTINUOUS
  0
LAYER
  2
6
 70
0
 62
7
  6
CONTINUOUS
  0
LAYER
  2
7
 70
0
 62
7
  6
CONTINUOUS
  0
LAYER
  2
8
 70
0
 62
7
  6
CONTINUOUS
  0
LAYER
  2
9
 70
0
 62
7
  6
CONTINUOUS
  0
LAYER
  2
10
 70
0
 62
7
  6
CONTINUOUS
  0
LAYER
  2
11
 70
0
 62
7
  6
CONTINUOUS
  0
LAYER
  2
12
 70
0
 62
7
  6
CONTINUOUS
  0
LAYER
  2
13
 70
0
 62
7
  6
CONTINUOUS
  0
LAYER
  2
14
 70
0
 62
7
  6
CONTINUOUS
  0
LAYER
  2
15
 70
0
 62
7
  6
CONTINUOUS
  0
ENDTAB
  0
ENDSEC
  0
SECTION
  2
ENTITIES
  0
LINE
  8
1
 10
0.000001
 20
2.000000
 11
0.034903
 21
1.999695
  0
LINE
  8
1
 10
0.034903
 20
1.999695
 11
0.069791
 21
1.998782
  0
LINE
  8
1
 10
0.069791
 20
1.998782
 11
0.104649
 21
1.997259
  0
LINE
  8
1
 10
0.104649
 20
1.997259
 11
0.139461
 21
1.995129
  0
LINE
  8
1
 10
0.139461
 20
1.995129
 11
0.174213
 21
1.992392
  0
LINE
  8
1
 10
0.174213
 20
1.992392
 11
0.208891
 21
1.989048
  0
LINE
  8
1
 10
0.208891
 20
1.989048
 11
0.243480
 21
1.985100
  0
LINE
  8
1
 10
0.243480
 20
1.985100
 11
0.277966
 21
1.980549
  0
LINE
  8
1
 10
0.277966
 20
1.980549
 11
0.312336
 21
1.975397
  0
LINE
  8
1
 10
0.312336
 20
1.975397
 11
0.346575
 21
1.969646
  0
LINE
  8
1
 10
0.346575
 20
1.969646
 11
0.380670
 21
1.963298
  0
LINE
  8
1
 10
0.380670
 20
1.963298
 11
0.414608
 21
1.956356
  0
LINE
  8
1
 10
0.414608
 20
1.956356
 11
0.448376
 21
1.948823
  0
LINE
  8
1
 10
0.448376
 20
1.948823
 11
0.481960
 21
1.940701
  0
LINE
  8
1
 10
0.481960
 20
1.940701
 11
0.515347
 21
1.931994
  0
LINE
  8
1
 10
0.515347
 20
1.931994
 11
0.548526
 21
1.922705
  0
LINE
  8
1
 10
0.548526
 20
1.922705
 11
0.581482
 21
1.912838
  0
LINE
  8
1
 10
0.581482
 20
1.912838
 11
0.614205
 21
1.902397
  0
LINE
  8
1
 10
0.614205
 20
1.902397
 11
0.646680
 21
1.891386
  0
LINE
  8
1
 10
0.646680
 20
1.891386
 11
0.678898
 21
1.879809
  0
LINE
  8
1
 10
0.678898
 20
1.879809
 11
0.710844
 21
1.867671
  0
LINE
  8
1
 10
0.710844
 20
1.867671
 11
0.742508
 21
1.854976
  0
LINE
  8
1
 10
0.742508
 20
1.854976
 11
0.773878
 21
1.841731
  0
LINE
  8
1
 10
0.773878
 20
1.841731
 11
0.804942
 21
1.827939
  0
LINE
  8
1
 10
0.804942
 20
1.827939
 11
0.835689
 21
1.813607
  0
LINE
  8
1
 10
0.835689
 20
1.813607
 11
0.866108
 21
1.798740
  0
LINE
  8
1
 10
0.866108
 20
1.798740
 11
0.896187
 21
1.783345
  0
LINE
  8
1
 10
0.896187
 20
1.783345
 11
0.925915
 21
1.767426
  0
LINE
  8
1
 10
0.925915
 20
1.767426
 11
0.955282
 21
1.750992
  0
LINE
  8
1
 10
0.955282
 20
1.750992
 11
0.984276
 21
1.734048
  0
LINE
  8
1
 10
0.984276
 20
1.734048
 11
1.012889
 21
1.716602
  0
LINE
  8
1
 10
1.012889
 20
1.716602
 11
1.041108
 21
1.698660
  0
LINE
  8
1
 10
1.041108
 20
1.698660
 11
1.068924
 21
1.680230
  0
LINE
  8
1
 10
1.068924
 20
1.680230
 11
1.096327
 21
1.661320
  0
LINE
  8
1
 10
1.096327
 20
1.661320
 11
1.123308
 21
1.641937
  0
LINE
  8
1
 10
1.123308
 20
1.641937
 11
1.149855
 21
1.622089
  0
LINE
  8
1
 10
1.149855
 20
1.622089
 11
1.175961
 21
1.601785
  0
LINE
  8
1
 10
1.175961
 20
1.601785
 11
1.201615
 21
1.581034
  0
LINE
  8
1
 10
1.201615
 20
1.581034
 11
1.226810
 21
1.559843
  0
LINE
  8
1
 10
1.226810
 20
1.559843
 11
1.251535
 21
1.538223
  0
LINE
  8
1
 10
1.251535
 20
1.538223
 11
1.275782
 21
1.516182
  0
LINE
  8
1
 10
1.275782
 20
1.516182
 11
1.299543
 21
1.493729
  0
LINE
  8
1
 10
1.299543
 20
1.493729
 11
1.322809
 21
1.470874
  0
LINE
  8
1
 10
1.322809
 20
1.470874
 11
1.345573
 21
1.447627
  0
LINE
  8
1
 10
1.345573
 20
1.447627
 11
1.367826
 21
1.423998
  0
LINE
  8
1
 10
1.367826
 20
1.423998
 11
1.389562
 21
1.399998
  0
LINE
  8
1
 10
1.389562
 20
1.399998
 11
1.410773
 21
1.375635
  0
LINE
  8
1
 10
1.410773
 20
1.375635
 11
1.431452
 21
1.350922
  0
LINE
  8
1
 10
1.431452
 20
1.350922
 11
1.451591
 21
1.325869
  0
LINE
  8
1
 10
1.451591
 20
1.325869
 11
1.471185
 21
1.300487
  0
LINE
  8
1
 10
1.471185
 20
1.300487
 11
1.490228
 21
1.274787
  0
LINE
  8
1
 10
1.490228
 20
1.274787
 11
1.508713
 21
1.248779
  0
LINE
  8
1
 10
1.508713
 20
1.248779
 11
1.526634
 21
1.222477
  0
LINE
  8
1
 10
1.526634
 20
1.222477
 11
1.543987
 21
1.195891
  0
LINE
  8
1
 10
1.543987
 20
1.195891
 11
1.560765
 21
1.169032
  0
LINE
  8
1
 10
1.560765
 20
1.169032
 11
1.576965
 21
1.141914
  0
LINE
  8
1
 10
1.576965
 20
1.141914
 11
1.592581
 21
1.114547
  0
LINE
  8
1
 10
1.592581
 20
1.114547
 11
1.607609
 21
1.086944
  0
LINE
  8
1
 10
1.607609
 20
1.086944
 11
1.622046
 21
1.059118
  0
LINE
  8
1
 10
1.622046
 20
1.059118
 11
1.635887
 21
1.031080
  0
LINE
  8
1
 10
1.635887
 20
1.031080
 11
1.649130
 21
1.002842
  0
LINE
  8
1
 10
1.649130
 20
1.002842
 11
1.661770
 21
0.974418
  0
LINE
  8
1
 10
1.661770
 20
0.974418
 11
1.673806
 21
0.945820
  0
LINE
  8
1
 10
1.673806
 20
0.945820
 11
1.685235
 21
0.917060
  0
LINE
  8
1
 10
1.685235
 20
0.917060
 11
1.696054
 21
0.888152
  0
LINE
  8
1
 10
1.696054
 20
0.888152
 11
1.706263
 21
0.859108
  0
LINE
  8
1
 10
1.706263
 20
0.859108
 11
1.715859
 21
0.829940
  0
LINE
  8
1
 10
1.715859
 20
0.829940
 11
1.724842
 21
0.800662
  0
LINE
  8
1
 10
1.724842
 20
0.800662
 11
1.733210
 21
0.771286
  0
LINE
  8
1
 10
1.733210
 20
0.771286
 11
1.740963
 21
0.741826
  0
LINE
  8
1
 10
1.740963
 20
0.741826
 11
1.748101
 21
0.712293
  0
LINE
  8
1
 10
1.748101
 20
0.712293
 11
1.754625
 21
0.682701
  0
LINE
  8
1
 10
1.754625
 20
0.682701
 11
1.760533
 21
0.653063
  0
LINE
  8
1
 10
1.760533
 20
0.653063
 11
1.765828
 21
0.623392
  0
LINE
  8
1
 10
1.765828
 20
0.623392
 11
1.770511
 21
0.593699
  0
LINE
  8
1
 10
1.770511
 20
0.593699
 11
1.774582
 21
0.563998
  0
LINE
  8
1
 10
1.774582
 20
0.563998
 11
1.778044
 21
0.534302
  0
LINE
  8
1
 10
1.778044
 20
0.534302
 11
1.780898
 21
0.504622
  0
LINE
  8
1
 10
1.780898
 20
0.504622
 11
1.783147
 21
0.474972
  0
LINE
  8
1
 10
1.783147
 20
0.474972
 11
1.784794
 21
0.445363
  0
LINE
  8
1
 10
1.784794
 20
0.445363
 11
1.785842
 21
0.415808
  0
LINE
  8
1
 10
1.785842
 20
0.415808
 11
1.786294
 21
0.386320
  0
LINE
  8
1
 10
1.786294
 20
0.386320
 11
1.786153
 21
0.356909
  0
LINE
  8
1
 10
1.786153
 20
0.356909
 11
1.785424
 21
0.327589
  0
LINE
  8
1
 10
1.785424
 20
0.327589
 11
1.784110
 21
0.298370
  0
LINE
  8
1
 10
1.784110
 20
0.298370
 11
1.782216
 21
0.269264
  0
LINE
  8
1
 10
1.782216
 20
0.269264
 11
1.779747
 21
0.240284
  0
LINE
  8
1
 10
1.779747
 20
0.240284
 11
1.776708
 21
0.211439
  0
LINE
  8
1
 10
1.776708
 20
0.211439
 11
1.773103
 21
0.182742
  0
LINE
  8
1
 10
1.773103
 20
0.182742
 11
1.768940
 21
0.154202
  0
LINE
  8
1
 10
1.768940
 20
0.154202
 11
1.764222
 21
0.125832
  0
LINE
  8
1
 10
1.764222
 20
0.125832
 11
1.758957
 21
0.097640
  0
LINE
  8
1
 10
1.758957
 20
0.097640
 11
1.753150
 21
0.069639
  0
LINE
  8
1
 10
1.753150
 20
0.069639
 11
1.746809
 21
0.041837
  0
LINE
  8
1
 10
1.746809
 20
0.041837
 11
1.739939
 21
0.014245
  0
LINE
  8
1
 10
1.739939
 20
0.014245
 11
1.732547
 21
-0.013128
  0
LINE
  8
1
 10
1.732547
 20
-0.013128
 11
1.724642
 21
-0.040272
  0
LINE
  8
1
 10
1.724642
 20
-0.040272
 11
1.716229
 21
-0.067178
  0
LINE
  8
1
 10
1.716229
 20
-0.067178
 11
1.707317
 21
-0.093837
  0
LINE
  8
1
 10
1.707317
 20
-0.093837
 11
1.697914
 21
-0.120240
  0
LINE
  8
1
 10
1.697914
 20
-0.120240
 11
1.688026
 21
-0.146379
  0
LINE
  8
1
 10
1.688026
 20
-0.146379
 11
1.677662
 21
-0.172246
  0
LINE
  8
1
 10
1.677662
 20
-0.172246
 11
1.666831
 21
-0.197832
  0
LINE
  8
1
 10
1.666831
 20
-0.197832
 11
1.655540
 21
-0.223130
  0
LINE
  8
1
 10
1.655540
 20
-0.223130
 11
1.643798
 21
-0.248133
  0
LINE
  8
1
 10
1.643798
 20
-0.248133
 11
1.631614
 21
-0.272833
  0
LINE
  8
1
 10
1.631614
 20
-0.272833
 11
1.618996
 21
-0.297224
  0
LINE
  8
1
 10
1.618996
 20
-0.297224
 11
1.605953
 21
-0.321298
  0
LINE
  8
1
 10
1.605953
 20
-0.321298
 11
1.592493
 21
-0.345050
  0
LINE
  8
1
 10
1.592493
 20
-0.345050
 11
1.578626
 21
-0.368473
  0
LINE
  8
1
 10
1.578626
 20
-0.368473
 11
1.564361
 21
-0.391562
  0
LINE
  8
1
 10
1.564361
 20
-0.391562
 11
1.549707
 21
-0.414311
  0
LINE
  8
1
 10
1.549707
 20
-0.414311
 11
1.534673
 21
-0.436715
  0
LINE
  8
1
 10
1.534673
 20
-0.436715
 11
1.519268
 21
-0.458769
  0
LINE
  8
1
 10
1.519268
 20
-0.458769
 11
1.503501
 21
-0.480468
  0
LINE
  8
1
 10
1.503501
 20
-0.480468
 11
1.487382
 21
-0.501807
  0
LINE
  8
1
 10
1.487382
 20
-0.501807
 11
1.470919
 21
-0.522783
  0
LINE
  8
1
 10
1.470919
 20
-0.522783
 11
1.454123
 21
-0.543392
  0
LINE
  8
1
 10
1.454123
 20
-0.543392
 11
1.437002
 21
-0.563629
  0
LINE
  8
1
 10
1.437002
 20
-0.563629
 11
1.419565
 21
-0.583492
  0
LINE
  8
1
 10
1.419565
 20
-0.583492
 11
1.401823
 21
-0.602978
  0
LINE
  8
1
 10
1.401823
 20
-0.602978
 11
1.383784
 21
-0.622083
  0
LINE
  8
1
 10
1.383784
 20
-0.622083
 11
1.365456
 21
-0.640805
  0
LINE
  8
1
 10
1.365456
 20
-0.640805
 11
1.346851
 21
-0.659141
  0
LINE
  8
1
 10
1.346851
 20
-0.659141
 11
1.327975
 21
-0.677090
  0
LINE
  8
1
 10
1.327975
 20
-0.677090
 11
1.308840
 21
-0.694650
  0
LINE
  8
1
 10
1.308840
 20
-0.694650
 11
1.289453
 21
-0.711818
  0
LINE
  8
1
 10
1.289453
 20
-0.711818
 11
1.269823
 21
-0.728594
  0
LINE
  8
1
 10
1.269823
 20
-0.728594
 11
1.249960
 21
-0.744976
  0
LINE
  8
1
 10
1.249960
 20
-0.744976
 11
1.229872
 21
-0.760963
  0
LINE
  8
1
 10
1.229872
 20
-0.760963
 11
1.209568
 21
-0.776554
  0
LINE
  8
1
 10
1.209568
 20
-0.776554
 11
1.189056
 21
-0.791749
  0
LINE
  8
1
 10
1.189056
 20
-0.791749
 11
1.168345
 21
-0.806547
  0
LINE
  8
1
 10
1.168345
 20
-0.806547
 11
1.147444
 21
-0.820948
  0
LINE
  8
1
 10
1.147444
 20
-0.820948
 11
1.126360
 21
-0.834952
  0
LINE
  8
1
 10
1.126360
 20
-0.834952
 11
1.105103
 21
-0.848559
  0
LINE
  8
1
 10
1.105103
 20
-0.848559
 11
1.083680
 21
-0.861770
  0
LINE
  8
1
 10
1.083680
 20
-0.861770
 11
1.062099
 21
-0.874584
  0
LINE
  8
1
 10
1.062099
 20
-0.874584
 11
1.040369
 21
-0.887003
  0
LINE
  8
1
 10
1.040369
 20
-0.887003
 11
1.018496
 21
-0.899026
  0
LINE
  8
1
 10
1.018496
 20
-0.899026
 11
0.996490
 21
-0.910656
  0
LINE
  8
1
 10
0.996490
 20
-0.910656
 11
0.974356
 21
-0.921893
  0
LINE
  8
1
 10
0.974356
 20
-0.921893
 11
0.952104
 21
-0.932738
  0
LINE
  8
1
 10
0.952104
 20
-0.932738
 11
0.929741
 21
-0.943192
  0
LINE
  8
1
 10
0.929741
 20
-0.943192
 11
0.907273
 21
-0.953257
  0
LINE
  8
1
 10
0.907273
 20
-0.953257
 11
0.884708
 21
-0.962934
  0
LINE
  8
1
 10
0.884708
 20
-0.962934
 11
0.862053
 21
-0.972225
  0
LINE
  8
1
 10
0.862053
 20
-0.972225
 11
0.839315
 21
-0.981131
  0
LINE
  8
1
 10
0.839315
 20
-0.981131
 11
0.816501
 21
-0.989655
  0
LINE
  8
1
 10
0.816501
 20
-0.989655
 11
0.793619
 21
-0.997798
  0
LINE
  8
1
 10
0.793619
 20
-0.997798
 11
0.770673
 21
-1.005562
  0
LINE
  8
1
 10
0.770673
 20
-1.005562
 11
0.747673
 21
-1.012948
  0
LINE
  8
1
 10
0.747673
 20
-1.012948
 11
0.724623
 21
-1.019960
  0
LINE
  8
1
 10
0.724623
 20
-1.019960
 11
0.701530
 21
-1.026599
  0
LINE
  8
1
 10
0.701530
 20
-1.026599
 11
0.678401
 21
-1.032867
  0
LINE
  8
1
 10
0.678401
 20
-1.032867
 11
0.655242
 21
-1.038767
  0
LINE
  8
1
 10
0.655242
 20
-1.038767
 11
0.632059
 21
-1.044300
  0
LINE
  8
1
 10
0.632059
 20
-1.044300
 11
0.608859
 21
-1.049469
  0
LINE
  8
1
 10
0.608859
 20
-1.049469
 11
0.585647
 21
-1.054277
  0
LINE
  8
1
 10
0.585647
 20
-1.054277
 11
0.562430
 21
-1.058726
  0
LINE
  8
1
 10
0.562430
 20
-1.058726
 11
0.539213
 21
-1.062818
  0
LINE
  8
1
 10
0.539213
 20
-1.062818
 11
0.516003
 21
-1.066555
  0
LINE
  8
1
 10
0.516003
 20
-1.066555
 11
0.492805
 21
-1.069941
  0
LINE
  8
1
 10
0.492805
 20
-1.069941
 11
0.469626
 21
-1.072977
  0
LINE
  8
1
 10
0.469626
 20
-1.072977
 11
0.446470
 21
-1.075667
  0
LINE
  8
1
 10
0.446470
 20
-1.075667
 11
0.423344
 21
-1.078012
  0
LINE
  8
1
 10
0.423344
 20
-1.078012
 11
0.400253
 21
-1.080016
  0
LINE
  8
1
 10
0.400253
 20
-1.080016
 11
0.377204
 21
-1.081680
  0
LINE
  8
1
 10
0.377204
 20
-1.081680
 11
0.354200
 21
-1.083008
  0
LINE
  8
1
 10
0.354200
 20
-1.083008
 11
0.331249
 21
-1.084002
  0
LINE
  8
1
 10
0.331249
 20
-1.084002
 11
0.308356
 21
-1.084665
  0
LINE
  8
1
 10
0.308356
 20
-1.084665
 11
0.285526
 21
-1.085000
  0
LINE
  8
1
 10
0.285526
 20
-1.085000
 11
0.262764
 21
-1.085008
  0
LINE
  8
1
 10
0.262764
 20
-1.085008
 11
0.240077
 21
-1.084693
  0
LINE
  8
1
 10
0.240077
 20
-1.084693
 11
0.217469
 21
-1.084058
  0
LINE
  8
1
 10
0.217469
 20
-1.084058
 11
0.194946
 21
-1.083105
  0
LINE
  8
1
 10
0.194946
 20
-1.083105
 11
0.172513
 21
-1.081837
  0
LINE
  8
1
 10
0.172513
 20
-1.081837
 11
0.150176
 21
-1.080256
  0
LINE
  8
1
 10
0.150176
 20
-1.080256
 11
0.127940
 21
-1.078367
  0
LINE
  8
1
 10
0.127940
 20
-1.078367
 11
0.105810
 21
-1.076170
  0
LINE
  8
1
 10
0.105810
 20
-1.076170
 11
0.083791
 21
-1.073670
  0
LINE
  8
1
 10
0.083791
 20
-1.073670
 11
0.061889
 21
-1.070869
  0
LINE
  8
1
 10
0.061889
 20
-1.070869
 11
0.040108
 21
-1.067769
  0
LINE
  8
1
 10
0.040108
 20
-1.067769
 11
0.018455
 21
-1.064374
  0
LINE
  8
1
 10
0.018455
 20
-1.064374
 11
-0.003066
 21
-1.060687
  0
LINE
  8
1
 10
-0.003066
 20
-1.060687
 11
-0.024451
 21
-1.056711
  0
LINE
  8
1
 10
-0.024451
 20
-1.056711
 11
-0.045693
 21
-1.052448
  0
LINE
  8
1
 10
-0.045693
 20
-1.052448
 11
-0.066788
 21
-1.047901
  0
LINE
  8
1
 10
-0.066788
 20
-1.047901
 11
-0.087731
 21
-1.043074
  0
LINE
  8
1
 10
-0.087731
 20
-1.043074
 11
-0.108516
 21
-1.037970
  0
LINE
  8
1
 10
-0.108516
 20
-1.037970
 11
-0.129141
 21
-1.032591
  0
LINE
  8
1
 10
-0.129141
 20
-1.032591
 11
-0.149598
 21
-1.026941
  0
LINE
  8
1
 10
-0.149598
 20
-1.026941
 11
-0.169885
 21
-1.021023
  0
LINE
  8
1
 10
-0.169885
 20
-1.021023
 11
-0.189995
 21
-1.014840
  0
LINE
  8
1
 10
-0.189995
 20
-1.014840
 11
-0.209925
 21
-1.008395
  0
LINE
  8
1
 10
-0.209925
 20
-1.008395
 11
-0.229670
 21
-1.001691
  0
LINE
  8
1
 10
-0.229670
 20
-1.001691
 11
-0.249225
 21
-0.994732
  0
LINE
  8
1
 10
-0.249225
 20
-0.994732
 11
-0.268587
 21
-0.987521
  0
LINE
  8
1
 10
-0.268587
 20
-0.987521
 11
-0.287751
 21
-0.980061
  0
LINE
  8
1
 10
-0.287751
 20
-0.980061
 11
-0.306712
 21
-0.972355
  0
LINE
  8
1
 10
-0.306712
 20
-0.972355
 11
-0.325467
 21
-0.964407
  0
LINE
  8
1
 10
-0.325467
 20
-0.964407
 11
-0.344012
 21
-0.956220
  0
LINE
  8
1
 10
-0.344012
 20
-0.956220
 11
-0.362342
 21
-0.947798
  0
LINE
  8
1
 10
-0.362342
 20
-0.947798
 11
-0.380455
 21
-0.939144
  0
LINE
  8
1
 10
-0.380455
 20
-0.939144
 11
-0.398346
 21
-0.930261
  0
LINE
  8
1
 10
-0.398346
 20
-0.930261
 11
-0.416011
 21
-0.921153
  0
LINE
  8
1
 10
-0.416011
 20
-0.921153
 11
-0.433448
 21
-0.911823
  0
LINE
  8
1
 10
-0.433448
 20
-0.911823
 11
-0.450653
 21
-0.902275
  0
LINE
  8
1
 10
-0.450653
 20
-0.902275
 11
-0.467622
 21
-0.892512
  0
LINE
  8
1
 10
-0.467622
 20
-0.892512
 11
-0.484353
 21
-0.882538
  0
LINE
  8
1
 10
-0.484353
 20
-0.882538
 11
-0.500843
 21
-0.872355
  0
LINE
  8
1
 10
-0.500843
 20
-0.872355
 11
-0.517089
 21
-0.861968
  0
LINE
  8
1
 10
-0.517089
 20
-0.861968
 11
-0.533088
 21
-0.851380
  0
LINE
  8
1
 10
-0.533088
 20
-0.851380
 11
-0.548837
 21
-0.840594
  0
LINE
  8
1
 10
-0.548837
 20
-0.840594
 11
-0.564335
 21
-0.829614
  0
LINE
  8
1
 10
-0.564335
 20
-0.829614
 11
-0.579579
 21
-0.818443
  0
LINE
  8
1
 10
-0.579579
 20
-0.818443
 11
-0.594567
 21
-0.807084
  0
LINE
  8
1
 10
-0.594567
 20
-0.807084
 11
-0.609297
 21
-0.795540
  0
LINE
  8
1
 10
-0.609297
 20
-0.795540
 11
-0.623767
 21
-0.783815
  0
LINE
  8
1
 10
-0.623767
 20
-0.783815
 11
-0.637975
 21
-0.771911
  0
LINE
  8
1
 10
-0.637975
 20
-0.771911
 11
-0.651921
 21
-0.759832
  0
LINE
  8
1
 10
-0.651921
 20
-0.759832
 11
-0.665602
 21
-0.747581
  0
LINE
  8
1
 10
-0.665602
 20
-0.747581
 11
-0.679018
 21
-0.735160
  0
LINE
  8
1
 10
-0.679018
 20
-0.735160
 11
-0.692168
 21
-0.722572
  0
LINE
  8
1
 10
-0.692168
 20
-0.722572
 11
-0.705050
 21
-0.709820
  0
LINE
  8
1
 10
-0.705050
 20
-0.709820
 11
-0.717663
 21
-0.696905
  0
LINE
  8
1
 10
-0.717663
 20
-0.696905
 11
-0.730009
 21
-0.683831
  0
LINE
  8
1
 10
-0.730009
 20
-0.683831
 11
-0.742085
 21
-0.670600
  0
LINE
  8
1
 10
-0.742085
 20
-0.670600
 11
-0.753891
 21
-0.657213
  0
LINE
  8
1
 10
-0.753891
 20
-0.657213
 11
-0.765428
 21
-0.643671
  0
LINE
  8
1
 10
-0.765428
 20
-0.643671
 11
-0.776695
 21
-0.629978
  0
LINE
  8
1
 10
-0.776695
 20
-0.629978
 11
-0.787693
 21
-0.616133
  0
LINE
  8
1
 10
-0.787693
 20
-0.616133
 11
-0.798422
 21
-0.602138
  0
LINE
  8
1
 10
-0.798422
 20
-0.602138
 11
-0.808882
 21
-0.587994
  0
LINE
  8
1
 10
-0.808882
 20
-0.587994
 11
-0.819073
 21
-0.573701
  0
LINE
  8
1
 10
-0.819073
 20
-0.573701
 11
-0.828996
 21
-0.559259
  0
LINE
  8
1
 10
-0.828996
 20
-0.559259
 11
-0.838652
 21
-0.544669
  0
LINE
  8
1
 10
-0.838652
 20
-0.544669
 11
-0.848042
 21
-0.529929
  0
LINE
  8
1
 10
-0.848042
 20
-0.529929
 11
-0.857166
 21
-0.515040
  0
LINE
  8
1
 10
-0.857166
 20
-0.515040
 11
-0.866027
 21
-0.499998
  0
LINE
  8
1
 10
-0.866027
 20
-0.499998
 11
-0.874638
 21
-0.484777
  0
LINE
  8
1
 10
-0.874638
 20
-0.484777
 11
-0.883035
 21
-0.469312
  0
LINE
  8
1
 10
-0.883035
 20
-0.469312
 11
-0.891260
 21
-0.453521
  0
LINE
  8
1
 10
-0.891260
 20
-0.453521
 11
-0.899348
 21
-0.437328
  0
LINE
  8
1
 10
-0.899348
 20
-0.437328
 11
-0.907327
 21
-0.420664
  0
LINE
  8
1
 10
-0.907327
 20
-0.420664
 11
-0.915219
 21
-0.403469
  0
LINE
  8
1
 10
-0.915219
 20
-0.403469
 11
-0.923043
 21
-0.385691
  0
LINE
  8
1
 10
-0.923043
 20
-0.385691
 11
-0.930811
 21
-0.367284
  0
LINE
  8
1
 10
-0.930811
 20
-0.367284
 11
-0.938534
 21
-0.348209
  0
LINE
  8
1
 10
-0.938534
 20
-0.348209
 11
-0.946217
 21
-0.328437
  0
LINE
  8
1
 10
-0.946217
 20
-0.328437
 11
-0.953868
 21
-0.307943
  0
LINE
  8
1
 10
-0.953868
 20
-0.307943
 11
-0.961487
 21
-0.286709
  0
LINE
  8
1
 10
-0.961487
 20
-0.286709
 11
-0.969078
 21
-0.264726
  0
LINE
  8
1
 10
-0.969078
 20
-0.264726
 11
-0.976641
 21
-0.241989
  0
LINE
  8
1
 10
-0.976641
 20
-0.241989
 11
-0.984176
 21
-0.218500
  0
LINE
  8
1
 10
-0.984176
 20
-0.218500
 11
-0.991683
 21
-0.194267
  0
LINE
  8
1
 10
-0.991683
 20
-0.194267
 11
-0.999161
 21
-0.169302
  0
LINE
  8
1
 10
-0.999161
 20
-0.169302
 11
-1.006608
 21
-0.143624
  0
LINE
  8
1
 10
-1.006608
 20
-0.143624
 11
-1.014025
 21
-0.117256
  0
LINE
  8
1
 10
-1.014025
 20
-0.117256
 11
-1.021408
 21
-0.090225
  0
LINE
  8
1
 10
-1.021408
 20
-0.090225
 11
-1.028754
 21
-0.062563
  0
LINE
  8
1
 10
-1.028754
 20
-0.062563
 11
-1.036062
 21
-0.034306
  0
LINE
  8
1
 10
-1.036062
 20
-0.034306
 11
-1.043327
 21
-0.005492
  0
LINE
  8
1
 10
-1.043327
 20
-0.005492
 11
-1.050545
 21
0.023839
  0
LINE
  8
1
 10
-1.050545
 20
0.023839
 11
-1.057709
 21
0.053643
  0
LINE
  8
1
 10
-1.057709
 20
0.053643
 11
-1.064814
 21
0.083875
  0
LINE
  8
1
 10
-1.064814
 20
0.083875
 11
-1.071852
 21
0.114490
  0
LINE
  8
1
 10
-1.071852
 20
0.114490
 11
-1.078813
 21
0.145442
  0
LINE
  8
1
 10
-1.078813
 20
0.145442
 11
-1.085688
 21
0.176684
  0
LINE
  8
1
 10
-1.085688
 20
0.176684
 11
-1.092464
 21
0.208171
  0
LINE
  8
1
 10
-1.092464
 20
0.208171
 11
-1.099130
 21
0.239859
  0
LINE
  8
1
 10
-1.099130
 20
0.239859
 11
-1.105672
 21
0.271705
  0
LINE
  8
1
 10
-1.105672
 20
0.271705
 11
-1.112076
 21
0.303668
  0
LINE
  8
1
 10
-1.112076
 20
0.303668
 11
-1.118325
 21
0.335709
  0
LINE
  8
1
 10
-1.118325
 20
0.335709
 11
-1.124404
 21
0.367793
  0
LINE
  8
1
 10
-1.124404
 20
0.367793
 11
-1.130296
 21
0.399885
  0
LINE
  8
1
 10
-1.130296
 20
0.399885
 11
-1.135985
 21
0.431955
  0
LINE
  8
1
 10
-1.135985
 20
0.431955
 11
-1.141451
 21
0.463974
  0
LINE
  8
1
 10
-1.141451
 20
0.463974
 11
-1.146679
 21
0.495916
  0
LINE
  8
1
 10
-1.146679
 20
0.495916
 11
-1.151650
 21
0.527759
  0
LINE
  8
1
 10
-1.151650
 20
0.527759
 11
-1.156346
 21
0.559482
  0
LINE
  8
1
 10
-1.156346
 20
0.559482
 11
-1.160751
 21
0.591067
  0
LINE
  8
1
 10
-1.160751
 20
0.591067
 11
-1.164847
 21
0.622496
  0
LINE
  8
1
 10
-1.164847
 20
0.622496
 11
-1.168617
 21
0.653756
  0
LINE
  8
1
 10
-1.168617
 20
0.653756
 11
-1.172046
 21
0.684834
  0
LINE
  8
1
 10
-1.172046
 20
0.684834
 11
-1.175116
 21
0.715717
  0
LINE
  8
1
 10
-1.175116
 20
0.715717
 11
-1.177814
 21
0.746394
  0
LINE
  8
1
 10
-1.177814
 20
0.746394
 11
-1.180124
 21
0.776857
  0
LINE
  8
1
 10
-1.180124
 20
0.776857
 11
-1.182032
 21
0.807095
  0
LINE
  8
1
 10
-1.182032
 20
0.807095
 11
-1.183525
 21
0.837100
  0
LINE
  8
1
 10
-1.183525
 20
0.837100
 11
-1.184590
 21
0.866863
  0
LINE
  8
1
 10
-1.184590
 20
0.866863
 11
-1.185215
 21
0.896375
  0
LINE
  8
1
 10
-1.185215
 20
0.896375
 11
-1.185390
 21
0.925629
  0
LINE
  8
1
 10
-1.185390
 20
0.925629
 11
-1.185103
 21
0.954614
  0
LINE
  8
1
 10
-1.185103
 20
0.954614
 11
-1.184346
 21
0.983323
  0
LINE
  8
1
 10
-1.184346
 20
0.983323
 11
-1.183110
 21
1.011746
  0
LINE
  8
1
 10
-1.183110
 20
1.011746
 11
-1.181388
 21
1.039874
  0
LINE
  8
1
 10
-1.181388
 20
1.039874
 11
-1.179172
 21
1.067698
  0
LINE
  8
1
 10
-1.179172
 20
1.067698
 11
-1.176457
 21
1.095207
  0
LINE
  8
1
 10
-1.176457
 20
1.095207
 11
-1.173239
 21
1.122392
  0
LINE
  8
1
 10
-1.173239
 20
1.122392
 11
-1.169513
 21
1.149243
  0
LINE
  8
1
 10
-1.169513
 20
1.149243
 11
-1.165277
 21
1.175750
  0
LINE
  8
1
 10
-1.165277
 20
1.175750
 11
-1.160528
 21
1.201902
  0
LINE
  8
1
 10
-1.160528
 20
1.201902
 11
-1.155266
 21
1.227691
  0
LINE
  8
1
 10
-1.155266
 20
1.227691
 11
-1.149490
 21
1.253107
  0
LINE
  8
1
 10
-1.149490
 20
1.253107
 11
-1.143201
 21
1.278142
  0
LINE
  8
1
 10
-1.143201
 20
1.278142
 11
-1.136399
 21
1.302786
  0
LINE
  8
1
 10
-1.136399
 20
1.302786
 11
-1.129087
 21
1.327032
  0
LINE
  8
1
 10
-1.129087
 20
1.327032
 11
-1.121267
 21
1.350873
  0
LINE
  8
1
 10
-1.121267
 20
1.350873
 11
-1.112942
 21
1.374303
  0
LINE
  8
1
 10
-1.112942
 20
1.374303
 11
-1.104113
 21
1.397317
  0
LINE
  8
1
 10
-1.104113
 20
1.397317
 11
-1.094784
 21
1.419910
  0
LINE
  8
1
 10
-1.094784
 20
1.419910
 11
-1.084957
 21
1.442079
  0
LINE
  8
1
 10
-1.084957
 20
1.442079
 11
-1.074636
 21
1.463822
  0
LINE
  8
1
 10
-1.074636
 20
1.463822
 11
-1.063822
 21
1.485138
  0
LINE
  8
1
 10
-1.063822
 20
1.485138
 11
-1.052516
 21
1.506026
  0
LINE
  8
1
 10
-1.052516
 20
1.506026
 11
-1.040721
 21
1.526487
  0
LINE
  8
1
 10
-1.040721
 20
1.526487
 11
-1.028436
 21
1.546522
  0
LINE
  8
1
 10
-1.028436
 20
1.546522
 11
-1.015660
 21
1.566134
  0
LINE
  8
1
 10
-1.015660
 20
1.566134
 11
-1.002392
 21
1.585326
  0
LINE
  8
1
 10
-1.002392
 20
1.585326
 11
-0.988629
 21
1.604101
  0
LINE
  8
1
 10
-0.988629
 20
1.604101
 11
-0.974366
 21
1.622464
  0
LINE
  8
1
 10
-0.974366
 20
1.622464
 11
-0.959600
 21
1.640417
  0
LINE
  8
1
 10
-0.959600
 20
1.640417
 11
-0.944323
 21
1.657966
  0
LINE
  8
1
 10
-0.944323
 20
1.657966
 11
-0.928528
 21
1.675115
  0
LINE
  8
1
 10
-0.928528
 20
1.675115
 11
-0.912207
 21
1.691866
  0
LINE
  8
1
 10
-0.912207
 20
1.691866
 11
-0.895350
 21
1.708224
  0
LINE
  8
1
 10
-0.895350
 20
1.708224
 11
-0.877947
 21
1.724192
  0
LINE
  8
1
 10
-0.877947
 20
1.724192
 11
-0.859986
 21
1.739771
  0
LINE
  8
1
 10
-0.859986
 20
1.739771
 11
-0.841456
 21
1.754962
  0
LINE
  8
1
 10
-0.841456
 20
1.754962
 11
-0.822344
 21
1.769766
  0
LINE
  8
1
 10
-0.822344
 20
1.769766
 11
-0.802639
 21
1.784181
  0
LINE
  8
1
 10
-0.802639
 20
1.784181
 11
-0.782326
 21
1.798206
  0
LINE
  8
1
 10
-0.782326
 20
1.798206
 11
-0.761396
 21
1.811837
  0
LINE
  8
1
 10
-0.761396
 20
1.811837
 11
-0.739835
 21
1.825070
  0
LINE
  8
1
 10
-0.739835
 20
1.825070
 11
-0.717633
 21
1.837899
  0
LINE
  8
1
 10
-0.717633
 20
1.837899
 11
-0.694780
 21
1.850319
  0
LINE
  8
1
 10
-0.694780
 20
1.850319
 11
-0.671268
 21
1.862320
  0
LINE
  8
1
 10
-0.671268
 20
1.862320
 11
-0.647089
 21
1.873894
  0
LINE
  8
1
 10
-0.647089
 20
1.873894
 11
-0.622237
 21
1.885033
  0
LINE
  8
1
 10
-0.622237
 20
1.885033
 11
-0.596710
 21
1.895726
  0
LINE
  8
1
 10
-0.596710
 20
1.895726
 11
-0.570506
 21
1.905962
  0
LINE
  8
1
 10
-0.570506
 20
1.905962
 11
-0.543625
 21
1.915730
  0
LINE
  8
1
 10
-0.543625
 20
1.915730
 11
-0.516072
 21
1.925019
  0
LINE
  8
1
 10
-0.516072
 20
1.925019
 11
-0.487853
 21
1.933817
  0
LINE
  8
1
 10
-0.487853
 20
1.933817
 11
-0.458977
 21
1.942113
  0
LINE
  8
1
 10
-0.458977
 20
1.942113
 11
-0.429457
 21
1.949896
  0
LINE
  8
1
 10
-0.429457
 20
1.949896
 11
-0.399308
 21
1.957153
  0
LINE
  8
1
 10
-0.399308
 20
1.957153
 11
-0.368551
 21
1.963875
  0
LINE
  8
1
 10
-0.368551
 20
1.963875
 11
-0.337210
 21
1.970051
  0
LINE
  8
1
 10
-0.337210
 20
1.970051
 11
-0.305310
 21
1.975671
  0
LINE
  8
1
 10
-0.305310
 20
1.975671
 11
-0.272885
 21
1.980726
  0
LINE
  8
1
 10
-0.272885
 20
1.980726
 11
-0.239970
 21
1.985208
  0
LINE
  8
1
 10
-0.239970
 20
1.985208
 11
-0.206606
 21
1.989110
  0
LINE
  8
1
 10
-0.206606
 20
1.989110
 11
-0.172841
 21
1.992423
  0
LINE
  8
1
 10
-0.172841
 20
1.992423
 11
-0.138725
 21
1.995144
  0
LINE
  8
1
 10
-0.138725
 20
1.995144
 11
-0.104316
 21
1.997265
  0
LINE
  8
1
 10
-0.104316
 20
1.997265
 11
-0.069678
 21
1.998783
  0
LINE
  8
1
 10
-0.069678
 20
1.998783
 11
-0.034880
 21
1.999696
  0
LINE
  8
1
 10
-0.034880
 20
1.999696
 11
0.000001
 21
2.000000
  0
ENDSEC
  0
EOF
