  0
SECTION
  2
HEADER
  9
$EXTMIN
 10
-1.002802
 20
-1.320961
  9
$EXTMAX
 10
1.883590
 20
2.000000
  0
ENDSEC
  0
SECTION
  2
TABLES
  0
TABLE
  2
LTYPE
 70
1
  0
LTYPE
  2
CONTINUOUS
 70
64
  3
Solid Line
 72
65
 73
0
 40
0.000000
  0
ENDTAB
  0
TABLE
  2
LAYER
 70
16
  0
LAYER
  2
0
 70
0
 62
7
  6
CONTINUOUS
  0
LAYER
  2
1
 70
0
 62
7
  6
CONTINUOUS
  0
LAYER
  2
2
 70
0
 62
7
  6
CONTINUOUS
  0
LAYER
  2
3
 70
0
 62
7
  6
CONTINUOUS
  0
LAYER
  2
4
 70
0
 62
7
  6
CONTINUOUS
  0
LAYER
  2
5
 70
0
 62
7
  6
CONTINUOUS
  0
LAYER
  2
6
 70
0
 62
7
  6
CONTINUOUS
  0
LAYER
  2
7
 70
0
 62
7
  6
CONTINUOUS
  0
LAYER
  2
8
 70
0
 62
7
  6
CONTINUOUS
  0
LAYER
  2
9
 70
0
 62
7
  6
CONTINUOUS
  0
LAYER
  2
10
 70
0
 62
7
  6
CONTINUOUS
  0
LAYER
  2
11
 70
0
 62
7
  6
CONTINUOUS
  0
LAYER
  2
12
 70
0
 62
7
  6
CONTINUOUS
  0
LAYER
  2
13
 70
0
 62
7
  6
CONTINUOUS
  0
LAYER
  2
14
 70
0
 62
7
  6
CONTINUOUS
  0
LAYER
  2
15
 70
0
 62
7
  6
CONTINUOUS
  0
ENDTAB
  0
ENDSEC
  0
SECTION
  2
ENTITIES
  0
LINE
  8
1
 10
0.000025
 20
2.000000
 11
0.034904
 21
1.999695
  0
LINE
  8
1
 10
0.034904
 20
1.999695
 11
0.069796
 21
1.998782
  0
LINE
  8
1
 10
0.069796
 20
1.998782
 11
0.104662
 21
1.997259
  0
LINE
  8
1
 10
0.104662
 20
1.997259
 11
0.139491
 21
1.995129
  0
LINE
  8
1
 10
0.139491
 20
1.995129
 11
0.174271
 21
1.992390
  0
LINE
  8
1
 10
0.174271
 20
1.992390
 11
0.208988
 21
1.989046
  0
LINE
  8
1
 10
0.208988
 20
1.989046
 11
0.243631
 21
1.985096
  0
LINE
  8
1
 10
0.243631
 20
1.985096
 11
0.278187
 21
1.980542
  0
LINE
  8
1
 10
0.278187
 20
1.980542
 11
0.312645
 21
1.975385
  0
LINE
  8
1
 10
0.312645
 20
1.975385
 11
0.346993
 21
1.969629
  0
LINE
  8
1
 10
0.346993
 20
1.969629
 11
0.381219
 21
1.963273
  0
LINE
  8
1
 10
0.381219
 20
1.963273
 11
0.415310
 21
1.956321
  0
LINE
  8
1
 10
0.415310
 20
1.956321
 11
0.449255
 21
1.948776
  0
LINE
  8
1
 10
0.449255
 20
1.948776
 11
0.483043
 21
1.940639
  0
LINE
  8
1
 10
0.483043
 20
1.940639
 11
0.516662
 21
1.931913
  0
LINE
  8
1
 10
0.516662
 20
1.931913
 11
0.550100
 21
1.922602
  0
LINE
  8
1
 10
0.550100
 20
1.922602
 11
0.583346
 21
1.912709
  0
LINE
  8
1
 10
0.583346
 20
1.912709
 11
0.616389
 21
1.902237
  0
LINE
  8
1
 10
0.616389
 20
1.902237
 11
0.649217
 21
1.891190
  0
LINE
  8
1
 10
0.649217
 20
1.891190
 11
0.681818
 21
1.879572
  0
LINE
  8
1
 10
0.681818
 20
1.879572
 11
0.714183
 21
1.867386
  0
LINE
  8
1
 10
0.714183
 20
1.867386
 11
0.746300
 21
1.854638
  0
LINE
  8
1
 10
0.746300
 20
1.854638
 11
0.778158
 21
1.841331
  0
LINE
  8
1
 10
0.778158
 20
1.841331
 11
0.809746
 21
1.827470
  0
LINE
  8
1
 10
0.809746
 20
1.827470
 11
0.841053
 21
1.813060
  0
LINE
  8
1
 10
0.841053
 20
1.813060
 11
0.872069
 21
1.798106
  0
LINE
  8
1
 10
0.872069
 20
1.798106
 11
0.902783
 21
1.782614
  0
LINE
  8
1
 10
0.902783
 20
1.782614
 11
0.933185
 21
1.766588
  0
LINE
  8
1
 10
0.933185
 20
1.766588
 11
0.963264
 21
1.750035
  0
LINE
  8
1
 10
0.963264
 20
1.750035
 11
0.993010
 21
1.732961
  0
LINE
  8
1
 10
0.993010
 20
1.732961
 11
1.022414
 21
1.715371
  0
LINE
  8
1
 10
1.022414
 20
1.715371
 11
1.051464
 21
1.697272
  0
LINE
  8
1
 10
1.051464
 20
1.697272
 11
1.080151
 21
1.678670
  0
LINE
  8
1
 10
1.080151
 20
1.678670
 11
1.108465
 21
1.659572
  0
LINE
  8
1
 10
1.108465
 20
1.659572
 11
1.136397
 21
1.639986
  0
LINE
  8
1
 10
1.136397
 20
1.639986
 11
1.163937
 21
1.619918
  0
LINE
  8
1
 10
1.163937
 20
1.619918
 11
1.191076
 21
1.599375
  0
LINE
  8
1
 10
1.191076
 20
1.599375
 11
1.217804
 21
1.578365
  0
LINE
  8
1
 10
1.217804
 20
1.578365
 11
1.244113
 21
1.556896
  0
LINE
  8
1
 10
1.244113
 20
1.556896
 11
1.269993
 21
1.534975
  0
LINE
  8
1
 10
1.269993
 20
1.534975
 11
1.295435
 21
1.512612
  0
LINE
  8
1
 10
1.295435
 20
1.512612
 11
1.320432
 21
1.489813
  0
LINE
  8
1
 10
1.320432
 20
1.489813
 11
1.344973
 21
1.466588
  0
LINE
  8
1
 10
1.344973
 20
1.466588
 11
1.369053
 21
1.442945
  0
LINE
  8
1
 10
1.369053
 20
1.442945
 11
1.392661
 21
1.418893
  0
LINE
  8
1
 10
1.392661
 20
1.418893
 11
1.415790
 21
1.394442
  0
LINE
  8
1
 10
1.415790
 20
1.394442
 11
1.438432
 21
1.369600
  0
LINE
  8
1
 10
1.438432
 20
1.369600
 11
1.460580
 21
1.344376
  0
LINE
  8
1
 10
1.460580
 20
1.344376
 11
1.482227
 21
1.318782
  0
LINE
  8
1
 10
1.482227
 20
1.318782
 11
1.503365
 21
1.292825
  0
LINE
  8
1
 10
1.503365
 20
1.292825
 11
1.523986
 21
1.266516
  0
LINE
  8
1
 10
1.523986
 20
1.266516
 11
1.544085
 21
1.239866
  0
LINE
  8
1
 10
1.544085
 20
1.239866
 11
1.563655
 21
1.212884
  0
LINE
  8
1
 10
1.563655
 20
1.212884
 11
1.582689
 21
1.185581
  0
LINE
  8
1
 10
1.582689
 20
1.185581
 11
1.601181
 21
1.157967
  0
LINE
  8
1
 10
1.601181
 20
1.157967
 11
1.619126
 21
1.130054
  0
LINE
  8
1
 10
1.619126
 20
1.130054
 11
1.636517
 21
1.101851
  0
LINE
  8
1
 10
1.636517
 20
1.101851
 11
1.653349
 21
1.073371
  0
LINE
  8
1
 10
1.653349
 20
1.073371
 11
1.669617
 21
1.044623
  0
LINE
  8
1
 10
1.669617
 20
1.044623
 11
1.685316
 21
1.015620
  0
LINE
  8
1
 10
1.685316
 20
1.015620
 11
1.700442
 21
0.986373
  0
LINE
  8
1
 10
1.700442
 20
0.986373
 11
1.714988
 21
0.956892
  0
LINE
  8
1
 10
1.714988
 20
0.956892
 11
1.728953
 21
0.927191
  0
LINE
  8
1
 10
1.728953
 20
0.927191
 11
1.742330
 21
0.897280
  0
LINE
  8
1
 10
1.742330
 20
0.897280
 11
1.755118
 21
0.867171
  0
LINE
  8
1
 10
1.755118
 20
0.867171
 11
1.767312
 21
0.836876
  0
LINE
  8
1
 10
1.767312
 20
0.836876
 11
1.778908
 21
0.806408
  0
LINE
  8
1
 10
1.778908
 20
0.806408
 11
1.789905
 21
0.775777
  0
LINE
  8
1
 10
1.789905
 20
0.775777
 11
1.800300
 21
0.744997
  0
LINE
  8
1
 10
1.800300
 20
0.744997
 11
1.810089
 21
0.714079
  0
LINE
  8
1
 10
1.810089
 20
0.714079
 11
1.819272
 21
0.683036
  0
LINE
  8
1
 10
1.819272
 20
0.683036
 11
1.827845
 21
0.651879
  0
LINE
  8
1
 10
1.827845
 20
0.651879
 11
1.835808
 21
0.620622
  0
LINE
  8
1
 10
1.835808
 20
0.620622
 11
1.843160
 21
0.589277
  0
LINE
  8
1
 10
1.843160
 20
0.589277
 11
1.849899
 21
0.557856
  0
LINE
  8
1
 10
1.849899
 20
0.557856
 11
1.856024
 21
0.526371
  0
LINE
  8
1
 10
1.856024
 20
0.526371
 11
1.861536
 21
0.494835
  0
LINE
  8
1
 10
1.861536
 20
0.494835
 11
1.866433
 21
0.463260
  0
LINE
  8
1
 10
1.866433
 20
0.463260
 11
1.870717
 21
0.431659
  0
LINE
  8
1
 10
1.870717
 20
0.431659
 11
1.874388
 21
0.400044
  0
LINE
  8
1
 10
1.874388
 20
0.400044
 11
1.877446
 21
0.368427
  0
LINE
  8
1
 10
1.877446
 20
0.368427
 11
1.879892
 21
0.336822
  0
LINE
  8
1
 10
1.879892
 20
0.336822
 11
1.881728
 21
0.305239
  0
LINE
  8
1
 10
1.881728
 20
0.305239
 11
1.882955
 21
0.273693
  0
LINE
  8
1
 10
1.882955
 20
0.273693
 11
1.883575
 21
0.242194
  0
LINE
  8
1
 10
1.883575
 20
0.242194
 11
1.883590
 21
0.210755
  0
LINE
  8
1
 10
1.883590
 20
0.210755
 11
1.883003
 21
0.179388
  0
LINE
  8
1
 10
1.883003
 20
0.179388
 11
1.881816
 21
0.148106
  0
LINE
  8
1
 10
1.881816
 20
0.148106
 11
1.880032
 21
0.116919
  0
LINE
  8
1
 10
1.880032
 20
0.116919
 11
1.877655
 21
0.085841
  0
LINE
  8
1
 10
1.877655
 20
0.085841
 11
1.874688
 21
0.054883
  0
LINE
  8
1
 10
1.874688
 20
0.054883
 11
1.871135
 21
0.024056
  0
LINE
  8
1
 10
1.871135
 20
0.024056
 11
1.866999
 21
-0.006628
  0
LINE
  8
1
 10
1.866999
 20
-0.006628
 11
1.862286
 21
-0.037156
  0
LINE
  8
1
 10
1.862286
 20
-0.037156
 11
1.856999
 21
-0.067519
  0
LINE
  8
1
 10
1.856999
 20
-0.067519
 11
1.851144
 21
-0.097705
  0
LINE
  8
1
 10
1.851144
 20
-0.097705
 11
1.844725
 21
-0.127702
  0
LINE
  8
1
 10
1.844725
 20
-0.127702
 11
1.837748
 21
-0.157500
  0
LINE
  8
1
 10
1.837748
 20
-0.157500
 11
1.830219
 21
-0.187087
  0
LINE
  8
1
 10
1.830219
 20
-0.187087
 11
1.822143
 21
-0.216454
  0
LINE
  8
1
 10
1.822143
 20
-0.216454
 11
1.813526
 21
-0.245590
  0
LINE
  8
1
 10
1.813526
 20
-0.245590
 11
1.804375
 21
-0.274484
  0
LINE
  8
1
 10
1.804375
 20
-0.274484
 11
1.794695
 21
-0.303126
  0
LINE
  8
1
 10
1.794695
 20
-0.303126
 11
1.784495
 21
-0.331507
  0
LINE
  8
1
 10
1.784495
 20
-0.331507
 11
1.773780
 21
-0.359616
  0
LINE
  8
1
 10
1.773780
 20
-0.359616
 11
1.762557
 21
-0.387445
  0
LINE
  8
1
 10
1.762557
 20
-0.387445
 11
1.750835
 21
-0.414983
  0
LINE
  8
1
 10
1.750835
 20
-0.414983
 11
1.738620
 21
-0.442221
  0
LINE
  8
1
 10
1.738620
 20
-0.442221
 11
1.725920
 21
-0.469151
  0
LINE
  8
1
 10
1.725920
 20
-0.469151
 11
1.712743
 21
-0.495763
  0
LINE
  8
1
 10
1.712743
 20
-0.495763
 11
1.699098
 21
-0.522050
  0
LINE
  8
1
 10
1.699098
 20
-0.522050
 11
1.684991
 21
-0.548002
  0
LINE
  8
1
 10
1.684991
 20
-0.548002
 11
1.670433
 21
-0.573612
  0
LINE
  8
1
 10
1.670433
 20
-0.573612
 11
1.655430
 21
-0.598872
  0
LINE
  8
1
 10
1.655430
 20
-0.598872
 11
1.639992
 21
-0.623775
  0
LINE
  8
1
 10
1.639992
 20
-0.623775
 11
1.624128
 21
-0.648311
  0
LINE
  8
1
 10
1.624128
 20
-0.648311
 11
1.607847
 21
-0.672476
  0
LINE
  8
1
 10
1.607847
 20
-0.672476
 11
1.591157
 21
-0.696261
  0
LINE
  8
1
 10
1.591157
 20
-0.696261
 11
1.574069
 21
-0.719660
  0
LINE
  8
1
 10
1.574069
 20
-0.719660
 11
1.556590
 21
-0.742666
  0
LINE
  8
1
 10
1.556590
 20
-0.742666
 11
1.538731
 21
-0.765274
  0
LINE
  8
1
 10
1.538731
 20
-0.765274
 11
1.520501
 21
-0.787477
  0
LINE
  8
1
 10
1.520501
 20
-0.787477
 11
1.501910
 21
-0.809270
  0
LINE
  8
1
 10
1.501910
 20
-0.809270
 11
1.482967
 21
-0.830647
  0
LINE
  8
1
 10
1.482967
 20
-0.830647
 11
1.463682
 21
-0.851602
  0
LINE
  8
1
 10
1.463682
 20
-0.851602
 11
1.444065
 21
-0.872132
  0
LINE
  8
1
 10
1.444065
 20
-0.872132
 11
1.424125
 21
-0.892231
  0
LINE
  8
1
 10
1.424125
 20
-0.892231
 11
1.403874
 21
-0.911894
  0
LINE
  8
1
 10
1.403874
 20
-0.911894
 11
1.383320
 21
-0.931118
  0
LINE
  8
1
 10
1.383320
 20
-0.931118
 11
1.362473
 21
-0.949899
  0
LINE
  8
1
 10
1.362473
 20
-0.949899
 11
1.341344
 21
-0.968233
  0
LINE
  8
1
 10
1.341344
 20
-0.968233
 11
1.319943
 21
-0.986116
  0
LINE
  8
1
 10
1.319943
 20
-0.986116
 11
1.298280
 21
-1.003545
  0
LINE
  8
1
 10
1.298280
 20
-1.003545
 11
1.276365
 21
-1.020517
  0
LINE
  8
1
 10
1.276365
 20
-1.020517
 11
1.254207
 21
-1.037030
  0
LINE
  8
1
 10
1.254207
 20
-1.037030
 11
1.231818
 21
-1.053081
  0
LINE
  8
1
 10
1.231818
 20
-1.053081
 11
1.209206
 21
-1.068668
  0
LINE
  8
1
 10
1.209206
 20
-1.068668
 11
1.186383
 21
-1.083789
  0
LINE
  8
1
 10
1.186383
 20
-1.083789
 11
1.163358
 21
-1.098442
  0
LINE
  8
1
 10
1.163358
 20
-1.098442
 11
1.140140
 21
-1.112626
  0
LINE
  8
1
 10
1.140140
 20
-1.112626
 11
1.116741
 21
-1.126339
  0
LINE
  8
1
 10
1.116741
 20
-1.126339
 11
1.093170
 21
-1.139580
  0
LINE
  8
1
 10
1.093170
 20
-1.139580
 11
1.069437
 21
-1.152348
  0
LINE
  8
1
 10
1.069437
 20
-1.152348
 11
1.045551
 21
-1.164644
  0
LINE
  8
1
 10
1.045551
 20
-1.164644
 11
1.021523
 21
-1.176465
  0
LINE
  8
1
 10
1.021523
 20
-1.176465
 11
0.997361
 21
-1.187813
  0
LINE
  8
1
 10
0.997361
 20
-1.187813
 11
0.973076
 21
-1.198688
  0
LINE
  8
1
 10
0.973076
 20
-1.198688
 11
0.948678
 21
-1.209089
  0
LINE
  8
1
 10
0.948678
 20
-1.209089
 11
0.924175
 21
-1.219017
  0
LINE
  8
1
 10
0.924175
 20
-1.219017
 11
0.899576
 21
-1.228472
  0
LINE
  8
1
 10
0.899576
 20
-1.228472
 11
0.874892
 21
-1.237456
  0
LINE
  8
1
 10
0.874892
 20
-1.237456
 11
0.850132
 21
-1.245970
  0
LINE
  8
1
 10
0.850132
 20
-1.245970
 11
0.825304
 21
-1.254014
  0
LINE
  8
1
 10
0.825304
 20
-1.254014
 11
0.800417
 21
-1.261591
  0
LINE
  8
1
 10
0.800417
 20
-1.261591
 11
0.775480
 21
-1.268701
  0
LINE
  8
1
 10
0.775480
 20
-1.268701
 11
0.750503
 21
-1.275347
  0
LINE
  8
1
 10
0.750503
 20
-1.275347
 11
0.725493
 21
-1.281530
  0
LINE
  8
1
 10
0.725493
 20
-1.281530
 11
0.700459
 21
-1.287252
  0
LINE
  8
1
 10
0.700459
 20
-1.287252
 11
0.675410
 21
-1.292517
  0
LINE
  8
1
 10
0.675410
 20
-1.292517
 11
0.650354
 21
-1.297325
  0
LINE
  8
1
 10
0.650354
 20
-1.297325
 11
0.625299
 21
-1.301680
  0
LINE
  8
1
 10
0.625299
 20
-1.301680
 11
0.600253
 21
-1.305585
  0
LINE
  8
1
 10
0.600253
 20
-1.305585
 11
0.575224
 21
-1.309041
  0
LINE
  8
1
 10
0.575224
 20
-1.309041
 11
0.550219
 21
-1.312053
  0
LINE
  8
1
 10
0.550219
 20
-1.312053
 11
0.525247
 21
-1.314623
  0
LINE
  8
1
 10
0.525247
 20
-1.314623
 11
0.500315
 21
-1.316754
  0
LINE
  8
1
 10
0.500315
 20
-1.316754
 11
0.475431
 21
-1.318450
  0
LINE
  8
1
 10
0.475431
 20
-1.318450
 11
0.450601
 21
-1.319714
  0
LINE
  8
1
 10
0.450601
 20
-1.319714
 11
0.425832
 21
-1.320550
  0
LINE
  8
1
 10
0.425832
 20
-1.320550
 11
0.401133
 21
-1.320961
  0
LINE
  8
1
 10
0.401133
 20
-1.320961
 11
0.376509
 21
-1.320950
  0
LINE
  8
1
 10
0.376509
 20
-1.320950
 11
0.351967
 21
-1.320523
  0
LINE
  8
1
 10
0.351967
 20
-1.320523
 11
0.327514
 21
-1.319682
  0
LINE
  8
1
 10
0.327514
 20
-1.319682
 11
0.303156
 21
-1.318432
  0
LINE
  8
1
 10
0.303156
 20
-1.318432
 11
0.278900
 21
-1.316777
  0
LINE
  8
1
 10
0.278900
 20
-1.316777
 11
0.254752
 21
-1.314721
  0
LINE
  8
1
 10
0.254752
 20
-1.314721
 11
0.230717
 21
-1.312268
  0
LINE
  8
1
 10
0.230717
 20
-1.312268
 11
0.206802
 21
-1.309422
  0
LINE
  8
1
 10
0.206802
 20
-1.309422
 11
0.183013
 21
-1.306188
  0
LINE
  8
1
 10
0.183013
 20
-1.306188
 11
0.159355
 21
-1.302571
  0
LINE
  8
1
 10
0.159355
 20
-1.302571
 11
0.135833
 21
-1.298573
  0
LINE
  8
1
 10
0.135833
 20
-1.298573
 11
0.112454
 21
-1.294201
  0
LINE
  8
1
 10
0.112454
 20
-1.294201
 11
0.089222
 21
-1.289459
  0
LINE
  8
1
 10
0.089222
 20
-1.289459
 11
0.066142
 21
-1.284351
  0
LINE
  8
1
 10
0.066142
 20
-1.284351
 11
0.043220
 21
-1.278882
  0
LINE
  8
1
 10
0.043220
 20
-1.278882
 11
0.020460
 21
-1.273056
  0
LINE
  8
1
 10
0.020460
 20
-1.273056
 11
-0.002132
 21
-1.266879
  0
LINE
  8
1
 10
-0.002132
 20
-1.266879
 11
-0.024552
 21
-1.260354
  0
LINE
  8
1
 10
-0.024552
 20
-1.260354
 11
-0.046797
 21
-1.253488
  0
LINE
  8
1
 10
-0.046797
 20
-1.253488
 11
-0.068860
 21
-1.246283
  0
LINE
  8
1
 10
-0.068860
 20
-1.246283
 11
-0.090738
 21
-1.238747
  0
LINE
  8
1
 10
-0.090738
 20
-1.238747
 11
-0.112426
 21
-1.230882
  0
LINE
  8
1
 10
-0.112426
 20
-1.230882
 11
-0.133921
 21
-1.222694
  0
LINE
  8
1
 10
-0.133921
 20
-1.222694
 11
-0.155218
 21
-1.214189
  0
LINE
  8
1
 10
-0.155218
 20
-1.214189
 11
-0.176314
 21
-1.205370
  0
LINE
  8
1
 10
-0.176314
 20
-1.205370
 11
-0.197205
 21
-1.196242
  0
LINE
  8
1
 10
-0.197205
 20
-1.196242
 11
-0.217886
 21
-1.186812
  0
LINE
  8
1
 10
-0.217886
 20
-1.186812
 11
-0.238355
 21
-1.177082
  0
LINE
  8
1
 10
-0.238355
 20
-1.177082
 11
-0.258607
 21
-1.167059
  0
LINE
  8
1
 10
-0.258607
 20
-1.167059
 11
-0.278640
 21
-1.156748
  0
LINE
  8
1
 10
-0.278640
 20
-1.156748
 11
-0.298450
 21
-1.146152
  0
LINE
  8
1
 10
-0.298450
 20
-1.146152
 11
-0.318033
 21
-1.135278
  0
LINE
  8
1
 10
-0.318033
 20
-1.135278
 11
-0.337387
 21
-1.124129
  0
LINE
  8
1
 10
-0.337387
 20
-1.124129
 11
-0.356509
 21
-1.112712
  0
LINE
  8
1
 10
-0.356509
 20
-1.112712
 11
-0.375394
 21
-1.101030
  0
LINE
  8
1
 10
-0.375394
 20
-1.101030
 11
-0.394041
 21
-1.089090
  0
LINE
  8
1
 10
-0.394041
 20
-1.089090
 11
-0.412447
 21
-1.076895
  0
LINE
  8
1
 10
-0.412447
 20
-1.076895
 11
-0.430608
 21
-1.064451
  0
LINE
  8
1
 10
-0.430608
 20
-1.064451
 11
-0.448523
 21
-1.051762
  0
LINE
  8
1
 10
-0.448523
 20
-1.051762
 11
-0.466187
 21
-1.038834
  0
LINE
  8
1
 10
-0.466187
 20
-1.038834
 11
-0.483599
 21
-1.025672
  0
LINE
  8
1
 10
-0.483599
 20
-1.025672
 11
-0.500757
 21
-1.012279
  0
LINE
  8
1
 10
-0.500757
 20
-1.012279
 11
-0.517657
 21
-0.998663
  0
LINE
  8
1
 10
-0.517657
 20
-0.998663
 11
-0.534297
 21
-0.984826
  0
LINE
  8
1
 10
-0.534297
 20
-0.984826
 11
-0.550675
 21
-0.970775
  0
LINE
  8
1
 10
-0.550675
 20
-0.970775
 11
-0.566789
 21
-0.956513
  0
LINE
  8
1
 10
-0.566789
 20
-0.956513
 11
-0.582637
 21
-0.942047
  0
LINE
  8
1
 10
-0.582637
 20
-0.942047
 11
-0.598215
 21
-0.927380
  0
LINE
  8
1
 10
-0.598215
 20
-0.927380
 11
-0.613523
 21
-0.912518
  0
LINE
  8
1
 10
-0.613523
 20
-0.912518
 11
-0.628558
 21
-0.897466
  0
LINE
  8
1
 10
-0.628558
 20
-0.897466
 11
-0.643318
 21
-0.882228
  0
LINE
  8
1
 10
-0.643318
 20
-0.882228
 11
-0.657801
 21
-0.866810
  0
LINE
  8
1
 10
-0.657801
 20
-0.866810
 11
-0.672005
 21
-0.851216
  0
LINE
  8
1
 10
-0.672005
 20
-0.851216
 11
-0.685929
 21
-0.835452
  0
LINE
  8
1
 10
-0.685929
 20
-0.835452
 11
-0.699571
 21
-0.819521
  0
LINE
  8
1
 10
-0.699571
 20
-0.819521
 11
-0.712928
 21
-0.803430
  0
LINE
  8
1
 10
-0.712928
 20
-0.803430
 11
-0.726000
 21
-0.787182
  0
LINE
  8
1
 10
-0.726000
 20
-0.787182
 11
-0.738784
 21
-0.770783
  0
LINE
  8
1
 10
-0.738784
 20
-0.770783
 11
-0.751279
 21
-0.754238
  0
LINE
  8
1
 10
-0.751279
 20
-0.754238
 11
-0.763484
 21
-0.737551
  0
LINE
  8
1
 10
-0.763484
 20
-0.737551
 11
-0.775397
 21
-0.720728
  0
LINE
  8
1
 10
-0.775397
 20
-0.720728
 11
-0.787017
 21
-0.703773
  0
LINE
  8
1
 10
-0.787017
 20
-0.703773
 11
-0.798342
 21
-0.686692
  0
LINE
  8
1
 10
-0.798342
 20
-0.686692
 11
-0.809371
 21
-0.669488
  0
LINE
  8
1
 10
-0.809371
 20
-0.669488
 11
-0.820103
 21
-0.652167
  0
LINE
  8
1
 10
-0.820103
 20
-0.652167
 11
-0.830536
 21
-0.634734
  0
LINE
  8
1
 10
-0.830536
 20
-0.634734
 11
-0.840669
 21
-0.617194
  0
LINE
  8
1
 10
-0.840669
 20
-0.617194
 11
-0.850502
 21
-0.599551
  0
LINE
  8
1
 10
-0.850502
 20
-0.599551
 11
-0.860033
 21
-0.581811
  0
LINE
  8
1
 10
-0.860033
 20
-0.581811
 11
-0.869262
 21
-0.563978
  0
LINE
  8
1
 10
-0.869262
 20
-0.563978
 11
-0.878186
 21
-0.546057
  0
LINE
  8
1
 10
-0.878186
 20
-0.546057
 11
-0.886807
 21
-0.528053
  0
LINE
  8
1
 10
-0.886807
 20
-0.528053
 11
-0.895121
 21
-0.509971
  0
LINE
  8
1
 10
-0.895121
 20
-0.509971
 11
-0.903130
 21
-0.491815
  0
LINE
  8
1
 10
-0.903130
 20
-0.491815
 11
-0.910831
 21
-0.473592
  0
LINE
  8
1
 10
-0.910831
 20
-0.473592
 11
-0.918226
 21
-0.455304
  0
LINE
  8
1
 10
-0.918226
 20
-0.455304
 11
-0.925312
 21
-0.436958
  0
LINE
  8
1
 10
-0.925312
 20
-0.436958
 11
-0.932089
 21
-0.418558
  0
LINE
  8
1
 10
-0.932089
 20
-0.418558
 11
-0.938557
 21
-0.400109
  0
LINE
  8
1
 10
-0.938557
 20
-0.400109
 11
-0.944716
 21
-0.381615
  0
LINE
  8
1
 10
-0.944716
 20
-0.381615
 11
-0.950565
 21
-0.363082
  0
LINE
  8
1
 10
-0.950565
 20
-0.363082
 11
-0.956103
 21
-0.344514
  0
LINE
  8
1
 10
-0.956103
 20
-0.344514
 11
-0.961331
 21
-0.325917
  0
LINE
  8
1
 10
-0.961331
 20
-0.325917
 11
-0.966249
 21
-0.307294
  0
LINE
  8
1
 10
-0.966249
 20
-0.307294
 11
-0.970855
 21
-0.288651
  0
LINE
  8
1
 10
-0.970855
 20
-0.288651
 11
-0.975151
 21
-0.269992
  0
LINE
  8
1
 10
-0.975151
 20
-0.269992
 11
-0.979136
 21
-0.251322
  0
LINE
  8
1
 10
-0.979136
 20
-0.251322
 11
-0.982810
 21
-0.232646
  0
LINE
  8
1
 10
-0.982810
 20
-0.232646
 11
-0.986174
 21
-0.213969
  0
LINE
  8
1
 10
-0.986174
 20
-0.213969
 11
-0.989227
 21
-0.195295
  0
LINE
  8
1
 10
-0.989227
 20
-0.195295
 11
-0.991971
 21
-0.176629
  0
LINE
  8
1
 10
-0.991971
 20
-0.176629
 11
-0.994404
 21
-0.157975
  0
LINE
  8
1
 10
-0.994404
 20
-0.157975
 11
-0.996528
 21
-0.139338
  0
LINE
  8
1
 10
-0.996528
 20
-0.139338
 11
-0.998343
 21
-0.120723
  0
LINE
  8
1
 10
-0.998343
 20
-0.120723
 11
-0.999849
 21
-0.102134
  0
LINE
  8
1
 10
-0.999849
 20
-0.102134
 11
-1.001047
 21
-0.083576
  0
LINE
  8
1
 10
-1.001047
 20
-0.083576
 11
-1.001939
 21
-0.065053
  0
LINE
  8
1
 10
-1.001939
 20
-0.065053
 11
-1.002523
 21
-0.046570
  0
LINE
  8
1
 10
-1.002523
 20
-0.046570
 11
-1.002802
 21
-0.028130
  0
LINE
  8
1
 10
-1.002802
 20
-0.028130
 11
-1.002775
 21
-0.009740
  0
LINE
  8
1
 10
-1.002775
 20
-0.009740
 11
-1.002445
 21
0.008598
  0
LINE
  8
1
 10
-1.002445
 20
0.008598
 11
-1.001811
 21
0.026879
  0
LINE
  8
1
 10
-1.001811
 20
0.026879
 11
-1.000875
 21
0.045099
  0
LINE
  8
1
 10
-1.000875
 20
0.045099
 11
-0.999638
 21
0.063253
  0
LINE
  8
1
 10
-0.999638
 20
0.063253
 11
-0.998100
 21
0.081338
  0
LINE
  8
1
 10
-0.998100
 20
0.081338
 11
-0.996263
 21
0.099348
  0
LINE
  8
1
 10
-0.996263
 20
0.099348
 11
-0.994129
 21
0.117281
  0
LINE
  8
1
 10
-0.994129
 20
0.117281
 11
-0.991698
 21
0.135133
  0
LINE
  8
1
 10
-0.991698
 20
0.135133
 11
-0.988971
 21
0.152898
  0
LINE
  8
1
 10
-0.988971
 20
0.152898
 11
-0.985951
 21
0.170574
  0
LINE
  8
1
 10
-0.985951
 20
0.170574
 11
-0.982638
 21
0.188157
  0
LINE
  8
1
 10
-0.982638
 20
0.188157
 11
-0.979033
 21
0.205642
  0
LINE
  8
1
 10
-0.979033
 20
0.205642
 11
-0.975139
 21
0.223027
  0
LINE
  8
1
 10
-0.975139
 20
0.223027
 11
-0.970956
 21
0.240308
  0
LINE
  8
1
 10
-0.970956
 20
0.240308
 11
-0.966486
 21
0.257480
  0
LINE
  8
1
 10
-0.966486
 20
0.257480
 11
-0.961731
 21
0.274542
  0
LINE
  8
1
 10
-0.961731
 20
0.274542
 11
-0.956691
 21
0.291489
  0
LINE
  8
1
 10
-0.956691
 20
0.291489
 11
-0.951369
 21
0.308318
  0
LINE
  8
1
 10
-0.951369
 20
0.308318
 11
-0.945767
 21
0.325026
  0
LINE
  8
1
 10
-0.945767
 20
0.325026
 11
-0.939885
 21
0.341610
  0
LINE
  8
1
 10
-0.939885
 20
0.341610
 11
-0.933724
 21
0.358066
  0
LINE
  8
1
 10
-0.933724
 20
0.358066
 11
-0.927288
 21
0.374393
  0
LINE
  8
1
 10
-0.927288
 20
0.374393
 11
-0.920577
 21
0.390587
  0
LINE
  8
1
 10
-0.920577
 20
0.390587
 11
-0.913592
 21
0.406644
  0
LINE
  8
1
 10
-0.913592
 20
0.406644
 11
-0.906336
 21
0.422564
  0
LINE
  8
1
 10
-0.906336
 20
0.422564
 11
-0.898809
 21
0.438343
  0
LINE
  8
1
 10
-0.898809
 20
0.438343
 11
-0.891013
 21
0.453978
  0
LINE
  8
1
 10
-0.891013
 20
0.453978
 11
-0.882950
 21
0.469467
  0
LINE
  8
1
 10
-0.882950
 20
0.469467
 11
-0.874620
 21
0.484809
  0
LINE
  8
1
 10
-0.874620
 20
0.484809
 11
-0.866007
 21
0.500032
  0
LINE
  8
1
 10
-0.866007
 20
0.500032
 11
-0.856876
 21
0.515529
  0
LINE
  8
1
 10
-0.856876
 20
0.515529
 11
-0.846635
 21
0.532262
  0
LINE
  8
1
 10
-0.846635
 20
0.532262
 11
-0.834592
 21
0.551331
  0
LINE
  8
1
 10
-0.834592
 20
0.551331
 11
-0.820198
 21
0.573603
  0
LINE
  8
1
 10
-0.820198
 20
0.573603
 11
-0.803090
 21
0.599728
  0
LINE
  8
1
 10
-0.803090
 20
0.599728
 11
-0.783110
 21
0.630172
  0
LINE
  8
1
 10
-0.783110
 20
0.630172
 11
-0.760314
 21
0.665230
  0
LINE
  8
1
 10
-0.760314
 20
0.665230
 11
-0.734968
 21
0.705039
  0
LINE
  8
1
 10
-0.734968
 20
0.705039
 11
-0.707530
 21
0.749560
  0
LINE
  8
1
 10
-0.707530
 20
0.749560
 11
-0.678613
 21
0.798571
  0
LINE
  8
1
 10
-0.678613
 20
0.798571
 11
-0.648935
 21
0.851652
  0
LINE
  8
1
 10
-0.648935
 20
0.851652
 11
-0.619242
 21
0.908197
  0
LINE
  8
1
 10
-0.619242
 20
0.908197
 11
-0.590236
 21
0.967443
  0
LINE
  8
1
 10
-0.590236
 20
0.967443
 11
-0.562509
 21
1.028527
  0
LINE
  8
1
 10
-0.562509
 20
1.028527
 11
-0.536493
 21
1.090558
  0
LINE
  8
1
 10
-0.536493
 20
1.090558
 11
-0.512443
 21
1.152685
  0
LINE
  8
1
 10
-0.512443
 20
1.152685
 11
-0.490441
 21
1.214159
  0
LINE
  8
1
 10
-0.490441
 20
1.214159
 11
-0.470431
 21
1.274369
  0
LINE
  8
1
 10
-0.470431
 20
1.274369
 11
-0.452252
 21
1.332853
  0
LINE
  8
1
 10
-0.452252
 20
1.332853
 11
-0.435682
 21
1.389291
  0
LINE
  8
1
 10
-0.435682
 20
1.389291
 11
-0.420469
 21
1.443479
  0
LINE
  8
1
 10
-0.420469
 20
1.443479
 11
-0.406359
 21
1.495300
  0
LINE
  8
1
 10
-0.406359
 20
1.495300
 11
-0.393114
 21
1.544699
  0
LINE
  8
1
 10
-0.393114
 20
1.544699
 11
-0.380521
 21
1.591650
  0
LINE
  8
1
 10
-0.380521
 20
1.591650
 11
-0.368403
 21
1.636138
  0
LINE
  8
1
 10
-0.368403
 20
1.636138
 11
-0.356616
 21
1.678148
  0
LINE
  8
1
 10
-0.356616
 20
1.678148
 11
-0.345052
 21
1.717651
  0
LINE
  8
1
 10
-0.345052
 20
1.717651
 11
-0.333644
 21
1.754600
  0
LINE
  8
1
 10
-0.333644
 20
1.754600
 11
-0.322360
 21
1.788934
  0
LINE
  8
1
 10
-0.322360
 20
1.788934
 11
-0.311209
 21
1.820578
  0
LINE
  8
1
 10
-0.311209
 20
1.820578
 11
-0.300232
 21
1.849447
  0
LINE
  8
1
 10
-0.300232
 20
1.849447
 11
-0.289511
 21
1.875460
  0
LINE
  8
1
 10
-0.289511
 20
1.875460
 11
-0.279159
 21
1.898545
  0
LINE
  8
1
 10
-0.279159
 20
1.898545
 11
-0.269319
 21
1.918651
  0
LINE
  8
1
 10
-0.269319
 20
1.918651
 11
-0.260156
 21
1.935762
  0
LINE
  8
1
 10
-0.260156
 20
1.935762
 11
-0.251851
 21
1.949906
  0
LINE
  8
1
 10
-0.251851
 20
1.949906
 11
-0.244585
 21
1.961171
  0
LINE
  8
1
 10
-0.244585
 20
1.961171
 11
-0.238526
 21
1.969707
  0
LINE
  8
1
 10
-0.238526
 20
1.969707
 11
-0.233807
 21
1.975737
  0
LINE
  8
1
 10
-0.233807
 20
1.975737
 11
-0.230510
 21
1.979555
  0
LINE
  8
1
 10
-0.230510
 20
1.979555
 11
-0.228639
 21
1.981518
  0
LINE
  8
1
 10
-0.228639
 20
1.981518
 11
-0.228104
 21
1.982036
  0
LINE
  8
1
 10
-0.228104
 20
1.982036
 11
-0.228709
 21
1.981547
  0
LINE
  8
1
 10
-0.228709
 20
1.981547
 11
-0.230139
 21
1.980490
  0
LINE
  8
1
 10
-0.230139
 20
1.980490
 11
-0.231974
 21
1.979278
  0
LINE
  8
1
 10
-0.231974
 20
1.979278
 11
-0.233695
 21
1.978263
  0
LINE
  8
1
 10
-0.233695
 20
1.978263
 11
-0.234722
 21
1.977718
  0
LINE
  8
1
 10
-0.234722
 20
1.977718
 11
-0.234437
 21
1.977816
  0
LINE
  8
1
 10
-0.234437
 20
1.977816
 11
-0.232233
 21
1.978630
  0
LINE
  8
1
 10
-0.232233
 20
1.978630
 11
-0.227545
 21
1.980134
  0
LINE
  8
1
 10
-0.227545
 20
1.980134
 11
-0.219887
 21
1.982229
  0
LINE
  8
1
 10
-0.219887
 20
1.982229
 11
-0.208876
 21
1.984755
  0
LINE
  8
1
 10
-0.208876
 20
1.984755
 11
-0.194255
 21
1.987523
  0
LINE
  8
1
 10
-0.194255
 20
1.987523
 11
-0.175900
 21
1.990337
  0
LINE
  8
1
 10
-0.175900
 20
1.990337
 11
-0.153836
 21
1.993012
  0
LINE
  8
1
 10
-0.153836
 20
1.993012
 11
-0.128238
 21
1.995392
  0
LINE
  8
1
 10
-0.128238
 20
1.995392
 11
-0.099447
 21
1.997353
  0
LINE
  8
1
 10
-0.099447
 20
1.997353
 11
-0.067975
 21
1.998807
  0
LINE
  8
1
 10
-0.067975
 20
1.998807
 11
-0.034524
 21
1.999700
  0
LINE
  8
1
 10
-0.034524
 20
1.999700
 11
0.000025
 21
2.000000
  0
ENDSEC
  0
EOF
