  0
SECTION
  2
HEADER
  9
$EXTMIN
 10
-1.016630
 20
-1.368144
  9
$EXTMAX
 10
1.856366
 20
2.001622
  0
ENDSEC
  0
SECTION
  2
TABLES
  0
TABLE
  2
LTYPE
 70
1
  0
LTYPE
  2
CONTINUOUS
 70
64
  3
Solid Line
 72
65
 73
0
 40
0.000000
  0
ENDTAB
  0
TABLE
  2
LAYER
 70
16
  0
LAYER
  2
0
 70
0
 62
7
  6
CONTINUOUS
  0
LAYER
  2
1
 70
0
 62
7
  6
CONTINUOUS
  0
LAYER
  2
2
 70
0
 62
7
  6
CONTINUOUS
  0
LAYER
  2
3
 70
0
 62
7
  6
CONTINUOUS
  0
LAYER
  2
4
 70
0
 62
7
  6
CONTINUOUS
  0
LAYER
  2
5
 70
0
 62
7
  6
CONTINUOUS
  0
LAYER
  2
6
 70
0
 62
7
  6
CONTINUOUS
  0
LAYER
  2
7
 70
0
 62
7
  6
CONTINUOUS
  0
LAYER
  2
8
 70
0
 62
7
  6
CONTINUOUS
  0
LAYER
  2
9
 70
0
 62
7
  6
CONTINUOUS
  0
LAYER
  2
10
 70
0
 62
7
  6
CONTINUOUS
  0
LAYER
  2
11
 70
0
 62
7
  6
CONTINUOUS
  0
LAYER
  2
12
 70
0
 62
7
  6
CONTINUOUS
  0
LAYER
  2
13
 70
0
 62
7
  6
CONTINUOUS
  0
LAYER
  2
14
 70
0
 62
7
  6
CONTINUOUS
  0
LAYER
  2
15
 70
0
 62
7
  6
CONTINUOUS
  0
ENDTAB
  0
ENDSEC
  0
SECTION
  2
ENTITIES
  0
LINE
  8
1
 10
0.000656
 20
2.000000
 11
0.034879
 21
1.999696
  0
LINE
  8
1
 10
0.034879
 20
1.999696
 11
0.069715
 21
1.998782
  0
LINE
  8
1
 10
0.069715
 20
1.998782
 11
0.104492
 21
1.997259
  0
LINE
  8
1
 10
0.104492
 20
1.997259
 11
0.139201
 21
1.995128
  0
LINE
  8
1
 10
0.139201
 20
1.995128
 11
0.173829
 21
1.992390
  0
LINE
  8
1
 10
0.173829
 20
1.992390
 11
0.208369
 21
1.989044
  0
LINE
  8
1
 10
0.208369
 20
1.989044
 11
0.242808
 21
1.985093
  0
LINE
  8
1
 10
0.242808
 20
1.985093
 11
0.277138
 21
1.980536
  0
LINE
  8
1
 10
0.277138
 20
1.980536
 11
0.311348
 21
1.975377
  0
LINE
  8
1
 10
0.311348
 20
1.975377
 11
0.345427
 21
1.969616
  0
LINE
  8
1
 10
0.345427
 20
1.969616
 11
0.379365
 21
1.963255
  0
LINE
  8
1
 10
0.379365
 20
1.963255
 11
0.413152
 21
1.956297
  0
LINE
  8
1
 10
0.413152
 20
1.956297
 11
0.446777
 21
1.948743
  0
LINE
  8
1
 10
0.446777
 20
1.948743
 11
0.480230
 21
1.940596
  0
LINE
  8
1
 10
0.480230
 20
1.940596
 11
0.513500
 21
1.931859
  0
LINE
  8
1
 10
0.513500
 20
1.931859
 11
0.546577
 21
1.922534
  0
LINE
  8
1
 10
0.546577
 20
1.922534
 11
0.579451
 21
1.912625
  0
LINE
  8
1
 10
0.579451
 20
1.912625
 11
0.612111
 21
1.902135
  0
LINE
  8
1
 10
0.612111
 20
1.902135
 11
0.644546
 21
1.891068
  0
LINE
  8
1
 10
0.644546
 20
1.891068
 11
0.676747
 21
1.879428
  0
LINE
  8
1
 10
0.676747
 20
1.879428
 11
0.708703
 21
1.867217
  0
LINE
  8
1
 10
0.708703
 20
1.867217
 11
0.740403
 21
1.854442
  0
LINE
  8
1
 10
0.740403
 20
1.854442
 11
0.771838
 21
1.841106
  0
LINE
  8
1
 10
0.771838
 20
1.841106
 11
0.802997
 21
1.827213
  0
LINE
  8
1
 10
0.802997
 20
1.827213
 11
0.833870
 21
1.812770
  0
LINE
  8
1
 10
0.833870
 20
1.812770
 11
0.864447
 21
1.797780
  0
LINE
  8
1
 10
0.864447
 20
1.797780
 11
0.894718
 21
1.782249
  0
LINE
  8
1
 10
0.894718
 20
1.782249
 11
0.924672
 21
1.766184
  0
LINE
  8
1
 10
0.924672
 20
1.766184
 11
0.954301
 21
1.749589
  0
LINE
  8
1
 10
0.954301
 20
1.749589
 11
0.983594
 21
1.732471
  0
LINE
  8
1
 10
0.983594
 20
1.732471
 11
1.012542
 21
1.714835
  0
LINE
  8
1
 10
1.012542
 20
1.714835
 11
1.041134
 21
1.696689
  0
LINE
  8
1
 10
1.041134
 20
1.696689
 11
1.069362
 21
1.678039
  0
LINE
  8
1
 10
1.069362
 20
1.678039
 11
1.097216
 21
1.658892
  0
LINE
  8
1
 10
1.097216
 20
1.658892
 11
1.124686
 21
1.639256
  0
LINE
  8
1
 10
1.124686
 20
1.639256
 11
1.151765
 21
1.619136
  0
LINE
  8
1
 10
1.151765
 20
1.619136
 11
1.178441
 21
1.598541
  0
LINE
  8
1
 10
1.178441
 20
1.598541
 11
1.204708
 21
1.577479
  0
LINE
  8
1
 10
1.204708
 20
1.577479
 11
1.230556
 21
1.555958
  0
LINE
  8
1
 10
1.230556
 20
1.555958
 11
1.255976
 21
1.533985
  0
LINE
  8
1
 10
1.255976
 20
1.533985
 11
1.280961
 21
1.511569
  0
LINE
  8
1
 10
1.280961
 20
1.511569
 11
1.305501
 21
1.488719
  0
LINE
  8
1
 10
1.305501
 20
1.488719
 11
1.329589
 21
1.465442
  0
LINE
  8
1
 10
1.329589
 20
1.465442
 11
1.353216
 21
1.441749
  0
LINE
  8
1
 10
1.353216
 20
1.441749
 11
1.376376
 21
1.417648
  0
LINE
  8
1
 10
1.376376
 20
1.417648
 11
1.399060
 21
1.393149
  0
LINE
  8
1
 10
1.399060
 20
1.393149
 11
1.421261
 21
1.368260
  0
LINE
  8
1
 10
1.421261
 20
1.368260
 11
1.442972
 21
1.342992
  0
LINE
  8
1
 10
1.442972
 20
1.342992
 11
1.464186
 21
1.317353
  0
LINE
  8
1
 10
1.464186
 20
1.317353
 11
1.484896
 21
1.291355
  0
LINE
  8
1
 10
1.484896
 20
1.291355
 11
1.505096
 21
1.265007
  0
LINE
  8
1
 10
1.505096
 20
1.265007
 11
1.524779
 21
1.238319
  0
LINE
  8
1
 10
1.524779
 20
1.238319
 11
1.543938
 21
1.211302
  0
LINE
  8
1
 10
1.543938
 20
1.211302
 11
1.562569
 21
1.183966
  0
LINE
  8
1
 10
1.562569
 20
1.183966
 11
1.580665
 21
1.156322
  0
LINE
  8
1
 10
1.580665
 20
1.156322
 11
1.598220
 21
1.128381
  0
LINE
  8
1
 10
1.598220
 20
1.128381
 11
1.615230
 21
1.100152
  0
LINE
  8
1
 10
1.615230
 20
1.100152
 11
1.631690
 21
1.071649
  0
LINE
  8
1
 10
1.631690
 20
1.071649
 11
1.647594
 21
1.042880
  0
LINE
  8
1
 10
1.647594
 20
1.042880
 11
1.662938
 21
1.013859
  0
LINE
  8
1
 10
1.662938
 20
1.013859
 11
1.677718
 21
0.984595
  0
LINE
  8
1
 10
1.677718
 20
0.984595
 11
1.691930
 21
0.955101
  0
LINE
  8
1
 10
1.691930
 20
0.955101
 11
1.705570
 21
0.925388
  0
LINE
  8
1
 10
1.705570
 20
0.925388
 11
1.718634
 21
0.895467
  0
LINE
  8
1
 10
1.718634
 20
0.895467
 11
1.731118
 21
0.865350
  0
LINE
  8
1
 10
1.731118
 20
0.865350
 11
1.743021
 21
0.835050
  0
LINE
  8
1
 10
1.743021
 20
0.835050
 11
1.754338
 21
0.804576
  0
LINE
  8
1
 10
1.754338
 20
0.804576
 11
1.765068
 21
0.773942
  0
LINE
  8
1
 10
1.765068
 20
0.773942
 11
1.775208
 21
0.743160
  0
LINE
  8
1
 10
1.775208
 20
0.743160
 11
1.784757
 21
0.712240
  0
LINE
  8
1
 10
1.784757
 20
0.712240
 11
1.793711
 21
0.681196
  0
LINE
  8
1
 10
1.793711
 20
0.681196
 11
1.802070
 21
0.650039
  0
LINE
  8
1
 10
1.802070
 20
0.650039
 11
1.809833
 21
0.618781
  0
LINE
  8
1
 10
1.809833
 20
0.618781
 11
1.816998
 21
0.587434
  0
LINE
  8
1
 10
1.816998
 20
0.587434
 11
1.823565
 21
0.556010
  0
LINE
  8
1
 10
1.823565
 20
0.556010
 11
1.829534
 21
0.524521
  0
LINE
  8
1
 10
1.829534
 20
0.524521
 11
1.834903
 21
0.492979
  0
LINE
  8
1
 10
1.834903
 20
0.492979
 11
1.839673
 21
0.461397
  0
LINE
  8
1
 10
1.839673
 20
0.461397
 11
1.843845
 21
0.429786
  0
LINE
  8
1
 10
1.843845
 20
0.429786
 11
1.847419
 21
0.398158
  0
LINE
  8
1
 10
1.847419
 20
0.398158
 11
1.850395
 21
0.366525
  0
LINE
  8
1
 10
1.850395
 20
0.366525
 11
1.852775
 21
0.334899
  0
LINE
  8
1
 10
1.852775
 20
0.334899
 11
1.854561
 21
0.303292
  0
LINE
  8
1
 10
1.854561
 20
0.303292
 11
1.855753
 21
0.271715
  0
LINE
  8
1
 10
1.855753
 20
0.271715
 11
1.856354
 21
0.240181
  0
LINE
  8
1
 10
1.856354
 20
0.240181
 11
1.856366
 21
0.208701
  0
LINE
  8
1
 10
1.856366
 20
0.208701
 11
1.855791
 21
0.177287
  0
LINE
  8
1
 10
1.855791
 20
0.177287
 11
1.854631
 21
0.145949
  0
LINE
  8
1
 10
1.854631
 20
0.145949
 11
1.852891
 21
0.114701
  0
LINE
  8
1
 10
1.852891
 20
0.114701
 11
1.850571
 21
0.083553
  0
LINE
  8
1
 10
1.850571
 20
0.083553
 11
1.847677
 21
0.052515
  0
LINE
  8
1
 10
1.847677
 20
0.052515
 11
1.844212
 21
0.021601
  0
LINE
  8
1
 10
1.844212
 20
0.021601
 11
1.840179
 21
-0.009180
  0
LINE
  8
1
 10
1.840179
 20
-0.009180
 11
1.835582
 21
-0.039816
  0
LINE
  8
1
 10
1.835582
 20
-0.039816
 11
1.830426
 21
-0.070297
  0
LINE
  8
1
 10
1.830426
 20
-0.070297
 11
1.824715
 21
-0.100612
  0
LINE
  8
1
 10
1.824715
 20
-0.100612
 11
1.818454
 21
-0.130750
  0
LINE
  8
1
 10
1.818454
 20
-0.130750
 11
1.811648
 21
-0.160701
  0
LINE
  8
1
 10
1.811648
 20
-0.160701
 11
1.804302
 21
-0.190454
  0
LINE
  8
1
 10
1.804302
 20
-0.190454
 11
1.796421
 21
-0.220000
  0
LINE
  8
1
 10
1.796421
 20
-0.220000
 11
1.788011
 21
-0.249327
  0
LINE
  8
1
 10
1.788011
 20
-0.249327
 11
1.779078
 21
-0.278427
  0
LINE
  8
1
 10
1.779078
 20
-0.278427
 11
1.769627
 21
-0.307290
  0
LINE
  8
1
 10
1.769627
 20
-0.307290
 11
1.759665
 21
-0.335906
  0
LINE
  8
1
 10
1.759665
 20
-0.335906
 11
1.749199
 21
-0.364265
  0
LINE
  8
1
 10
1.749199
 20
-0.364265
 11
1.738234
 21
-0.392358
  0
LINE
  8
1
 10
1.738234
 20
-0.392358
 11
1.726777
 21
-0.420177
  0
LINE
  8
1
 10
1.726777
 20
-0.420177
 11
1.714836
 21
-0.447712
  0
LINE
  8
1
 10
1.714836
 20
-0.447712
 11
1.702417
 21
-0.474954
  0
LINE
  8
1
 10
1.702417
 20
-0.474954
 11
1.689527
 21
-0.501896
  0
LINE
  8
1
 10
1.689527
 20
-0.501896
 11
1.676174
 21
-0.528528
  0
LINE
  8
1
 10
1.676174
 20
-0.528528
 11
1.662366
 21
-0.554843
  0
LINE
  8
1
 10
1.662366
 20
-0.554843
 11
1.648110
 21
-0.580833
  0
LINE
  8
1
 10
1.648110
 20
-0.580833
 11
1.633414
 21
-0.606489
  0
LINE
  8
1
 10
1.633414
 20
-0.606489
 11
1.618285
 21
-0.631805
  0
LINE
  8
1
 10
1.618285
 20
-0.631805
 11
1.602733
 21
-0.656773
  0
LINE
  8
1
 10
1.602733
 20
-0.656773
 11
1.586765
 21
-0.681385
  0
LINE
  8
1
 10
1.586765
 20
-0.681385
 11
1.570389
 21
-0.705635
  0
LINE
  8
1
 10
1.570389
 20
-0.705635
 11
1.553614
 21
-0.729516
  0
LINE
  8
1
 10
1.553614
 20
-0.729516
 11
1.536449
 21
-0.753021
  0
LINE
  8
1
 10
1.536449
 20
-0.753021
 11
1.518901
 21
-0.776145
  0
LINE
  8
1
 10
1.518901
 20
-0.776145
 11
1.500981
 21
-0.798880
  0
LINE
  8
1
 10
1.500981
 20
-0.798880
 11
1.482696
 21
-0.821222
  0
LINE
  8
1
 10
1.482696
 20
-0.821222
 11
1.464056
 21
-0.843164
  0
LINE
  8
1
 10
1.464056
 20
-0.843164
 11
1.445070
 21
-0.864701
  0
LINE
  8
1
 10
1.445070
 20
-0.864701
 11
1.425747
 21
-0.885827
  0
LINE
  8
1
 10
1.425747
 20
-0.885827
 11
1.406095
 21
-0.906539
  0
LINE
  8
1
 10
1.406095
 20
-0.906539
 11
1.386125
 21
-0.926830
  0
LINE
  8
1
 10
1.386125
 20
-0.926830
 11
1.365845
 21
-0.946696
  0
LINE
  8
1
 10
1.365845
 20
-0.946696
 11
1.345265
 21
-0.966133
  0
LINE
  8
1
 10
1.345265
 20
-0.966133
 11
1.324394
 21
-0.985136
  0
LINE
  8
1
 10
1.324394
 20
-0.985136
 11
1.303242
 21
-1.003702
  0
LINE
  8
1
 10
1.303242
 20
-1.003702
 11
1.281818
 21
-1.021827
  0
LINE
  8
1
 10
1.281818
 20
-1.021827
 11
1.260131
 21
-1.039508
  0
LINE
  8
1
 10
1.260131
 20
-1.039508
 11
1.238192
 21
-1.056741
  0
LINE
  8
1
 10
1.238192
 20
-1.056741
 11
1.216009
 21
-1.073522
  0
LINE
  8
1
 10
1.216009
 20
-1.073522
 11
1.193593
 21
-1.089850
  0
LINE
  8
1
 10
1.193593
 20
-1.089850
 11
1.170952
 21
-1.105722
  0
LINE
  8
1
 10
1.170952
 20
-1.105722
 11
1.148096
 21
-1.121135
  0
LINE
  8
1
 10
1.148096
 20
-1.121135
 11
1.125036
 21
-1.136086
  0
LINE
  8
1
 10
1.125036
 20
-1.136086
 11
1.101779
 21
-1.150574
  0
LINE
  8
1
 10
1.101779
 20
-1.150574
 11
1.078337
 21
-1.164598
  0
LINE
  8
1
 10
1.078337
 20
-1.164598
 11
1.054718
 21
-1.178155
  0
LINE
  8
1
 10
1.054718
 20
-1.178155
 11
1.030932
 21
-1.191244
  0
LINE
  8
1
 10
1.030932
 20
-1.191244
 11
1.006989
 21
-1.203864
  0
LINE
  8
1
 10
1.006989
 20
-1.203864
 11
0.982898
 21
-1.216014
  0
LINE
  8
1
 10
0.982898
 20
-1.216014
 11
0.958667
 21
-1.227693
  0
LINE
  8
1
 10
0.958667
 20
-1.227693
 11
0.934308
 21
-1.238901
  0
LINE
  8
1
 10
0.934308
 20
-1.238901
 11
0.909829
 21
-1.249637
  0
LINE
  8
1
 10
0.909829
 20
-1.249637
 11
0.885238
 21
-1.259901
  0
LINE
  8
1
 10
0.885238
 20
-1.259901
 11
0.860547
 21
-1.269693
  0
LINE
  8
1
 10
0.860547
 20
-1.269693
 11
0.835763
 21
-1.279013
  0
LINE
  8
1
 10
0.835763
 20
-1.279013
 11
0.810896
 21
-1.287862
  0
LINE
  8
1
 10
0.810896
 20
-1.287862
 11
0.785954
 21
-1.296240
  0
LINE
  8
1
 10
0.785954
 20
-1.296240
 11
0.760948
 21
-1.304148
  0
LINE
  8
1
 10
0.760948
 20
-1.304148
 11
0.735885
 21
-1.311586
  0
LINE
  8
1
 10
0.735885
 20
-1.311586
 11
0.710774
 21
-1.318556
  0
LINE
  8
1
 10
0.710774
 20
-1.318556
 11
0.685625
 21
-1.325060
  0
LINE
  8
1
 10
0.685625
 20
-1.325060
 11
0.660446
 21
-1.331097
  0
LINE
  8
1
 10
0.660446
 20
-1.331097
 11
0.635245
 21
-1.336671
  0
LINE
  8
1
 10
0.635245
 20
-1.336671
 11
0.610031
 21
-1.341783
  0
LINE
  8
1
 10
0.610031
 20
-1.341783
 11
0.584812
 21
-1.346434
  0
LINE
  8
1
 10
0.584812
 20
-1.346434
 11
0.559598
 21
-1.350627
  0
LINE
  8
1
 10
0.559598
 20
-1.350627
 11
0.534394
 21
-1.354363
  0
LINE
  8
1
 10
0.534394
 20
-1.354363
 11
0.509211
 21
-1.357646
  0
LINE
  8
1
 10
0.509211
 20
-1.357646
 11
0.484056
 21
-1.360478
  0
LINE
  8
1
 10
0.484056
 20
-1.360478
 11
0.458937
 21
-1.362860
  0
LINE
  8
1
 10
0.458937
 20
-1.362860
 11
0.433861
 21
-1.364797
  0
LINE
  8
1
 10
0.433861
 20
-1.364797
 11
0.408836
 21
-1.366291
  0
LINE
  8
1
 10
0.408836
 20
-1.366291
 11
0.383871
 21
-1.367344
  0
LINE
  8
1
 10
0.383871
 20
-1.367344
 11
0.358971
 21
-1.367961
  0
LINE
  8
1
 10
0.358971
 20
-1.367961
 11
0.334146
 21
-1.368144
  0
LINE
  8
1
 10
0.334146
 20
-1.368144
 11
0.309401
 21
-1.367896
  0
LINE
  8
1
 10
0.309401
 20
-1.367896
 11
0.284744
 21
-1.367222
  0
LINE
  8
1
 10
0.284744
 20
-1.367222
 11
0.260182
 21
-1.366124
  0
LINE
  8
1
 10
0.260182
 20
-1.366124
 11
0.235722
 21
-1.364606
  0
LINE
  8
1
 10
0.235722
 20
-1.364606
 11
0.211370
 21
-1.362672
  0
LINE
  8
1
 10
0.211370
 20
-1.362672
 11
0.187134
 21
-1.360327
  0
LINE
  8
1
 10
0.187134
 20
-1.360327
 11
0.163019
 21
-1.357573
  0
LINE
  8
1
 10
0.163019
 20
-1.357573
 11
0.139033
 21
-1.354415
  0
LINE
  8
1
 10
0.139033
 20
-1.354415
 11
0.115181
 21
-1.350857
  0
LINE
  8
1
 10
0.115181
 20
-1.350857
 11
0.091469
 21
-1.346904
  0
LINE
  8
1
 10
0.091469
 20
-1.346904
 11
0.067904
 21
-1.342559
  0
LINE
  8
1
 10
0.067904
 20
-1.342559
 11
0.044491
 21
-1.337827
  0
LINE
  8
1
 10
0.044491
 20
-1.337827
 11
0.021237
 21
-1.332713
  0
LINE
  8
1
 10
0.021237
 20
-1.332713
 11
-0.001854
 21
-1.327220
  0
LINE
  8
1
 10
-0.001854
 20
-1.327220
 11
-0.024775
 21
-1.321354
  0
LINE
  8
1
 10
-0.024775
 20
-1.321354
 11
-0.047522
 21
-1.315119
  0
LINE
  8
1
 10
-0.047522
 20
-1.315119
 11
-0.070088
 21
-1.308520
  0
LINE
  8
1
 10
-0.070088
 20
-1.308520
 11
-0.092469
 21
-1.301561
  0
LINE
  8
1
 10
-0.092469
 20
-1.301561
 11
-0.114660
 21
-1.294248
  0
LINE
  8
1
 10
-0.114660
 20
-1.294248
 11
-0.136656
 21
-1.286585
  0
LINE
  8
1
 10
-0.136656
 20
-1.286585
 11
-0.158452
 21
-1.278577
  0
LINE
  8
1
 10
-0.158452
 20
-1.278577
 11
-0.180044
 21
-1.270229
  0
LINE
  8
1
 10
-0.180044
 20
-1.270229
 11
-0.201426
 21
-1.261546
  0
LINE
  8
1
 10
-0.201426
 20
-1.261546
 11
-0.222595
 21
-1.252533
  0
LINE
  8
1
 10
-0.222595
 20
-1.252533
 11
-0.243545
 21
-1.243195
  0
LINE
  8
1
 10
-0.243545
 20
-1.243195
 11
-0.264274
 21
-1.233537
  0
LINE
  8
1
 10
-0.264274
 20
-1.233537
 11
-0.284777
 21
-1.223564
  0
LINE
  8
1
 10
-0.284777
 20
-1.223564
 11
-0.305049
 21
-1.213282
  0
LINE
  8
1
 10
-0.305049
 20
-1.213282
 11
-0.325088
 21
-1.202695
  0
LINE
  8
1
 10
-0.325088
 20
-1.202695
 11
-0.344888
 21
-1.191808
  0
LINE
  8
1
 10
-0.344888
 20
-1.191808
 11
-0.364448
 21
-1.180628
  0
LINE
  8
1
 10
-0.364448
 20
-1.180628
 11
-0.383762
 21
-1.169158
  0
LINE
  8
1
 10
-0.383762
 20
-1.169158
 11
-0.402828
 21
-1.157404
  0
LINE
  8
1
 10
-0.402828
 20
-1.157404
 11
-0.421642
 21
-1.145372
  0
LINE
  8
1
 10
-0.421642
 20
-1.145372
 11
-0.440202
 21
-1.133067
  0
LINE
  8
1
 10
-0.440202
 20
-1.133067
 11
-0.458504
 21
-1.120493
  0
LINE
  8
1
 10
-0.458504
 20
-1.120493
 11
-0.476544
 21
-1.107657
  0
LINE
  8
1
 10
-0.476544
 20
-1.107657
 11
-0.494321
 21
-1.094562
  0
LINE
  8
1
 10
-0.494321
 20
-1.094562
 11
-0.511831
 21
-1.081216
  0
LINE
  8
1
 10
-0.511831
 20
-1.081216
 11
-0.529072
 21
-1.067622
  0
LINE
  8
1
 10
-0.529072
 20
-1.067622
 11
-0.546041
 21
-1.053787
  0
LINE
  8
1
 10
-0.546041
 20
-1.053787
 11
-0.562735
 21
-1.039715
  0
LINE
  8
1
 10
-0.562735
 20
-1.039715
 11
-0.579152
 21
-1.025411
  0
LINE
  8
1
 10
-0.579152
 20
-1.025411
 11
-0.595290
 21
-1.010882
  0
LINE
  8
1
 10
-0.595290
 20
-1.010882
 11
-0.611147
 21
-0.996132
  0
LINE
  8
1
 10
-0.611147
 20
-0.996132
 11
-0.626720
 21
-0.981166
  0
LINE
  8
1
 10
-0.626720
 20
-0.981166
 11
-0.642007
 21
-0.965989
  0
LINE
  8
1
 10
-0.642007
 20
-0.965989
 11
-0.657006
 21
-0.950608
  0
LINE
  8
1
 10
-0.657006
 20
-0.950608
 11
-0.671715
 21
-0.935026
  0
LINE
  8
1
 10
-0.671715
 20
-0.935026
 11
-0.686133
 21
-0.919250
  0
LINE
  8
1
 10
-0.686133
 20
-0.919250
 11
-0.700257
 21
-0.903284
  0
LINE
  8
1
 10
-0.700257
 20
-0.903284
 11
-0.714087
 21
-0.887134
  0
LINE
  8
1
 10
-0.714087
 20
-0.887134
 11
-0.727620
 21
-0.870805
  0
LINE
  8
1
 10
-0.727620
 20
-0.870805
 11
-0.740855
 21
-0.854302
  0
LINE
  8
1
 10
-0.740855
 20
-0.854302
 11
-0.753790
 21
-0.837630
  0
LINE
  8
1
 10
-0.753790
 20
-0.837630
 11
-0.766424
 21
-0.820794
  0
LINE
  8
1
 10
-0.766424
 20
-0.820794
 11
-0.778756
 21
-0.803800
  0
LINE
  8
1
 10
-0.778756
 20
-0.803800
 11
-0.790784
 21
-0.786652
  0
LINE
  8
1
 10
-0.790784
 20
-0.786652
 11
-0.802508
 21
-0.769356
  0
LINE
  8
1
 10
-0.802508
 20
-0.769356
 11
-0.813925
 21
-0.751917
  0
LINE
  8
1
 10
-0.813925
 20
-0.751917
 11
-0.825036
 21
-0.734339
  0
LINE
  8
1
 10
-0.825036
 20
-0.734339
 11
-0.835839
 21
-0.716629
  0
LINE
  8
1
 10
-0.835839
 20
-0.716629
 11
-0.846333
 21
-0.698790
  0
LINE
  8
1
 10
-0.846333
 20
-0.698790
 11
-0.856518
 21
-0.680828
  0
LINE
  8
1
 10
-0.856518
 20
-0.680828
 11
-0.866392
 21
-0.662749
  0
LINE
  8
1
 10
-0.866392
 20
-0.662749
 11
-0.875954
 21
-0.644556
  0
LINE
  8
1
 10
-0.875954
 20
-0.644556
 11
-0.885205
 21
-0.626256
  0
LINE
  8
1
 10
-0.885205
 20
-0.626256
 11
-0.894143
 21
-0.607852
  0
LINE
  8
1
 10
-0.894143
 20
-0.607852
 11
-0.902768
 21
-0.589351
  0
LINE
  8
1
 10
-0.902768
 20
-0.589351
 11
-0.911079
 21
-0.570756
  0
LINE
  8
1
 10
-0.911079
 20
-0.570756
 11
-0.919076
 21
-0.552074
  0
LINE
  8
1
 10
-0.919076
 20
-0.552074
 11
-0.926759
 21
-0.533309
  0
LINE
  8
1
 10
-0.926759
 20
-0.533309
 11
-0.934127
 21
-0.514465
  0
LINE
  8
1
 10
-0.934127
 20
-0.514465
 11
-0.941179
 21
-0.495549
  0
LINE
  8
1
 10
-0.941179
 20
-0.495549
 11
-0.947916
 21
-0.476564
  0
LINE
  8
1
 10
-0.947916
 20
-0.476564
 11
-0.954338
 21
-0.457516
  0
LINE
  8
1
 10
-0.954338
 20
-0.457516
 11
-0.960443
 21
-0.438410
  0
LINE
  8
1
 10
-0.960443
 20
-0.438410
 11
-0.966233
 21
-0.419250
  0
LINE
  8
1
 10
-0.966233
 20
-0.419250
 11
-0.971707
 21
-0.400042
  0
LINE
  8
1
 10
-0.971707
 20
-0.400042
 11
-0.976864
 21
-0.380790
  0
LINE
  8
1
 10
-0.976864
 20
-0.380790
 11
-0.981706
 21
-0.361500
  0
LINE
  8
1
 10
-0.981706
 20
-0.361500
 11
-0.986232
 21
-0.342175
  0
LINE
  8
1
 10
-0.986232
 20
-0.342175
 11
-0.990443
 21
-0.322822
  0
LINE
  8
1
 10
-0.990443
 20
-0.322822
 11
-0.994338
 21
-0.303445
  0
LINE
  8
1
 10
-0.994338
 20
-0.303445
 11
-0.997918
 21
-0.284048
  0
LINE
  8
1
 10
-0.997918
 20
-0.284048
 11
-1.001183
 21
-0.264637
  0
LINE
  8
1
 10
-1.001183
 20
-0.264637
 11
-1.004134
 21
-0.245217
  0
LINE
  8
1
 10
-1.004134
 20
-0.245217
 11
-1.006771
 21
-0.225793
  0
LINE
  8
1
 10
-1.006771
 20
-0.225793
 11
-1.009094
 21
-0.206369
  0
LINE
  8
1
 10
-1.009094
 20
-0.206369
 11
-1.011105
 21
-0.186950
  0
LINE
  8
1
 10
-1.011105
 20
-0.186950
 11
-1.012802
 21
-0.167541
  0
LINE
  8
1
 10
-1.012802
 20
-0.167541
 11
-1.014189
 21
-0.148148
  0
LINE
  8
1
 10
-1.014189
 20
-0.148148
 11
-1.015264
 21
-0.128774
  0
LINE
  8
1
 10
-1.015264
 20
-0.128774
 11
-1.016028
 21
-0.109425
  0
LINE
  8
1
 10
-1.016028
 20
-0.109425
 11
-1.016483
 21
-0.090106
  0
LINE
  8
1
 10
-1.016483
 20
-0.090106
 11
-1.016630
 21
-0.070822
  0
LINE
  8
1
 10
-1.016630
 20
-0.070822
 11
-1.016468
 21
-0.051577
  0
LINE
  8
1
 10
-1.016468
 20
-0.051577
 11
-1.016000
 21
-0.032376
  0
LINE
  8
1
 10
-1.016000
 20
-0.032376
 11
-1.015227
 21
-0.013225
  0
LINE
  8
1
 10
-1.015227
 20
-0.013225
 11
-1.014148
 21
0.005872
  0
LINE
  8
1
 10
-1.014148
 20
0.005872
 11
-1.012767
 21
0.024910
  0
LINE
  8
1
 10
-1.012767
 20
0.024910
 11
-1.011083
 21
0.043883
  0
LINE
  8
1
 10
-1.011083
 20
0.043883
 11
-1.009098
 21
0.062788
  0
LINE
  8
1
 10
-1.009098
 20
0.062788
 11
-1.006813
 21
0.081618
  0
LINE
  8
1
 10
-1.006813
 20
0.081618
 11
-1.004231
 21
0.100370
  0
LINE
  8
1
 10
-1.004231
 20
0.100370
 11
-1.001352
 21
0.119038
  0
LINE
  8
1
 10
-1.001352
 20
0.119038
 11
-0.998178
 21
0.137618
  0
LINE
  8
1
 10
-0.998178
 20
0.137618
 11
-0.994711
 21
0.156103
  0
LINE
  8
1
 10
-0.994711
 20
0.156103
 11
-0.990953
 21
0.174490
  0
LINE
  8
1
 10
-0.990953
 20
0.174490
 11
-0.986904
 21
0.192774
  0
LINE
  8
1
 10
-0.986904
 20
0.192774
 11
-0.982568
 21
0.210948
  0
LINE
  8
1
 10
-0.982568
 20
0.210948
 11
-0.977946
 21
0.229010
  0
LINE
  8
1
 10
-0.977946
 20
0.229010
 11
-0.973040
 21
0.246953
  0
LINE
  8
1
 10
-0.973040
 20
0.246953
 11
-0.967852
 21
0.264773
  0
LINE
  8
1
 10
-0.967852
 20
0.264773
 11
-0.962385
 21
0.282464
  0
LINE
  8
1
 10
-0.962385
 20
0.282464
 11
-0.956641
 21
0.300022
  0
LINE
  8
1
 10
-0.956641
 20
0.300022
 11
-0.950622
 21
0.317442
  0
LINE
  8
1
 10
-0.950622
 20
0.317442
 11
-0.944330
 21
0.334719
  0
LINE
  8
1
 10
-0.944330
 20
0.334719
 11
-0.937770
 21
0.351847
  0
LINE
  8
1
 10
-0.937770
 20
0.351847
 11
-0.930942
 21
0.368823
  0
LINE
  8
1
 10
-0.930942
 20
0.368823
 11
-0.923850
 21
0.385640
  0
LINE
  8
1
 10
-0.923850
 20
0.385640
 11
-0.916497
 21
0.402295
  0
LINE
  8
1
 10
-0.916497
 20
0.402295
 11
-0.908886
 21
0.418782
  0
LINE
  8
1
 10
-0.908886
 20
0.418782
 11
-0.901020
 21
0.435097
  0
LINE
  8
1
 10
-0.901020
 20
0.435097
 11
-0.892902
 21
0.451234
  0
LINE
  8
1
 10
-0.892902
 20
0.451234
 11
-0.884535
 21
0.467188
  0
LINE
  8
1
 10
-0.884535
 20
0.467188
 11
-0.875923
 21
0.482956
  0
LINE
  8
1
 10
-0.875923
 20
0.482956
 11
-0.867070
 21
0.498531
  0
LINE
  8
1
 10
-0.867070
 20
0.498531
 11
-0.857979
 21
0.513910
  0
LINE
  8
1
 10
-0.857979
 20
0.513910
 11
-0.848653
 21
0.529087
  0
LINE
  8
1
 10
-0.848653
 20
0.529087
 11
-0.839098
 21
0.544058
  0
LINE
  8
1
 10
-0.839098
 20
0.544058
 11
-0.829317
 21
0.558817
  0
LINE
  8
1
 10
-0.829317
 20
0.558817
 11
-0.819314
 21
0.573361
  0
LINE
  8
1
 10
-0.819314
 20
0.573361
 11
-0.809093
 21
0.587685
  0
LINE
  8
1
 10
-0.809093
 20
0.587685
 11
-0.798659
 21
0.601784
  0
LINE
  8
1
 10
-0.798659
 20
0.601784
 11
-0.787405
 21
0.616438
  0
LINE
  8
1
 10
-0.787405
 20
0.616438
 11
-0.772385
 21
0.635356
  0
LINE
  8
1
 10
-0.772385
 20
0.635356
 11
-0.751139
 21
0.661841
  0
LINE
  8
1
 10
-0.751139
 20
0.661841
 11
-0.724108
 21
0.695857
  0
LINE
  8
1
 10
-0.724108
 20
0.695857
 11
-0.692550
 21
0.736649
  0
LINE
  8
1
 10
-0.692550
 20
0.736649
 11
-0.657820
 21
0.783463
  0
LINE
  8
1
 10
-0.657820
 20
0.783463
 11
-0.621289
 21
0.835461
  0
LINE
  8
1
 10
-0.621289
 20
0.835461
 11
-0.584256
 21
0.891685
  0
LINE
  8
1
 10
-0.584256
 20
0.891685
 11
-0.547855
 21
0.951068
  0
LINE
  8
1
 10
-0.547855
 20
0.951068
 11
-0.512981
 21
1.012492
  0
LINE
  8
1
 10
-0.512981
 20
1.012492
 11
-0.480253
 21
1.074864
  0
LINE
  8
1
 10
-0.480253
 20
1.074864
 11
-0.450012
 21
1.137197
  0
LINE
  8
1
 10
-0.450012
 20
1.137197
 11
-0.422358
 21
1.198668
  0
LINE
  8
1
 10
-0.422358
 20
1.198668
 11
-0.397204
 21
1.258645
  0
LINE
  8
1
 10
-0.397204
 20
1.258645
 11
-0.374338
 21
1.316688
  0
LINE
  8
1
 10
-0.374338
 20
1.316688
 11
-0.353482
 21
1.372521
  0
LINE
  8
1
 10
-0.353482
 20
1.372521
 11
-0.334328
 21
1.426004
  0
LINE
  8
1
 10
-0.334328
 20
1.426004
 11
-0.316574
 21
1.477088
  0
LINE
  8
1
 10
-0.316574
 20
1.477088
 11
-0.299942
 21
1.525781
  0
LINE
  8
1
 10
-0.299942
 20
1.525781
 11
-0.284186
 21
1.572123
  0
LINE
  8
1
 10
-0.284186
 20
1.572123
 11
-0.269098
 21
1.616161
  0
LINE
  8
1
 10
-0.269098
 20
1.616161
 11
-0.254506
 21
1.657935
  0
LINE
  8
1
 10
-0.254506
 20
1.657935
 11
-0.240281
 21
1.697469
  0
LINE
  8
1
 10
-0.240281
 20
1.697469
 11
-0.226326
 21
1.734767
  0
LINE
  8
1
 10
-0.226326
 20
1.734767
 11
-0.212582
 21
1.769810
  0
LINE
  8
1
 10
-0.212582
 20
1.769810
 11
-0.199025
 21
1.802559
  0
LINE
  8
1
 10
-0.199025
 20
1.802559
 11
-0.185663
 21
1.832958
  0
LINE
  8
1
 10
-0.185663
 20
1.832958
 11
-0.172539
 21
1.860941
  0
LINE
  8
1
 10
-0.172539
 20
1.860941
 11
-0.159725
 21
1.886436
  0
LINE
  8
1
 10
-0.159725
 20
1.886436
 11
-0.147327
 21
1.909372
  0
LINE
  8
1
 10
-0.147327
 20
1.909372
 11
-0.135474
 21
1.929691
  0
LINE
  8
1
 10
-0.135474
 20
1.929691
 11
-0.124323
 21
1.947352
  0
LINE
  8
1
 10
-0.124323
 20
1.947352
 11
-0.114046
 21
1.962347
  0
LINE
  8
1
 10
-0.114046
 20
1.962347
 11
-0.104828
 21
1.974702
  0
LINE
  8
1
 10
-0.104828
 20
1.974702
 11
-0.096852
 21
1.984494
  0
LINE
  8
1
 10
-0.096852
 20
1.984494
 11
-0.090288
 21
1.991853
  0
LINE
  8
1
 10
-0.090288
 20
1.991853
 11
-0.085276
 21
1.996967
  0
LINE
  8
1
 10
-0.085276
 20
1.996967
 11
-0.081908
 21
2.000088
  0
LINE
  8
1
 10
-0.081908
 20
2.000088
 11
-0.080206
 21
2.001521
  0
LINE
  8
1
 10
-0.080206
 20
2.001521
 11
-0.080102
 21
2.001622
  0
LINE
  8
1
 10
-0.080102
 20
2.001622
 11
-0.081419
 21
2.000774
  0
LINE
  8
1
 10
-0.081419
 20
2.000774
 11
-0.083860
 21
1.999370
  0
LINE
  8
1
 10
-0.083860
 20
1.999370
 11
-0.087000
 21
1.997785
  0
LINE
  8
1
 10
-0.087000
 20
1.997785
 11
-0.090289
 21
1.996345
  0
LINE
  8
1
 10
-0.090289
 20
1.996345
 11
-0.093063
 21
1.995301
  0
LINE
  8
1
 10
-0.093063
 20
1.995301
 11
-0.094570
 21
1.994809
  0
LINE
  8
1
 10
-0.094570
 20
1.994809
 11
-0.093992
 21
1.994918
  0
LINE
  8
1
 10
-0.093992
 20
1.994918
 11
-0.090478
 21
1.995568
  0
LINE
  8
1
 10
-0.090478
 20
1.995568
 11
-0.083159
 21
1.996607
  0
LINE
  8
1
 10
-0.083159
 20
1.996607
 11
-0.071175
 21
1.997816
  0
LINE
  8
1
 10
-0.071175
 20
1.997816
 11
-0.053667
 21
1.998938
  0
LINE
  8
1
 10
-0.053667
 20
1.998938
 11
-0.029780
 21
1.999729
  0
LINE
  8
1
 10
-0.029780
 20
1.999729
 11
0.000656
 21
2.000000
  0
ENDSEC
  0
EOF
