  0
SECTION
  2
HEADER
  9
$EXTMIN
 10
-3.207280
 20
-2.000000
  9
$EXTMAX
 10
3.207280
 20
4.000000
  0
ENDSEC
  0
SECTION
  2
TABLES
  0
TABLE
  2
LTYPE
 70
1
  0
LTYPE
  2
CONTINUOUS
 70
64
  3
Solid Line
 72
65
 73
0
 40
0.000000
  0
ENDTAB
  0
TABLE
  2
LAYER
 70
16
  0
LAYER
  2
0
 70
0
 62
7
  6
CONTINUOUS
  0
LAYER
  2
1
 70
0
 62
7
  6
CONTINUOUS
  0
LAYER
  2
2
 70
0
 62
7
  6
CONTINUOUS
  0
LAYER
  2
3
 70
0
 62
7
  6
CONTINUOUS
  0
LAYER
  2
4
 70
0
 62
7
  6
CONTINUOUS
  0
LAYER
  2
5
 70
0
 62
7
  6
CONTINUOUS
  0
LAYER
  2
6
 70
0
 62
7
  6
CONTINUOUS
  0
LAYER
  2
7
 70
0
 62
7
  6
CONTINUOUS
  0
LAYER
  2
8
 70
0
 62
7
  6
CONTINUOUS
  0
LAYER
  2
9
 70
0
 62
7
  6
CONTINUOUS
  0
LAYER
  2
10
 70
0
 62
7
  6
CONTINUOUS
  0
LAYER
  2
11
 70
0
 62
7
  6
CONTINUOUS
  0
LAYER
  2
12
 70
0
 62
7
  6
CONTINUOUS
  0
LAYER
  2
13
 70
0
 62
7
  6
CONTINUOUS
  0
LAYER
  2
14
 70
0
 62
7
  6
CONTINUOUS
  0
LAYER
  2
15
 70
0
 62
7
  6
CONTINUOUS
  0
ENDTAB
  0
ENDSEC
  0
SECTION
  2
ENTITIES
  0
LINE
  8
1
 10
0.000000
 20
4.000000
 11
0.069804
 21
3.999391
  0
LINE
  8
1
 10
0.069804
 20
3.999391
 11
0.139569
 21
3.997563
  0
LINE
  8
1
 10
0.139569
 20
3.997563
 11
0.209257
 21
3.994518
  0
LINE
  8
1
 10
0.209257
 20
3.994518
 11
0.278832
 21
3.990254
  0
LINE
  8
1
 10
0.278832
 20
3.990254
 11
0.348257
 21
3.984772
  0
LINE
  8
1
 10
0.348257
 20
3.984772
 11
0.417498
 21
3.978072
  0
LINE
  8
1
 10
0.417498
 20
3.978072
 11
0.486519
 21
3.970156
  0
LINE
  8
1
 10
0.486519
 20
3.970156
 11
0.555288
 21
3.961023
  0
LINE
  8
1
 10
0.555288
 20
3.961023
 11
0.623771
 21
3.950675
  0
LINE
  8
1
 10
0.623771
 20
3.950675
 11
0.691935
 21
3.939112
  0
LINE
  8
1
 10
0.691935
 20
3.939112
 11
0.759749
 21
3.926336
  0
LINE
  8
1
 10
0.759749
 20
3.926336
 11
0.827180
 21
3.912350
  0
LINE
  8
1
 10
0.827180
 20
3.912350
 11
0.894198
 21
3.897154
  0
LINE
  8
1
 10
0.894198
 20
3.897154
 11
0.960772
 21
3.880751
  0
LINE
  8
1
 10
0.960772
 20
3.880751
 11
1.026870
 21
3.863145
  0
LINE
  8
1
 10
1.026870
 20
3.863145
 11
1.092462
 21
3.844340
  0
LINE
  8
1
 10
1.092462
 20
3.844340
 11
1.157519
 21
3.824338
  0
LINE
  8
1
 10
1.157519
 20
3.824338
 11
1.222011
 21
3.803146
  0
LINE
  8
1
 10
1.222011
 20
3.803146
 11
1.285908
 21
3.780768
  0
LINE
  8
1
 10
1.285908
 20
3.780768
 11
1.349181
 21
3.757210
  0
LINE
  8
1
 10
1.349181
 20
3.757210
 11
1.411801
 21
3.732479
  0
LINE
  8
1
 10
1.411801
 20
3.732479
 11
1.473738
 21
3.706582
  0
LINE
  8
1
 10
1.473738
 20
3.706582
 11
1.534965
 21
3.679528
  0
LINE
  8
1
 10
1.534965
 20
3.679528
 11
1.595453
 21
3.651325
  0
LINE
  8
1
 10
1.595453
 20
3.651325
 11
1.655175
 21
3.621983
  0
LINE
  8
1
 10
1.655175
 20
3.621983
 11
1.714101
 21
3.591514
  0
LINE
  8
1
 10
1.714101
 20
3.591514
 11
1.772206
 21
3.559927
  0
LINE
  8
1
 10
1.772206
 20
3.559927
 11
1.829462
 21
3.527236
  0
LINE
  8
1
 10
1.829462
 20
3.527236
 11
1.885842
 21
3.493454
  0
LINE
  8
1
 10
1.885842
 20
3.493454
 11
1.941320
 21
3.458594
  0
LINE
  8
1
 10
1.941320
 20
3.458594
 11
1.995870
 21
3.422672
  0
LINE
  8
1
 10
1.995870
 20
3.422672
 11
2.049467
 21
3.385704
  0
LINE
  8
1
 10
2.049467
 20
3.385704
 11
2.102085
 21
3.347705
  0
LINE
  8
1
 10
2.102085
 20
3.347705
 11
2.153701
 21
3.308695
  0
LINE
  8
1
 10
2.153701
 20
3.308695
 11
2.204290
 21
3.268690
  0
LINE
  8
1
 10
2.204290
 20
3.268690
 11
2.253828
 21
3.227711
  0
LINE
  8
1
 10
2.253828
 20
3.227711
 11
2.302294
 21
3.185778
  0
LINE
  8
1
 10
2.302294
 20
3.185778
 11
2.349664
 21
3.142911
  0
LINE
  8
1
 10
2.349664
 20
3.142911
 11
2.395918
 21
3.099132
  0
LINE
  8
1
 10
2.395918
 20
3.099132
 11
2.441034
 21
3.054465
  0
LINE
  8
1
 10
2.441034
 20
3.054465
 11
2.484992
 21
3.008932
  0
LINE
  8
1
 10
2.484992
 20
3.008932
 11
2.527774
 21
2.962559
  0
LINE
  8
1
 10
2.527774
 20
2.962559
 11
2.569359
 21
2.915369
  0
LINE
  8
1
 10
2.569359
 20
2.915369
 11
2.609732
 21
2.867388
  0
LINE
  8
1
 10
2.609732
 20
2.867388
 11
2.648873
 21
2.818644
  0
LINE
  8
1
 10
2.648873
 20
2.818644
 11
2.686769
 21
2.769162
  0
LINE
  8
1
 10
2.686769
 20
2.769162
 11
2.723402
 21
2.718971
  0
LINE
  8
1
 10
2.723402
 20
2.718971
 11
2.758759
 21
2.668099
  0
LINE
  8
1
 10
2.758759
 20
2.668099
 11
2.792827
 21
2.616575
  0
LINE
  8
1
 10
2.792827
 20
2.616575
 11
2.825593
 21
2.564429
  0
LINE
  8
1
 10
2.825593
 20
2.564429
 11
2.857045
 21
2.511690
  0
LINE
  8
1
 10
2.857045
 20
2.511690
 11
2.887173
 21
2.458388
  0
LINE
  8
1
 10
2.887173
 20
2.458388
 11
2.915968
 21
2.404555
  0
LINE
  8
1
 10
2.915968
 20
2.404555
 11
2.943421
 21
2.350222
  0
LINE
  8
1
 10
2.943421
 20
2.350222
 11
2.969525
 21
2.295421
  0
LINE
  8
1
 10
2.969525
 20
2.295421
 11
2.994273
 21
2.240183
  0
LINE
  8
1
 10
2.994273
 20
2.240183
 11
3.017660
 21
2.184541
  0
LINE
  8
1
 10
3.017660
 20
2.184541
 11
3.039682
 21
2.128527
  0
LINE
  8
1
 10
3.039682
 20
2.128527
 11
3.060336
 21
2.072173
  0
LINE
  8
1
 10
3.060336
 20
2.072173
 11
3.079620
 21
2.015514
  0
LINE
  8
1
 10
3.079620
 20
2.015514
 11
3.097533
 21
1.958581
  0
LINE
  8
1
 10
3.097533
 20
1.958581
 11
3.114075
 21
1.901407
  0
LINE
  8
1
 10
3.114075
 20
1.901407
 11
3.129248
 21
1.844026
  0
LINE
  8
1
 10
3.129248
 20
1.844026
 11
3.143054
 21
1.786470
  0
LINE
  8
1
 10
3.143054
 20
1.786470
 11
3.155497
 21
1.728773
  0
LINE
  8
1
 10
3.155497
 20
1.728773
 11
3.166581
 21
1.670966
  0
LINE
  8
1
 10
3.166581
 20
1.670966
 11
3.176313
 21
1.613083
  0
LINE
  8
1
 10
3.176313
 20
1.613083
 11
3.184699
 21
1.555155
  0
LINE
  8
1
 10
3.184699
 20
1.555155
 11
3.191747
 21
1.497215
  0
LINE
  8
1
 10
3.191747
 20
1.497215
 11
3.197467
 21
1.439295
  0
LINE
  8
1
 10
3.197467
 20
1.439295
 11
3.201868
 21
1.381425
  0
LINE
  8
1
 10
3.201868
 20
1.381425
 11
3.204962
 21
1.323637
  0
LINE
  8
1
 10
3.204962
 20
1.323637
 11
3.206762
 21
1.265961
  0
LINE
  8
1
 10
3.206762
 20
1.265961
 11
3.207280
 21
1.208426
  0
LINE
  8
1
 10
3.207280
 20
1.208426
 11
3.206532
 21
1.151063
  0
LINE
  8
1
 10
3.206532
 20
1.151063
 11
3.204531
 21
1.093899
  0
LINE
  8
1
 10
3.204531
 20
1.093899
 11
3.201294
 21
1.036963
  0
LINE
  8
1
 10
3.201294
 20
1.036963
 11
3.196839
 21
0.980281
  0
LINE
  8
1
 10
3.196839
 20
0.980281
 11
3.191183
 21
0.923881
  0
LINE
  8
1
 10
3.191183
 20
0.923881
 11
3.184345
 21
0.867788
  0
LINE
  8
1
 10
3.184345
 20
0.867788
 11
3.176345
 21
0.812027
  0
LINE
  8
1
 10
3.176345
 20
0.812027
 11
3.167203
 21
0.756622
  0
LINE
  8
1
 10
3.167203
 20
0.756622
 11
3.156939
 21
0.701596
  0
LINE
  8
1
 10
3.156939
 20
0.701596
 11
3.145576
 21
0.646971
  0
LINE
  8
1
 10
3.145576
 20
0.646971
 11
3.133135
 21
0.592768
  0
LINE
  8
1
 10
3.133135
 20
0.592768
 11
3.119640
 21
0.539008
  0
LINE
  8
1
 10
3.119640
 20
0.539008
 11
3.105113
 21
0.485709
  0
LINE
  8
1
 10
3.105113
 20
0.485709
 11
3.089579
 21
0.432890
  0
LINE
  8
1
 10
3.089579
 20
0.432890
 11
3.073062
 21
0.380568
  0
LINE
  8
1
 10
3.073062
 20
0.380568
 11
3.055586
 21
0.328759
  0
LINE
  8
1
 10
3.055586
 20
0.328759
 11
3.037176
 21
0.277476
  0
LINE
  8
1
 10
3.037176
 20
0.277476
 11
3.017856
 21
0.226735
  0
LINE
  8
1
 10
3.017856
 20
0.226735
 11
2.997653
 21
0.176549
  0
LINE
  8
1
 10
2.997653
 20
0.176549
 11
2.976591
 21
0.126927
  0
LINE
  8
1
 10
2.976591
 20
0.126927
 11
2.954697
 21
0.077881
  0
LINE
  8
1
 10
2.954697
 20
0.077881
 11
2.931994
 21
0.029421
  0
LINE
  8
1
 10
2.931994
 20
0.029421
 11
2.908510
 21
-0.018446
  0
LINE
  8
1
 10
2.908510
 20
-0.018446
 11
2.884268
 21
-0.065712
  0
LINE
  8
1
 10
2.884268
 20
-0.065712
 11
2.859295
 21
-0.112370
  0
LINE
  8
1
 10
2.859295
 20
-0.112370
 11
2.833616
 21
-0.158417
  0
LINE
  8
1
 10
2.833616
 20
-0.158417
 11
2.807255
 21
-0.203848
  0
LINE
  8
1
 10
2.807255
 20
-0.203848
 11
2.780236
 21
-0.248659
  0
LINE
  8
1
 10
2.780236
 20
-0.248659
 11
2.752585
 21
-0.292849
  0
LINE
  8
1
 10
2.752585
 20
-0.292849
 11
2.724325
 21
-0.336416
  0
LINE
  8
1
 10
2.724325
 20
-0.336416
 11
2.695480
 21
-0.379359
  0
LINE
  8
1
 10
2.695480
 20
-0.379359
 11
2.666072
 21
-0.421679
  0
LINE
  8
1
 10
2.666072
 20
-0.421679
 11
2.636126
 21
-0.463377
  0
LINE
  8
1
 10
2.636126
 20
-0.463377
 11
2.605662
 21
-0.504456
  0
LINE
  8
1
 10
2.605662
 20
-0.504456
 11
2.574703
 21
-0.544916
  0
LINE
  8
1
 10
2.574703
 20
-0.544916
 11
2.543271
 21
-0.584762
  0
LINE
  8
1
 10
2.543271
 20
-0.584762
 11
2.511385
 21
-0.623998
  0
LINE
  8
1
 10
2.511385
 20
-0.623998
 11
2.479067
 21
-0.662627
  0
LINE
  8
1
 10
2.479067
 20
-0.662627
 11
2.446337
 21
-0.700654
  0
LINE
  8
1
 10
2.446337
 20
-0.700654
 11
2.413213
 21
-0.738084
  0
LINE
  8
1
 10
2.413213
 20
-0.738084
 11
2.379715
 21
-0.774922
  0
LINE
  8
1
 10
2.379715
 20
-0.774922
 11
2.345861
 21
-0.811175
  0
LINE
  8
1
 10
2.345861
 20
-0.811175
 11
2.311668
 21
-0.846848
  0
LINE
  8
1
 10
2.311668
 20
-0.846848
 11
2.277154
 21
-0.881946
  0
LINE
  8
1
 10
2.277154
 20
-0.881946
 11
2.242337
 21
-0.916477
  0
LINE
  8
1
 10
2.242337
 20
-0.916477
 11
2.207231
 21
-0.950445
  0
LINE
  8
1
 10
2.207231
 20
-0.950445
 11
2.171854
 21
-0.983858
  0
LINE
  8
1
 10
2.171854
 20
-0.983858
 11
2.136221
 21
-1.016720
  0
LINE
  8
1
 10
2.136221
 20
-1.016720
 11
2.100346
 21
-1.049038
  0
LINE
  8
1
 10
2.100346
 20
-1.049038
 11
2.064245
 21
-1.080817
  0
LINE
  8
1
 10
2.064245
 20
-1.080817
 11
2.027932
 21
-1.112063
  0
LINE
  8
1
 10
2.027932
 20
-1.112063
 11
1.991421
 21
-1.142779
  0
LINE
  8
1
 10
1.991421
 20
-1.142779
 11
1.954725
 21
-1.172972
  0
LINE
  8
1
 10
1.954725
 20
-1.172972
 11
1.917858
 21
-1.202644
  0
LINE
  8
1
 10
1.917858
 20
-1.202644
 11
1.880834
 21
-1.231800
  0
LINE
  8
1
 10
1.880834
 20
-1.231800
 11
1.843663
 21
-1.260443
  0
LINE
  8
1
 10
1.843663
 20
-1.260443
 11
1.806360
 21
-1.288576
  0
LINE
  8
1
 10
1.806360
 20
-1.288576
 11
1.768936
 21
-1.316201
  0
LINE
  8
1
 10
1.768936
 20
-1.316201
 11
1.731403
 21
-1.343320
  0
LINE
  8
1
 10
1.731403
 20
-1.343320
 11
1.693773
 21
-1.369933
  0
LINE
  8
1
 10
1.693773
 20
-1.369933
 11
1.656058
 21
-1.396042
  0
LINE
  8
1
 10
1.656058
 20
-1.396042
 11
1.618268
 21
-1.421647
  0
LINE
  8
1
 10
1.618268
 20
-1.421647
 11
1.580415
 21
-1.446746
  0
LINE
  8
1
 10
1.580415
 20
-1.446746
 11
1.542510
 21
-1.471340
  0
LINE
  8
1
 10
1.542510
 20
-1.471340
 11
1.504562
 21
-1.495427
  0
LINE
  8
1
 10
1.504562
 20
-1.495427
 11
1.466583
 21
-1.519004
  0
LINE
  8
1
 10
1.466583
 20
-1.519004
 11
1.428582
 21
-1.542070
  0
LINE
  8
1
 10
1.428582
 20
-1.542070
 11
1.390569
 21
-1.564620
  0
LINE
  8
1
 10
1.390569
 20
-1.564620
 11
1.352554
 21
-1.586653
  0
LINE
  8
1
 10
1.352554
 20
-1.586653
 11
1.314546
 21
-1.608164
  0
LINE
  8
1
 10
1.314546
 20
-1.608164
 11
1.276554
 21
-1.629149
  0
LINE
  8
1
 10
1.276554
 20
-1.629149
 11
1.238586
 21
-1.649604
  0
LINE
  8
1
 10
1.238586
 20
-1.649604
 11
1.200652
 21
-1.669524
  0
LINE
  8
1
 10
1.200652
 20
-1.669524
 11
1.162759
 21
-1.688905
  0
LINE
  8
1
 10
1.162759
 20
-1.688905
 11
1.124915
 21
-1.707741
  0
LINE
  8
1
 10
1.124915
 20
-1.707741
 11
1.087128
 21
-1.726028
  0
LINE
  8
1
 10
1.087128
 20
-1.726028
 11
1.049405
 21
-1.743761
  0
LINE
  8
1
 10
1.049405
 20
-1.743761
 11
1.011753
 21
-1.760934
  0
LINE
  8
1
 10
1.011753
 20
-1.760934
 11
0.974178
 21
-1.777542
  0
LINE
  8
1
 10
0.974178
 20
-1.777542
 11
0.936687
 21
-1.793581
  0
LINE
  8
1
 10
0.936687
 20
-1.793581
 11
0.899286
 21
-1.809045
  0
LINE
  8
1
 10
0.899286
 20
-1.809045
 11
0.861979
 21
-1.823929
  0
LINE
  8
1
 10
0.861979
 20
-1.823929
 11
0.824773
 21
-1.838230
  0
LINE
  8
1
 10
0.824773
 20
-1.838230
 11
0.787671
 21
-1.851942
  0
LINE
  8
1
 10
0.787671
 20
-1.851942
 11
0.750679
 21
-1.865062
  0
LINE
  8
1
 10
0.750679
 20
-1.865062
 11
0.713799
 21
-1.877586
  0
LINE
  8
1
 10
0.713799
 20
-1.877586
 11
0.677036
 21
-1.889511
  0
LINE
  8
1
 10
0.677036
 20
-1.889511
 11
0.640391
 21
-1.900832
  0
LINE
  8
1
 10
0.640391
 20
-1.900832
 11
0.603868
 21
-1.911548
  0
LINE
  8
1
 10
0.603868
 20
-1.911548
 11
0.567468
 21
-1.921656
  0
LINE
  8
1
 10
0.567468
 20
-1.921656
 11
0.531192
 21
-1.931154
  0
LINE
  8
1
 10
0.531192
 20
-1.931154
 11
0.495041
 21
-1.940041
  0
LINE
  8
1
 10
0.495041
 20
-1.940041
 11
0.459013
 21
-1.948314
  0
LINE
  8
1
 10
0.459013
 20
-1.948314
 11
0.423109
 21
-1.955973
  0
LINE
  8
1
 10
0.423109
 20
-1.955973
 11
0.387325
 21
-1.963017
  0
LINE
  8
1
 10
0.387325
 20
-1.963017
 11
0.351659
 21
-1.969447
  0
LINE
  8
1
 10
0.351659
 20
-1.969447
 11
0.316107
 21
-1.975261
  0
LINE
  8
1
 10
0.316107
 20
-1.975261
 11
0.280664
 21
-1.980460
  0
LINE
  8
1
 10
0.280664
 20
-1.980460
 11
0.245324
 21
-1.985046
  0
LINE
  8
1
 10
0.245324
 20
-1.985046
 11
0.210078
 21
-1.989017
  0
LINE
  8
1
 10
0.210078
 20
-1.989017
 11
0.174919
 21
-1.992376
  0
LINE
  8
1
 10
0.174919
 20
-1.992376
 11
0.139836
 21
-1.995122
  0
LINE
  8
1
 10
0.139836
 20
-1.995122
 11
0.104817
 21
-1.997257
  0
LINE
  8
1
 10
0.104817
 20
-1.997257
 11
0.069848
 21
-1.998781
  0
LINE
  8
1
 10
0.069848
 20
-1.998781
 11
0.034915
 21
-1.999695
  0
LINE
  8
1
 10
0.034915
 20
-1.999695
 11
-0.000000
 21
-2.000000
  0
LINE
  8
1
 10
-0.000000
 20
-2.000000
 11
-0.034915
 21
-1.999695
  0
LINE
  8
1
 10
-0.034915
 20
-1.999695
 11
-0.069848
 21
-1.998781
  0
LINE
  8
1
 10
-0.069848
 20
-1.998781
 11
-0.104817
 21
-1.997257
  0
LINE
  8
1
 10
-0.104817
 20
-1.997257
 11
-0.139836
 21
-1.995122
  0
LINE
  8
1
 10
-0.139836
 20
-1.995122
 11
-0.174919
 21
-1.992376
  0
LINE
  8
1
 10
-0.174919
 20
-1.992376
 11
-0.210078
 21
-1.989017
  0
LINE
  8
1
 10
-0.210078
 20
-1.989017
 11
-0.245324
 21
-1.985046
  0
LINE
  8
1
 10
-0.245324
 20
-1.985046
 11
-0.280664
 21
-1.980460
  0
LINE
  8
1
 10
-0.280664
 20
-1.980460
 11
-0.316107
 21
-1.975261
  0
LINE
  8
1
 10
-0.316107
 20
-1.975261
 11
-0.351659
 21
-1.969447
  0
LINE
  8
1
 10
-0.351659
 20
-1.969447
 11
-0.387325
 21
-1.963017
  0
LINE
  8
1
 10
-0.387325
 20
-1.963017
 11
-0.423109
 21
-1.955973
  0
LINE
  8
1
 10
-0.423109
 20
-1.955973
 11
-0.459013
 21
-1.948314
  0
LINE
  8
1
 10
-0.459013
 20
-1.948314
 11
-0.495041
 21
-1.940041
  0
LINE
  8
1
 10
-0.495041
 20
-1.940041
 11
-0.531192
 21
-1.931154
  0
LINE
  8
1
 10
-0.531192
 20
-1.931154
 11
-0.567468
 21
-1.921656
  0
LINE
  8
1
 10
-0.567468
 20
-1.921656
 11
-0.603868
 21
-1.911548
  0
LINE
  8
1
 10
-0.603868
 20
-1.911548
 11
-0.640391
 21
-1.900832
  0
LINE
  8
1
 10
-0.640391
 20
-1.900832
 11
-0.677036
 21
-1.889511
  0
LINE
  8
1
 10
-0.677036
 20
-1.889511
 11
-0.713799
 21
-1.877586
  0
LINE
  8
1
 10
-0.713799
 20
-1.877586
 11
-0.750679
 21
-1.865062
  0
LINE
  8
1
 10
-0.750679
 20
-1.865062
 11
-0.787671
 21
-1.851942
  0
LINE
  8
1
 10
-0.787671
 20
-1.851942
 11
-0.824773
 21
-1.838230
  0
LINE
  8
1
 10
-0.824773
 20
-1.838230
 11
-0.861979
 21
-1.823929
  0
LINE
  8
1
 10
-0.861979
 20
-1.823929
 11
-0.899286
 21
-1.809045
  0
LINE
  8
1
 10
-0.899286
 20
-1.809045
 11
-0.936687
 21
-1.793581
  0
LINE
  8
1
 10
-0.936687
 20
-1.793581
 11
-0.974178
 21
-1.777542
  0
LINE
  8
1
 10
-0.974178
 20
-1.777542
 11
-1.011753
 21
-1.760934
  0
LINE
  8
1
 10
-1.011753
 20
-1.760934
 11
-1.049405
 21
-1.743761
  0
LINE
  8
1
 10
-1.049405
 20
-1.743761
 11
-1.087128
 21
-1.726028
  0
LINE
  8
1
 10
-1.087128
 20
-1.726028
 11
-1.124915
 21
-1.707741
  0
LINE
  8
1
 10
-1.124915
 20
-1.707741
 11
-1.162759
 21
-1.688905
  0
LINE
  8
1
 10
-1.162759
 20
-1.688905
 11
-1.200652
 21
-1.669524
  0
LINE
  8
1
 10
-1.200652
 20
-1.669524
 11
-1.238586
 21
-1.649604
  0
LINE
  8
1
 10
-1.238586
 20
-1.649604
 11
-1.276554
 21
-1.629149
  0
LINE
  8
1
 10
-1.276554
 20
-1.629149
 11
-1.314546
 21
-1.608164
  0
LINE
  8
1
 10
-1.314546
 20
-1.608164
 11
-1.352554
 21
-1.586653
  0
LINE
  8
1
 10
-1.352554
 20
-1.586653
 11
-1.390569
 21
-1.564620
  0
LINE
  8
1
 10
-1.390569
 20
-1.564620
 11
-1.428582
 21
-1.542070
  0
LINE
  8
1
 10
-1.428582
 20
-1.542070
 11
-1.466583
 21
-1.519004
  0
LINE
  8
1
 10
-1.466583
 20
-1.519004
 11
-1.504562
 21
-1.495427
  0
LINE
  8
1
 10
-1.504562
 20
-1.495427
 11
-1.542510
 21
-1.471340
  0
LINE
  8
1
 10
-1.542510
 20
-1.471340
 11
-1.580415
 21
-1.446746
  0
LINE
  8
1
 10
-1.580415
 20
-1.446746
 11
-1.618268
 21
-1.421647
  0
LINE
  8
1
 10
-1.618268
 20
-1.421647
 11
-1.656058
 21
-1.396042
  0
LINE
  8
1
 10
-1.656058
 20
-1.396042
 11
-1.693773
 21
-1.369933
  0
LINE
  8
1
 10
-1.693773
 20
-1.369933
 11
-1.731403
 21
-1.343320
  0
LINE
  8
1
 10
-1.731403
 20
-1.343320
 11
-1.768936
 21
-1.316201
  0
LINE
  8
1
 10
-1.768936
 20
-1.316201
 11
-1.806360
 21
-1.288576
  0
LINE
  8
1
 10
-1.806360
 20
-1.288576
 11
-1.843663
 21
-1.260443
  0
LINE
  8
1
 10
-1.843663
 20
-1.260443
 11
-1.880834
 21
-1.231800
  0
LINE
  8
1
 10
-1.880834
 20
-1.231800
 11
-1.917858
 21
-1.202644
  0
LINE
  8
1
 10
-1.917858
 20
-1.202644
 11
-1.954725
 21
-1.172972
  0
LINE
  8
1
 10
-1.954725
 20
-1.172972
 11
-1.991421
 21
-1.142779
  0
LINE
  8
1
 10
-1.991421
 20
-1.142779
 11
-2.027932
 21
-1.112063
  0
LINE
  8
1
 10
-2.027932
 20
-1.112063
 11
-2.064245
 21
-1.080817
  0
LINE
  8
1
 10
-2.064245
 20
-1.080817
 11
-2.100346
 21
-1.049038
  0
LINE
  8
1
 10
-2.100346
 20
-1.049038
 11
-2.136221
 21
-1.016720
  0
LINE
  8
1
 10
-2.136221
 20
-1.016720
 11
-2.171854
 21
-0.983858
  0
LINE
  8
1
 10
-2.171854
 20
-0.983858
 11
-2.207231
 21
-0.950445
  0
LINE
  8
1
 10
-2.207231
 20
-0.950445
 11
-2.242337
 21
-0.916477
  0
LINE
  8
1
 10
-2.242337
 20
-0.916477
 11
-2.277154
 21
-0.881946
  0
LINE
  8
1
 10
-2.277154
 20
-0.881946
 11
-2.311668
 21
-0.846848
  0
LINE
  8
1
 10
-2.311668
 20
-0.846848
 11
-2.345861
 21
-0.811175
  0
LINE
  8
1
 10
-2.345861
 20
-0.811175
 11
-2.379715
 21
-0.774922
  0
LINE
  8
1
 10
-2.379715
 20
-0.774922
 11
-2.413213
 21
-0.738084
  0
LINE
  8
1
 10
-2.413213
 20
-0.738084
 11
-2.446337
 21
-0.700654
  0
LINE
  8
1
 10
-2.446337
 20
-0.700654
 11
-2.479067
 21
-0.662627
  0
LINE
  8
1
 10
-2.479067
 20
-0.662627
 11
-2.511385
 21
-0.623998
  0
LINE
  8
1
 10
-2.511385
 20
-0.623998
 11
-2.543271
 21
-0.584762
  0
LINE
  8
1
 10
-2.543271
 20
-0.584762
 11
-2.574703
 21
-0.544916
  0
LINE
  8
1
 10
-2.574703
 20
-0.544916
 11
-2.605662
 21
-0.504456
  0
LINE
  8
1
 10
-2.605662
 20
-0.504456
 11
-2.636126
 21
-0.463377
  0
LINE
  8
1
 10
-2.636126
 20
-0.463377
 11
-2.666072
 21
-0.421679
  0
LINE
  8
1
 10
-2.666072
 20
-0.421679
 11
-2.695480
 21
-0.379359
  0
LINE
  8
1
 10
-2.695480
 20
-0.379359
 11
-2.724325
 21
-0.336416
  0
LINE
  8
1
 10
-2.724325
 20
-0.336416
 11
-2.752585
 21
-0.292849
  0
LINE
  8
1
 10
-2.752585
 20
-0.292849
 11
-2.780236
 21
-0.248659
  0
LINE
  8
1
 10
-2.780236
 20
-0.248659
 11
-2.807255
 21
-0.203848
  0
LINE
  8
1
 10
-2.807255
 20
-0.203848
 11
-2.833616
 21
-0.158417
  0
LINE
  8
1
 10
-2.833616
 20
-0.158417
 11
-2.859295
 21
-0.112370
  0
LINE
  8
1
 10
-2.859295
 20
-0.112370
 11
-2.884268
 21
-0.065712
  0
LINE
  8
1
 10
-2.884268
 20
-0.065712
 11
-2.908510
 21
-0.018446
  0
LINE
  8
1
 10
-2.908510
 20
-0.018446
 11
-2.931994
 21
0.029421
  0
LINE
  8
1
 10
-2.931994
 20
0.029421
 11
-2.954697
 21
0.077881
  0
LINE
  8
1
 10
-2.954697
 20
0.077881
 11
-2.976591
 21
0.126927
  0
LINE
  8
1
 10
-2.976591
 20
0.126927
 11
-2.997653
 21
0.176549
  0
LINE
  8
1
 10
-2.997653
 20
0.176549
 11
-3.017856
 21
0.226735
  0
LINE
  8
1
 10
-3.017856
 20
0.226735
 11
-3.037176
 21
0.277476
  0
LINE
  8
1
 10
-3.037176
 20
0.277476
 11
-3.055586
 21
0.328759
  0
LINE
  8
1
 10
-3.055586
 20
0.328759
 11
-3.073062
 21
0.380568
  0
LINE
  8
1
 10
-3.073062
 20
0.380568
 11
-3.089579
 21
0.432890
  0
LINE
  8
1
 10
-3.089579
 20
0.432890
 11
-3.105113
 21
0.485709
  0
LINE
  8
1
 10
-3.105113
 20
0.485709
 11
-3.119640
 21
0.539008
  0
LINE
  8
1
 10
-3.119640
 20
0.539008
 11
-3.133135
 21
0.592768
  0
LINE
  8
1
 10
-3.133135
 20
0.592768
 11
-3.145576
 21
0.646971
  0
LINE
  8
1
 10
-3.145576
 20
0.646971
 11
-3.156939
 21
0.701596
  0
LINE
  8
1
 10
-3.156939
 20
0.701596
 11
-3.167203
 21
0.756622
  0
LINE
  8
1
 10
-3.167203
 20
0.756622
 11
-3.176345
 21
0.812027
  0
LINE
  8
1
 10
-3.176345
 20
0.812027
 11
-3.184345
 21
0.867788
  0
LINE
  8
1
 10
-3.184345
 20
0.867788
 11
-3.191183
 21
0.923881
  0
LINE
  8
1
 10
-3.191183
 20
0.923881
 11
-3.196839
 21
0.980281
  0
LINE
  8
1
 10
-3.196839
 20
0.980281
 11
-3.201294
 21
1.036963
  0
LINE
  8
1
 10
-3.201294
 20
1.036963
 11
-3.204531
 21
1.093899
  0
LINE
  8
1
 10
-3.204531
 20
1.093899
 11
-3.206532
 21
1.151063
  0
LINE
  8
1
 10
-3.206532
 20
1.151063
 11
-3.207280
 21
1.208426
  0
LINE
  8
1
 10
-3.207280
 20
1.208426
 11
-3.206762
 21
1.265961
  0
LINE
  8
1
 10
-3.206762
 20
1.265961
 11
-3.204962
 21
1.323637
  0
LINE
  8
1
 10
-3.204962
 20
1.323637
 11
-3.201868
 21
1.381425
  0
LINE
  8
1
 10
-3.201868
 20
1.381425
 11
-3.197467
 21
1.439295
  0
LINE
  8
1
 10
-3.197467
 20
1.439295
 11
-3.191747
 21
1.497215
  0
LINE
  8
1
 10
-3.191747
 20
1.497215
 11
-3.184699
 21
1.555155
  0
LINE
  8
1
 10
-3.184699
 20
1.555155
 11
-3.176313
 21
1.613083
  0
LINE
  8
1
 10
-3.176313
 20
1.613083
 11
-3.166581
 21
1.670966
  0
LINE
  8
1
 10
-3.166581
 20
1.670966
 11
-3.155497
 21
1.728773
  0
LINE
  8
1
 10
-3.155497
 20
1.728773
 11
-3.143054
 21
1.786470
  0
LINE
  8
1
 10
-3.143054
 20
1.786470
 11
-3.129248
 21
1.844026
  0
LINE
  8
1
 10
-3.129248
 20
1.844026
 11
-3.114075
 21
1.901407
  0
LINE
  8
1
 10
-3.114075
 20
1.901407
 11
-3.097533
 21
1.958581
  0
LINE
  8
1
 10
-3.097533
 20
1.958581
 11
-3.079620
 21
2.015514
  0
LINE
  8
1
 10
-3.079620
 20
2.015514
 11
-3.060336
 21
2.072173
  0
LINE
  8
1
 10
-3.060336
 20
2.072173
 11
-3.039682
 21
2.128527
  0
LINE
  8
1
 10
-3.039682
 20
2.128527
 11
-3.017660
 21
2.184541
  0
LINE
  8
1
 10
-3.017660
 20
2.184541
 11
-2.994273
 21
2.240183
  0
LINE
  8
1
 10
-2.994273
 20
2.240183
 11
-2.969525
 21
2.295421
  0
LINE
  8
1
 10
-2.969525
 20
2.295421
 11
-2.943421
 21
2.350222
  0
LINE
  8
1
 10
-2.943421
 20
2.350222
 11
-2.915968
 21
2.404555
  0
LINE
  8
1
 10
-2.915968
 20
2.404555
 11
-2.887173
 21
2.458388
  0
LINE
  8
1
 10
-2.887173
 20
2.458388
 11
-2.857045
 21
2.511690
  0
LINE
  8
1
 10
-2.857045
 20
2.511690
 11
-2.825593
 21
2.564429
  0
LINE
  8
1
 10
-2.825593
 20
2.564429
 11
-2.792827
 21
2.616575
  0
LINE
  8
1
 10
-2.792827
 20
2.616575
 11
-2.758759
 21
2.668099
  0
LINE
  8
1
 10
-2.758759
 20
2.668099
 11
-2.723402
 21
2.718971
  0
LINE
  8
1
 10
-2.723402
 20
2.718971
 11
-2.686769
 21
2.769162
  0
LINE
  8
1
 10
-2.686769
 20
2.769162
 11
-2.648873
 21
2.818644
  0
LINE
  8
1
 10
-2.648873
 20
2.818644
 11
-2.609732
 21
2.867388
  0
LINE
  8
1
 10
-2.609732
 20
2.867388
 11
-2.569359
 21
2.915369
  0
LINE
  8
1
 10
-2.569359
 20
2.915369
 11
-2.527774
 21
2.962559
  0
LINE
  8
1
 10
-2.527774
 20
2.962559
 11
-2.484992
 21
3.008932
  0
LINE
  8
1
 10
-2.484992
 20
3.008932
 11
-2.441034
 21
3.054465
  0
LINE
  8
1
 10
-2.441034
 20
3.054465
 11
-2.395918
 21
3.099132
  0
LINE
  8
1
 10
-2.395918
 20
3.099132
 11
-2.349664
 21
3.142911
  0
LINE
  8
1
 10
-2.349664
 20
3.142911
 11
-2.302294
 21
3.185778
  0
LINE
  8
1
 10
-2.302294
 20
3.185778
 11
-2.253828
 21
3.227711
  0
LINE
  8
1
 10
-2.253828
 20
3.227711
 11
-2.204290
 21
3.268690
  0
LINE
  8
1
 10
-2.204290
 20
3.268690
 11
-2.153701
 21
3.308695
  0
LINE
  8
1
 10
-2.153701
 20
3.308695
 11
-2.102085
 21
3.347705
  0
LINE
  8
1
 10
-2.102085
 20
3.347705
 11
-2.049467
 21
3.385704
  0
LINE
  8
1
 10
-2.049467
 20
3.385704
 11
-1.995870
 21
3.422672
  0
LINE
  8
1
 10
-1.995870
 20
3.422672
 11
-1.941320
 21
3.458594
  0
LINE
  8
1
 10
-1.941320
 20
3.458594
 11
-1.885842
 21
3.493454
  0
LINE
  8
1
 10
-1.885842
 20
3.493454
 11
-1.829462
 21
3.527236
  0
LINE
  8
1
 10
-1.829462
 20
3.527236
 11
-1.772206
 21
3.559927
  0
LINE
  8
1
 10
-1.772206
 20
3.559927
 11
-1.714101
 21
3.591514
  0
LINE
  8
1
 10
-1.714101
 20
3.591514
 11
-1.655175
 21
3.621983
  0
LINE
  8
1
 10
-1.655175
 20
3.621983
 11
-1.595453
 21
3.651325
  0
LINE
  8
1
 10
-1.595453
 20
3.651325
 11
-1.534965
 21
3.679528
  0
LINE
  8
1
 10
-1.534965
 20
3.679528
 11
-1.473738
 21
3.706582
  0
LINE
  8
1
 10
-1.473738
 20
3.706582
 11
-1.411801
 21
3.732479
  0
LINE
  8
1
 10
-1.411801
 20
3.732479
 11
-1.349181
 21
3.757210
  0
LINE
  8
1
 10
-1.349181
 20
3.757210
 11
-1.285908
 21
3.780768
  0
LINE
  8
1
 10
-1.285908
 20
3.780768
 11
-1.222011
 21
3.803146
  0
LINE
  8
1
 10
-1.222011
 20
3.803146
 11
-1.157519
 21
3.824338
  0
LINE
  8
1
 10
-1.157519
 20
3.824338
 11
-1.092462
 21
3.844340
  0
LINE
  8
1
 10
-1.092462
 20
3.844340
 11
-1.026870
 21
3.863145
  0
LINE
  8
1
 10
-1.026870
 20
3.863145
 11
-0.960772
 21
3.880751
  0
LINE
  8
1
 10
-0.960772
 20
3.880751
 11
-0.894198
 21
3.897154
  0
LINE
  8
1
 10
-0.894198
 20
3.897154
 11
-0.827180
 21
3.912350
  0
LINE
  8
1
 10
-0.827180
 20
3.912350
 11
-0.759749
 21
3.926336
  0
LINE
  8
1
 10
-0.759749
 20
3.926336
 11
-0.691935
 21
3.939112
  0
LINE
  8
1
 10
-0.691935
 20
3.939112
 11
-0.623771
 21
3.950675
  0
LINE
  8
1
 10
-0.623771
 20
3.950675
 11
-0.555288
 21
3.961023
  0
LINE
  8
1
 10
-0.555288
 20
3.961023
 11
-0.486519
 21
3.970156
  0
LINE
  8
1
 10
-0.486519
 20
3.970156
 11
-0.417498
 21
3.978072
  0
LINE
  8
1
 10
-0.417498
 20
3.978072
 11
-0.348257
 21
3.984772
  0
LINE
  8
1
 10
-0.348257
 20
3.984772
 11
-0.278832
 21
3.990254
  0
LINE
  8
1
 10
-0.278832
 20
3.990254
 11
-0.209257
 21
3.994518
  0
LINE
  8
1
 10
-0.209257
 20
3.994518
 11
-0.139569
 21
3.997563
  0
LINE
  8
1
 10
-0.139569
 20
3.997563
 11
-0.069804
 21
3.999391
  0
LINE
  8
1
 10
-0.069804
 20
3.999391
 11
0.000000
 21
4.000000
  0
ENDSEC
  0
EOF
