  0
SECTION
  2
HEADER
  9
$ACADVER
  1
AC1027
  9
$ACADMAINTVER
 70
   125
  9
$DWGCODEPAGE
  3
ANSI_1252
  9
$REQUIREDVERSIONS
160
                 0
  9
$INSBASE
 10
0.0
 20
0.0
 30
0.0
  9
$EXTMIN
 10
1.000000000000000E+20
 20
1.000000000000000E+20
 30
1.000000000000000E+20
  9
$EXTMAX
 10
-1.000000000000000E+20
 20
-1.000000000000000E+20
 30
-1.000000000000000E+20
  9
$LIMMIN
 10
0.0
 20
0.0
  9
$LIMMAX
 10
12.0
 20
9.0
  9
$ORTHOMODE
 70
     0
  9
$REGENMODE
 70
     1
  9
$FILLMODE
 70
     1
  9
$QTEXTMODE
 70
     0
  9
$MIRRTEXT
 70
     0
  9
$LTSCALE
 40
1.0
  9
$ATTMODE
 70
     1
  9
$TEXTSIZE
 40
0.2
  9
$TRACEWID
 40
0.05
  9
$TEXTSTYLE
  7
Standard
  9
$CLAYER
  8
0
  9
$CELTYPE
  6
ByLayer
  9
$CECOLOR
 62
   256
  9
$CELTSCALE
 40
1.0
  9
$DISPSILH
 70
     0
  9
$DIMSCALE
 40
1.0
  9
$DIMASZ
 40
0.18
  9
$DIMEXO
 40
0.0625
  9
$DIMDLI
 40
0.38
  9
$DIMRND
 40
0.0
  9
$DIMDLE
 40
0.0
  9
$DIMEXE
 40
0.18
  9
$DIMTP
 40
0.0
  9
$DIMTM
 40
0.0
  9
$DIMTXT
 40
0.18
  9
$DIMCEN
 40
0.09
  9
$DIMTSZ
 40
0.0
  9
$DIMTOL
 70
     0
  9
$DIMLIM
 70
     0
  9
$DIMTIH
 70
     1
  9
$DIMTOH
 70
     1
  9
$DIMSE1
 70
     0
  9
$DIMSE2
 70
     0
  9
$DIMTAD
 70
     0
  9
$DIMZIN
 70
     0
  9
$DIMBLK
  1

  9
$DIMASO
 70
     1
  9
$DIMSHO
 70
     1
  9
$DIMPOST
  1

  9
$DIMAPOST
  1

  9
$DIMALT
 70
     0
  9
$DIMALTD
 70
     2
  9
$DIMALTF
 40
25.4
  9
$DIMLFAC
 40
1.0
  9
$DIMTOFL
 70
     0
  9
$DIMTVP
 40
0.0
  9
$DIMTIX
 70
     0
  9
$DIMSOXD
 70
     0
  9
$DIMSAH
 70
     0
  9
$DIMBLK1
  1

  9
$DIMBLK2
  1

  9
$DIMSTYLE
  2
Standard
  9
$DIMCLRD
 70
     0
  9
$DIMCLRE
 70
     0
  9
$DIMCLRT
 70
     0
  9
$DIMTFAC
 40
1.0
  9
$DIMGAP
 40
0.09
  9
$DIMJUST
 70
     0
  9
$DIMSD1
 70
     0
  9
$DIMSD2
 70
     0
  9
$DIMTOLJ
 70
     1
  9
$DIMTZIN
 70
     0
  9
$DIMALTZ
 70
     0
  9
$DIMALTTZ
 70
     0
  9
$DIMUPT
 70
     0
  9
$DIMDEC
 70
     4
  9
$DIMTDEC
 70
     4
  9
$DIMALTU
 70
     2
  9
$DIMALTTD
 70
     2
  9
$DIMTXSTY
  7
Standard
  9
$DIMAUNIT
 70
     0
  9
$DIMADEC
 70
     0
  9
$DIMALTRND
 40
0.0
  9
$DIMAZIN
 70
     0
  9
$DIMDSEP
 70
    46
  9
$DIMATFIT
 70
     3
  9
$DIMFRAC
 70
     0
  9
$DIMLDRBLK
  1

  9
$DIMLUNIT
 70
     2
  9
$DIMLWD
 70
    -2
  9
$DIMLWE
 70
    -2
  9
$DIMTMOVE
 70
     0
  9
$DIMFXL
 40
1.0
  9
$DIMFXLON
 70
     0
  9
$DIMJOGANG
 40
0.7853981633974483
  9
$DIMTFILL
 70
     0
  9
$DIMTFILLCLR
 70
     0
  9
$DIMARCSYM
 70
     0
  9
$DIMLTYPE
  6

  9
$DIMLTEX1
  6

  9
$DIMLTEX2
  6

  9
$DIMTXTDIRECTION
 70
     0
  9
$LUNITS
 70
     2
  9
$LUPREC
 70
     4
  9
$SKETCHINC
 40
0.1
  9
$FILLETRAD
 40
0.0
  9
$AUNITS
 70
     0
  9
$AUPREC
 70
     0
  9
$MENU
  1
.
  9
$ELEVATION
 40
0.0
  9
$PELEVATION
 40
0.0
  9
$THICKNESS
 40
0.0
  9
$LIMCHECK
 70
     0
  9
$CHAMFERA
 40
0.0
  9
$CHAMFERB
 40
0.0
  9
$CHAMFERC
 40
0.0
  9
$CHAMFERD
 40
0.0
  9
$SKPOLY
 70
     0
  9
$TDCREATE
 40
2459019.297569444
  9
$TDUCREATE
 40
2459019.297569444
  9
$TDUPDATE
 40
2459019.297569444
  9
$TDUUPDATE
 40
2459019.297569444
  9
$TDINDWG
 40
0.0000000000
  9
$TDUSRTIMER
 40
0.0000000000
  9
$USRTIMER
 70
     1
  9
$ANGBASE
 50
0.0
  9
$ANGDIR
 70
     0
  9
$PDMODE
 70
     0
  9
$PDSIZE
 40
0.0
  9
$PLINEWID
 40
0.0
  9
$SPLFRAME
 70
     0
  9
$SPLINETYPE
 70
     6
  9
$SPLINESEGS
 70
     8
  9
$HANDSEED
  5
1F2
  9
$SURFTAB1
 70
     6
  9
$SURFTAB2
 70
     6
  9
$SURFTYPE
 70
     6
  9
$SURFU
 70
     6
  9
$SURFV
 70
     6
  9
$UCSBASE
  2

  9
$UCSNAME
  2

  9
$UCSORG
 10
0.0
 20
0.0
 30
0.0
  9
$UCSXDIR
 10
1.0
 20
0.0
 30
0.0
  9
$UCSYDIR
 10
0.0
 20
1.0
 30
0.0
  9
$UCSORTHOREF
  2

  9
$UCSORTHOVIEW
 70
     0
  9
$UCSORGTOP
 10
0.0
 20
0.0
 30
0.0
  9
$UCSORGBOTTOM
 10
0.0
 20
0.0
 30
0.0
  9
$UCSORGLEFT
 10
0.0
 20
0.0
 30
0.0
  9
$UCSORGRIGHT
 10
0.0
 20
0.0
 30
0.0
  9
$UCSORGFRONT
 10
0.0
 20
0.0
 30
0.0
  9
$UCSORGBACK
 10
0.0
 20
0.0
 30
0.0
  9
$PUCSBASE
  2

  9
$PUCSNAME
  2

  9
$PUCSORG
 10
0.0
 20
0.0
 30
0.0
  9
$PUCSXDIR
 10
1.0
 20
0.0
 30
0.0
  9
$PUCSYDIR
 10
0.0
 20
1.0
 30
0.0
  9
$PUCSORTHOREF
  2

  9
$PUCSORTHOVIEW
 70
     0
  9
$PUCSORGTOP
 10
0.0
 20
0.0
 30
0.0
  9
$PUCSORGBOTTOM
 10
0.0
 20
0.0
 30
0.0
  9
$PUCSORGLEFT
 10
0.0
 20
0.0
 30
0.0
  9
$PUCSORGRIGHT
 10
0.0
 20
0.0
 30
0.0
  9
$PUCSORGFRONT
 10
0.0
 20
0.0
 30
0.0
  9
$PUCSORGBACK
 10
0.0
 20
0.0
 30
0.0
  9
$USERI1
 70
     0
  9
$USERI2
 70
     0
  9
$USERI3
 70
     0
  9
$USERI4
 70
     0
  9
$USERI5
 70
     0
  9
$USERR1
 40
0.0
  9
$USERR2
 40
0.0
  9
$USERR3
 40
0.0
  9
$USERR4
 40
0.0
  9
$USERR5
 40
0.0
  9
$WORLDVIEW
 70
     1
  9
$SHADEDGE
 70
     3
  9
$SHADEDIF
 70
    70
  9
$TILEMODE
 70
     1
  9
$MAXACTVP
 70
    64
  9
$PINSBASE
 10
0.0
 20
0.0
 30
0.0
  9
$PLIMCHECK
 70
     0
  9
$PEXTMIN
 10
1.000000000000000E+20
 20
1.000000000000000E+20
 30
1.000000000000000E+20
  9
$PEXTMAX
 10
-1.000000000000000E+20
 20
-1.000000000000000E+20
 30
-1.000000000000000E+20
  9
$PLIMMIN
 10
0.0
 20
0.0
  9
$PLIMMAX
 10
12.0
 20
9.0
  9
$UNITMODE
 70
     0
  9
$VISRETAIN
 70
     1
  9
$PLINEGEN
 70
     0
  9
$PSLTSCALE
 70
     1
  9
$TREEDEPTH
 70
  3020
  9
$CMLSTYLE
  2
Standard
  9
$CMLJUST
 70
     0
  9
$CMLSCALE
 40
1.0
  9
$PROXYGRAPHICS
 70
     1
  9
$MEASUREMENT
 70
     0
  9
$CELWEIGHT
370
    -1
  9
$ENDCAPS
280
     0
  9
$JOINSTYLE
280
     0
  9
$LWDISPLAY
290
     0
  9
$INSUNITS
 70
     5
  9
$HYPERLINKBASE
  1

  9
$STYLESHEET
  1

  9
$XEDIT
290
     1
  9
$CEPSNTYPE
380
     0
  9
$PSTYLEMODE
290
     1
  9
$FINGERPRINTGUID
  2
{FBF20B8C-FACA-CA45-9FA0-C43357CD8EC4}
  9
$VERSIONGUID
  2
{D79FE934-4FA3-6E4F-B4CE-C33DD2D319E8}
  9
$EXTNAMES
290
     1
  9
$PSVPSCALE
 40
0.0
  9
$OLESTARTUP
290
     0
  9
$SORTENTS
280
   127
  9
$INDEXCTL
280
     0
  9
$HIDETEXT
280
     1
  9
$XCLIPFRAME
280
     2
  9
$HALOGAP
280
     0
  9
$OBSCOLOR
 70
   257
  9
$OBSLTYPE
280
     0
  9
$INTERSECTIONDISPLAY
280
     0
  9
$INTERSECTIONCOLOR
 70
   257
  9
$DIMASSOC
280
     2
  9
$PROJECTNAME
  1

  9
$CAMERADISPLAY
290
     0
  9
$LENSLENGTH
 40
50.0
  9
$CAMERAHEIGHT
 40
0.0
  9
$STEPSPERSEC
 40
2.0
  9
$STEPSIZE
 40
6.0
  9
$3DDWFPREC
 40
2.0
  9
$PSOLWIDTH
 40
0.25
  9
$PSOLHEIGHT
 40
4.0
  9
$LOFTANG1
 40
1.570796326794896
  9
$LOFTANG2
 40
1.570796326794896
  9
$LOFTMAG1
 40
0.0
  9
$LOFTMAG2
 40
0.0
  9
$LOFTPARAM
 70
     7
  9
$LOFTNORMALS
280
     1
  9
$LATITUDE
 40
37.795
  9
$LONGITUDE
 40
-122.394
  9
$NORTHDIRECTION
 40
0.0
  9
$TIMEZONE
 70
 -8000
  9
$LIGHTGLYPHDISPLAY
280
     1
  9
$TILEMODELIGHTSYNCH
280
     1
  9
$CMATERIAL
347
11
  9
$SOLIDHIST
280
     0
  9
$SHOWHIST
280
     1
  9
$DWFFRAME
280
     2
  9
$DGNFRAME
280
     0
  9
$REALWORLDSCALE
290
     1
  9
$INTERFERECOLOR
 62
     1
  9
$INTERFEREOBJVS
345
33
  9
$INTERFEREVPVS
346
30
  9
$CSHADOW
280
     0
  9
$SHADOWPLANELOCATION
 40
0.0
  0
ENDSEC
  0
SECTION
  2
CLASSES
  0
CLASS
  1
ACDBDICTIONARYWDFLT
  2
AcDbDictionaryWithDefault
  3
ObjectDBX Classes
 90
        0
 91
        1
280
     0
281
     0
  0
CLASS
  1
MATERIAL
  2
AcDbMaterial
  3
ObjectDBX Classes
 90
     1153
 91
        3
280
     0
281
     0
  0
CLASS
  1
VISUALSTYLE
  2
AcDbVisualStyle
  3
ObjectDBX Classes
 90
     4095
 91
       24
280
     0
281
     0
  0
CLASS
  1
SCALE
  2
AcDbScale
  3
ObjectDBX Classes
 90
     1153
 91
       17
280
     0
281
     0
  0
CLASS
  1
TABLESTYLE
  2
AcDbTableStyle
  3
ObjectDBX Classes
 90
     4095
 91
        1
280
     0
281
     0
  0
CLASS
  1
MLEADERSTYLE
  2
AcDbMLeaderStyle
  3
ACDB_MLEADERSTYLE_CLASS
 90
     4095
 91
        1
280
     0
281
     0
  0
CLASS
  1
ACDBSECTIONVIEWSTYLE
  2
AcDbSectionViewStyle
  3
ObjectDBX Classes
 90
     1025
 91
        1
280
     0
281
     0
  0
CLASS
  1
ACDBDETAILVIEWSTYLE
  2
AcDbDetailViewStyle
  3
ObjectDBX Classes
 90
     1025
 91
        1
280
     0
281
     0
  0
CLASS
  1
DICTIONARYVAR
  2
AcDbDictionaryVar
  3
ObjectDBX Classes
 90
        0
 91
        5
280
     0
281
     0
  0
CLASS
  1
CELLSTYLEMAP
  2
AcDbCellStyleMap
  3
ObjectDBX Classes
 90
     1152
 91
        1
280
     0
281
     0
  0
ENDSEC
  0
SECTION
  2
TABLES
  0
TABLE
  2
VPORT
  5
8
330
0
100
AcDbSymbolTable
 70
     1
1001
ACAD
1000
DbSaveVer
1071
      224
  0
VPORT
  5
57
330
8
100
AcDbSymbolTableRecord
100
AcDbViewportTableRecord
  2
*Active
 70
     0
 10
0.0
 20
0.0
 11
1.0
 21
1.0
 12
500.0
 22
500.0
 13
0.0
 23
0.0
 14
1.0
 24
1.0
 15
0.0
 25
0.0
 16
0.0
 26
0.0
 36
1.0
 17
0.0
 27
0.0
 37
0.0
 40
12.0
 41
1.0
 42
50.0
 43
0.0
 44
0.0
 50
0.0
 51
0.0
 71
     0
 72
   100
 73
     1
 74
     1
 75
     0
 76
     0
 77
     0
 78
     0
281
     0
 65
     1
110
0.0
120
0.0
130
0.0
111
1.0
121
0.0
131
0.0
112
0.0
122
1.0
132
0.0
 79
     0
146
0.0
 60
     3
 61
     5
292
     1
282
     1
141
0.0
142
0.0
 63
   250
421
  3355443
  0
ENDTAB
  0
TABLE
  2
LTYPE
  5
5
330
0
100
AcDbSymbolTable
 70
     1
  0
LTYPE
  5
5B
330
5
100
AcDbSymbolTableRecord
100
AcDbLinetypeTableRecord
  2
ByBlock
 70
     0
  3

 72
    65
 73
     0
 40
0.0
  0
LTYPE
  5
5C
330
5
100
AcDbSymbolTableRecord
100
AcDbLinetypeTableRecord
  2
ByLayer
 70
     0
  3

 72
    65
 73
     0
 40
0.0
  0
LTYPE
  5
5D
330
5
100
AcDbSymbolTableRecord
100
AcDbLinetypeTableRecord
  2
Continuous
 70
     0
  3
Solid line
 72
    65
 73
     0
 40
0.0
  0
ENDTAB
  0
TABLE
  2
LAYER
  5
2
330
0
100
AcDbSymbolTable
 70
     2
  0
LAYER
  5
54
330
2
100
AcDbSymbolTableRecord
100
AcDbLayerTableRecord
  2
0
 70
     0
 62
     7
  6
Continuous
370
    -3
390
F
347
21
348
0
  0
LAYER
  5
7A
330
2
100
AcDbSymbolTableRecord
100
AcDbLayerTableRecord
  2
1i2e.4567poly.raw v1_1
 70
     0
 62
     7
  6
Continuous
370
    -3
390
F
347
21
348
0
1001
NFusion_SketchTransform
1000
1.000000;0.000000;0.000000;0.000000;0.000000;1.000000;0.000000;0.000000;0.000000;0.000000;1.000000;0.000000;0.000000;0.000000;0.000000;1.000000
  0
ENDTAB
  0
TABLE
  2
STYLE
  5
3
330
0
100
AcDbSymbolTable
 70
     2
  0
STYLE
  5
55
330
3
100
AcDbSymbolTableRecord
100
AcDbTextStyleTableRecord
  2
Standard
 70
     0
 40
0.0
 41
1.0
 50
0.0
 71
     0
 42
0.2
  3
txt
  4

  0
STYLE
  5
5A
330
3
100
AcDbSymbolTableRecord
100
AcDbTextStyleTableRecord
  2
Annotative
 70
     0
 40
0.0
 41
1.0
 50
0.0
 71
     0
 42
0.2
  3
txt
  4

1001
AcadAnnotative
1000
AnnotativeData
1002
{
1070
     1
1070
     1
1002
}
  0
ENDTAB
  0
TABLE
  2
VIEW
  5
6
330
0
100
AcDbSymbolTable
 70
     0
  0
ENDTAB
  0
TABLE
  2
UCS
  5
7
330
0
100
AcDbSymbolTable
 70
     0
  0
ENDTAB
  0
TABLE
  2
APPID
  5
9
330
0
100
AcDbSymbolTable
 70
     4
  0
APPID
  5
56
330
9
100
AcDbSymbolTableRecord
100
AcDbRegAppTableRecord
  2
ACAD
 70
     0
  0
APPID
  5
5E
330
9
100
AcDbSymbolTableRecord
100
AcDbRegAppTableRecord
  2
AcadAnnotative
 70
     0
  0
APPID
  5
78
330
9
100
AcDbSymbolTableRecord
100
AcDbRegAppTableRecord
  2
EDIT_IN_FUSION_ACAD_ADDIN
 70
     0
  0
APPID
  5
79
330
9
100
AcDbSymbolTableRecord
100
AcDbRegAppTableRecord
  2
NFusion_SketchTransform
 70
     0
  0
ENDTAB
  0
TABLE
  2
DIMSTYLE
  5
A
330
0
100
AcDbSymbolTable
 70
     2
100
AcDbDimStyleTable
 71
     0
  0
DIMSTYLE
105
58
330
A
100
AcDbSymbolTableRecord
100
AcDbDimStyleTableRecord
  2
Standard
 70
     0
340
55
  0
DIMSTYLE
105
59
330
A
100
AcDbSymbolTableRecord
100
AcDbDimStyleTableRecord
  2
Annotative
 70
     0
340
55
1001
AcadAnnotative
1000
AnnotativeData
1002
{
1070
     1
1070
     1
1002
}
  0
ENDTAB
  0
TABLE
  2
BLOCK_RECORD
  5
1
330
0
100
AcDbSymbolTable
 70
     1
  0
BLOCK_RECORD
  5
70
330
1
100
AcDbSymbolTableRecord
100
AcDbBlockTableRecord
  2
*Model_Space
340
73
 70
     0
280
     1
281
     0
  0
BLOCK_RECORD
  5
6C
330
1
100
AcDbSymbolTableRecord
100
AcDbBlockTableRecord
  2
*Paper_Space
340
6F
 70
     0
280
     1
281
     0
  0
BLOCK_RECORD
  5
74
330
1
100
AcDbSymbolTableRecord
100
AcDbBlockTableRecord
  2
*Paper_Space0
340
77
 70
     0
280
     1
281
     0
  0
ENDTAB
  0
ENDSEC
  0
SECTION
  2
BLOCKS
  0
BLOCK
  5
71
330
70
100
AcDbEntity
  8
0
100
AcDbBlockBegin
  2
*Model_Space
 70
     0
 10
0.0
 20
0.0
 30
0.0
  3
*Model_Space
  1

  0
ENDBLK
  5
72
330
70
100
AcDbEntity
  8
0
100
AcDbBlockEnd
  0
BLOCK
  5
6D
330
6C
100
AcDbEntity
 67
     1
  8
0
100
AcDbBlockBegin
  2
*Paper_Space
 70
     0
 10
0.0
 20
0.0
 30
0.0
  3
*Paper_Space
  1

  0
ENDBLK
  5
6E
330
6C
100
AcDbEntity
 67
     1
  8
0
100
AcDbBlockEnd
  0
BLOCK
  5
75
330
74
100
AcDbEntity
 67
     1
  8
0
100
AcDbBlockBegin
  2
*Paper_Space0
 70
     0
 10
0.0
 20
0.0
 30
0.0
  3
*Paper_Space0
  1

  0
ENDBLK
  5
76
330
74
100
AcDbEntity
 67
     1
  8
0
100
AcDbBlockEnd
  0
ENDSEC
  0
SECTION
  2
ENTITIES
  0
LINE
  5
7B
330
70
100
AcDbEntity
  8
1i2e.4567poly.raw v1_1
100
AcDbLine
 10
-2.108598779999999
 20
9.93778048
 30
0.0
 11
-1.935678119999999
 21
9.97319062
 31
0.0
  0
LINE
  5
7C
330
70
100
AcDbEntity
  8
1i2e.4567poly.raw v1_1
100
AcDbLine
 10
-8.65169466
 20
-0.67720972
 30
0.0
 11
-8.70119926
 21
-0.5377662600000001
 31
0.0
  0
LINE
  5
7D
330
70
100
AcDbEntity
  8
1i2e.4567poly.raw v1_1
100
AcDbLine
 10
6.10700582
 20
6.122377899999999
 30
0.0
 11
6.13817416
 21
5.98154506
 31
0.0
  0
LINE
  5
7E
330
70
100
AcDbEntity
  8
1i2e.4567poly.raw v1_1
100
AcDbLine
 10
6.0723145
 20
6.2620271
 30
0.0
 11
6.10700582
 21
6.122377899999999
 31
0.0
  0
LINE
  5
7F
330
70
100
AcDbEntity
  8
1i2e.4567poly.raw v1_1
100
AcDbLine
 10
-8.301243239999999
 20
-1.480840319999999
 30
0.0
 11
-8.365759239999999
 21
-1.351061559999999
 31
0.0
  0
LINE
  5
80
330
70
100
AcDbEntity
  8
1i2e.4567poly.raw v1_1
100
AcDbLine
 10
-8.23440822
 20
-1.608856319999999
 30
0.0
 11
-8.301243239999999
 21
-1.480840319999999
 31
0.0
  0
LINE
  5
81
330
70
100
AcDbEntity
  8
1i2e.4567poly.raw v1_1
100
AcDbLine
 10
5.6849391
 20
1.235626179999999
 30
0.0
 11
5.647103259999999
 21
1.097252059999999
 31
0.0
  0
LINE
  5
82
330
70
100
AcDbEntity
  8
1i2e.4567poly.raw v1_1
100
AcDbLine
 10
5.609094699999999
 20
0.95950278
 30
0.0
 11
5.570994699999999
 21
0.8224570799999998
 31
0.0
  0
LINE
  5
83
330
70
100
AcDbEntity
  8
1i2e.4567poly.raw v1_1
100
AcDbLine
 10
5.49479978
 20
0.55082948
 30
0.0
 11
5.45682424
 21
0.4164584
 31
0.0
  0
LINE
  5
84
330
70
100
AcDbEntity
  8
1i2e.4567poly.raw v1_1
100
AcDbLine
 10
0.9699701199999999
 20
-5.16079232
 30
0.0
 11
0.8725331799999999
 21
-5.191490759999999
 31
0.0
  0
LINE
  5
85
330
70
100
AcDbEntity
  8
1i2e.4567poly.raw v1_1
100
AcDbLine
 10
-2.684292319999999
 20
-5.45404548
 30
0.0
 11
-2.799057139999999
 21
-5.43612578
 31
0.0
  0
LINE
  5
86
330
70
100
AcDbEntity
  8
1i2e.4567poly.raw v1_1
100
AcDbLine
 10
5.570994699999999
 20
0.8224570799999998
 30
0.0
 11
5.53287438
 21
0.6861987800000002
 31
0.0
  0
LINE
  5
87
330
70
100
AcDbEntity
  8
1i2e.4567poly.raw v1_1
100
AcDbLine
 10
0.57562496
 20
-5.276339459999999
 30
0.0
 11
0.47517304
 21
-5.302171259999999
 31
0.0
  0
LINE
  5
88
330
70
100
AcDbEntity
  8
1i2e.4567poly.raw v1_1
100
AcDbLine
 10
6.032535559999999
 20
2.645051859999999
 30
0.0
 11
6.00189808
 21
2.50226576
 31
0.0
  0
LINE
  5
89
330
70
100
AcDbEntity
  8
1i2e.4567poly.raw v1_1
100
AcDbLine
 10
4.485675559999999
 20
-2.384376739999999
 30
0.0
 11
4.44313056
 21
-2.46272304
 31
0.0
  0
LINE
  5
8A
330
70
100
AcDbEntity
  8
1i2e.4567poly.raw v1_1
100
AcDbLine
 10
4.723333199999999
 20
-1.87859162
 30
0.0
 11
4.68532464
 21
-1.96808598
 31
0.0
  0
LINE
  5
8B
330
70
100
AcDbEntity
  8
1i2e.4567poly.raw v1_1
100
AcDbLine
 10
5.53287438
 20
0.6861987800000002
 30
0.0
 11
5.49479978
 21
0.55082948
 31
0.0
  0
LINE
  5
8C
330
70
100
AcDbEntity
  8
1i2e.4567poly.raw v1_1
100
AcDbLine
 10
-1.76203356
 20
10.00555022
 30
0.0
 11
-1.587728599999999
 21
10.03484912
 31
0.0
  0
LINE
  5
8D
330
70
100
AcDbEntity
  8
1i2e.4567poly.raw v1_1
100
AcDbLine
 10
-8.941686459999999
 20
3.4172779
 30
0.0
 11
-8.907434559999998
 21
3.5736022
 31
0.0
  0
LINE
  5
8E
330
70
100
AcDbEntity
  8
1i2e.4567poly.raw v1_1
100
AcDbLine
 10
-2.22749364
 20
-5.50872152
 30
0.0
 11
-2.3413085
 21
-5.4975633
 31
0.0
  0
LINE
  5
8F
330
70
100
AcDbEntity
  8
1i2e.4567poly.raw v1_1
100
AcDbLine
 10
-2.455392599999999
 20
-5.48474392
 30
0.0
 11
-2.56972816
 21
-5.470245600000001
 31
0.0
  0
LINE
  5
90
330
70
100
AcDbEntity
  8
1i2e.4567poly.raw v1_1
100
AcDbLine
 10
4.646785219999999
 20
-2.05529434
 30
0.0
 11
4.60764382
 21
-2.14035132
 31
0.0
  0
LINE
  5
91
330
70
100
AcDbEntity
  8
1i2e.4567poly.raw v1_1
100
AcDbLine
 10
4.1093644
 20
-2.98666662
 30
0.0
 11
4.05637746
 21
-3.058337799999999
 31
0.0
  0
LINE
  5
92
330
70
100
AcDbEntity
  8
1i2e.4567poly.raw v1_1
100
AcDbLine
 10
-9.077297059999999
 20
2.475870079999999
 30
0.0
 11
-9.06298924
 21
2.6328116
 31
0.0
  0
LINE
  5
93
330
70
100
AcDbEntity
  8
1i2e.4567poly.raw v1_1
100
AcDbLine
 10
-4.412241619999999
 20
-4.99286022
 30
0.0
 11
-4.5267118
 21
-4.946644919999999
 31
0.0
  0
LINE
  5
94
330
70
100
AcDbEntity
  8
1i2e.4567poly.raw v1_1
100
AcDbLine
 10
5.832754399999999
 20
1.794311879999999
 30
0.0
 11
5.79652384
 21
1.65394386
 31
0.0
  0
LINE
  5
95
330
70
100
AcDbEntity
  8
1i2e.4567poly.raw v1_1
100
AcDbLine
 10
3.035096799999999
 20
-4.088869139999999
 30
0.0
 11
2.96093896
 21
-4.1455213
 31
0.0
  0
LINE
  5
96
330
70
100
AcDbEntity
  8
1i2e.4567poly.raw v1_1
100
AcDbLine
 10
2.53558294
 20
9.807811220000001
 30
0.0
 11
2.68882622
 21
9.75895178
 31
0.0
  0
LINE
  5
97
330
70
100
AcDbEntity
  8
1i2e.4567poly.raw v1_1
100
AcDbLine
 10
5.868332179999999
 20
1.935099
 30
0.0
 11
5.832754399999999
 21
1.794311879999999
 31
0.0
  0
LINE
  5
98
330
70
100
AcDbEntity
  8
1i2e.4567poly.raw v1_1
100
AcDbLine
 10
-8.3826985
 20
5.10464816
 30
0.0
 11
-8.312266839999999
 21
5.2529232
 31
0.0
  0
LINE
  5
99
330
70
100
AcDbEntity
  8
1i2e.4567poly.raw v1_1
100
AcDbLine
 10
-2.000760539999999
 20
-5.526145919999999
 30
0.0
 11
-2.113970879999999
 21
-5.518243979999999
 31
0.0
  0
LINE
  5
9A
330
70
100
AcDbEntity
  8
1i2e.4567poly.raw v1_1
100
AcDbLine
 10
4.211373339999999
 20
-2.8409265
 30
0.0
 11
4.16103308
 21
-2.914195339999999
 31
0.0
  0
LINE
  5
9B
330
70
100
AcDbEntity
  8
1i2e.4567poly.raw v1_1
100
AcDbLine
 10
4.9798732
 20
-1.18151656
 30
0.0
 11
4.9438433
 21
-1.288905219999999
 31
0.0
  0
LINE
  5
9C
330
70
100
AcDbEntity
  8
1i2e.4567poly.raw v1_1
100
AcDbLine
 10
-1.887885479999999
 20
-5.53244766
 30
0.0
 11
-2.000760539999999
 21
-5.526145919999999
 31
0.0
  0
LINE
  5
9D
330
70
100
AcDbEntity
  8
1i2e.4567poly.raw v1_1
100
AcDbLine
 10
3.889542639999999
 20
-3.2684593
 30
0.0
 11
3.831330919999999
 21
-3.336841179999999
 31
0.0
  0
LINE
  5
9E
330
70
100
AcDbEntity
  8
1i2e.4567poly.raw v1_1
100
AcDbLine
 10
-1.237399099999999
 20
10.0842445
 30
0.0
 11
-1.061501559999999
 21
10.10433082
 31
0.0
  0
LINE
  5
9F
330
70
100
AcDbEntity
  8
1i2e.4567poly.raw v1_1
100
AcDbLine
 10
3.388291419999999
 20
-3.791369099999999
 30
0.0
 11
3.32004162
 21
-3.852732959999999
 31
0.0
  0
LINE
  5
A0
330
70
100
AcDbEntity
  8
1i2e.4567poly.raw v1_1
100
AcDbLine
 10
-1.55145232
 20
-5.54195488
 30
0.0
 11
-1.663212319999999
 21
-5.54033436
 31
0.0
  0
LINE
  5
A1
330
70
100
AcDbEntity
  8
1i2e.4567poly.raw v1_1
100
AcDbLine
 10
2.7316684
 20
-4.309602759999999
 30
0.0
 11
2.65302746
 21
-4.36230522
 31
0.0
  0
LINE
  5
A2
330
70
100
AcDbEntity
  8
1i2e.4567poly.raw v1_1
100
AcDbLine
 10
3.648999559999999
 20
-3.536891579999999
 30
0.0
 11
3.58569006
 21
-3.60184192
 31
0.0
  0
LINE
  5
A3
330
70
100
AcDbEntity
  8
1i2e.4567poly.raw v1_1
100
AcDbLine
 10
0.37400738
 20
-5.326761
 30
0.0
 11
0.27214322
 21
-5.35009344
 31
0.0
  0
LINE
  5
A4
330
70
100
AcDbEntity
  8
1i2e.4567poly.raw v1_1
100
AcDbLine
 10
1.35164322
 20
-5.0262028
 30
0.0
 11
1.257467639999999
 21
-5.06160024
 31
0.0
  0
LINE
  5
A5
330
70
100
AcDbEntity
  8
1i2e.4567poly.raw v1_1
100
AcDbLine
 10
5.051793299999999
 20
-0.9590760599999999
 30
0.0
 11
5.0158396
 21
-1.071557419999999
 31
0.0
  0
LINE
  5
A6
330
70
100
AcDbEntity
  8
1i2e.4567poly.raw v1_1
100
AcDbLine
 10
4.60764382
 20
-2.14035132
 30
0.0
 11
4.567811539999999
 21
-2.223422019999999
 31
0.0
  0
LINE
  5
A7
330
70
100
AcDbEntity
  8
1i2e.4567poly.raw v1_1
100
AcDbLine
 10
-1.587728599999999
 20
10.03484912
 30
0.0
 11
-1.412829279999999
 21
10.06108478
 31
0.0
  0
LINE
  5
A8
330
70
100
AcDbEntity
  8
1i2e.4567poly.raw v1_1
100
AcDbLine
 10
-0.14199616
 20
-5.43063938
 30
0.0
 11
-0.24712676
 21
-5.4475126
 31
0.0
  0
LINE
  5
A9
330
70
100
AcDbEntity
  8
1i2e.4567poly.raw v1_1
100
AcDbLine
 10
-7.82357846
 20
6.115710399999999
 30
0.0
 11
-7.73138662
 21
6.25440456
 31
0.0
  0
LINE
  5
AA
330
70
100
AcDbEntity
  8
1i2e.4567poly.raw v1_1
100
AcDbLine
 10
5.903145419999999
 20
2.07629506
 30
0.0
 11
5.868332179999999
 21
1.935099
 31
0.0
  0
LINE
  5
AB
330
70
100
AcDbEntity
  8
1i2e.4567poly.raw v1_1
100
AcDbLine
 10
4.52719186
 20
-2.30469186
 30
0.0
 11
4.485675559999999
 21
-2.384376739999999
 31
0.0
  0
LINE
  5
AC
330
70
100
AcDbEntity
  8
1i2e.4567poly.raw v1_1
100
AcDbLine
 10
5.12385818
 20
-0.7268387800000001
 30
0.0
 11
5.0877851
 21
-0.8441410599999999
 31
0.0
  0
LINE
  5
AD
330
70
100
AcDbEntity
  8
1i2e.4567poly.raw v1_1
100
AcDbLine
 10
-1.935678119999999
 20
9.97319062
 30
0.0
 11
-1.76203356
 21
10.00555022
 31
0.0
  0
LINE
  5
AE
330
70
100
AcDbEntity
  8
1i2e.4567poly.raw v1_1
100
AcDbLine
 10
-4.868252899999999
 20
-4.7956851
 30
0.0
 11
-4.98134132
 21
-4.74120464
 31
0.0
  0
LINE
  5
AF
330
70
100
AcDbEntity
  8
1i2e.4567poly.raw v1_1
100
AcDbLine
 10
-0.67355466
 20
-5.5015638
 30
0.0
 11
-0.78156054
 21
-5.51164252
 31
0.0
  0
LINE
  5
B0
330
70
100
AcDbEntity
  8
1i2e.4567poly.raw v1_1
100
AcDbLine
 10
-1.440101259999999
 20
-5.542053939999999
 30
0.0
 11
-1.55145232
 21
-5.54195488
 31
0.0
  0
LINE
  5
B1
330
70
100
AcDbEntity
  8
1i2e.4567poly.raw v1_1
100
AcDbLine
 10
-0.45918882
 20
-5.477256
 30
0.0
 11
-0.5660923400000001
 21
-5.49009824
 31
0.0
  0
LINE
  5
B2
330
70
100
AcDbEntity
  8
1i2e.4567poly.raw v1_1
100
AcDbLine
 10
-9.0883105
 20
2.3190835
 30
0.0
 11
-9.077297059999999
 21
2.475870079999999
 31
0.0
  0
LINE
  5
B3
330
70
100
AcDbEntity
  8
1i2e.4567poly.raw v1_1
100
AcDbLine
 10
4.44313056
 20
-2.46272304
 30
0.0
 11
4.39941208
 21
-2.539992379999999
 31
0.0
  0
LINE
  5
B4
330
70
100
AcDbEntity
  8
1i2e.4567poly.raw v1_1
100
AcDbLine
 10
4.16103308
 20
-2.914195339999999
 30
0.0
 11
4.1093644
 21
-2.98666662
 31
0.0
  0
LINE
  5
B5
330
70
100
AcDbEntity
  8
1i2e.4567poly.raw v1_1
100
AcDbLine
 10
5.647103259999999
 20
1.097252059999999
 30
0.0
 11
5.609094699999999
 21
0.95950278
 31
0.0
  0
LINE
  5
B6
330
70
100
AcDbEntity
  8
1i2e.4567poly.raw v1_1
100
AcDbLine
 10
6.00189808
 20
2.50226576
 30
0.0
 11
5.97004394
 21
2.35987844
 31
0.0
  0
LINE
  5
B7
330
70
100
AcDbEntity
  8
1i2e.4567poly.raw v1_1
100
AcDbLine
 10
-2.9140023
 20
-5.416463639999999
 30
0.0
 11
-3.0291024
 21
-5.39503874
 31
0.0
  0
LINE
  5
B8
330
70
100
AcDbEntity
  8
1i2e.4567poly.raw v1_1
100
AcDbLine
 10
-8.972605879999999
 20
3.260664039999999
 30
0.0
 11
-8.941686459999999
 21
3.4172779
 31
0.0
  0
LINE
  5
B9
330
70
100
AcDbEntity
  8
1i2e.4567poly.raw v1_1
100
AcDbLine
 10
-1.412829279999999
 20
10.06108478
 30
0.0
 11
-1.237399099999999
 21
10.0842445
 31
0.0
  0
LINE
  5
BA
330
70
100
AcDbEntity
  8
1i2e.4567poly.raw v1_1
100
AcDbLine
 10
-8.907434559999998
 20
3.5736022
 30
0.0
 11
-8.869847640000001
 21
3.729563279999999
 31
0.0
  0
LINE
  5
BB
330
70
100
AcDbEntity
  8
1i2e.4567poly.raw v1_1
100
AcDbLine
 10
-4.297525059999999
 20
-5.037051139999999
 30
0.0
 11
-4.412241619999999
 21
-4.99286022
 31
0.0
  0
LINE
  5
BC
330
70
100
AcDbEntity
  8
1i2e.4567poly.raw v1_1
100
AcDbLine
 10
-8.70119926
 20
-0.5377662600000001
 30
0.0
 11
-8.748031779999999
 21
-0.39688262
 31
0.0
  0
LINE
  5
BD
330
70
100
AcDbEntity
  8
1i2e.4567poly.raw v1_1
100
AcDbLine
 10
4.871387259999999
 20
-1.49584156
 30
0.0
 11
4.834849359999999
 21
-1.59537654
 31
0.0
  0
LINE
  5
BE
330
70
100
AcDbEntity
  8
1i2e.4567poly.raw v1_1
100
AcDbLine
 10
5.722518399999999
 20
1.37456672
 30
0.0
 11
5.6849391
 21
1.235626179999999
 31
0.0
  0
LINE
  5
BF
330
70
100
AcDbEntity
  8
1i2e.4567poly.raw v1_1
100
AcDbLine
 10
1.16245386
 20
-5.095836899999999
 30
0.0
 11
1.06661458
 21
-5.12890516
 31
0.0
  0
LINE
  5
C0
330
70
100
AcDbEntity
  8
1i2e.4567poly.raw v1_1
100
AcDbLine
 10
2.243835999999999
 20
-4.610453059999999
 30
0.0
 11
2.158906019999999
 21
-4.656942679999999
 31
0.0
  0
LINE
  5
C1
330
70
100
AcDbEntity
  8
1i2e.4567poly.raw v1_1
100
AcDbLine
 10
4.68532464
 20
-1.96808598
 30
0.0
 11
4.646785219999999
 21
-2.05529434
 31
0.0
  0
LINE
  5
C2
330
70
100
AcDbEntity
  8
1i2e.4567poly.raw v1_1
100
AcDbLine
 10
-0.3528618799999999
 20
-5.463057399999999
 30
0.0
 11
-0.45918882
 21
-5.477256
 31
0.0
  0
LINE
  5
C3
330
70
100
AcDbEntity
  8
1i2e.4567poly.raw v1_1
100
AcDbLine
 10
2.072982899999999
 20
-4.702365499999999
 30
0.0
 11
1.986079339999999
 21
-4.746711359999999
 31
0.0
  0
LINE
  5
C4
330
70
100
AcDbEntity
  8
1i2e.4567poly.raw v1_1
100
AcDbLine
 10
1.537416279999999
 20
-4.951961139999999
 30
0.0
 11
1.44496536
 21
-4.9896522
 31
0.0
  0
LINE
  5
C5
330
70
100
AcDbEntity
  8
1i2e.4567poly.raw v1_1
100
AcDbLine
 10
-3.836898599999999
 20
-5.19394186
 30
0.0
 11
-3.952247619999999
 21
-5.15766304
 31
0.0
  0
LINE
  5
C6
330
70
100
AcDbEntity
  8
1i2e.4567poly.raw v1_1
100
AcDbLine
 10
-2.3413085
 20
-5.4975633
 30
0.0
 11
-2.455392599999999
 21
-5.48474392
 31
0.0
  0
LINE
  5
C7
330
70
100
AcDbEntity
  8
1i2e.4567poly.raw v1_1
100
AcDbLine
 10
5.97004394
 20
2.35987844
 30
0.0
 11
5.937087439999999
 21
2.217889899999999
 31
0.0
  0
LINE
  5
C8
330
70
100
AcDbEntity
  8
1i2e.4567poly.raw v1_1
100
AcDbLine
 10
5.0877851
 20
-0.8441410599999999
 30
0.0
 11
5.051793299999999
 21
-0.9590760599999999
 31
0.0
  0
LINE
  5
C9
330
70
100
AcDbEntity
  8
1i2e.4567poly.raw v1_1
100
AcDbLine
 10
3.10809894
 20
-4.03125432
 30
0.0
 11
3.035096799999999
 21
-4.088869139999999
 31
0.0
  0
LINE
  5
CA
330
70
100
AcDbEntity
  8
1i2e.4567poly.raw v1_1
100
AcDbLine
 10
-3.952247619999999
 20
-5.15766304
 30
0.0
 11
-4.0674925
 21
-5.119433499999999
 31
0.0
  0
LINE
  5
CB
330
70
100
AcDbEntity
  8
1i2e.4567poly.raw v1_1
100
AcDbLine
 10
3.17993268
 20
-3.972687
 30
0.0
 11
3.10809894
 21
-4.03125432
 31
0.0
  0
LINE
  5
CC
330
70
100
AcDbEntity
  8
1i2e.4567poly.raw v1_1
100
AcDbLine
 10
4.567811539999999
 20
-2.223422019999999
 30
0.0
 11
4.52719186
 21
-2.30469186
 31
0.0
  0
LINE
  5
CD
330
70
100
AcDbEntity
  8
1i2e.4567poly.raw v1_1
100
AcDbLine
 10
3.831330919999999
 20
-3.336841179999999
 30
0.0
 11
3.77182888
 21
-3.404379779999999
 31
0.0
  0
LINE
  5
CE
330
70
100
AcDbEntity
  8
1i2e.4567poly.raw v1_1
100
AcDbLine
 10
-2.56972816
 20
-5.470245600000001
 30
0.0
 11
-2.684292319999999
 21
-5.45404548
 31
0.0
  0
LINE
  5
CF
330
70
100
AcDbEntity
  8
1i2e.4567poly.raw v1_1
100
AcDbLine
 10
-0.78156054
 20
-5.51164252
 30
0.0
 11
-0.8900922000000001
 21
-5.52031662
 31
0.0
  0
LINE
  5
D0
330
70
100
AcDbEntity
  8
1i2e.4567poly.raw v1_1
100
AcDbLine
 10
4.05637746
 20
-3.058337799999999
 30
0.0
 11
4.00207226
 21
-3.129198719999999
 31
0.0
  0
LINE
  5
D1
330
70
100
AcDbEntity
  8
1i2e.4567poly.raw v1_1
100
AcDbLine
 10
3.77182888
 20
-3.404379779999999
 30
0.0
 11
3.71105176
 21
-3.47106494
 31
0.0
  0
LINE
  5
D2
330
70
100
AcDbEntity
  8
1i2e.4567poly.raw v1_1
100
AcDbLine
 10
-5.648937139999999
 20
-4.3696636
 30
0.0
 11
-5.757951399999999
 21
-4.30018952
 31
0.0
  0
LINE
  5
D3
330
70
100
AcDbEntity
  8
1i2e.4567poly.raw v1_1
100
AcDbLine
 10
3.71105176
 20
-3.47106494
 30
0.0
 11
3.648999559999999
 21
-3.536891579999999
 31
0.0
  0
LINE
  5
D4
330
70
100
AcDbEntity
  8
1i2e.4567poly.raw v1_1
100
AcDbLine
 10
4.39941208
 20
-2.539992379999999
 30
0.0
 11
4.35440582
 21
-2.61640066
 31
0.0
  0
LINE
  5
D5
330
70
100
AcDbEntity
  8
1i2e.4567poly.raw v1_1
100
AcDbLine
 10
-1.108679519999999
 20
-5.53338746
 30
0.0
 11
-1.21869708
 21
-5.537751179999999
 31
0.0
  0
LINE
  5
D6
330
70
100
AcDbEntity
  8
1i2e.4567poly.raw v1_1
100
AcDbLine
 10
-0.0374904
 20
-5.41244536
 30
0.0
 11
-0.14199616
 21
-5.43063938
 31
0.0
  0
LINE
  5
D7
330
70
100
AcDbEntity
  8
1i2e.4567poly.raw v1_1
100
AcDbLine
 10
3.58569006
 20
-3.60184192
 30
0.0
 11
3.5211258
 21
-3.66591342
 31
0.0
  0
LINE
  5
D8
330
70
100
AcDbEntity
  8
1i2e.4567poly.raw v1_1
100
AcDbLine
 10
-4.75475808
 20
-4.848075139999999
 30
0.0
 11
-4.868252899999999
 21
-4.7956851
 31
0.0
  0
LINE
  5
D9
330
70
100
AcDbEntity
  8
1i2e.4567poly.raw v1_1
100
AcDbLine
 10
-3.49053404
 20
-5.291289899999999
 30
0.0
 11
-3.60601006
 21
-5.26073624
 31
0.0
  0
LINE
  5
DA
330
70
100
AcDbEntity
  8
1i2e.4567poly.raw v1_1
100
AcDbLine
 10
5.16005572
 20
-0.60726574
 30
0.0
 11
5.12385818
 21
-0.7268387800000001
 31
0.0
  0
LINE
  5
DB
330
70
100
AcDbEntity
  8
1i2e.4567poly.raw v1_1
100
AcDbLine
 10
4.260385179999999
 20
-2.76686772
 30
0.0
 11
4.211373339999999
 21
-2.8409265
 31
0.0
  0
LINE
  5
DC
330
70
100
AcDbEntity
  8
1i2e.4567poly.raw v1_1
100
AcDbLine
 10
0.1695958
 20
-5.37216096
 30
0.0
 11
0.06638036
 21
-5.39294832
 31
0.0
  0
LINE
  5
DD
330
70
100
AcDbEntity
  8
1i2e.4567poly.raw v1_1
100
AcDbLine
 10
-3.0291024
 20
-5.39503874
 30
0.0
 11
-3.14433458
 21
-5.371830759999999
 31
0.0
  0
LINE
  5
DE
330
70
100
AcDbEntity
  8
1i2e.4567poly.raw v1_1
100
AcDbLine
 10
-0.5660923400000001
 20
-5.49009824
 30
0.0
 11
-0.67355466
 21
-5.5015638
 31
0.0
  0
LINE
  5
DF
330
70
100
AcDbEntity
  8
1i2e.4567poly.raw v1_1
100
AcDbLine
 10
3.946458959999999
 20
-3.19924176
 30
0.0
 11
3.889542639999999
 21
-3.2684593
 31
0.0
  0
LINE
  5
E0
330
70
100
AcDbEntity
  8
1i2e.4567poly.raw v1_1
100
AcDbLine
 10
4.9438433
 20
-1.288905219999999
 30
0.0
 11
4.9076991
 21
-1.393685299999999
 31
0.0
  0
LINE
  5
E1
330
70
100
AcDbEntity
  8
1i2e.4567poly.raw v1_1
100
AcDbLine
 10
3.5211258
 20
-3.66591342
 30
0.0
 11
3.455324559999999
 21
-3.72909084
 31
0.0
  0
LINE
  5
E2
330
70
100
AcDbEntity
  8
1i2e.4567poly.raw v1_1
100
AcDbLine
 10
-0.99913948
 20
-5.527568320000001
 30
0.0
 11
-1.108679519999999
 21
-5.53338746
 31
0.0
  0
LINE
  5
E3
330
70
100
AcDbEntity
  8
1i2e.4567poly.raw v1_1
100
AcDbLine
 10
-5.31775162
 20
-4.5650785
 30
0.0
 11
-5.428787719999999
 21
-4.502099199999999
 31
0.0
  0
LINE
  5
E4
330
70
100
AcDbEntity
  8
1i2e.4567poly.raw v1_1
100
AcDbLine
 10
-3.375075799999999
 20
-5.31997666
 30
0.0
 11
-3.49053404
 21
-5.291289899999999
 31
0.0
  0
LINE
  5
E5
330
70
100
AcDbEntity
  8
1i2e.4567poly.raw v1_1
100
AcDbLine
 10
-5.86619858
 20
-4.228536119999999
 30
0.0
 11
-5.973625339999999
 21
-4.154693239999999
 31
0.0
  0
LINE
  5
E6
330
70
100
AcDbEntity
  8
1i2e.4567poly.raw v1_1
100
AcDbLine
 10
-8.82893078
 20
3.88508748
 30
0.0
 11
-8.784689059999999
 21
4.0400986
 31
0.0
  0
LINE
  5
E7
330
70
100
AcDbEntity
  8
1i2e.4567poly.raw v1_1
100
AcDbLine
 10
-2.113970879999999
 20
-5.518243979999999
 30
0.0
 11
-2.22749364
 21
-5.50872152
 31
0.0
  0
LINE
  5
E8
330
70
100
AcDbEntity
  8
1i2e.4567poly.raw v1_1
100
AcDbLine
 10
-5.206136399999999
 20
-4.625914039999999
 30
0.0
 11
-5.31775162
 21
-4.5650785
 31
0.0
  0
LINE
  5
E9
330
70
100
AcDbEntity
  8
1i2e.4567poly.raw v1_1
100
AcDbLine
 10
-0.8900922000000001
 20
-5.52031662
 30
0.0
 11
-0.99913948
 21
-5.527568320000001
 31
0.0
  0
LINE
  5
EA
330
70
100
AcDbEntity
  8
1i2e.4567poly.raw v1_1
100
AcDbLine
 10
3.455324559999999
 20
-3.72909084
 30
0.0
 11
3.388291419999999
 21
-3.791369099999999
 31
0.0
  0
LINE
  5
EB
330
70
100
AcDbEntity
  8
1i2e.4567poly.raw v1_1
100
AcDbLine
 10
1.89821058
 20
-4.7899701
 30
0.0
 11
1.80939694
 21
-4.8321341
 31
0.0
  0
LINE
  5
EC
330
70
100
AcDbEntity
  8
1i2e.4567poly.raw v1_1
100
AcDbLine
 10
4.834849359999999
 20
-1.59537654
 30
0.0
 11
4.7980346
 21
-1.69231564
 31
0.0
  0
LINE
  5
ED
330
70
100
AcDbEntity
  8
1i2e.4567poly.raw v1_1
100
AcDbLine
 10
-8.784689059999999
 20
4.0400986
 30
0.0
 11
-8.737127560000001
 21
4.19452298
 31
0.0
  0
LINE
  5
EE
330
70
100
AcDbEntity
  8
1i2e.4567poly.raw v1_1
100
AcDbLine
 10
-1.77536348
 20
-5.537172059999999
 30
0.0
 11
-1.887885479999999
 21
-5.53244766
 31
0.0
  0
LINE
  5
EF
330
70
100
AcDbEntity
  8
1i2e.4567poly.raw v1_1
100
AcDbLine
 10
3.32004162
 20
-3.852732959999999
 30
0.0
 11
3.25058278
 21
-3.9131748
 31
0.0
  0
LINE
  5
F0
330
70
100
AcDbEntity
  8
1i2e.4567poly.raw v1_1
100
AcDbLine
 10
4.9076991
 20
-1.393685299999999
 30
0.0
 11
4.871387259999999
 21
-1.49584156
 31
0.0
  0
LINE
  5
F1
330
70
100
AcDbEntity
  8
1i2e.4567poly.raw v1_1
100
AcDbLine
 10
-1.329176919999999
 20
-5.540646779999999
 30
0.0
 11
-1.440101259999999
 21
-5.542053939999999
 31
0.0
  0
LINE
  5
F2
330
70
100
AcDbEntity
  8
1i2e.4567poly.raw v1_1
100
AcDbLine
 10
2.88563812
 20
-4.201200639999999
 30
0.0
 11
2.809212059999999
 21
-4.255897
 31
0.0
  0
LINE
  5
F3
330
70
100
AcDbEntity
  8
1i2e.4567poly.raw v1_1
100
AcDbLine
 10
-8.737127560000001
 20
4.19452298
 30
0.0
 11
-8.6862539
 21
4.34828696
 31
0.0
  0
LINE
  5
F4
330
70
100
AcDbEntity
  8
1i2e.4567poly.raw v1_1
100
AcDbLine
 10
-1.21869708
 20
-5.537751179999999
 30
0.0
 11
-1.329176919999999
 21
-5.540646779999999
 31
0.0
  0
LINE
  5
F5
330
70
100
AcDbEntity
  8
1i2e.4567poly.raw v1_1
100
AcDbLine
 10
5.937087439999999
 20
2.217889899999999
 30
0.0
 11
5.903145419999999
 21
2.07629506
 31
0.0
  0
LINE
  5
F6
330
70
100
AcDbEntity
  8
1i2e.4567poly.raw v1_1
100
AcDbLine
 10
2.96093896
 20
-4.1455213
 30
0.0
 11
2.88563812
 21
-4.201200639999999
 31
0.0
  0
LINE
  5
F7
330
70
100
AcDbEntity
  8
1i2e.4567poly.raw v1_1
100
AcDbLine
 10
-8.365759239999999
 20
-1.351061559999999
 30
0.0
 11
-8.427900339999998
 21
-1.21956068
 31
0.0
  0
LINE
  5
F8
330
70
100
AcDbEntity
  8
1i2e.4567poly.raw v1_1
100
AcDbLine
 10
2.410647959999999
 20
-4.514303899999999
 30
0.0
 11
2.327755059999999
 21
-4.562904259999999
 31
0.0
  0
LINE
  5
F9
330
70
100
AcDbEntity
  8
1i2e.4567poly.raw v1_1
100
AcDbLine
 10
4.30806352
 20
-2.692024079999999
 30
0.0
 11
4.260385179999999
 21
-2.76686772
 31
0.0
  0
LINE
  5
FA
330
70
100
AcDbEntity
  8
1i2e.4567poly.raw v1_1
100
AcDbLine
 10
4.35440582
 20
-2.61640066
 30
0.0
 11
4.30806352
 21
-2.692024079999999
 31
0.0
  0
LINE
  5
FB
330
70
100
AcDbEntity
  8
1i2e.4567poly.raw v1_1
100
AcDbLine
 10
-1.663212319999999
 20
-5.54033436
 30
0.0
 11
-1.77536348
 21
-5.537172059999999
 31
0.0
  0
LINE
  5
FC
330
70
100
AcDbEntity
  8
1i2e.4567poly.raw v1_1
100
AcDbLine
 10
4.76088202
 20
-1.786696959999999
 30
0.0
 11
4.723333199999999
 21
-1.87859162
 31
0.0
  0
LINE
  5
FD
330
70
100
AcDbEntity
  8
1i2e.4567poly.raw v1_1
100
AcDbLine
 10
4.00207226
 20
-3.129198719999999
 30
0.0
 11
3.946458959999999
 21
-3.19924176
 31
0.0
  0
LINE
  5
FE
330
70
100
AcDbEntity
  8
1i2e.4567poly.raw v1_1
100
AcDbLine
 10
2.573299399999999
 20
-4.413996759999999
 30
0.0
 11
2.492501999999999
 21
-4.46466468
 31
0.0
  0
LINE
  5
FF
330
70
100
AcDbEntity
  8
1i2e.4567poly.raw v1_1
100
AcDbLine
 10
4.7980346
 20
-1.69231564
 30
0.0
 11
4.76088202
 21
-1.786696959999999
 31
0.0
  0
LINE
  5
100
330
70
100
AcDbEntity
  8
1i2e.4567poly.raw v1_1
100
AcDbLine
 10
-0.24712676
 20
-5.4475126
 30
0.0
 11
-0.3528618799999999
 21
-5.463057399999999
 31
0.0
  0
LINE
  5
101
330
70
100
AcDbEntity
  8
1i2e.4567poly.raw v1_1
100
AcDbLine
 10
1.71964858
 20
-4.8731932
 30
0.0
 11
1.62898328
 21
-4.913139779999999
 31
0.0
  0
LINE
  5
102
330
70
100
AcDbEntity
  8
1i2e.4567poly.raw v1_1
100
AcDbLine
 10
0.7743190000000002
 20
-5.220987779999999
 30
0.0
 11
0.67534282
 21
-5.24927322
 31
0.0
  0
LINE
  5
103
330
70
100
AcDbEntity
  8
1i2e.4567poly.raw v1_1
100
AcDbLine
 10
5.0158396
 20
-1.071557419999999
 30
0.0
 11
4.9798732
 21
-1.18151656
 31
0.0
  0
LINE
  5
104
330
70
100
AcDbEntity
  8
1i2e.4567poly.raw v1_1
100
AcDbLine
 10
-6.52928082
 20
7.659255699999999
 30
0.0
 11
-6.404046119999999
 21
7.77453106
 31
0.0
  0
LINE
  5
105
330
70
100
AcDbEntity
  8
1i2e.4567poly.raw v1_1
100
AcDbLine
 10
-9.04537434
 20
2.78983694
 30
0.0
 11
-9.024444739999999
 21
2.9468699
 31
0.0
  0
LINE
  5
106
330
70
100
AcDbEntity
  8
1i2e.4567poly.raw v1_1
100
AcDbLine
 10
-2.960116
 20
9.715317119999999
 30
0.0
 11
-2.79176734
 21
9.765827559999999
 31
0.0
  0
LINE
  5
107
330
70
100
AcDbEntity
  8
1i2e.4567poly.raw v1_1
100
AcDbLine
 10
6.20292892
 20
3.655476559999999
 30
0.0
 11
6.18414308
 21
3.510028539999999
 31
0.0
  0
LINE
  5
108
330
70
100
AcDbEntity
  8
1i2e.4567poly.raw v1_1
100
AcDbLine
 10
1.80939694
 20
-4.8321341
 30
0.0
 11
1.71964858
 21
-4.8731932
 31
0.0
  0
LINE
  5
109
330
70
100
AcDbEntity
  8
1i2e.4567poly.raw v1_1
100
AcDbLine
 10
2.158906019999999
 20
-4.656942679999999
 30
0.0
 11
2.072982899999999
 21
-4.702365499999999
 31
0.0
  0
LINE
  5
10A
330
70
100
AcDbEntity
  8
1i2e.4567poly.raw v1_1
100
AcDbLine
 10
6.24581174
 20
4.09350972
 30
0.0
 11
6.23387628
 21
3.94725906
 31
0.0
  0
LINE
  5
10B
330
70
100
AcDbEntity
  8
1i2e.4567poly.raw v1_1
100
AcDbLine
 10
-9.08609054
 20
1.385674139999999
 30
0.0
 11
-9.094492859999999
 21
1.540014699999999
 31
0.0
  0
LINE
  5
10C
330
70
100
AcDbEntity
  8
1i2e.4567poly.raw v1_1
100
AcDbLine
 10
6.26740174
 20
4.67957916
 30
0.0
 11
6.266134279999999
 21
4.533038939999999
 31
0.0
  0
LINE
  5
10D
330
70
100
AcDbEntity
  8
1i2e.4567poly.raw v1_1
100
AcDbLine
 10
-9.1017217
 20
1.85038238
 30
0.0
 11
-9.100505039999999
 21
2.006267259999999
 31
0.0
  0
LINE
  5
10E
330
70
100
AcDbEntity
  8
1i2e.4567poly.raw v1_1
100
AcDbLine
 10
6.13817416
 20
5.98154506
 30
0.0
 11
6.16584746
 21
5.83964796
 31
0.0
  0
LINE
  5
10F
330
70
100
AcDbEntity
  8
1i2e.4567poly.raw v1_1
100
AcDbLine
 10
2.65302746
 20
-4.36230522
 30
0.0
 11
2.573299399999999
 21
-4.413996759999999
 31
0.0
  0
LINE
  5
110
330
70
100
AcDbEntity
  8
1i2e.4567poly.raw v1_1
100
AcDbLine
 10
6.2195456
 20
3.80123192
 30
0.0
 11
6.20292892
 21
3.655476559999999
 31
0.0
  0
LINE
  5
111
330
70
100
AcDbEntity
  8
1i2e.4567poly.raw v1_1
100
AcDbLine
 10
-8.427900339999998
 20
-1.21956068
 30
0.0
 11
-8.487615739999998
 21
-1.08638086
 31
0.0
  0
LINE
  5
112
330
70
100
AcDbEntity
  8
1i2e.4567poly.raw v1_1
100
AcDbLine
 10
-9.000190279999999
 20
3.10383682
 30
0.0
 11
-8.972605879999999
 21
3.260664039999999
 31
0.0
  0
LINE
  5
113
330
70
100
AcDbEntity
  8
1i2e.4567poly.raw v1_1
100
AcDbLine
 10
-3.1273623
 20
9.66182472
 30
0.0
 11
-2.960116
 21
9.715317119999999
 31
0.0
  0
LINE
  5
114
330
70
100
AcDbEntity
  8
1i2e.4567poly.raw v1_1
100
AcDbLine
 10
-8.487615739999998
 20
-1.08638086
 30
0.0
 11
-8.544852099999999
 21
-0.9515627399999999
 31
0.0
  0
LINE
  5
115
330
70
100
AcDbEntity
  8
1i2e.4567poly.raw v1_1
100
AcDbLine
 10
6.24246148
 20
5.2636801
 30
0.0
 11
6.2533657
 21
5.11815334
 31
0.0
  0
LINE
  5
116
330
70
100
AcDbEntity
  8
1i2e.4567poly.raw v1_1
100
AcDbLine
 10
-7.73138662
 20
6.25440456
 30
0.0
 11
-7.63621536
 21
6.391468039999999
 31
0.0
  0
LINE
  5
117
330
70
100
AcDbEntity
  8
1i2e.4567poly.raw v1_1
100
AcDbLine
 10
-7.538095160000001
 20
6.526837339999999
 30
0.0
 11
-7.43707174
 21
6.660451499999999
 31
0.0
  0
LINE
  5
118
330
70
100
AcDbEntity
  8
1i2e.4567poly.raw v1_1
100
AcDbLine
 10
6.2108715
 20
5.55311056
 30
0.0
 11
6.228318759999999
 21
5.408701399999999
 31
0.0
  0
LINE
  5
119
330
70
100
AcDbEntity
  8
1i2e.4567poly.raw v1_1
100
AcDbLine
 10
-8.16530498
 20
-1.735068919999999
 30
0.0
 11
-8.23440822
 21
-1.608856319999999
 31
0.0
  0
LINE
  5
11A
330
70
100
AcDbEntity
  8
1i2e.4567poly.raw v1_1
100
AcDbLine
 10
5.45540184
 20
7.689496939999999
 30
0.0
 11
5.529229479999999
 21
7.56971562
 31
0.0
  0
LINE
  5
11B
330
70
100
AcDbEntity
  8
1i2e.4567poly.raw v1_1
100
AcDbLine
 10
-7.116958079999999
 20
7.050171319999999
 30
0.0
 11
-7.00471802
 21
7.176178179999999
 31
0.0
  0
LINE
  5
11C
330
70
100
AcDbEntity
  8
1i2e.4567poly.raw v1_1
100
AcDbLine
 10
-6.772198799999999
 20
7.42201208
 30
0.0
 11
-6.65201616
 21
7.54173244
 31
0.0
  0
LINE
  5
11D
330
70
100
AcDbEntity
  8
1i2e.4567poly.raw v1_1
100
AcDbLine
 10
-0.17731232
 20
10.15845314
 30
0.0
 11
-0.00000508
 21
10.16
 31
0.0
  0
LINE
  5
11E
330
70
100
AcDbEntity
  8
1i2e.4567poly.raw v1_1
100
AcDbLine
 10
-9.07453354
 20
1.231983819999999
 30
0.0
 11
-9.08609054
 21
1.385674139999999
 31
0.0
  0
LINE
  5
11F
330
70
100
AcDbEntity
  8
1i2e.4567poly.raw v1_1
100
AcDbLine
 10
-7.63621536
 20
6.391468039999999
 30
0.0
 11
-7.538095160000001
 21
6.526837339999999
 31
0.0
  0
LINE
  5
120
330
70
100
AcDbEntity
  8
1i2e.4567poly.raw v1_1
100
AcDbLine
 10
-0.53166264
 20
10.14607572
 30
0.0
 11
-0.3545560600000001
 21
10.15381002
 31
0.0
  0
LINE
  5
121
330
70
100
AcDbEntity
  8
1i2e.4567poly.raw v1_1
100
AcDbLine
 10
-2.622379819999999
 20
9.813343339999999
 30
0.0
 11
-2.452011859999999
 21
9.857846679999999
 31
0.0
  0
LINE
  5
122
330
70
100
AcDbEntity
  8
1i2e.4567poly.raw v1_1
100
AcDbLine
 10
-8.59956116
 20
-0.8151571200000001
 30
0.0
 11
-8.65169466
 21
-0.67720972
 31
0.0
  0
LINE
  5
123
330
70
100
AcDbEntity
  8
1i2e.4567poly.raw v1_1
100
AcDbLine
 10
-9.024444739999999
 20
2.9468699
 30
0.0
 11
-9.000190279999999
 21
3.10383682
 31
0.0
  0
LINE
  5
124
330
70
100
AcDbEntity
  8
1i2e.4567poly.raw v1_1
100
AcDbLine
 10
-9.05984218
 20
1.07901486
 30
0.0
 11
-9.07453354
 21
1.231983819999999
 31
0.0
  0
LINE
  5
125
330
70
100
AcDbEntity
  8
1i2e.4567poly.raw v1_1
100
AcDbLine
 10
6.061837
 20
2.788236739999999
 30
0.0
 11
6.032535559999999
 21
2.645051859999999
 31
0.0
  0
LINE
  5
126
330
70
100
AcDbEntity
  8
1i2e.4567poly.raw v1_1
100
AcDbLine
 10
-8.544852099999999
 20
-0.9515627399999999
 30
0.0
 11
-8.59956116
 21
-0.8151571200000001
 31
0.0
  0
LINE
  5
127
330
70
100
AcDbEntity
  8
1i2e.4567poly.raw v1_1
100
AcDbLine
 10
-8.869847640000001
 20
3.729563279999999
 30
0.0
 11
-8.82893078
 21
3.88508748
 31
0.0
  0
LINE
  5
128
330
70
100
AcDbEntity
  8
1i2e.4567poly.raw v1_1
100
AcDbLine
 10
5.30670008
 20
-0.10857484
 30
0.0
 11
5.269717679999999
 21
-0.2360549
 31
0.0
  0
LINE
  5
129
330
70
100
AcDbEntity
  8
1i2e.4567poly.raw v1_1
100
AcDbLine
 10
-2.79176734
 20
9.765827559999999
 30
0.0
 11
-2.622379819999999
 21
9.813343339999999
 31
0.0
  0
LINE
  5
12A
330
70
100
AcDbEntity
  8
1i2e.4567poly.raw v1_1
100
AcDbLine
 10
5.381350679999999
 20
0.15119096
 30
0.0
 11
5.343913619999999
 21
0.02055368
 31
0.0
  0
LINE
  5
12B
330
70
100
AcDbEntity
  8
1i2e.4567poly.raw v1_1
100
AcDbLine
 10
6.18414308
 20
3.510028539999999
 30
0.0
 11
6.16330746
 21
3.36491834
 31
0.0
  0
LINE
  5
12C
330
70
100
AcDbEntity
  8
1i2e.4567poly.raw v1_1
100
AcDbLine
 10
2.492501999999999
 20
-4.46466468
 30
0.0
 11
2.410647959999999
 21
-4.514303899999999
 31
0.0
  0
LINE
  5
12D
330
70
100
AcDbEntity
  8
1i2e.4567poly.raw v1_1
100
AcDbLine
 10
-2.452011859999999
 20
9.857846679999999
 30
0.0
 11
-2.2807295
 21
9.899329959999999
 31
0.0
  0
LINE
  5
12E
330
70
100
AcDbEntity
  8
1i2e.4567poly.raw v1_1
100
AcDbLine
 10
6.089683019999999
 20
2.9318204
 30
0.0
 11
6.061837
 21
2.788236739999999
 31
0.0
  0
LINE
  5
12F
330
70
100
AcDbEntity
  8
1i2e.4567poly.raw v1_1
100
AcDbLine
 10
-8.513897119999999
 20
4.80488752
 30
0.0
 11
-8.44991452
 21
4.95527838
 31
0.0
  0
LINE
  5
130
330
70
100
AcDbEntity
  8
1i2e.4567poly.raw v1_1
100
AcDbLine
 10
2.809212059999999
 20
-4.255897
 30
0.0
 11
2.7316684
 21
-4.309602759999999
 31
0.0
  0
LINE
  5
131
330
70
100
AcDbEntity
  8
1i2e.4567poly.raw v1_1
100
AcDbLine
 10
5.418996019999999
 20
0.28320492
 30
0.0
 11
5.381350679999999
 21
0.15119096
 31
0.0
  0
LINE
  5
132
330
70
100
AcDbEntity
  8
1i2e.4567poly.raw v1_1
100
AcDbLine
 10
5.343913619999999
 20
0.02055368
 30
0.0
 11
5.30670008
 21
-0.10857484
 31
0.0
  0
LINE
  5
133
330
70
100
AcDbEntity
  8
1i2e.4567poly.raw v1_1
100
AcDbLine
 10
2.327755059999999
 20
-4.562904259999999
 30
0.0
 11
2.243835999999999
 21
-4.610453059999999
 31
0.0
  0
LINE
  5
134
330
70
100
AcDbEntity
  8
1i2e.4567poly.raw v1_1
100
AcDbLine
 10
-0.3545560600000001
 20
10.15381002
 30
0.0
 11
-0.17731232
 21
10.15845314
 31
0.0
  0
LINE
  5
135
330
70
100
AcDbEntity
  8
1i2e.4567poly.raw v1_1
100
AcDbLine
 10
-3.78407168
 20
9.41834794
 30
0.0
 11
-3.62185966
 21
9.483608159999999
 31
0.0
  0
LINE
  5
136
330
70
100
AcDbEntity
  8
1i2e.4567poly.raw v1_1
100
AcDbLine
 10
-8.09399194
 20
-1.859445099999999
 30
0.0
 11
-8.16530498
 21
-1.735068919999999
 31
0.0
  0
LINE
  5
137
330
70
100
AcDbEntity
  8
1i2e.4567poly.raw v1_1
100
AcDbLine
 10
6.26110508
 20
4.97223034
 30
0.0
 11
6.26575582
 21
4.826007619999999
 31
0.0
  0
LINE
  5
138
330
70
100
AcDbEntity
  8
1i2e.4567poly.raw v1_1
100
AcDbLine
 10
-9.042052019999999
 20
0.9268333
 30
0.0
 11
-9.05984218
 21
1.07901486
 31
0.0
  0
LINE
  5
139
330
70
100
AcDbEntity
  8
1i2e.4567poly.raw v1_1
100
AcDbLine
 10
-8.44991452
 20
4.95527838
 30
0.0
 11
-8.3826985
 21
5.10464816
 31
0.0
  0
LINE
  5
13A
330
70
100
AcDbEntity
  8
1i2e.4567poly.raw v1_1
100
AcDbLine
 10
-2.2807295
 20
9.899329959999999
 30
0.0
 11
-2.108598779999999
 21
9.93778048
 31
0.0
  0
LINE
  5
13B
330
70
100
AcDbEntity
  8
1i2e.4567poly.raw v1_1
100
AcDbLine
 10
-9.099710019999999
 20
1.694941999999999
 30
0.0
 11
-9.1017217
 21
1.85038238
 31
0.0
  0
LINE
  5
13C
330
70
100
AcDbEntity
  8
1i2e.4567poly.raw v1_1
100
AcDbLine
 10
-9.100505039999999
 20
2.006267259999999
 30
0.0
 11
-9.09603972
 21
2.162525519999999
 31
0.0
  0
LINE
  5
13D
330
70
100
AcDbEntity
  8
1i2e.4567poly.raw v1_1
100
AcDbLine
 10
6.23387628
 20
3.94725906
 30
0.0
 11
6.2195456
 21
3.80123192
 31
0.0
  0
LINE
  5
13E
330
70
100
AcDbEntity
  8
1i2e.4567poly.raw v1_1
100
AcDbLine
 10
-8.833490079999998
 20
-0.110998
 30
0.0
 11
-8.87203204
 21
0.03389122
 31
0.0
  0
LINE
  5
13F
330
70
100
AcDbEntity
  8
1i2e.4567poly.raw v1_1
100
AcDbLine
 10
6.255235139999999
 20
4.239930559999999
 30
0.0
 11
6.24581174
 21
4.09350972
 31
0.0
  0
LINE
  5
140
330
70
100
AcDbEntity
  8
1i2e.4567poly.raw v1_1
100
AcDbLine
 10
-7.00471802
 20
7.176178179999999
 30
0.0
 11
-6.88978302
 21
7.30014288
 31
0.0
  0
LINE
  5
141
330
70
100
AcDbEntity
  8
1i2e.4567poly.raw v1_1
100
AcDbLine
 10
-6.88978302
 20
7.30014288
 30
0.0
 11
-6.772198799999999
 21
7.42201208
 31
0.0
  0
LINE
  5
142
330
70
100
AcDbEntity
  8
1i2e.4567poly.raw v1_1
100
AcDbLine
 10
-6.65201616
 20
7.54173244
 30
0.0
 11
-6.52928082
 21
7.659255699999999
 31
0.0
  0
LINE
  5
143
330
70
100
AcDbEntity
  8
1i2e.4567poly.raw v1_1
100
AcDbLine
 10
-9.06298924
 20
2.6328116
 30
0.0
 11
-9.04537434
 21
2.78983694
 31
0.0
  0
LINE
  5
144
330
70
100
AcDbEntity
  8
1i2e.4567poly.raw v1_1
100
AcDbLine
 10
-6.0138437
 20
8.10641
 30
0.0
 11
-5.879119559999999
 21
8.212239099999999
 31
0.0
  0
LINE
  5
145
330
70
100
AcDbEntity
  8
1i2e.4567poly.raw v1_1
100
AcDbLine
 10
-4.572701039999999
 20
9.04906242
 30
0.0
 11
-4.41816998
 21
9.12857458
 31
0.0
  0
LINE
  5
146
330
70
100
AcDbEntity
  8
1i2e.4567poly.raw v1_1
100
AcDbLine
 10
6.115959319999999
 20
3.0758003
 30
0.0
 11
6.089683019999999
 21
2.9318204
 31
0.0
  0
LINE
  5
147
330
70
100
AcDbEntity
  8
1i2e.4567poly.raw v1_1
100
AcDbLine
 10
5.269717679999999
 20
-0.2360549
 30
0.0
 11
5.23296134
 21
-0.36175188
 31
0.0
  0
LINE
  5
148
330
70
100
AcDbEntity
  8
1i2e.4567poly.raw v1_1
100
AcDbLine
 10
-4.87655362
 20
8.881742459999999
 30
0.0
 11
-4.725517599999999
 21
8.966776579999999
 31
0.0
  0
LINE
  5
149
330
70
100
AcDbEntity
  8
1i2e.4567poly.raw v1_1
100
AcDbLine
 10
-8.748031779999999
 20
-0.39688262
 30
0.0
 11
-8.79214396
 21
-0.2546096
 31
0.0
  0
LINE
  5
14A
330
70
100
AcDbEntity
  8
1i2e.4567poly.raw v1_1
100
AcDbLine
 10
-7.22646002
 20
6.922175639999999
 30
0.0
 11
-7.116958079999999
 21
7.050171319999999
 31
0.0
  0
LINE
  5
14B
330
70
100
AcDbEntity
  8
1i2e.4567poly.raw v1_1
100
AcDbLine
 10
6.228318759999999
 20
5.408701399999999
 30
0.0
 11
6.24246148
 21
5.2636801
 31
0.0
  0
LINE
  5
14C
330
70
100
AcDbEntity
  8
1i2e.4567poly.raw v1_1
100
AcDbLine
 10
-5.879119559999999
 20
8.212239099999999
 30
0.0
 11
-5.742160219999999
 21
8.315596779999999
 31
0.0
  0
LINE
  5
14D
330
70
100
AcDbEntity
  8
1i2e.4567poly.raw v1_1
100
AcDbLine
 10
6.16584746
 20
5.83964796
 30
0.0
 11
6.19006636
 21
5.69679836
 31
0.0
  0
LINE
  5
14E
330
70
100
AcDbEntity
  8
1i2e.4567poly.raw v1_1
100
AcDbLine
 10
-8.632083320000001
 20
4.501319419999999
 30
0.0
 11
-8.57462598
 21
4.65354416
 31
0.0
  0
LINE
  5
14F
330
70
100
AcDbEntity
  8
1i2e.4567poly.raw v1_1
100
AcDbLine
 10
5.23296134
 20
-0.36175188
 30
0.0
 11
5.196413279999999
 21
-0.48553116
 31
0.0
  0
LINE
  5
150
330
70
100
AcDbEntity
  8
1i2e.4567poly.raw v1_1
100
AcDbLine
 10
-5.025753219999999
 20
8.793990540000001
 30
0.0
 11
-4.87655362
 21
8.881742459999999
 31
0.0
  0
LINE
  5
151
330
70
100
AcDbEntity
  8
1i2e.4567poly.raw v1_1
100
AcDbLine
 10
-8.940520600000001
 20
0.32728408
 30
0.0
 11
-8.970390999999999
 21
0.47566834
 31
0.0
  0
LINE
  5
152
330
70
100
AcDbEntity
  8
1i2e.4567poly.raw v1_1
100
AcDbLine
 10
-8.87203204
 20
0.03389122
 30
0.0
 11
-8.907721579999998
 21
0.18000472
 31
0.0
  0
LINE
  5
153
330
70
100
AcDbEntity
  8
1i2e.4567poly.raw v1_1
100
AcDbLine
 10
-8.238642399999999
 20
5.400032379999999
 30
0.0
 11
-8.161853119999999
 21
5.545907119999998
 31
0.0
  0
LINE
  5
154
330
70
100
AcDbEntity
  8
1i2e.4567poly.raw v1_1
100
AcDbLine
 10
-3.45829636
 20
9.545952459999998
 30
0.0
 11
-3.29344528
 21
9.6053656
 31
0.0
  0
LINE
  5
155
330
70
100
AcDbEntity
  8
1i2e.4567poly.raw v1_1
100
AcDbLine
 10
1.986079339999999
 20
-4.746711359999999
 30
0.0
 11
1.89821058
 21
-4.7899701
 31
0.0
  0
LINE
  5
156
330
70
100
AcDbEntity
  8
1i2e.4567poly.raw v1_1
100
AcDbLine
 10
-4.261977759999999
 20
9.205282579999998
 30
0.0
 11
-4.104192959999999
 21
9.279163559999998
 31
0.0
  0
LINE
  5
157
330
70
100
AcDbEntity
  8
1i2e.4567poly.raw v1_1
100
AcDbLine
 10
-1.061501559999999
 20
10.10433082
 30
0.0
 11
-0.8852026999999999
 21
10.12133358
 31
0.0
  0
LINE
  5
158
330
70
100
AcDbEntity
  8
1i2e.4567poly.raw v1_1
100
AcDbLine
 10
-8.907721579999998
 20
0.18000472
 30
0.0
 11
-8.940520600000001
 21
0.32728408
 31
0.0
  0
LINE
  5
159
330
70
100
AcDbEntity
  8
1i2e.4567poly.raw v1_1
100
AcDbLine
 10
-4.41816998
 20
9.12857458
 30
0.0
 11
-4.261977759999999
 21
9.205282579999998
 31
0.0
  0
LINE
  5
15A
330
70
100
AcDbEntity
  8
1i2e.4567poly.raw v1_1
100
AcDbLine
 10
-8.57462598
 20
4.65354416
 30
0.0
 11
-8.513897119999999
 21
4.80488752
 31
0.0
  0
LINE
  5
15B
330
70
100
AcDbEntity
  8
1i2e.4567poly.raw v1_1
100
AcDbLine
 10
-0.8852026999999999
 20
10.12133358
 30
0.0
 11
-0.7085660200000001
 21
10.1352477
 31
0.0
  0
LINE
  5
15C
330
70
100
AcDbEntity
  8
1i2e.4567poly.raw v1_1
100
AcDbLine
 10
-4.104192959999999
 20
9.279163559999998
 30
0.0
 11
-3.944868919999999
 21
9.35019212
 31
0.0
  0
LINE
  5
15D
330
70
100
AcDbEntity
  8
1i2e.4567poly.raw v1_1
100
AcDbLine
 10
-3.944868919999999
 20
9.35019212
 30
0.0
 11
-3.78407168
 21
9.41834794
 31
0.0
  0
LINE
  5
15E
330
70
100
AcDbEntity
  8
1i2e.4567poly.raw v1_1
100
AcDbLine
 10
-9.09603972
 20
2.162525519999999
 30
0.0
 11
-9.0883105
 21
2.3190835
 31
0.0
  0
LINE
  5
15F
330
70
100
AcDbEntity
  8
1i2e.4567poly.raw v1_1
100
AcDbLine
 10
6.262044879999999
 20
4.386463159999999
 30
0.0
 11
6.255235139999999
 21
4.239930559999999
 31
0.0
  0
LINE
  5
160
330
70
100
AcDbEntity
  8
1i2e.4567poly.raw v1_1
100
AcDbLine
 10
-9.021190999999999
 20
0.7755051800000001
 30
0.0
 11
-9.042052019999999
 21
0.9268333
 31
0.0
  0
LINE
  5
161
330
70
100
AcDbEntity
  8
1i2e.4567poly.raw v1_1
100
AcDbLine
 10
6.2533657
 20
5.11815334
 30
0.0
 11
6.26110508
 21
4.97223034
 31
0.0
  0
LINE
  5
162
330
70
100
AcDbEntity
  8
1i2e.4567poly.raw v1_1
100
AcDbLine
 10
6.16330746
 20
3.36491834
 30
0.0
 11
6.1405389
 21
3.22017136
 31
0.0
  0
LINE
  5
163
330
70
100
AcDbEntity
  8
1i2e.4567poly.raw v1_1
100
AcDbLine
 10
-6.146274219999999
 20
7.9981552
 30
0.0
 11
-6.0138437
 21
8.10641
 31
0.0
  0
LINE
  5
164
330
70
100
AcDbEntity
  8
1i2e.4567poly.raw v1_1
100
AcDbLine
 10
-5.173057979999999
 20
8.703551299999999
 30
0.0
 11
-5.025753219999999
 21
8.793990540000001
 31
0.0
  0
LINE
  5
165
330
70
100
AcDbEntity
  8
1i2e.4567poly.raw v1_1
100
AcDbLine
 10
5.45682424
 20
0.4164584
 30
0.0
 11
5.418996019999999
 21
0.28320492
 31
0.0
  0
LINE
  5
166
330
70
100
AcDbEntity
  8
1i2e.4567poly.raw v1_1
100
AcDbLine
 10
1.62898328
 20
-4.913139779999999
 30
0.0
 11
1.537416279999999
 21
-4.951961139999999
 31
0.0
  0
LINE
  5
167
330
70
100
AcDbEntity
  8
1i2e.4567poly.raw v1_1
100
AcDbLine
 10
-8.970390999999999
 20
0.47566834
 30
0.0
 11
-8.99729214
 21
0.6250965400000001
 31
0.0
  0
LINE
  5
168
330
70
100
AcDbEntity
  8
1i2e.4567poly.raw v1_1
100
AcDbLine
 10
1.44496536
 20
-4.9896522
 30
0.0
 11
1.35164322
 21
-5.0262028
 31
0.0
  0
LINE
  5
169
330
70
100
AcDbEntity
  8
1i2e.4567poly.raw v1_1
100
AcDbLine
 10
5.196413279999999
 20
-0.48553116
 30
0.0
 11
5.16005572
 21
-0.60726574
 31
0.0
  0
LINE
  5
16A
330
70
100
AcDbEntity
  8
1i2e.4567poly.raw v1_1
100
AcDbLine
 10
-5.603016479999999
 20
8.416444939999999
 30
0.0
 11
-5.461749300000001
 21
8.514742939999999
 31
0.0
  0
LINE
  5
16B
330
70
100
AcDbEntity
  8
1i2e.4567poly.raw v1_1
100
AcDbLine
 10
-7.333178119999999
 20
6.79224956
 30
0.0
 11
-7.22646002
 21
6.922175639999999
 31
0.0
  0
LINE
  5
16C
330
70
100
AcDbEntity
  8
1i2e.4567poly.raw v1_1
100
AcDbLine
 10
-9.094492859999999
 20
1.540014699999999
 30
0.0
 11
-9.099710019999999
 21
1.694941999999999
 31
0.0
  0
LINE
  5
16D
330
70
100
AcDbEntity
  8
1i2e.4567poly.raw v1_1
100
AcDbLine
 10
-8.99729214
 20
0.6250965400000001
 30
0.0
 11
-9.021190999999999
 21
0.7755051800000001
 31
0.0
  0
LINE
  5
16E
330
70
100
AcDbEntity
  8
1i2e.4567poly.raw v1_1
100
AcDbLine
 10
-5.461749300000001
 20
8.514742939999999
 30
0.0
 11
-5.31840948
 21
8.61045776
 31
0.0
  0
LINE
  5
16F
330
70
100
AcDbEntity
  8
1i2e.4567poly.raw v1_1
100
AcDbLine
 10
0.8810040799999999
 20
10.12124976
 30
0.0
 11
1.05449878
 21
10.10415302
 31
0.0
  0
LINE
  5
170
330
70
100
AcDbEntity
  8
1i2e.4567poly.raw v1_1
100
AcDbLine
 10
5.59954938
 20
7.44768132
 30
0.0
 11
5.66634122
 21
7.32347278
 31
0.0
  0
LINE
  5
171
330
70
100
AcDbEntity
  8
1i2e.4567poly.raw v1_1
100
AcDbLine
 10
-8.79214396
 20
-0.2546096
 30
0.0
 11
-8.833490079999998
 21
-0.110998
 31
0.0
  0
LINE
  5
172
330
70
100
AcDbEntity
  8
1i2e.4567poly.raw v1_1
100
AcDbLine
 10
1.06661458
 20
-5.12890516
 30
0.0
 11
0.9699701199999999
 21
-5.16079232
 31
0.0
  0
LINE
  5
173
330
70
100
AcDbEntity
  8
1i2e.4567poly.raw v1_1
100
AcDbLine
 10
1.226616799999999
 20
10.08391938
 30
0.0
 11
1.397185419999999
 21
10.06053106
 31
0.0
  0
LINE
  5
174
330
70
100
AcDbEntity
  8
1i2e.4567poly.raw v1_1
100
AcDbLine
 10
4.63637122
 20
8.656256499999999
 30
0.0
 11
4.740866819999999
 21
8.559342799999999
 31
0.0
  0
LINE
  5
175
330
70
100
AcDbEntity
  8
1i2e.4567poly.raw v1_1
100
AcDbLine
 10
1.397185419999999
 20
10.06053106
 30
0.0
 11
1.566044619999999
 21
10.03398044
 31
0.0
  0
LINE
  5
176
330
70
100
AcDbEntity
  8
1i2e.4567poly.raw v1_1
100
AcDbLine
 10
6.1405389
 20
3.22017136
 30
0.0
 11
6.115959319999999
 21
3.0758003
 31
0.0
  0
LINE
  5
177
330
70
100
AcDbEntity
  8
1i2e.4567poly.raw v1_1
100
AcDbLine
 10
-8.312266839999999
 20
5.2529232
 30
0.0
 11
-8.238642399999999
 21
5.400032379999999
 31
0.0
  0
LINE
  5
178
330
70
100
AcDbEntity
  8
1i2e.4567poly.raw v1_1
100
AcDbLine
 10
6.266134279999999
 20
4.533038939999999
 30
0.0
 11
6.262044879999999
 21
4.386463159999999
 31
0.0
  0
LINE
  5
179
330
70
100
AcDbEntity
  8
1i2e.4567poly.raw v1_1
100
AcDbLine
 10
-8.6862539
 20
4.34828696
 30
0.0
 11
-8.632083320000001
 21
4.501319419999999
 31
0.0
  0
LINE
  5
17A
330
70
100
AcDbEntity
  8
1i2e.4567poly.raw v1_1
100
AcDbLine
 10
-5.742160219999999
 20
8.315596779999999
 30
0.0
 11
-5.603016479999999
 21
8.416444939999999
 31
0.0
  0
LINE
  5
17B
330
70
100
AcDbEntity
  8
1i2e.4567poly.raw v1_1
100
AcDbLine
 10
-3.62185966
 20
9.483608159999999
 30
0.0
 11
-3.45829636
 21
9.545952459999998
 31
0.0
  0
LINE
  5
17C
330
70
100
AcDbEntity
  8
1i2e.4567poly.raw v1_1
100
AcDbLine
 10
-3.29344528
 20
9.6053656
 30
0.0
 11
-3.1273623
 21
9.66182472
 31
0.0
  0
LINE
  5
17D
330
70
100
AcDbEntity
  8
1i2e.4567poly.raw v1_1
100
AcDbLine
 10
-6.27635778
 20
7.887512799999999
 30
0.0
 11
-6.146274219999999
 21
7.9981552
 31
0.0
  0
LINE
  5
17E
330
70
100
AcDbEntity
  8
1i2e.4567poly.raw v1_1
100
AcDbLine
 10
6.26575582
 20
4.826007619999999
 30
0.0
 11
6.26740174
 21
4.67957916
 31
0.0
  0
LINE
  5
17F
330
70
100
AcDbEntity
  8
1i2e.4567poly.raw v1_1
100
AcDbLine
 10
-7.43707174
 20
6.660451499999999
 30
0.0
 11
-7.333178119999999
 21
6.79224956
 31
0.0
  0
LINE
  5
180
330
70
100
AcDbEntity
  8
1i2e.4567poly.raw v1_1
100
AcDbLine
 10
-6.404046119999999
 20
7.77453106
 30
0.0
 11
-6.27635778
 21
7.887512799999999
 31
0.0
  0
LINE
  5
181
330
70
100
AcDbEntity
  8
1i2e.4567poly.raw v1_1
100
AcDbLine
 10
-0.7085660200000001
 20
10.1352477
 30
0.0
 11
-0.53166264
 21
10.14607572
 31
0.0
  0
LINE
  5
182
330
70
100
AcDbEntity
  8
1i2e.4567poly.raw v1_1
100
AcDbLine
 10
-5.31840948
 20
8.61045776
 30
0.0
 11
-5.173057979999999
 21
8.703551299999999
 31
0.0
  0
LINE
  5
183
330
70
100
AcDbEntity
  8
1i2e.4567poly.raw v1_1
100
AcDbLine
 10
-4.725517599999999
 20
8.966776579999999
 30
0.0
 11
-4.572701039999999
 21
9.04906242
 31
0.0
  0
LINE
  5
184
330
70
100
AcDbEntity
  8
1i2e.4567poly.raw v1_1
100
AcDbLine
 10
5.1253898
 20
8.144807179999999
 30
0.0
 11
5.21305536
 21
8.034672779999999
 31
0.0
  0
LINE
  5
185
330
70
100
AcDbEntity
  8
1i2e.4567poly.raw v1_1
100
AcDbLine
 10
4.30315624
 20
8.93023106
 30
0.0
 11
4.41749434
 21
8.841737459999999
 31
0.0
  0
LINE
  5
186
330
70
100
AcDbEntity
  8
1i2e.4567poly.raw v1_1
100
AcDbLine
 10
0.27214322
 20
-5.35009344
 30
0.0
 11
0.1695958
 21
-5.37216096
 31
0.0
  0
LINE
  5
187
330
70
100
AcDbEntity
  8
1i2e.4567poly.raw v1_1
100
AcDbLine
 10
0.67534282
 20
-5.24927322
 30
0.0
 11
0.57562496
 21
-5.276339459999999
 31
0.0
  0
LINE
  5
188
330
70
100
AcDbEntity
  8
1i2e.4567poly.raw v1_1
100
AcDbLine
 10
-6.394107100000001
 20
-3.837360879999999
 30
0.0
 11
-6.49666214
 21
-3.752529959999999
 31
0.0
  0
LINE
  5
189
330
70
100
AcDbEntity
  8
1i2e.4567poly.raw v1_1
100
AcDbLine
 10
5.729589759999999
 20
7.1971662
 30
0.0
 11
5.789279759999999
 21
7.06885048
 31
0.0
  0
LINE
  5
18A
330
70
100
AcDbEntity
  8
1i2e.4567poly.raw v1_1
100
AcDbLine
 10
3.13238642
 20
9.593369179999999
 30
0.0
 11
3.2746061
 21
9.53188594
 31
0.0
  0
LINE
  5
18B
330
70
100
AcDbEntity
  8
1i2e.4567poly.raw v1_1
100
AcDbLine
 10
1.898035319999999
 20
9.971349119999999
 30
0.0
 11
2.060902659999999
 21
9.93525318
 31
0.0
  0
LINE
  5
18C
330
70
100
AcDbEntity
  8
1i2e.4567poly.raw v1_1
100
AcDbLine
 10
2.221522099999999
 20
9.89596446
 30
0.0
 11
2.379781879999999
 21
9.85348296
 31
0.0
  0
LINE
  5
18D
330
70
100
AcDbEntity
  8
1i2e.4567poly.raw v1_1
100
AcDbLine
 10
-7.787728899999999
 20
-2.3378795
 30
0.0
 11
-7.867332499999999
 21
-2.22119444
 31
0.0
  0
LINE
  5
18E
330
70
100
AcDbEntity
  8
1i2e.4567poly.raw v1_1
100
AcDbLine
 10
5.66634122
 20
7.32347278
 30
0.0
 11
5.729589759999999
 21
7.1971662
 31
0.0
  0
LINE
  5
18F
330
70
100
AcDbEntity
  8
1i2e.4567poly.raw v1_1
100
AcDbLine
 10
-8.081921860000001
 20
5.690478839999999
 30
0.0
 11
-7.998879099999999
 21
5.833681499999999
 31
0.0
  0
LINE
  5
190
330
70
100
AcDbEntity
  8
1i2e.4567poly.raw v1_1
100
AcDbLine
 10
3.2746061
 20
9.53188594
 30
0.0
 11
3.41390478
 21
9.467293739999998
 31
0.0
  0
LINE
  5
191
330
70
100
AcDbEntity
  8
1i2e.4567poly.raw v1_1
100
AcDbLine
 10
-7.998879099999999
 20
5.833681499999999
 30
0.0
 11
-7.91275532
 21
5.97544652
 31
0.0
  0
LINE
  5
192
330
70
100
AcDbEntity
  8
1i2e.4567poly.raw v1_1
100
AcDbLine
 10
5.75974464
 20
1.51402034
 30
0.0
 11
5.722518399999999
 21
1.37456672
 31
0.0
  0
LINE
  5
193
330
70
100
AcDbEntity
  8
1i2e.4567poly.raw v1_1
100
AcDbLine
 10
-7.91275532
 20
5.97544652
 30
0.0
 11
-7.82357846
 21
6.115710399999999
 31
0.0
  0
LINE
  5
194
330
70
100
AcDbEntity
  8
1i2e.4567poly.raw v1_1
100
AcDbLine
 10
0.7063181200000002
 20
10.13521722
 30
0.0
 11
0.8810040799999999
 21
10.12124976
 31
0.0
  0
LINE
  5
195
330
70
100
AcDbEntity
  8
1i2e.4567poly.raw v1_1
100
AcDbLine
 10
4.0648001
 20
9.098549239999998
 30
0.0
 11
4.185582179999999
 21
9.01584684
 31
0.0
  0
LINE
  5
196
330
70
100
AcDbEntity
  8
1i2e.4567poly.raw v1_1
100
AcDbLine
 10
4.93986058
 20
8.357367079999999
 30
0.0
 11
5.0343181
 21
8.252386340000001
 31
0.0
  0
LINE
  5
197
330
70
100
AcDbEntity
  8
1i2e.4567poly.raw v1_1
100
AcDbLine
 10
5.89793842
 20
6.80654214
 30
0.0
 11
5.94689692
 21
6.672742559999999
 31
0.0
  0
LINE
  5
198
330
70
100
AcDbEntity
  8
1i2e.4567poly.raw v1_1
100
AcDbLine
 10
-6.08018088
 20
-4.078658339999999
 30
0.0
 11
-6.185814399999999
 21
-4.0004238
 31
0.0
  0
LINE
  5
199
330
70
100
AcDbEntity
  8
1i2e.4567poly.raw v1_1
100
AcDbLine
 10
5.992276559999999
 20
6.53731992
 30
0.0
 11
6.034077339999999
 21
6.400378359999999
 31
0.0
  0
LINE
  5
19A
330
70
100
AcDbEntity
  8
1i2e.4567poly.raw v1_1
100
AcDbLine
 10
1.73303946
 20
10.00425482
 30
0.0
 11
1.898035319999999
 21
9.971349119999999
 31
0.0
  0
LINE
  5
19B
330
70
100
AcDbEntity
  8
1i2e.4567poly.raw v1_1
100
AcDbLine
 10
3.813731259999999
 20
9.25509452
 30
0.0
 11
3.940840479999999
 21
9.178310320000001
 31
0.0
  0
LINE
  5
19C
330
70
100
AcDbEntity
  8
1i2e.4567poly.raw v1_1
100
AcDbLine
 10
5.0343181
 20
8.252386340000001
 30
0.0
 11
5.1253898
 21
8.144807179999999
 31
0.0
  0
LINE
  5
19D
330
70
100
AcDbEntity
  8
1i2e.4567poly.raw v1_1
100
AcDbLine
 10
-0.00000508
 20
10.16
 30
0.0
 11
0.1772412
 21
10.15845314
 31
0.0
  0
LINE
  5
19E
330
70
100
AcDbEntity
  8
1i2e.4567poly.raw v1_1
100
AcDbLine
 10
0.35420808
 20
10.15381002
 30
0.0
 11
0.53064664
 21
10.1460681
 31
0.0
  0
LINE
  5
19F
330
70
100
AcDbEntity
  8
1i2e.4567poly.raw v1_1
100
AcDbLine
 10
0.47517304
 20
-5.302171259999999
 30
0.0
 11
0.37400738
 21
-5.326761
 31
0.0
  0
LINE
  5
1A0
330
70
100
AcDbEntity
  8
1i2e.4567poly.raw v1_1
100
AcDbLine
 10
-7.867332499999999
 20
-2.22119444
 30
0.0
 11
-7.94494728
 21
-2.102538339999999
 31
0.0
  0
LINE
  5
1A1
330
70
100
AcDbEntity
  8
1i2e.4567poly.raw v1_1
100
AcDbLine
 10
4.185582179999999
 20
9.01584684
 30
0.0
 11
4.30315624
 21
8.93023106
 31
0.0
  0
LINE
  5
1A2
330
70
100
AcDbEntity
  8
1i2e.4567poly.raw v1_1
100
AcDbLine
 10
-5.973625339999999
 20
-4.154693239999999
 30
0.0
 11
-6.08018088
 21
-4.078658339999999
 31
0.0
  0
LINE
  5
1A3
330
70
100
AcDbEntity
  8
1i2e.4567poly.raw v1_1
100
AcDbLine
 10
-6.185814399999999
 20
-4.0004238
 30
0.0
 11
-6.2904751
 21
-3.919992159999999
 31
0.0
  0
LINE
  5
1A4
330
70
100
AcDbEntity
  8
1i2e.4567poly.raw v1_1
100
AcDbLine
 10
5.79652384
 20
1.65394386
 30
0.0
 11
5.75974464
 21
1.51402034
 31
0.0
  0
LINE
  5
1A5
330
70
100
AcDbEntity
  8
1i2e.4567poly.raw v1_1
100
AcDbLine
 10
-6.598079259999999
 20
-3.6654994
 30
0.0
 11
-6.698307660000001
 21
-3.57627428
 31
0.0
  0
LINE
  5
1A6
330
70
100
AcDbEntity
  8
1i2e.4567poly.raw v1_1
100
AcDbLine
 10
-6.79729146
 20
-3.48485968
 30
0.0
 11
-6.89497478
 21
-3.391263219999999
 31
0.0
  0
LINE
  5
1A7
330
70
100
AcDbEntity
  8
1i2e.4567poly.raw v1_1
100
AcDbLine
 10
5.21305536
 20
8.034672779999999
 30
0.0
 11
5.29729446
 21
7.92203902
 31
0.0
  0
LINE
  5
1A8
330
70
100
AcDbEntity
  8
1i2e.4567poly.raw v1_1
100
AcDbLine
 10
5.789279759999999
 20
7.06885048
 30
0.0
 11
5.845398519999999
 21
6.93860944
 31
0.0
  0
LINE
  5
1A9
330
70
100
AcDbEntity
  8
1i2e.4567poly.raw v1_1
100
AcDbLine
 10
-6.2904751
 20
-3.919992159999999
 30
0.0
 11
-6.394107100000001
 21
-3.837360879999999
 31
0.0
  0
LINE
  5
1AA
330
70
100
AcDbEntity
  8
1i2e.4567poly.raw v1_1
100
AcDbLine
 10
-5.757951399999999
 20
-4.30018952
 30
0.0
 11
-5.86619858
 21
-4.228536119999999
 31
0.0
  0
LINE
  5
1AB
330
70
100
AcDbEntity
  8
1i2e.4567poly.raw v1_1
100
AcDbLine
 10
6.034077339999999
 20
6.400378359999999
 30
0.0
 11
6.0723145
 21
6.2620271
 31
0.0
  0
LINE
  5
1AC
330
70
100
AcDbEntity
  8
1i2e.4567poly.raw v1_1
100
AcDbLine
 10
5.529229479999999
 20
7.56971562
 30
0.0
 11
5.59954938
 21
7.44768132
 31
0.0
  0
LINE
  5
1AD
330
70
100
AcDbEntity
  8
1i2e.4567poly.raw v1_1
100
AcDbLine
 10
0.06638036
 20
-5.39294832
 30
0.0
 11
-0.0374904
 21
-5.41244536
 31
0.0
  0
LINE
  5
1AE
330
70
100
AcDbEntity
  8
1i2e.4567poly.raw v1_1
100
AcDbLine
 10
5.3780817
 20
7.806959240000001
 30
0.0
 11
5.45540184
 21
7.689496939999999
 31
0.0
  0
LINE
  5
1AF
330
70
100
AcDbEntity
  8
1i2e.4567poly.raw v1_1
100
AcDbLine
 10
3.940840479999999
 20
9.178310320000001
 30
0.0
 11
4.0648001
 21
9.098549239999998
 31
0.0
  0
LINE
  5
1B0
330
70
100
AcDbEntity
  8
1i2e.4567poly.raw v1_1
100
AcDbLine
 10
2.379781879999999
 20
9.85348296
 30
0.0
 11
2.53558294
 21
9.807811220000001
 31
0.0
  0
LINE
  5
1B1
330
70
100
AcDbEntity
  8
1i2e.4567poly.raw v1_1
100
AcDbLine
 10
-7.70619236
 20
-2.45257066
 30
0.0
 11
-7.787728899999999
 21
-2.3378795
 31
0.0
  0
LINE
  5
1B2
330
70
100
AcDbEntity
  8
1i2e.4567poly.raw v1_1
100
AcDbLine
 10
-5.53919898
 20
-4.43696344
 30
0.0
 11
-5.648937139999999
 21
-4.3696636
 31
0.0
  0
LINE
  5
1B3
330
70
100
AcDbEntity
  8
1i2e.4567poly.raw v1_1
100
AcDbLine
 10
-6.698307660000001
 20
-3.57627428
 30
0.0
 11
-6.79729146
 21
-3.48485968
 31
0.0
  0
LINE
  5
1B4
330
70
100
AcDbEntity
  8
1i2e.4567poly.raw v1_1
100
AcDbLine
 10
-6.89497478
 20
-3.391263219999999
 30
0.0
 11
-6.991299199999999
 21
-3.29548998
 31
0.0
  0
LINE
  5
1B5
330
70
100
AcDbEntity
  8
1i2e.4567poly.raw v1_1
100
AcDbLine
 10
-7.271565339999999
 20
-2.9952315
 30
0.0
 11
-7.361892820000001
 21
-2.890875599999999
 31
0.0
  0
LINE
  5
1B6
330
70
100
AcDbEntity
  8
1i2e.4567poly.raw v1_1
100
AcDbLine
 10
-6.991299199999999
 20
-3.29548998
 30
0.0
 11
-7.086211379999999
 21
-3.19755266
 31
0.0
  0
LINE
  5
1B7
330
70
100
AcDbEntity
  8
1i2e.4567poly.raw v1_1
100
AcDbLine
 10
-6.49666214
 20
-3.752529959999999
 30
0.0
 11
-6.598079259999999
 21
-3.6654994
 31
0.0
  0
LINE
  5
1B8
330
70
100
AcDbEntity
  8
1i2e.4567poly.raw v1_1
100
AcDbLine
 10
5.29729446
 20
7.92203902
 30
0.0
 11
5.3780817
 21
7.806959240000001
 31
0.0
  0
LINE
  5
1B9
330
70
100
AcDbEntity
  8
1i2e.4567poly.raw v1_1
100
AcDbLine
 10
3.41390478
 20
9.467293739999998
 30
0.0
 11
3.5502215
 21
9.399612899999999
 31
0.0
  0
LINE
  5
1BA
330
70
100
AcDbEntity
  8
1i2e.4567poly.raw v1_1
100
AcDbLine
 10
1.257467639999999
 20
-5.06160024
 30
0.0
 11
1.16245386
 21
-5.095836899999999
 31
0.0
  0
LINE
  5
1BB
330
70
100
AcDbEntity
  8
1i2e.4567poly.raw v1_1
100
AcDbLine
 10
0.53064664
 20
10.1460681
 30
0.0
 11
0.7063181200000002
 21
10.13521722
 31
0.0
  0
LINE
  5
1BC
330
70
100
AcDbEntity
  8
1i2e.4567poly.raw v1_1
100
AcDbLine
 10
2.68882622
 20
9.75895178
 30
0.0
 11
2.8394279
 21
9.70691734
 31
0.0
  0
LINE
  5
1BD
330
70
100
AcDbEntity
  8
1i2e.4567poly.raw v1_1
100
AcDbLine
 10
0.1772412
 20
10.15845314
 30
0.0
 11
0.35420808
 21
10.15381002
 31
0.0
  0
LINE
  5
1BE
330
70
100
AcDbEntity
  8
1i2e.4567poly.raw v1_1
100
AcDbLine
 10
1.566044619999999
 20
10.03398044
 30
0.0
 11
1.73303946
 21
10.00425482
 31
0.0
  0
LINE
  5
1BF
330
70
100
AcDbEntity
  8
1i2e.4567poly.raw v1_1
100
AcDbLine
 10
-7.086211379999999
 20
-3.19755266
 30
0.0
 11
-7.179652899999999
 21
-3.09746142
 31
0.0
  0
LINE
  5
1C0
330
70
100
AcDbEntity
  8
1i2e.4567poly.raw v1_1
100
AcDbLine
 10
-7.179652899999999
 20
-3.09746142
 30
0.0
 11
-7.271565339999999
 21
-2.9952315
 31
0.0
  0
LINE
  5
1C1
330
70
100
AcDbEntity
  8
1i2e.4567poly.raw v1_1
100
AcDbLine
 10
3.5502215
 20
9.399612899999999
 30
0.0
 11
3.683513079999999
 21
9.328871359999999
 31
0.0
  0
LINE
  5
1C2
330
70
100
AcDbEntity
  8
1i2e.4567poly.raw v1_1
100
AcDbLine
 10
-8.161853119999999
 20
5.545907119999998
 30
0.0
 11
-8.081921860000001
 21
5.690478839999999
 31
0.0
  0
LINE
  5
1C3
330
70
100
AcDbEntity
  8
1i2e.4567poly.raw v1_1
100
AcDbLine
 10
2.060902659999999
 20
9.93525318
 30
0.0
 11
2.221522099999999
 21
9.89596446
 31
0.0
  0
LINE
  5
1C4
330
70
100
AcDbEntity
  8
1i2e.4567poly.raw v1_1
100
AcDbLine
 10
-2.799057139999999
 20
-5.43612578
 30
0.0
 11
-2.9140023
 21
-5.416463639999999
 31
0.0
  0
LINE
  5
1C5
330
70
100
AcDbEntity
  8
1i2e.4567poly.raw v1_1
100
AcDbLine
 10
0.8725331799999999
 20
-5.191490759999999
 30
0.0
 11
0.7743190000000002
 21
-5.220987779999999
 31
0.0
  0
LINE
  5
1C6
330
70
100
AcDbEntity
  8
1i2e.4567poly.raw v1_1
100
AcDbLine
 10
3.25058278
 20
-3.9131748
 30
0.0
 11
3.17993268
 21
-3.972687
 31
0.0
  0
LINE
  5
1C7
330
70
100
AcDbEntity
  8
1i2e.4567poly.raw v1_1
100
AcDbLine
 10
4.528573619999999
 20
8.750399059999999
 30
0.0
 11
4.63637122
 21
8.656256499999999
 31
0.0
  0
CIRCLE
  5
1C8
330
70
100
AcDbEntity
  8
1i2e.4567poly.raw v1_1
100
AcDbCircle
 10
0.0
 20
0.0
 30
0.0
 40
0.635
  0
LINE
  5
1C9
330
70
100
AcDbEntity
  8
1i2e.4567poly.raw v1_1
100
AcDbLine
 10
-3.60601006
 20
-5.26073624
 30
0.0
 11
-3.721475919999999
 21
-5.22829282
 31
0.0
  0
LINE
  5
1CA
330
70
100
AcDbEntity
  8
1i2e.4567poly.raw v1_1
100
AcDbLine
 10
-5.428787719999999
 20
-4.502099199999999
 30
0.0
 11
-5.53919898
 21
-4.43696344
 31
0.0
  0
LINE
  5
1CB
330
70
100
AcDbEntity
  8
1i2e.4567poly.raw v1_1
100
AcDbLine
 10
-4.18259514
 20
-5.07923546
 30
0.0
 11
-4.297525059999999
 21
-5.037051139999999
 31
0.0
  0
LINE
  5
1CC
330
70
100
AcDbEntity
  8
1i2e.4567poly.raw v1_1
100
AcDbLine
 10
-4.6408975
 20
-4.89839
 30
0.0
 11
-4.75475808
 21
-4.848075139999999
 31
0.0
  0
LINE
  5
1CD
330
70
100
AcDbEntity
  8
1i2e.4567poly.raw v1_1
100
AcDbLine
 10
2.8394279
 20
9.70691734
 30
0.0
 11
2.987306699999999
 21
9.65171806
 31
0.0
  0
LINE
  5
1CE
330
70
100
AcDbEntity
  8
1i2e.4567poly.raw v1_1
100
AcDbLine
 10
-4.98134132
 20
-4.74120464
 30
0.0
 11
-5.09398524
 21
-4.684618519999999
 31
0.0
  0
LINE
  5
1CF
330
70
100
AcDbEntity
  8
1i2e.4567poly.raw v1_1
100
AcDbLine
 10
-7.450576919999999
 20
-2.784414039999999
 30
0.0
 11
-7.53755922
 21
-2.675859519999999
 31
0.0
  0
LINE
  5
1D0
330
70
100
AcDbEntity
  8
1i2e.4567poly.raw v1_1
100
AcDbLine
 10
-5.09398524
 20
-4.684618519999999
 30
0.0
 11
-5.206136399999999
 21
-4.625914039999999
 31
0.0
  0
CIRCLE
  5
1D1
330
70
100
AcDbEntity
  8
1i2e.4567poly.raw v1_1
100
AcDbCircle
 10
0.0
 20
0.0
 30
0.0
 40
1.27
  0
LINE
  5
1D2
330
70
100
AcDbEntity
  8
1i2e.4567poly.raw v1_1
100
AcDbLine
 10
4.84203502
 20
8.459701140000001
 30
0.0
 11
4.93986058
 21
8.357367079999999
 31
0.0
  0
LINE
  5
1D3
330
70
100
AcDbEntity
  8
1i2e.4567poly.raw v1_1
100
AcDbLine
 10
5.94689692
 20
6.672742559999999
 30
0.0
 11
5.992276559999999
 21
6.53731992
 31
0.0
  0
LINE
  5
1D4
330
70
100
AcDbEntity
  8
1i2e.4567poly.raw v1_1
100
AcDbLine
 10
-3.14433458
 20
-5.371830759999999
 30
0.0
 11
-3.25966582
 21
-5.346816839999999
 31
0.0
  0
LINE
  5
1D5
330
70
100
AcDbEntity
  8
1i2e.4567poly.raw v1_1
100
AcDbLine
 10
-7.62278384
 20
-2.56523744
 30
0.0
 11
-7.70619236
 21
-2.45257066
 31
0.0
  0
LINE
  5
1D6
330
70
100
AcDbEntity
  8
1i2e.4567poly.raw v1_1
100
AcDbLine
 10
4.740866819999999
 20
8.559342799999999
 30
0.0
 11
4.84203502
 21
8.459701140000001
 31
0.0
  0
LINE
  5
1D7
330
70
100
AcDbEntity
  8
1i2e.4567poly.raw v1_1
100
AcDbLine
 10
-7.53755922
 20
-2.675859519999999
 30
0.0
 11
-7.62278384
 21
-2.56523744
 31
0.0
  0
LINE
  5
1D8
330
70
100
AcDbEntity
  8
1i2e.4567poly.raw v1_1
100
AcDbLine
 10
-7.361892820000001
 20
-2.890875599999999
 30
0.0
 11
-7.450576919999999
 21
-2.784414039999999
 31
0.0
  0
LINE
  5
1D9
330
70
100
AcDbEntity
  8
1i2e.4567poly.raw v1_1
100
AcDbLine
 10
-4.5267118
 20
-4.946644919999999
 30
0.0
 11
-4.6408975
 21
-4.89839
 31
0.0
  0
LINE
  5
1DA
330
70
100
AcDbEntity
  8
1i2e.4567poly.raw v1_1
100
AcDbLine
 10
2.987306699999999
 20
9.65171806
 30
0.0
 11
3.13238642
 21
9.593369179999999
 31
0.0
  0
LINE
  5
1DB
330
70
100
AcDbEntity
  8
1i2e.4567poly.raw v1_1
100
AcDbLine
 10
6.19006636
 20
5.69679836
 30
0.0
 11
6.2108715
 21
5.55311056
 31
0.0
  0
LINE
  5
1DC
330
70
100
AcDbEntity
  8
1i2e.4567poly.raw v1_1
100
AcDbLine
 10
-4.0674925
 20
-5.119433499999999
 30
0.0
 11
-4.18259514
 21
-5.07923546
 31
0.0
  0
LINE
  5
1DD
330
70
100
AcDbEntity
  8
1i2e.4567poly.raw v1_1
100
AcDbLine
 10
5.845398519999999
 20
6.93860944
 30
0.0
 11
5.89793842
 21
6.80654214
 31
0.0
  0
LINE
  5
1DE
330
70
100
AcDbEntity
  8
1i2e.4567poly.raw v1_1
100
AcDbLine
 10
-3.25966582
 20
-5.346816839999999
 30
0.0
 11
-3.375075799999999
 21
-5.31997666
 31
0.0
  0
LINE
  5
1DF
330
70
100
AcDbEntity
  8
1i2e.4567poly.raw v1_1
100
AcDbLine
 10
-3.721475919999999
 20
-5.22829282
 30
0.0
 11
-3.836898599999999
 21
-5.19394186
 31
0.0
  0
LINE
  5
1E0
330
70
100
AcDbEntity
  8
1i2e.4567poly.raw v1_1
100
AcDbLine
 10
4.41749434
 20
8.841737459999999
 30
0.0
 11
4.528573619999999
 21
8.750399059999999
 31
0.0
  0
LINE
  5
1E1
330
70
100
AcDbEntity
  8
1i2e.4567poly.raw v1_1
100
AcDbLine
 10
-7.94494728
 20
-2.102538339999999
 30
0.0
 11
-8.0205199
 21
-1.98194422
 31
0.0
  0
LINE
  5
1E2
330
70
100
AcDbEntity
  8
1i2e.4567poly.raw v1_1
100
AcDbLine
 10
-8.0205199
 20
-1.98194422
 30
0.0
 11
-8.09399194
 21
-1.859445099999999
 31
0.0
  0
LINE
  5
1E3
330
70
100
AcDbEntity
  8
1i2e.4567poly.raw v1_1
100
AcDbLine
 10
1.05449878
 20
10.10415302
 30
0.0
 11
1.226616799999999
 21
10.08391938
 31
0.0
  0
LINE
  5
1E4
330
70
100
AcDbEntity
  8
1i2e.4567poly.raw v1_1
100
AcDbLine
 10
3.683513079999999
 20
9.328871359999999
 30
0.0
 11
3.813731259999999
 21
9.25509452
 31
0.0
  0
ENDSEC
  0
SECTION
  2
OBJECTS
  0
DICTIONARY
  5
C
330
0
100
AcDbDictionary
281
     1
  3
ACAD_COLOR
350
63
  3
ACAD_DETAILVIEWSTYLE
350
6A
  3
ACAD_GROUP
350
D
  3
ACAD_LAYOUT
350
62
  3
ACAD_MATERIAL
350
10
  3
ACAD_MLEADERSTYLE
350
66
  3
ACAD_MLINESTYLE
350
5F
  3
ACAD_PLOTSETTINGS
350
61
  3
ACAD_PLOTSTYLENAME
350
E
  3
ACAD_SCALELIST
350
42
  3
ACAD_SECTIONVIEWSTYLE
350
68
  3
ACAD_TABLESTYLE
350
64
  3
ACAD_VISUALSTYLE
350
29
  3
ACDB_RECOMPOSE_DATA
350
1ED
  3
AcDbVariableDictionary
350
1E5
  0
DICTIONARY
  5
63
102
{ACAD_REACTORS
330
C
102
}
330
C
100
AcDbDictionary
281
     1
  0
DICTIONARY
  5
6A
102
{ACAD_REACTORS
330
C
102
}
330
C
100
AcDbDictionary
281
     1
  3
Imperial24
350
6B
  0
DICTIONARY
  5
D
102
{ACAD_REACTORS
330
C
102
}
330
C
100
AcDbDictionary
281
     1
  0
DICTIONARY
  5
62
102
{ACAD_REACTORS
330
C
102
}
330
C
100
AcDbDictionary
281
     1
  3
Layout1
350
6F
  3
Layout2
350
77
  3
Model
350
73
  0
DICTIONARY
  5
10
102
{ACAD_REACTORS
330
C
102
}
330
C
100
AcDbDictionary
281
     1
  3
ByBlock
350
19
  3
ByLayer
350
11
  3
Global
350
21
  0
DICTIONARY
  5
66
102
{ACAD_REACTORS
330
C
102
}
330
C
100
AcDbDictionary
281
     1
  3
Standard
350
67
  0
DICTIONARY
  5
5F
102
{ACAD_REACTORS
330
C
102
}
330
C
100
AcDbDictionary
281
     1
  3
Standard
350
60
  0
DICTIONARY
  5
61
102
{ACAD_REACTORS
330
C
102
}
330
C
100
AcDbDictionary
281
     1
  0
ACDBDICTIONARYWDFLT
  5
E
102
{ACAD_REACTORS
330
C
102
}
330
C
100
AcDbDictionary
281
     1
  3
Normal
350
F
100
AcDbDictionaryWithDefault
340
F
  0
DICTIONARY
  5
42
102
{ACAD_REACTORS
330
C
102
}
330
C
100
AcDbDictionary
281
     1
  3
A0
350
43
  3
A1
350
44
  3
A2
350
45
  3
A3
350
46
  3
A4
350
47
  3
A5
350
48
  3
A6
350
49
  3
A7
350
4A
  3
A8
350
4B
  3
A9
350
4C
  3
B0
350
4D
  3
B1
350
4E
  3
B2
350
4F
  3
B3
350
50
  3
B4
350
51
  3
B5
350
52
  3
B6
350
53
  0
DICTIONARY
  5
68
102
{ACAD_REACTORS
330
C
102
}
330
C
100
AcDbDictionary
281
     1
  3
Imperial24
350
69
  0
DICTIONARY
  5
64
102
{ACAD_REACTORS
330
C
102
}
330
C
100
AcDbDictionary
281
     1
  3
Standard
350
65
  0
DICTIONARY
  5
29
102
{ACAD_REACTORS
330
C
102
}
330
C
100
AcDbDictionary
281
     1
  3
2dWireframe
350
2F
  3
Basic
350
2E
  3
Brighten
350
35
  3
ColorChange
350
39
  3
Conceptual
350
32
  3
Dim
350
34
  3
EdgeColorOff
350
41
  3
Facepattern
350
38
  3
Flat
350
2A
  3
FlatWithEdges
350
2B
  3
Gouraud
350
2C
  3
GouraudWithEdges
350
2D
  3
Hidden
350
31
  3
JitterOff
350
3F
  3
Linepattern
350
37
  3
OverhangOff
350
40
  3
Realistic
350
33
  3
Shaded
350
3E
  3
Shaded with edges
350
3D
  3
Shades of Gray
350
3A
  3
Sketchy
350
3B
  3
Thicken
350
36
  3
Wireframe
350
30
  3
X-Ray
350
3C
  0
XRECORD
  5
1ED
102
{ACAD_REACTORS
330
C
102
}
330
C
100
AcDbXrecord
280
     1
 90
        1
330
65
  0
DICTIONARY
  5
1E5
102
{ACAD_REACTORS
330
C
102
}
330
C
100
AcDbDictionary
281
     1
  3
CANNOSCALE
350
1EA
  3
CMLEADERSTYLE
350
1E7
  3
CTABLESTYLE
350
1E6
  3
CVIEWDETAILSTYLE
350
1E8
  3
CVIEWSECTIONSTYLE
350
1E9
  0
ACDBDETAILVIEWSTYLE
  5
6B
102
{ACAD_XDICTIONARY
360
1F0
102
}
102
{ACAD_REACTORS
330
6A
102
}
330
6A
100
AcDbModelDocViewStyle
 70
     0
  3
Imperial24
290
     0
100
AcDbDetailViewStyle
 70
     0
 71
     0
 90
        3
 71
     1
340
55
 62
   256
 40
0.24
340
0
 62
   256
 40
0.24
300

 40
0.36
280
     3
 71
     2
340
5D
 90
       25
 62
   256
 71
     3
340
55
 62
   256
 40
0.24
 90
        1
 40
0.75
 90
        1
300
%<\AcVar ViewType \f "%tc1">% %<\AcVar ViewDetailId>%\PSCALE %<\AcVar ViewScale \f "%sn">%
 71
     4
340
5D
 90
       25
 62
   256
340
5D
 90
       25
 62
   256
280
     0
  0
LAYOUT
  5
6F
102
{ACAD_REACTORS
330
62
102
}
330
62
100
AcDbPlotSettings
  1

  2

  4

  6

 40
0.0
 41
0.0
 42
0.0
 43
0.0
 44
0.0
 45
0.0
 46
0.0
 47
0.0
 48
0.0
 49
0.0
140
0.0
141
0.0
142
1.0
143
1.0
 70
   688
 72
     0
 73
     0
 74
     5
  7

 75
    16
147
1.0
 76
     0
 77
     2
 78
   300
148
0.0
149
0.0
100
AcDbLayout
  1
Layout1
 70
     1
 71
     1
 10
0.0
 20
0.0
 11
12.0
 21
9.0
 12
0.0
 22
0.0
 32
0.0
 14
0.0
 24
0.0
 34
0.0
 15
0.0
 25
0.0
 35
0.0
146
0.0
 13
0.0
 23
0.0
 33
0.0
 16
1.0
 26
0.0
 36
0.0
 17
0.0
 27
1.0
 37
0.0
 76
     0
330
6C
  0
LAYOUT
  5
77
102
{ACAD_REACTORS
330
62
102
}
330
62
100
AcDbPlotSettings
  1

  2

  4

  6

 40
0.0
 41
0.0
 42
0.0
 43
0.0
 44
0.0
 45
0.0
 46
0.0
 47
0.0
 48
0.0
 49
0.0
140
0.0
141
0.0
142
1.0
143
1.0
 70
   688
 72
     0
 73
     0
 74
     5
  7

 75
    16
147
1.0
 76
     0
 77
     2
 78
   300
148
0.0
149
0.0
100
AcDbLayout
  1
Layout2
 70
     1
 71
     2
 10
0.0
 20
0.0
 11
12.0
 21
9.0
 12
0.0
 22
0.0
 32
0.0
 14
0.0
 24
0.0
 34
0.0
 15
0.0
 25
0.0
 35
0.0
146
0.0
 13
0.0
 23
0.0
 33
0.0
 16
1.0
 26
0.0
 36
0.0
 17
0.0
 27
1.0
 37
0.0
 76
     0
330
74
  0
LAYOUT
  5
73
102
{ACAD_REACTORS
330
62
102
}
330
62
100
AcDbPlotSettings
  1

  2

  4

  6

 40
0.0
 41
0.0
 42
0.0
 43
0.0
 44
0.0
 45
0.0
 46
0.0
 47
0.0
 48
0.0
 49
0.0
140
0.0
141
0.0
142
1.0
143
1.0
 70
  1712
 72
     0
 73
     0
 74
     0
  7

 75
     0
147
1.0
 76
     0
 77
     2
 78
   300
148
0.0
149
0.0
100
AcDbLayout
  1
Model
 70
     1
 71
     0
 10
0.0
 20
0.0
 11
12.0
 21
9.0
 12
0.0
 22
0.0
 32
0.0
 14
0.0
 24
0.0
 34
0.0
 15
0.0
 25
0.0
 35
0.0
146
0.0
 13
0.0
 23
0.0
 33
0.0
 16
1.0
 26
0.0
 36
0.0
 17
0.0
 27
1.0
 37
0.0
 76
     0
330
70
  0
MATERIAL
  5
19
102
{ACAD_XDICTIONARY
360
1A
102
}
102
{ACAD_REACTORS
330
10
102
}
330
10
100
AcDbMaterial
  1
ByBlock
 72
     0
 43
0.0208333333333333
 43
0.0
 43
0.0
 43
0.0
 43
0.0
 43
0.0208333333333333
 43
0.0
 43
0.0
 43
0.0
 43
0.0
 43
1.0
 43
0.0
 43
0.0
 43
0.0
 43
0.0
 43
1.0
 77
     0
 47
0.0208333333333333
 47
0.0
 47
0.0
 47
0.0
 47
0.0
 47
0.0208333333333333
 47
0.0
 47
0.0
 47
0.0
 47
0.0
 47
1.0
 47
0.0
 47
0.0
 47
0.0
 47
0.0
 47
1.0
171
     0
 49
0.0208333333333333
 49
0.0
 49
0.0
 49
0.0
 49
0.0
 49
0.0208333333333333
 49
0.0
 49
0.0
 49
0.0
 49
0.0
 49
1.0
 49
0.0
 49
0.0
 49
0.0
 49
0.0
 49
1.0
175
     0
142
0.0208333333333333
142
0.0
142
0.0
142
0.0
142
0.0
142
0.0208333333333333
142
0.0
142
0.0
142
0.0
142
0.0
142
1.0
142
0.0
142
0.0
142
0.0
142
0.0
142
1.0
179
     0
144
0.0208333333333333
144
0.0
144
0.0
144
0.0
144
0.0
144
0.0208333333333333
144
0.0
144
0.0
144
0.0
144
0.0
144
1.0
144
0.0
144
0.0
144
0.0
144
0.0
144
1.0
147
0.0208333333333333
147
0.0
147
0.0
147
0.0
147
0.0
147
0.0208333333333333
147
0.0
147
0.0
147
0.0
147
0.0
147
1.0
147
0.0
147
0.0
147
0.0
147
0.0
147
1.0
  0
MATERIAL
  5
11
102
{ACAD_XDICTIONARY
360
12
102
}
102
{ACAD_REACTORS
330
10
102
}
330
10
100
AcDbMaterial
  1
ByLayer
 72
     0
 43
0.0208333333333333
 43
0.0
 43
0.0
 43
0.0
 43
0.0
 43
0.0208333333333333
 43
0.0
 43
0.0
 43
0.0
 43
0.0
 43
1.0
 43
0.0
 43
0.0
 43
0.0
 43
0.0
 43
1.0
 77
     0
 47
0.0208333333333333
 47
0.0
 47
0.0
 47
0.0
 47
0.0
 47
0.0208333333333333
 47
0.0
 47
0.0
 47
0.0
 47
0.0
 47
1.0
 47
0.0
 47
0.0
 47
0.0
 47
0.0
 47
1.0
171
     0
 49
0.0208333333333333
 49
0.0
 49
0.0
 49
0.0
 49
0.0
 49
0.0208333333333333
 49
0.0
 49
0.0
 49
0.0
 49
0.0
 49
1.0
 49
0.0
 49
0.0
 49
0.0
 49
0.0
 49
1.0
175
     0
142
0.0208333333333333
142
0.0
142
0.0
142
0.0
142
0.0
142
0.0208333333333333
142
0.0
142
0.0
142
0.0
142
0.0
142
1.0
142
0.0
142
0.0
142
0.0
142
0.0
142
1.0
179
     0
144
0.0208333333333333
144
0.0
144
0.0
144
0.0
144
0.0
144
0.0208333333333333
144
0.0
144
0.0
144
0.0
144
0.0
144
1.0
144
0.0
144
0.0
144
0.0
144
0.0
144
1.0
147
0.0208333333333333
147
0.0
147
0.0
147
0.0
147
0.0
147
0.0208333333333333
147
0.0
147
0.0
147
0.0
147
0.0
147
1.0
147
0.0
147
0.0
147
0.0
147
0.0
147
1.0
  0
MATERIAL
  5
21
102
{ACAD_XDICTIONARY
360
22
102
}
102
{ACAD_REACTORS
330
10
102
}
330
10
100
AcDbMaterial
  1
Global
 72
     0
 43
0.0208333333333333
 43
0.0
 43
0.0
 43
0.0
 43
0.0
 43
0.0208333333333333
 43
0.0
 43
0.0
 43
0.0
 43
0.0
 43
1.0
 43
0.0
 43
0.0
 43
0.0
 43
0.0
 43
1.0
 77
     0
 47
0.0208333333333333
 47
0.0
 47
0.0
 47
0.0
 47
0.0
 47
0.0208333333333333
 47
0.0
 47
0.0
 47
0.0
 47
0.0
 47
1.0
 47
0.0
 47
0.0
 47
0.0
 47
0.0
 47
1.0
171
     0
 49
0.0208333333333333
 49
0.0
 49
0.0
 49
0.0
 49
0.0
 49
0.0208333333333333
 49
0.0
 49
0.0
 49
0.0
 49
0.0
 49
1.0
 49
0.0
 49
0.0
 49
0.0
 49
0.0
 49
1.0
175
     0
142
0.0208333333333333
142
0.0
142
0.0
142
0.0
142
0.0
142
0.0208333333333333
142
0.0
142
0.0
142
0.0
142
0.0
142
1.0
142
0.0
142
0.0
142
0.0
142
0.0
142
1.0
179
     0
144
0.0208333333333333
144
0.0
144
0.0
144
0.0
144
0.0
144
0.0208333333333333
144
0.0
144
0.0
144
0.0
144
0.0
144
1.0
144
0.0
144
0.0
144
0.0
144
0.0
144
1.0
147
0.0208333333333333
147
0.0
147
0.0
147
0.0
147
0.0
147
0.0208333333333333
147
0.0
147
0.0
147
0.0
147
0.0
147
1.0
147
0.0
147
0.0
147
0.0
147
0.0
147
1.0
  0
MLEADERSTYLE
  5
67
102
{ACAD_REACTORS
330
66
102
}
330
66
100
AcDbMLeaderStyle
179
     2
170
     2
171
     1
172
     0
 90
        2
 40
0.0
 41
0.0
173
     1
 91
-1056964608
340
5B
 92
       -2
290
     1
 42
0.09
291
     1
 43
0.36
  3
Standard
 44
0.18
300

342
55
174
     1
178
     6
175
     1
176
     0
 93
-1056964608
 45
0.18
292
     0
297
     0
 46
0.18
 94
-1056964608
 47
1.0
 49
1.0
140
1.0
293
     1
141
0.0
294
     1
177
     0
142
1.0
295
     0
296
     0
143
0.125
271
     0
272
     9
273
     9
298
     1
  0
MLINESTYLE
  5
60
102
{ACAD_REACTORS
330
5F
102
}
330
5F
100
AcDbMlineStyle
  2
STANDARD
 70
     0
  3

 62
   256
 51
90.0
 52
90.0
 71
     2
 49
0.5
 62
   256
  6
BYLAYER
 49
-0.5
 62
   256
  6
BYLAYER
  0
ACDBPLACEHOLDER
  5
F
102
{ACAD_REACTORS
330
E
102
}
330
E
  0
SCALE
  5
43
102
{ACAD_REACTORS
330
42
102
}
330
42
100
AcDbScale
 70
     0
300
1:1
140
1.0
141
1.0
290
     1
  0
SCALE
  5
44
102
{ACAD_REACTORS
330
42
102
}
330
42
100
AcDbScale
 70
     0
300
1/128" = 1'-0"
140
0.0078125
141
12.0
290
     0
  0
SCALE
  5
45
102
{ACAD_REACTORS
330
42
102
}
330
42
100
AcDbScale
 70
     0
300
1/64" = 1'-0"
140
0.015625
141
12.0
290
     0
  0
SCALE
  5
46
102
{ACAD_REACTORS
330
42
102
}
330
42
100
AcDbScale
 70
     0
300
1/32" = 1'-0"
140
0.03125
141
12.0
290
     0
  0
SCALE
  5
47
102
{ACAD_REACTORS
330
42
102
}
330
42
100
AcDbScale
 70
     0
300
1/16" = 1'-0"
140
0.0625
141
12.0
290
     0
  0
SCALE
  5
48
102
{ACAD_REACTORS
330
42
102
}
330
42
100
AcDbScale
 70
     0
300
3/32" = 1'-0"
140
0.09375
141
12.0
290
     0
  0
SCALE
  5
49
102
{ACAD_REACTORS
330
42
102
}
330
42
100
AcDbScale
 70
     0
300
1/8" = 1'-0"
140
0.125
141
12.0
290
     0
  0
SCALE
  5
4A
102
{ACAD_REACTORS
330
42
102
}
330
42
100
AcDbScale
 70
     0
300
3/16" = 1'-0"
140
0.1875
141
12.0
290
     0
  0
SCALE
  5
4B
102
{ACAD_REACTORS
330
42
102
}
330
42
100
AcDbScale
 70
     0
300
1/4" = 1'-0"
140
0.25
141
12.0
290
     0
  0
SCALE
  5
4C
102
{ACAD_REACTORS
330
42
102
}
330
42
100
AcDbScale
 70
     0
300
3/8" = 1'-0"
140
0.375
141
12.0
290
     0
  0
SCALE
  5
4D
102
{ACAD_REACTORS
330
42
102
}
330
42
100
AcDbScale
 70
     0
300
1/2" = 1'-0"
140
0.5
141
12.0
290
     0
  0
SCALE
  5
4E
102
{ACAD_REACTORS
330
42
102
}
330
42
100
AcDbScale
 70
     0
300
3/4" = 1'-0"
140
0.75
141
12.0
290
     0
  0
SCALE
  5
4F
102
{ACAD_REACTORS
330
42
102
}
330
42
100
AcDbScale
 70
     0
300
1" = 1'-0"
140
1.0
141
12.0
290
     0
  0
SCALE
  5
50
102
{ACAD_REACTORS
330
42
102
}
330
42
100
AcDbScale
 70
     0
300
1-1/2" = 1'-0"
140
1.5
141
12.0
290
     0
  0
SCALE
  5
51
102
{ACAD_REACTORS
330
42
102
}
330
42
100
AcDbScale
 70
     0
300
3" = 1'-0"
140
3.0
141
12.0
290
     0
  0
SCALE
  5
52
102
{ACAD_REACTORS
330
42
102
}
330
42
100
AcDbScale
 70
     0
300
6" = 1'-0"
140
6.0
141
12.0
290
     0
  0
SCALE
  5
53
102
{ACAD_REACTORS
330
42
102
}
330
42
100
AcDbScale
 70
     0
300
1'-0" = 1'-0"
140
12.0
141
12.0
290
     0
  0
ACDBSECTIONVIEWSTYLE
  5
69
102
{ACAD_XDICTIONARY
360
1EE
102
}
102
{ACAD_REACTORS
330
68
102
}
330
68
100
AcDbModelDocViewStyle
 70
     0
  3
Imperial24
290
     0
100
AcDbSectionViewStyle
 70
     0
 71
     0
 90
       78
 71
     1
340
55
 62
   256
 40
0.24
340
0
340
0
 62
   256
 40
0.24
300
I, O, Q, S, X, Z
 40
0.48
 90
        3
 40
0.18
 90
        1
 71
     2
340
5D
 90
       25
 62
   256
340
5D
 90
       50
 62
   256
 40
0.24
 40
0.0
 40
0.24
 71
     3
340
55
 62
   256
 40
0.24
 90
        1
 40
0.75
 90
        1
300
%<\AcVar ViewType \f "%tc1">% %<\AcVar ViewSectionStartId>%-%<\AcVar ViewSectionEndId>%\PSCALE %<\AcVar ViewScale \f "%sn">%
 71
     4
 62
   256
 62
   257
300
ANSI31
 40
1.0
 90
        0
290
     0
290
     0
 90
        6
 40
0.0
 40
1.570796326794896
 40
0.2617993877991494
 40
1.308996938995747
 40
-0.2617993877991494
 40
1.832595714594046
  0
TABLESTYLE
  5
65
102
{ACAD_XDICTIONARY
360
1EB
102
}
102
{ACAD_REACTORS
330
64
102
}
330
64
100
AcDbTableStyle
280
     0
  3
Standard
 70
     0
 71
     0
 40
0.06
 41
0.06
280
     0
281
     0
  7
Standard
140
0.18
170
     2
 62
     0
 63
     7
283
     0
 90
      512
 91
        0
  1

274
    -2
284
     1
 64
     0
275
    -2
285
     1
 65
     0
276
    -2
286
     1
 66
     0
277
    -2
287
     1
 67
     0
278
    -2
288
     1
 68
     0
279
    -2
289
     1
 69
     0
  7
Standard
140
0.25
170
     5
 62
     0
 63
     7
283
     0
 90
      512
 91
        0
  1

274
    -2
284
     1
 64
     0
275
    -2
285
     1
 65
     0
276
    -2
286
     1
 66
     0
277
    -2
287
     1
 67
     0
278
    -2
288
     1
 68
     0
279
    -2
289
     1
 69
     0
  7
Standard
140
0.18
170
     5
 62
     0
 63
     7
283
     0
 90
      512
 91
        0
  1

274
    -2
284
     1
 64
     0
275
    -2
285
     1
 65
     0
276
    -2
286
     1
 66
     0
277
    -2
287
     1
 67
     0
278
    -2
288
     1
 68
     0
279
    -2
289
     1
 69
     0
  0
VISUALSTYLE
  5
2F
102
{ACAD_REACTORS
330
29
102
}
330
29
100
AcDbVisualStyle
  2
2dWireframe
 70
     4
177
     3
291
     0
 70
    58
 90
        0
176
     1
 90
        2
176
     1
 90
        0
176
     1
 90
        0
176
     1
 40
0.6
176
     1
 40
30.0
176
     1
 62
     7
420
 16777215
176
     1
 90
        1
176
     1
 90
        4
176
     1
 62
     7
176
     1
 62
   257
176
     1
 90
        1
176
     1
 90
        1
176
     1
 40
1.0
176
     1
 90
        0
176
     1
 62
   257
176
     1
 40
1.0
176
     1
 90
        1
176
     1
 90
        6
176
     1
 90
        2
176
     1
 62
     7
176
     1
 90
        5
176
     1
 90
        0
176
     1
 90
        0
176
     1
290
     0
176
     1
 90
        1
176
     1
 40
0.0
176
     1
 90
        0
176
     1
290
     1
176
     1
290
     1
176
     1
290
     0
176
     1
290
     0
176
     1
290
     0
176
     1
290
     0
176
     1
290
     0
176
     1
290
     0
176
     1
290
     0
176
     1
 90
       50
176
     1
 40
0.0
176
     1
 40
1.0
176
     1
 90
        0
176
     1
 62
    18
420
        0
176
     1
 90
       50
176
     1
 90
        3
176
     1
 62
     5
420
      255
176
     1
290
     0
176
     1
 90
       50
176
     1
 90
       50
176
     1
 90
       50
176
     1
290
     0
176
     1
 90
       50
176
     1
 62
   256
176
     0
 40
1.0
176
     0
 90
        2
176
     1
  1
strokes_ogs.tif
176
     1
290
     0
176
     1
 40
1.0
176
     1
 40
1.0
176
     1
1001
ACAD
1000
AcDbSavedByObjectVersion
1070
     0
  0
VISUALSTYLE
  5
2E
102
{ACAD_REACTORS
330
29
102
}
330
29
100
AcDbVisualStyle
  2
Basic
 70
     7
177
     3
291
     1
 70
    58
 90
        1
176
     1
 90
        0
176
     1
 90
        1
176
     1
 90
        0
176
     1
 40
0.6
176
     1
 40
30.0
176
     1
 62
     7
420
 16777215
176
     1
 90
        0
176
     1
 90
        4
176
     1
 62
     7
176
     1
 62
   257
176
     1
 90
        1
176
     1
 90
        1
176
     1
 40
1.0
176
     1
 90
        8
176
     1
 62
     7
176
     1
 40
1.0
176
     1
 90
        1
176
     1
 90
        6
176
     1
 90
        2
176
     1
 62
     7
176
     1
 90
        5
176
     1
 90
        0
176
     1
 90
        0
176
     1
290
     0
176
     1
 90
        1
176
     1
 40
0.0
176
     1
 90
        0
176
     1
290
     0
176
     1
290
     1
176
     1
290
     1
176
     1
290
     0
176
     1
290
     0
176
     1
290
     0
176
     1
290
     0
176
     1
290
     0
176
     1
290
     0
176
     1
 90
       50
176
     1
 40
0.0
176
     1
 40
1.0
176
     1
 90
        0
176
     1
 62
    18
420
        0
176
     1
 90
       50
176
     1
 90
        3
176
     1
 62
     5
420
      255
176
     1
290
     0
176
     1
 90
       50
176
     1
 90
       50
176
     1
 90
       50
176
     1
290
     0
176
     1
 90
       50
176
     1
 62
   256
176
     0
 40
1.0
176
     0
 90
        2
176
     1
  1
strokes_ogs.tif
176
     1
290
     0
176
     1
 40
1.0
176
     1
 40
1.0
176
     1
1001
ACAD
1000
AcDbSavedByObjectVersion
1070
     0
  0
VISUALSTYLE
  5
35
102
{ACAD_REACTORS
330
29
102
}
330
29
100
AcDbVisualStyle
  2
Brighten
 70
    12
177
     3
291
     1
 70
    58
 90
        2
176
     1
 90
        2
176
     1
 90
        0
176
     1
 90
        0
176
     1
 40
0.6
176
     1
 40
30.0
176
     1
 62
     7
420
 16777215
176
     1
 90
        1
176
     1
 90
        4
176
     1
 62
     7
176
     1
 62
   257
176
     1
 90
        1
176
     1
 90
        1
176
     1
 40
1.0
176
     1
 90
        8
176
     1
 62
     7
176
     1
 40
1.0
176
     1
 90
        1
176
     1
 90
        6
176
     1
 90
        2
176
     1
 62
     7
176
     1
 90
        5
176
     1
 90
        0
176
     1
 90
        0
176
     1
290
     0
176
     1
 90
        1
176
     1
 40
50.0
176
     1
 90
        0
176
     1
290
     0
176
     1
290
     1
176
     1
290
     1
176
     1
290
     0
176
     1
290
     0
176
     1
290
     0
176
     1
290
     0
176
     1
290
     0
176
     1
290
     0
176
     1
 90
       50
176
     1
 40
0.0
176
     1
 40
1.0
176
     1
 90
        0
176
     1
 62
    18
420
        0
176
     1
 90
       50
176
     1
 90
        3
176
     1
 62
     5
420
      255
176
     1
290
     0
176
     1
 90
       50
176
     1
 90
       50
176
     1
 90
       50
176
     1
290
     0
176
     1
 90
       50
176
     1
 62
   256
176
     0
 40
1.0
176
     0
 90
        2
176
     1
  1
strokes_ogs.tif
176
     1
290
     0
176
     1
 40
1.0
176
     1
 40
1.0
176
     1
1001
ACAD
1000
AcDbSavedByObjectVersion
1070
     0
  0
VISUALSTYLE
  5
39
102
{ACAD_REACTORS
330
29
102
}
330
29
100
AcDbVisualStyle
  2
ColorChange
 70
    16
177
     3
291
     1
 70
    58
 90
        2
176
     1
 90
        2
176
     1
 90
        3
176
     1
 90
        0
176
     1
 40
0.6
176
     1
 40
30.0
176
     1
 62
     8
420
  8421504
176
     1
 90
        1
176
     1
 90
        4
176
     1
 62
     7
176
     1
 62
   257
176
     1
 90
        1
176
     1
 90
        1
176
     1
 40
1.0
176
     1
 90
        8
176
     1
 62
     8
420
  8421504
176
     1
 40
1.0
176
     1
 90
        1
176
     1
 90
        6
176
     1
 90
        2
176
     1
 62
     7
176
     1
 90
        5
176
     1
 90
        0
176
     1
 90
        0
176
     1
290
     0
176
     1
 90
        1
176
     1
 40
0.0
176
     1
 90
        0
176
     1
290
     0
176
     1
290
     1
176
     1
290
     1
176
     1
290
     0
176
     1
290
     0
176
     1
290
     0
176
     1
290
     0
176
     1
290
     0
176
     1
290
     0
176
     1
 90
       50
176
     1
 40
0.0
176
     1
 40
1.0
176
     1
 90
        0
176
     1
 62
    18
420
        0
176
     1
 90
       50
176
     1
 90
        3
176
     1
 62
     5
420
      255
176
     1
290
     0
176
     1
 90
       50
176
     1
 90
       50
176
     1
 90
       50
176
     1
290
     0
176
     1
 90
       50
176
     1
 62
   256
176
     0
 40
1.0
176
     0
 90
        2
176
     1
  1
strokes_ogs.tif
176
     1
290
     0
176
     1
 40
1.0
176
     1
 40
1.0
176
     1
1001
ACAD
1000
AcDbSavedByObjectVersion
1070
     0
  0
VISUALSTYLE
  5
32
102
{ACAD_REACTORS
330
29
102
}
330
29
100
AcDbVisualStyle
  2
Conceptual
 70
     9
177
     3
291
     0
 70
    58
 90
        3
176
     1
 90
        2
176
     1
 90
        0
176
     1
 90
        0
176
     1
 40
0.6
176
     1
 40
30.0
176
     1
 62
     7
420
 16777215
176
     1
 90
        2
176
     1
 90
        2
176
     1
 62
     7
176
     1
 62
   257
176
     1
 90
        1
176
     1
 90
        1
176
     1
 40
179.0
176
     1
 90
        8
176
     1
 62
     7
176
     1
 40
1.0
176
     1
 90
        1
176
     1
 90
        6
176
     1
 90
        2
176
     1
 62
     7
176
     1
 90
        3
176
     1
 90
        0
176
     1
 90
        0
176
     1
290
     0
176
     1
 90
        1
176
     1
 40
0.0
176
     1
 90
        0
176
     1
290
     0
176
     1
290
     1
176
     1
290
     1
176
     1
290
     0
176
     1
290
     0
176
     1
290
     0
176
     1
290
     0
176
     1
290
     0
176
     1
290
     0
176
     1
 90
       50
176
     1
 40
0.0
176
     1
 40
1.0
176
     1
 90
        0
176
     1
 62
    18
420
        0
176
     1
 90
       50
176
     1
 90
        3
176
     1
 62
     5
420
      255
176
     1
290
     0
176
     1
 90
       50
176
     1
 90
       50
176
     1
 90
       50
176
     1
290
     0
176
     1
 90
       50
176
     1
 62
   256
176
     0
 40
1.0
176
     0
 90
        2
176
     1
  1
strokes_ogs.tif
176
     1
290
     0
176
     1
 40
1.0
176
     1
 40
1.0
176
     1
1001
ACAD
1000
AcDbSavedByObjectVersion
1070
     0
  0
VISUALSTYLE
  5
34
102
{ACAD_REACTORS
330
29
102
}
330
29
100
AcDbVisualStyle
  2
Dim
 70
    11
177
     3
291
     1
 70
    58
 90
        2
176
     1
 90
        2
176
     1
 90
        0
176
     1
 90
        0
176
     1
 40
0.6
176
     1
 40
30.0
176
     1
 62
     7
420
 16777215
176
     1
 90
        1
176
     1
 90
        4
176
     1
 62
     7
176
     1
 62
   257
176
     1
 90
        1
176
     1
 90
        1
176
     1
 40
1.0
176
     1
 90
        8
176
     1
 62
     7
176
     1
 40
1.0
176
     1
 90
        1
176
     1
 90
        6
176
     1
 90
        2
176
     1
 62
     7
176
     1
 90
        5
176
     1
 90
        0
176
     1
 90
        0
176
     1
290
     0
176
     1
 90
        1
176
     1
 40
-50.0
176
     1
 90
        0
176
     1
290
     0
176
     1
290
     1
176
     1
290
     1
176
     1
290
     0
176
     1
290
     0
176
     1
290
     0
176
     1
290
     0
176
     1
290
     0
176
     1
290
     0
176
     1
 90
       50
176
     1
 40
0.0
176
     1
 40
1.0
176
     1
 90
        0
176
     1
 62
    18
420
        0
176
     1
 90
       50
176
     1
 90
        3
176
     1
 62
     5
420
      255
176
     1
290
     0
176
     1
 90
       50
176
     1
 90
       50
176
     1
 90
       50
176
     1
290
     0
176
     1
 90
       50
176
     1
 62
   256
176
     0
 40
1.0
176
     0
 90
        2
176
     1
  1
strokes_ogs.tif
176
     1
290
     0
176
     1
 40
1.0
176
     1
 40
1.0
176
     1
1001
ACAD
1000
AcDbSavedByObjectVersion
1070
     0
  0
VISUALSTYLE
  5
41
102
{ACAD_REACTORS
330
29
102
}
330
29
100
AcDbVisualStyle
  2
EdgeColorOff
 70
    22
177
     3
291
     1
 70
    58
 90
        2
176
     0
 90
        2
176
     0
 90
        0
176
     0
 90
        0
176
     0
 40
0.6
176
     0
 40
30.0
176
     0
 62
     7
420
 16777215
176
     0
 90
        1
176
     0
 90
        4
176
     0
 62
     7
176
     0
 62
   257
176
     0
 90
        1
176
     0
 90
        1
176
     0
 40
1.0
176
     0
 90
        8
176
     2
 62
     7
176
     0
 40
1.0
176
     0
 90
        1
176
     0
 90
        6
176
     0
 90
        2
176
     0
 62
     7
176
     0
 90
        5
176
     0
 90
        0
176
     0
 90
        0
176
     0
290
     0
176
     0
 90
        1
176
     0
 40
0.0
176
     0
 90
        0
176
     0
290
     0
176
     0
290
     1
176
     0
290
     1
176
     0
290
     0
176
     0
290
     0
176
     0
290
     0
176
     0
290
     0
176
     0
290
     0
176
     0
290
     0
176
     0
 90
       50
176
     0
 40
0.0
176
     0
 40
1.0
176
     0
 90
        0
176
     0
 62
    18
420
        0
176
     0
 90
       50
176
     0
 90
        3
176
     0
 62
     5
420
      255
176
     0
290
     0
176
     0
 90
       50
176
     0
 90
       50
176
     0
 90
       50
176
     0
290
     0
176
     0
 90
       50
176
     0
 62
   256
176
     0
 40
1.0
176
     0
 90
        2
176
     0
  1
strokes_ogs.tif
176
     0
290
     0
176
     0
 40
1.0
176
     0
 40
1.0
176
     0
1001
ACAD
1000
AcDbSavedByObjectVersion
1070
     0
  0
VISUALSTYLE
  5
38
102
{ACAD_REACTORS
330
29
102
}
330
29
100
AcDbVisualStyle
  2
Facepattern
 70
    15
177
     3
291
     1
 70
    58
 90
        2
176
     1
 90
        2
176
     1
 90
        0
176
     1
 90
        0
176
     1
 40
0.6
176
     1
 40
30.0
176
     1
 62
     7
420
 16777215
176
     1
 90
        1
176
     1
 90
        4
176
     1
 62
     7
176
     1
 62
   257
176
     1
 90
        1
176
     1
 90
        1
176
     1
 40
1.0
176
     1
 90
        8
176
     1
 62
     7
176
     1
 40
1.0
176
     1
 90
        1
176
     1
 90
        6
176
     1
 90
        2
176
     1
 62
     7
176
     1
 90
        5
176
     1
 90
        0
176
     1
 90
        0
176
     1
290
     0
176
     1
 90
        1
176
     1
 40
0.0
176
     1
 90
        0
176
     1
290
     0
176
     1
290
     1
176
     1
290
     1
176
     1
290
     0
176
     1
290
     0
176
     1
290
     0
176
     1
290
     0
176
     1
290
     0
176
     1
290
     0
176
     1
 90
       50
176
     1
 40
0.0
176
     1
 40
1.0
176
     1
 90
        0
176
     1
 62
    18
420
        0
176
     1
 90
       50
176
     1
 90
        3
176
     1
 62
     5
420
      255
176
     1
290
     0
176
     1
 90
       50
176
     1
 90
       50
176
     1
 90
       50
176
     1
290
     0
176
     1
 90
       50
176
     1
 62
   256
176
     0
 40
1.0
176
     0
 90
        2
176
     1
  1
strokes_ogs.tif
176
     1
290
     0
176
     1
 40
1.0
176
     1
 40
1.0
176
     1
1001
ACAD
1000
AcDbSavedByObjectVersion
1070
     0
  0
VISUALSTYLE
  5
2A
102
{ACAD_REACTORS
330
29
102
}
330
29
100
AcDbVisualStyle
  2
Flat
 70
     0
177
     3
291
     1
 70
    58
 90
        2
176
     1
 90
        1
176
     1
 90
        1
176
     1
 90
        2
176
     1
 40
0.6
176
     1
 40
30.0
176
     1
 62
     7
420
 16777215
176
     1
 90
        0
176
     1
 90
        0
176
     1
 62
     7
176
     1
 62
   257
176
     1
 90
        1
176
     1
 90
        1
176
     1
 40
1.0
176
     1
 90
        8
176
     1
 62
     7
176
     1
 40
1.0
176
     1
 90
        1
176
     1
 90
        6
176
     1
 90
        2
176
     1
 62
     7
176
     1
 90
        5
176
     1
 90
        0
176
     1
 90
        0
176
     1
290
     0
176
     1
 90
       13
176
     1
 40
0.0
176
     1
 90
        0
176
     1
290
     0
176
     1
290
     1
176
     1
290
     1
176
     1
290
     0
176
     1
290
     0
176
     1
290
     0
176
     1
290
     0
176
     1
290
     0
176
     1
290
     0
176
     1
 90
       50
176
     1
 40
0.0
176
     1
 40
1.0
176
     1
 90
        0
176
     1
 62
    18
420
        0
176
     1
 90
       50
176
     1
 90
        3
176
     1
 62
     5
420
      255
176
     1
290
     0
176
     1
 90
       50
176
     1
 90
       50
176
     1
 90
       50
176
     1
290
     0
176
     1
 90
       50
176
     1
 62
   256
176
     0
 40
1.0
176
     0
 90
        2
176
     1
  1
strokes_ogs.tif
176
     1
290
     0
176
     1
 40
1.0
176
     1
 40
1.0
176
     1
1001
ACAD
1000
AcDbSavedByObjectVersion
1070
     0
  0
VISUALSTYLE
  5
2B
102
{ACAD_REACTORS
330
29
102
}
330
29
100
AcDbVisualStyle
  2
FlatWithEdges
 70
     1
177
     3
291
     1
 70
    58
 90
        2
176
     1
 90
        1
176
     1
 90
        1
176
     1
 90
        2
176
     1
 40
0.6
176
     1
 40
30.0
176
     1
 62
     7
420
 16777215
176
     1
 90
        1
176
     1
 90
        0
176
     1
 62
     7
176
     1
 62
   257
176
     1
 90
        1
176
     1
 90
        1
176
     1
 40
1.0
176
     1
 90
        0
176
     1
 62
   257
176
     1
 40
1.0
176
     1
 90
        1
176
     1
 90
        6
176
     1
 90
        2
176
     1
 62
     7
176
     1
 90
        5
176
     1
 90
        0
176
     1
 90
        0
176
     1
290
     0
176
     1
 90
       13
176
     1
 40
0.0
176
     1
 90
        0
176
     1
290
     0
176
     1
290
     1
176
     1
290
     1
176
     1
290
     0
176
     1
290
     0
176
     1
290
     0
176
     1
290
     0
176
     1
290
     0
176
     1
290
     0
176
     1
 90
       50
176
     1
 40
0.0
176
     1
 40
1.0
176
     1
 90
        0
176
     1
 62
    18
420
        0
176
     1
 90
       50
176
     1
 90
        3
176
     1
 62
     5
420
      255
176
     1
290
     0
176
     1
 90
       50
176
     1
 90
       50
176
     1
 90
       50
176
     1
290
     0
176
     1
 90
       50
176
     1
 62
   256
176
     0
 40
1.0
176
     0
 90
        2
176
     1
  1
strokes_ogs.tif
176
     1
290
     0
176
     1
 40
1.0
176
     1
 40
1.0
176
     1
1001
ACAD
1000
AcDbSavedByObjectVersion
1070
     0
  0
VISUALSTYLE
  5
2C
102
{ACAD_REACTORS
330
29
102
}
330
29
100
AcDbVisualStyle
  2
Gouraud
 70
     2
177
     3
291
     1
 70
    58
 90
        2
176
     1
 90
        2
176
     1
 90
        1
176
     1
 90
        2
176
     1
 40
0.6
176
     1
 40
30.0
176
     1
 62
     7
420
 16777215
176
     1
 90
        0
176
     1
 90
        0
176
     1
 62
     7
176
     1
 62
   257
176
     1
 90
        1
176
     1
 90
        1
176
     1
 40
1.0
176
     1
 90
        0
176
     1
 62
     7
176
     1
 40
1.0
176
     1
 90
        1
176
     1
 90
        6
176
     1
 90
        2
176
     1
 62
     7
176
     1
 90
        5
176
     1
 90
        0
176
     1
 90
        0
176
     1
290
     0
176
     1
 90
       13
176
     1
 40
0.0
176
     1
 90
        0
176
     1
290
     0
176
     1
290
     1
176
     1
290
     1
176
     1
290
     0
176
     1
290
     0
176
     1
290
     0
176
     1
290
     0
176
     1
290
     0
176
     1
290
     0
176
     1
 90
       50
176
     1
 40
0.0
176
     1
 40
1.0
176
     1
 90
        0
176
     1
 62
    18
420
        0
176
     1
 90
       50
176
     1
 90
        3
176
     1
 62
     5
420
      255
176
     1
290
     0
176
     1
 90
       50
176
     1
 90
       50
176
     1
 90
       50
176
     1
290
     0
176
     1
 90
       50
176
     1
 62
   256
176
     0
 40
1.0
176
     0
 90
        2
176
     1
  1
strokes_ogs.tif
176
     1
290
     0
176
     1
 40
1.0
176
     1
 40
1.0
176
     1
1001
ACAD
1000
AcDbSavedByObjectVersion
1070
     0
  0
VISUALSTYLE
  5
2D
102
{ACAD_REACTORS
330
29
102
}
330
29
100
AcDbVisualStyle
  2
GouraudWithEdges
 70
     3
177
     3
291
     1
 70
    58
 90
        2
176
     1
 90
        2
176
     1
 90
        1
176
     1
 90
        2
176
     1
 40
0.6
176
     1
 40
30.0
176
     1
 62
     7
420
 16777215
176
     1
 90
        1
176
     1
 90
        0
176
     1
 62
     7
176
     1
 62
   257
176
     1
 90
        1
176
     1
 90
        1
176
     1
 40
1.0
176
     1
 90
        0
176
     1
 62
   257
176
     1
 40
1.0
176
     1
 90
        1
176
     1
 90
        6
176
     1
 90
        2
176
     1
 62
     7
176
     1
 90
        5
176
     1
 90
        0
176
     1
 90
        0
176
     1
290
     0
176
     1
 90
       13
176
     1
 40
0.0
176
     1
 90
        0
176
     1
290
     0
176
     1
290
     1
176
     1
290
     1
176
     1
290
     0
176
     1
290
     0
176
     1
290
     0
176
     1
290
     0
176
     1
290
     0
176
     1
290
     0
176
     1
 90
       50
176
     1
 40
0.0
176
     1
 40
1.0
176
     1
 90
        0
176
     1
 62
    18
420
        0
176
     1
 90
       50
176
     1
 90
        3
176
     1
 62
     5
420
      255
176
     1
290
     0
176
     1
 90
       50
176
     1
 90
       50
176
     1
 90
       50
176
     1
290
     0
176
     1
 90
       50
176
     1
 62
   256
176
     0
 40
1.0
176
     0
 90
        2
176
     1
  1
strokes_ogs.tif
176
     1
290
     0
176
     1
 40
1.0
176
     1
 40
1.0
176
     1
1001
ACAD
1000
AcDbSavedByObjectVersion
1070
     0
  0
VISUALSTYLE
  5
31
102
{ACAD_REACTORS
330
29
102
}
330
29
100
AcDbVisualStyle
  2
Hidden
 70
     6
177
     3
291
     0
 70
    58
 90
        1
176
     1
 90
        2
176
     1
 90
        2
176
     1
 90
        0
176
     1
 40
0.6
176
     1
 40
30.0
176
     1
 62
     7
420
 16777215
176
     1
 90
        2
176
     1
 90
        2
176
     1
 62
     7
176
     1
 62
   257
176
     1
 90
        2
176
     1
 90
        1
176
     1
 40
40.0
176
     1
 90
        0
176
     1
 62
   257
176
     1
 40
1.0
176
     1
 90
        1
176
     1
 90
        6
176
     1
 90
        2
176
     1
 62
     7
176
     1
 90
        3
176
     1
 90
        0
176
     1
 90
        0
176
     1
290
     0
176
     1
 90
        1
176
     1
 40
0.0
176
     1
 90
        0
176
     1
290
     0
176
     1
290
     1
176
     1
290
     1
176
     1
290
     0
176
     1
290
     0
176
     1
290
     0
176
     1
290
     0
176
     1
290
     0
176
     1
290
     0
176
     1
 90
       50
176
     1
 40
0.0
176
     1
 40
1.0
176
     1
 90
        0
176
     1
 62
    18
420
        0
176
     1
 90
       50
176
     1
 90
        3
176
     1
 62
     5
420
      255
176
     1
290
     0
176
     1
 90
       50
176
     1
 90
       50
176
     1
 90
       50
176
     1
290
     0
176
     1
 90
       50
176
     1
 62
   256
176
     0
 40
1.0
176
     0
 90
        2
176
     1
  1
strokes_ogs.tif
176
     1
290
     0
176
     1
 40
1.0
176
     1
 40
1.0
176
     1
1001
ACAD
1000
AcDbSavedByObjectVersion
1070
     0
  0
VISUALSTYLE
  5
3F
102
{ACAD_REACTORS
330
29
102
}
330
29
100
AcDbVisualStyle
  2
JitterOff
 70
    20
177
     3
291
     1
 70
    58
 90
        2
176
     0
 90
        2
176
     0
 90
        0
176
     0
 90
        0
176
     0
 40
0.6
176
     0
 40
30.0
176
     0
 62
     7
420
 16777215
176
     0
 90
        1
176
     0
 90
        4
176
     0
 62
     7
176
     0
 62
   257
176
     0
 90
        1
176
     0
 90
        1
176
     0
 40
1.0
176
     0
 90
       10
176
     2
 62
     7
176
     0
 40
1.0
176
     0
 90
        1
176
     0
 90
        6
176
     0
 90
        2
176
     0
 62
     7
176
     0
 90
        5
176
     0
 90
        0
176
     0
 90
        0
176
     0
290
     0
176
     0
 90
        1
176
     0
 40
0.0
176
     0
 90
        0
176
     0
290
     0
176
     0
290
     1
176
     0
290
     1
176
     0
290
     0
176
     0
290
     0
176
     0
290
     0
176
     0
290
     0
176
     0
290
     0
176
     0
290
     0
176
     0
 90
       50
176
     0
 40
0.0
176
     0
 40
1.0
176
     0
 90
        0
176
     0
 62
    18
420
        0
176
     0
 90
       50
176
     0
 90
        3
176
     0
 62
     5
420
      255
176
     0
290
     0
176
     0
 90
       50
176
     0
 90
       50
176
     0
 90
       50
176
     0
290
     0
176
     0
 90
       50
176
     0
 62
   256
176
     0
 40
1.0
176
     0
 90
        2
176
     0
  1
strokes_ogs.tif
176
     0
290
     0
176
     0
 40
1.0
176
     0
 40
1.0
176
     0
1001
ACAD
1000
AcDbSavedByObjectVersion
1070
     0
  0
VISUALSTYLE
  5
37
102
{ACAD_REACTORS
330
29
102
}
330
29
100
AcDbVisualStyle
  2
Linepattern
 70
    14
177
     3
291
     1
 70
    58
 90
        2
176
     1
 90
        2
176
     1
 90
        0
176
     1
 90
        0
176
     1
 40
0.6
176
     1
 40
30.0
176
     1
 62
     7
420
 16777215
176
     1
 90
        1
176
     1
 90
        4
176
     1
 62
     7
176
     1
 62
   257
176
     1
 90
        7
176
     1
 90
        7
176
     1
 40
1.0
176
     1
 90
        8
176
     1
 62
     7
176
     1
 40
1.0
176
     1
 90
        1
176
     1
 90
        6
176
     1
 90
        2
176
     1
 62
     7
176
     1
 90
        5
176
     1
 90
        0
176
     1
 90
        0
176
     1
290
     0
176
     1
 90
        1
176
     1
 40
0.0
176
     1
 90
        0
176
     1
290
     0
176
     1
290
     1
176
     1
290
     1
176
     1
290
     0
176
     1
290
     0
176
     1
290
     0
176
     1
290
     0
176
     1
290
     0
176
     1
290
     0
176
     1
 90
       50
176
     1
 40
0.0
176
     1
 40
1.0
176
     1
 90
        0
176
     1
 62
    18
420
        0
176
     1
 90
       50
176
     1
 90
        3
176
     1
 62
     5
420
      255
176
     1
290
     0
176
     1
 90
       50
176
     1
 90
       50
176
     1
 90
       50
176
     1
290
     0
176
     1
 90
       50
176
     1
 62
   256
176
     0
 40
1.0
176
     0
 90
        2
176
     1
  1
strokes_ogs.tif
176
     1
290
     0
176
     1
 40
1.0
176
     1
 40
1.0
176
     1
1001
ACAD
1000
AcDbSavedByObjectVersion
1070
     0
  0
VISUALSTYLE
  5
40
102
{ACAD_REACTORS
330
29
102
}
330
29
100
AcDbVisualStyle
  2
OverhangOff
 70
    21
177
     3
291
     1
 70
    58
 90
        2
176
     0
 90
        2
176
     0
 90
        0
176
     0
 90
        0
176
     0
 40
0.6
176
     0
 40
30.0
176
     0
 62
     7
420
 16777215
176
     0
 90
        1
176
     0
 90
        4
176
     0
 62
     7
176
     0
 62
   257
176
     0
 90
        1
176
     0
 90
        1
176
     0
 40
1.0
176
     0
 90
        9
176
     2
 62
     7
176
     0
 40
1.0
176
     0
 90
        1
176
     0
 90
        6
176
     0
 90
        2
176
     0
 62
     7
176
     0
 90
        5
176
     0
 90
        0
176
     0
 90
        0
176
     0
290
     0
176
     0
 90
        1
176
     0
 40
0.0
176
     0
 90
        0
176
     0
290
     0
176
     0
290
     1
176
     0
290
     1
176
     0
290
     0
176
     0
290
     0
176
     0
290
     0
176
     0
290
     0
176
     0
290
     0
176
     0
290
     0
176
     0
 90
       50
176
     0
 40
0.0
176
     0
 40
1.0
176
     0
 90
        0
176
     0
 62
    18
420
        0
176
     0
 90
       50
176
     0
 90
        3
176
     0
 62
     5
420
      255
176
     0
290
     0
176
     0
 90
       50
176
     0
 90
       50
176
     0
 90
       50
176
     0
290
     0
176
     0
 90
       50
176
     0
 62
   256
176
     0
 40
1.0
176
     0
 90
        2
176
     0
  1
strokes_ogs.tif
176
     0
290
     0
176
     0
 40
1.0
176
     0
 40
1.0
176
     0
1001
ACAD
1000
AcDbSavedByObjectVersion
1070
     0
  0
VISUALSTYLE
  5
33
102
{ACAD_REACTORS
330
29
102
}
330
29
100
AcDbVisualStyle
  2
Realistic
 70
     8
177
     3
291
     0
 70
    58
 90
        2
176
     1
 90
        3
176
     1
 90
        0
176
     1
 90
        2
176
     1
 40
0.6
176
     1
 40
30.0
176
     1
 62
     7
420
 16777215
176
     1
 90
        0
176
     1
 90
        0
176
     1
 62
     7
176
     1
 62
   257
176
     1
 90
        1
176
     1
 90
        1
176
     1
 40
1.0
176
     1
 90
        8
176
     1
 62
   257
176
     1
 40
1.0
176
     1
 90
        1
176
     1
 90
        6
176
     1
 90
        2
176
     1
 62
     7
176
     1
 90
        3
176
     1
 90
        0
176
     1
 90
        0
176
     1
290
     0
176
     1
 90
       13
176
     1
 40
0.0
176
     1
 90
        0
176
     1
290
     0
176
     1
290
     1
176
     1
290
     1
176
     1
290
     0
176
     1
290
     0
176
     1
290
     0
176
     1
290
     0
176
     1
290
     0
176
     1
290
     0
176
     1
 90
       50
176
     1
 40
0.0
176
     1
 40
1.0
176
     1
 90
        0
176
     1
 62
    18
420
        0
176
     1
 90
       50
176
     1
 90
        3
176
     1
 62
     5
420
      255
176
     1
290
     0
176
     1
 90
       50
176
     1
 90
       50
176
     1
 90
       50
176
     1
290
     0
176
     1
 90
       50
176
     1
 62
   256
176
     0
 40
1.0
176
     0
 90
        2
176
     1
  1
strokes_ogs.tif
176
     1
290
     0
176
     1
 40
1.0
176
     1
 40
1.0
176
     1
1001
ACAD
1000
AcDbSavedByObjectVersion
1070
     0
  0
VISUALSTYLE
  5
3E
102
{ACAD_REACTORS
330
29
102
}
330
29
100
AcDbVisualStyle
  2
Shaded
 70
    27
177
     3
291
     0
 70
    58
 90
        2
176
     1
 90
        2
176
     1
 90
        1
176
     1
 90
        2
176
     1
 40
0.6
176
     1
 40
30.0
176
     1
 62
     7
420
 16777215
176
     1
 90
        0
176
     1
 90
        4
176
     1
 62
     7
176
     1
 62
   257
176
     1
 90
        1
176
     1
 90
        1
176
     1
 40
1.0
176
     1
 90
        8
176
     1
 62
   257
176
     1
 40
1.0
176
     1
 90
        1
176
     1
 90
        6
176
     1
 90
        2
176
     1
 62
     8
420
  7895160
176
     1
 90
        3
176
     1
 90
        0
176
     1
 90
        0
176
     1
290
     0
176
     1
 90
        5
176
     1
 40
0.0
176
     1
 90
        0
176
     1
290
     0
176
     1
290
     1
176
     1
290
     1
176
     1
290
     0
176
     1
290
     0
176
     1
290
     0
176
     1
290
     0
176
     1
290
     0
176
     1
290
     0
176
     1
 90
       50
176
     1
 40
0.0
176
     1
 40
1.0
176
     1
 90
        0
176
     1
 62
    18
420
        0
176
     1
 90
       50
176
     1
 90
        3
176
     1
 62
     5
420
      255
176
     1
290
     0
176
     1
 90
       50
176
     1
 90
       50
176
     1
 90
       50
176
     1
290
     0
176
     1
 90
       50
176
     1
 62
   256
176
     0
 40
1.0
176
     0
 90
        2
176
     1
  1
strokes_ogs.tif
176
     1
290
     0
176
     1
 40
1.0
176
     1
 40
1.0
176
     1
1001
ACAD
1000
AcDbSavedByObjectVersion
1070
     0
  0
VISUALSTYLE
  5
3D
102
{ACAD_REACTORS
330
29
102
}
330
29
100
AcDbVisualStyle
  2
Shaded with edges
 70
    26
177
     3
291
     0
 70
    58
 90
        2
176
     1
 90
        2
176
     1
 90
        1
176
     1
 90
        2
176
     1
 40
0.6
176
     1
 40
30.0
176
     1
 62
     7
420
 16777215
176
     1
 90
        1
176
     1
 90
        2
176
     1
 62
     7
176
     1
 62
   257
176
     1
 90
        2
176
     1
 90
        1
176
     1
 40
1.0
176
     1
 90
        8
176
     1
 62
   257
176
     1
 40
1.0
176
     1
 90
        1
176
     1
 90
        6
176
     1
 90
        2
176
     1
 62
     7
176
     1
 90
        3
176
     1
 90
        0
176
     1
 90
        0
176
     1
290
     0
176
     1
 90
        5
176
     1
 40
0.0
176
     1
 90
        0
176
     1
290
     0
176
     1
290
     1
176
     1
290
     1
176
     1
290
     0
176
     1
290
     0
176
     1
290
     0
176
     1
290
     0
176
     1
290
     0
176
     1
290
     0
176
     1
 90
       50
176
     1
 40
0.0
176
     1
 40
1.0
176
     1
 90
        0
176
     1
 62
    18
420
        0
176
     1
 90
       50
176
     1
 90
        3
176
     1
 62
     5
420
      255
176
     1
290
     0
176
     1
 90
       50
176
     1
 90
       50
176
     1
 90
       50
176
     1
290
     0
176
     1
 90
       50
176
     1
 62
   256
176
     0
 40
1.0
176
     0
 90
        2
176
     1
  1
strokes_ogs.tif
176
     1
290
     0
176
     1
 40
1.0
176
     1
 40
1.0
176
     1
1001
ACAD
1000
AcDbSavedByObjectVersion
1070
     0
  0
VISUALSTYLE
  5
3A
102
{ACAD_REACTORS
330
29
102
}
330
29
100
AcDbVisualStyle
  2
Shades of Gray
 70
    23
177
     3
291
     0
 70
    58
 90
        2
176
     1
 90
        2
176
     1
 90
        3
176
     1
 90
        0
176
     1
 40
0.6
176
     1
 40
30.0
176
     1
 62
     7
420
 16777215
176
     1
 90
        2
176
     1
 90
        2
176
     1
 62
     7
176
     1
 62
     7
176
     1
 90
        1
176
     1
 90
        1
176
     1
 40
40.0
176
     1
 90
        8
176
     1
 62
     7
176
     1
 40
1.0
176
     1
 90
        1
176
     1
 90
        6
176
     1
 90
        2
176
     1
 62
     7
176
     1
 90
        3
176
     1
 90
        0
176
     1
 90
        0
176
     1
290
     0
176
     1
 90
        1
176
     1
 40
0.0
176
     1
 90
        0
176
     1
290
     0
176
     1
290
     1
176
     1
290
     1
176
     1
290
     0
176
     1
290
     0
176
     1
290
     0
176
     1
290
     0
176
     1
290
     0
176
     1
290
     0
176
     1
 90
       50
176
     1
 40
0.0
176
     1
 40
1.0
176
     1
 90
        0
176
     1
 62
    18
420
        0
176
     1
 90
       50
176
     1
 90
        3
176
     1
 62
     5
420
      255
176
     1
290
     0
176
     1
 90
       50
176
     1
 90
       50
176
     1
 90
       50
176
     1
290
     0
176
     1
 90
       50
176
     1
 62
   256
176
     0
 40
1.0
176
     0
 90
        2
176
     1
  1
strokes_ogs.tif
176
     1
290
     0
176
     1
 40
1.0
176
     1
 40
1.0
176
     1
1001
ACAD
1000
AcDbSavedByObjectVersion
1070
     0
  0
VISUALSTYLE
  5
3B
102
{ACAD_REACTORS
330
29
102
}
330
29
100
AcDbVisualStyle
  2
Sketchy
 70
    24
177
     3
291
     0
 70
    58
 90
        1
176
     1
 90
        2
176
     1
 90
        2
176
     1
 90
        0
176
     1
 40
0.6
176
     1
 40
30.0
176
     1
 62
     7
420
 16777215
176
     1
 90
        2
176
     1
 90
        2
176
     1
 62
     7
176
     1
 62
     7
176
     1
 90
        1
176
     1
 90
        1
176
     1
 40
40.0
176
     1
 90
       11
176
     1
 62
     7
176
     1
 40
1.0
176
     1
 90
        1
176
     1
 90
        6
176
     1
 90
        2
176
     1
 62
     7
176
     1
 90
        6
176
     1
 90
        0
176
     1
 90
        0
176
     1
290
     0
176
     1
 90
        1
176
     1
 40
0.0
176
     1
 90
        0
176
     1
290
     0
176
     1
290
     1
176
     1
290
     1
176
     1
290
     0
176
     1
290
     0
176
     1
290
     0
176
     1
290
     0
176
     1
290
     0
176
     1
290
     0
176
     1
 90
       50
176
     1
 40
0.0
176
     1
 40
1.0
176
     1
 90
        0
176
     1
 62
    18
420
        0
176
     1
 90
       50
176
     1
 90
        3
176
     1
 62
     5
420
      255
176
     1
290
     0
176
     1
 90
       50
176
     1
 90
       50
176
     1
 90
       50
176
     1
290
     0
176
     1
 90
       50
176
     1
 62
   256
176
     0
 40
1.0
176
     0
 90
        2
176
     1
  1
strokes_ogs.tif
176
     1
290
     0
176
     1
 40
1.0
176
     1
 40
1.0
176
     1
1001
ACAD
1000
AcDbSavedByObjectVersion
1070
     0
  0
VISUALSTYLE
  5
36
102
{ACAD_REACTORS
330
29
102
}
330
29
100
AcDbVisualStyle
  2
Thicken
 70
    13
177
     3
291
     1
 70
    58
 90
        2
176
     1
 90
        2
176
     1
 90
        0
176
     1
 90
        0
176
     1
 40
0.6
176
     1
 40
30.0
176
     1
 62
     7
420
 16777215
176
     1
 90
        1
176
     1
 90
        4
176
     1
 62
     7
176
     1
 62
   257
176
     1
 90
        1
176
     1
 90
        1
176
     1
 40
1.0
176
     1
 90
       12
176
     1
 62
     7
176
     1
 40
1.0
176
     1
 90
        1
176
     1
 90
        6
176
     1
 90
        2
176
     1
 62
     7
176
     1
 90
        5
176
     1
 90
        0
176
     1
 90
        0
176
     1
290
     0
176
     1
 90
        1
176
     1
 40
0.0
176
     1
 90
        0
176
     1
290
     0
176
     1
290
     1
176
     1
290
     1
176
     1
290
     0
176
     1
290
     0
176
     1
290
     0
176
     1
290
     0
176
     1
290
     0
176
     1
290
     0
176
     1
 90
       50
176
     1
 40
0.0
176
     1
 40
1.0
176
     1
 90
        0
176
     1
 62
    18
420
        0
176
     1
 90
       50
176
     1
 90
        3
176
     1
 62
     5
420
      255
176
     1
290
     0
176
     1
 90
       50
176
     1
 90
       50
176
     1
 90
       50
176
     1
290
     0
176
     1
 90
       50
176
     1
 62
   256
176
     0
 40
1.0
176
     0
 90
        2
176
     1
  1
strokes_ogs.tif
176
     1
290
     0
176
     1
 40
1.0
176
     1
 40
1.0
176
     1
1001
ACAD
1000
AcDbSavedByObjectVersion
1070
     0
  0
VISUALSTYLE
  5
30
102
{ACAD_REACTORS
330
29
102
}
330
29
100
AcDbVisualStyle
  2
Wireframe
 70
     5
177
     3
291
     0
 70
    58
 90
        0
176
     1
 90
        2
176
     1
 90
        0
176
     1
 90
        0
176
     1
 40
0.6
176
     1
 40
30.0
176
     1
 62
     7
420
 16777215
176
     1
 90
        1
176
     1
 90
        4
176
     1
 62
     7
176
     1
 62
   257
176
     1
 90
        1
176
     1
 90
        1
176
     1
 40
1.0
176
     1
 90
        0
176
     1
 62
   257
176
     1
 40
1.0
176
     1
 90
        1
176
     1
 90
        6
176
     1
 90
        2
176
     1
 62
     7
176
     1
 90
        3
176
     1
 90
        0
176
     1
 90
        0
176
     1
290
     0
176
     1
 90
        1
176
     1
 40
0.0
176
     1
 90
        0
176
     1
290
     0
176
     1
290
     1
176
     1
290
     1
176
     1
290
     0
176
     1
290
     0
176
     1
290
     0
176
     1
290
     0
176
     1
290
     0
176
     1
290
     0
176
     1
 90
       50
176
     1
 40
0.0
176
     1
 40
1.0
176
     1
 90
        0
176
     1
 62
    18
420
        0
176
     1
 90
       50
176
     1
 90
        3
176
     1
 62
     5
420
      255
176
     1
290
     0
176
     1
 90
       50
176
     1
 90
       50
176
     1
 90
       50
176
     1
290
     0
176
     1
 90
       50
176
     1
 62
   256
176
     0
 40
1.0
176
     0
 90
        2
176
     1
  1
strokes_ogs.tif
176
     1
290
     0
176
     1
 40
1.0
176
     1
 40
1.0
176
     1
1001
ACAD
1000
AcDbSavedByObjectVersion
1070
     0
  0
VISUALSTYLE
  5
3C
102
{ACAD_REACTORS
330
29
102
}
330
29
100
AcDbVisualStyle
  2
X-Ray
 70
    25
177
     3
291
     0
 70
    58
 90
        2
176
     1
 90
        2
176
     1
 90
        1
176
     1
 90
        1
176
     1
 40
0.5
176
     1
 40
30.0
176
     1
 62
     7
420
 16777215
176
     1
 90
        1
176
     1
 90
        0
176
     1
 62
     7
176
     1
 62
   257
176
     1
 90
        1
176
     1
 90
        1
176
     1
 40
1.0
176
     1
 90
        8
176
     1
 62
     7
176
     1
 40
1.0
176
     1
 90
        1
176
     1
 90
        6
176
     1
 90
        2
176
     1
 62
     7
176
     1
 90
        3
176
     1
 90
        0
176
     1
 90
        0
176
     1
290
     0
176
     1
 90
       13
176
     1
 40
0.0
176
     1
 90
        0
176
     1
290
     0
176
     1
290
     1
176
     1
290
     1
176
     1
290
     0
176
     1
290
     0
176
     1
290
     0
176
     1
290
     0
176
     1
290
     0
176
     1
290
     0
176
     1
 90
       50
176
     1
 40
0.0
176
     1
 40
1.0
176
     1
 90
        0
176
     1
 62
    18
420
        0
176
     1
 90
       50
176
     1
 90
        3
176
     1
 62
     5
420
      255
176
     1
290
     0
176
     1
 90
       50
176
     1
 90
       50
176
     1
 90
       50
176
     1
290
     0
176
     1
 90
       50
176
     1
 62
   256
176
     0
 40
1.0
176
     0
 90
        2
176
     1
  1
strokes_ogs.tif
176
     1
290
     0
176
     1
 40
1.0
176
     1
 40
1.0
176
     1
1001
ACAD
1000
AcDbSavedByObjectVersion
1070
     0
  0
DICTIONARYVAR
  5
1EA
102
{ACAD_REACTORS
330
1E5
102
}
330
1E5
100
DictionaryVariables
280
     0
  1
1:1
  0
DICTIONARYVAR
  5
1E7
102
{ACAD_REACTORS
330
1E5
102
}
330
1E5
100
DictionaryVariables
280
     0
  1
STANDARD
  0
DICTIONARYVAR
  5
1E6
102
{ACAD_REACTORS
330
1E5
102
}
330
1E5
100
DictionaryVariables
280
     0
  1
STANDARD
  0
DICTIONARYVAR
  5
1E8
102
{ACAD_REACTORS
330
1E5
102
}
330
1E5
100
DictionaryVariables
280
     0
  1
Imperial24
  0
DICTIONARYVAR
  5
1E9
102
{ACAD_REACTORS
330
1E5
102
}
330
1E5
100
DictionaryVariables
280
     0
  1
Imperial24
  0
DICTIONARY
  5
1F0
330
6B
100
AcDbDictionary
280
     1
281
     1
  3
ACAD_XREC_ROUNDTRIP
360
1F1
  0
DICTIONARY
  5
1A
330
19
100
AcDbDictionary
280
     1
281
     1
  3
BUMPTILE
360
1C
  3
DIFFUSETILE
360
1B
  3
OPACITYTILE
360
1F
  3
REFLECTIONTILE
360
1E
  3
REFRACTIONTILE
360
20
  3
SPECULARTILE
360
1D
  0
DICTIONARY
  5
12
330
11
100
AcDbDictionary
280
     1
281
     1
  3
BUMPTILE
360
14
  3
DIFFUSETILE
360
13
  3
OPACITYTILE
360
17
  3
REFLECTIONTILE
360
16
  3
REFRACTIONTILE
360
18
  3
SPECULARTILE
360
15
  0
DICTIONARY
  5
22
330
21
100
AcDbDictionary
280
     1
281
     1
  3
BUMPTILE
360
24
  3
DIFFUSETILE
360
23
  3
OPACITYTILE
360
27
  3
REFLECTIONTILE
360
26
  3
REFRACTIONTILE
360
28
  3
SPECULARTILE
360
25
  0
DICTIONARY
  5
1EE
330
69
100
AcDbDictionary
280
     1
281
     1
  3
ACAD_XREC_ROUNDTRIP
360
1EF
  0
DICTIONARY
  5
1EB
330
65
100
AcDbDictionary
280
     1
281
     1
  3
ACAD_ROUNDTRIP_2008_TABLESTYLE_CELLSTYLEMAP
360
1EC
  0
XRECORD
  5
1F1
102
{ACAD_REACTORS
330
1F0
102
}
330
1F0
100
AcDbXrecord
280
     1
102
DISPLAYNAME
  1
Imperial24
102
FLAGS
 90
        0
  0
XRECORD
  5
1C
102
{ACAD_REACTORS
330
1A
102
}
330
1A
100
AcDbXrecord
280
     1
270
     1
271
     1
  0
XRECORD
  5
1B
102
{ACAD_REACTORS
330
1A
102
}
330
1A
100
AcDbXrecord
280
     1
270
     1
271
     1
  0
XRECORD
  5
1F
102
{ACAD_REACTORS
330
1A
102
}
330
1A
100
AcDbXrecord
280
     1
270
     1
271
     1
  0
XRECORD
  5
1E
102
{ACAD_REACTORS
330
1A
102
}
330
1A
100
AcDbXrecord
280
     1
270
     1
271
     1
  0
XRECORD
  5
20
102
{ACAD_REACTORS
330
1A
102
}
330
1A
100
AcDbXrecord
280
     1
270
     1
271
     1
  0
XRECORD
  5
1D
102
{ACAD_REACTORS
330
1A
102
}
330
1A
100
AcDbXrecord
280
     1
270
     1
271
     1
  0
XRECORD
  5
14
102
{ACAD_REACTORS
330
12
102
}
330
12
100
AcDbXrecord
280
     1
270
     1
271
     1
  0
XRECORD
  5
13
102
{ACAD_REACTORS
330
12
102
}
330
12
100
AcDbXrecord
280
     1
270
     1
271
     1
  0
XRECORD
  5
17
102
{ACAD_REACTORS
330
12
102
}
330
12
100
AcDbXrecord
280
     1
270
     1
271
     1
  0
XRECORD
  5
16
102
{ACAD_REACTORS
330
12
102
}
330
12
100
AcDbXrecord
280
     1
270
     1
271
     1
  0
XRECORD
  5
18
102
{ACAD_REACTORS
330
12
102
}
330
12
100
AcDbXrecord
280
     1
270
     1
271
     1
  0
XRECORD
  5
15
102
{ACAD_REACTORS
330
12
102
}
330
12
100
AcDbXrecord
280
     1
270
     1
271
     1
  0
XRECORD
  5
24
102
{ACAD_REACTORS
330
22
102
}
330
22
100
AcDbXrecord
280
     1
270
     1
271
     1
  0
XRECORD
  5
23
102
{ACAD_REACTORS
330
22
102
}
330
22
100
AcDbXrecord
280
     1
270
     1
271
     1
  0
XRECORD
  5
27
102
{ACAD_REACTORS
330
22
102
}
330
22
100
AcDbXrecord
280
     1
270
     1
271
     1
  0
XRECORD
  5
26
102
{ACAD_REACTORS
330
22
102
}
330
22
100
AcDbXrecord
280
     1
270
     1
271
     1
  0
XRECORD
  5
28
102
{ACAD_REACTORS
330
22
102
}
330
22
100
AcDbXrecord
280
     1
270
     1
271
     1
  0
XRECORD
  5
25
102
{ACAD_REACTORS
330
22
102
}
330
22
100
AcDbXrecord
280
     1
270
     1
271
     1
  0
XRECORD
  5
1EF
102
{ACAD_REACTORS
330
1EE
102
}
330
1EE
100
AcDbXrecord
280
     1
102
DISPLAYNAME
  1
Imperial24
102
FLAGS
 90
        0
  0
CELLSTYLEMAP
  5
1EC
102
{ACAD_REACTORS
330
1EB
102
}
330
1EB
100
AcDbCellStyleMap
 90
        3
300
CELLSTYLE
  1
TABLEFORMAT_BEGIN
 90
        5
170
     1
 91
        0
 92
    32768
 62
   257
 93
        1
300
CONTENTFORMAT
  1
CONTENTFORMAT_BEGIN
 90
        0
 91
        0
 92
      512
 93
        0
300

 40
0.0
140
1.0
 94
        5
 62
     0
340
55
144
0.25
309
CONTENTFORMAT_END
171
     0
 94
        0
309
TABLEFORMAT_END
  1
CELLSTYLE_BEGIN
 90
        1
 91
        1
300
_TITLE
309
CELLSTYLE_END
300
CELLSTYLE
  1
TABLEFORMAT_BEGIN
 90
        5
170
     1
 91
        0
 92
        0
 62
   257
 93
        1
300
CONTENTFORMAT
  1
CONTENTFORMAT_BEGIN
 90
        0
 91
        0
 92
      512
 93
        0
300

 40
0.0
140
1.0
 94
        5
 62
     0
340
55
144
0.18
309
CONTENTFORMAT_END
171
     0
 94
        0
309
TABLEFORMAT_END
  1
CELLSTYLE_BEGIN
 90
        2
 91
        1
300
_HEADER
309
CELLSTYLE_END
300
CELLSTYLE
  1
TABLEFORMAT_BEGIN
 90
        5
170
     1
 91
        0
 92
        0
 62
   257
 93
        1
300
CONTENTFORMAT
  1
CONTENTFORMAT_BEGIN
 90
        0
 91
        0
 92
      512
 93
        0
300

 40
0.0
140
1.0
 94
        2
 62
     0
340
55
144
0.18
309
CONTENTFORMAT_END
171
     0
 94
        0
309
TABLEFORMAT_END
  1
CELLSTYLE_BEGIN
 90
        3
 91
        2
300
_DATA
309
CELLSTYLE_END
  0
ENDSEC
  0
EOF
