0
SECTION
2
HEADER
9
$INSUNITS
70
1
9
$ACADVER
1
AC1014
9
$HANDSEED
5
FFFF
0
ENDSEC
0
SECTION
2
TABLES
0
TABLE
2
VPORT
5
8
100
AcDbSymbolTable
0
ENDTAB
0
TABLE
2
LTYPE
5
5
100
AcDbSymbolTable
0
LTYPE
5
14
100
AcDbSymbolTableRecord
100
AcDbLinetypeTableRecord
2
BYBLOCK
70
0
0
LTYPE
5
15
100
AcDbSymbolTableRecord
100
AcDbLinetypeTableRecord
2
BYLAYER
70
0
0
ENDTAB
0
TABLE
2
LAYER
5
2
100
AcDbSymbolTable
70
2
0
LAYER
5
50
100
AcDbSymbolTableRecord
100
AcDbLayerTableRecord
2
0
70
0
6
CONTINUOUS
0
ENDTAB
0
TABLE
2
STYLE
5
3
100
AcDbSymbolTable
70
1
0
STYLE
5
11
100
AcDbSymbolTableRecord
100
AcDbTextStyleTableRecord
2
STANDARD
70
0
0
ENDTAB
0
TABLE
2
VIEW
5
6
100
AcDbSymbolTable
70
0
0
ENDTAB
0
TABLE
2
UCS
5
7
100
AcDbSymbolTable
70
0
0
ENDTAB
0
TABLE
2
APPID
5
9
100
AcDbSymbolTable
70
2
0
APPID
5
12
100
AcDbSymbolTableRecord
100
AcDbRegAppTableRecord
2
ACAD
70
0
0
ENDTAB
0
TABLE
2
DIMSTYLE
5
A
100
AcDbSymbolTable
70
1
0
ENDTAB
0
TABLE
2
BLOCK_RECORD
5
1
100
AcDbSymbolTable
70
1
0
BLOCK_RECORD
5
1F
100
AcDbSymbolTableRecord
100
AcDbBlockTableRecord
2
*MODEL_SPACE
0
BLOCK_RECORD
5
1B
100
AcDbSymbolTableRecord
100
AcDbBlockTableRecord
2
*PAPER_SPACE
0
ENDTAB
0
ENDSEC
0
SECTION
2
BLOCKS
0
BLOCK
5
20
100
AcDbEntity
100
AcDbBlockBegin
2
*MODEL_SPACE
0
ENDBLK
5
21
100
AcDbEntity
100
AcDbBlockEnd
0
BLOCK
5
1C
100
AcDbEntity
100
AcDbBlockBegin
2
*PAPER_SPACE
0
ENDBLK
5
1D
100
AcDbEntity
100
AcDbBlockEnd
0
ENDSEC
0
SECTION
2
ENTITIES
0
LWPOLYLINE
5
100
100
AcDbEntity
8
0
100
AcDbPolyline
90
360
70
1
43
0.0
10
2.4347019999999997
20
1.3819009999999998
10
2.4420980000000001
20
1.4391639999999999
10
2.4486400000000001
20
1.496548
10
2.4542820000000001
20
1.5540389999999999
10
2.4589810000000001
20
1.611618
10
2.462691
20
1.6692639999999996
10
2.4653719999999995
20
1.7269539999999999
10
2.4669819999999993
20
1.7846609999999998
10
2.4674809999999998
20
1.842354
10
2.4668330000000003
20
1.9000029999999997
10
2.4650019999999997
20
1.9575709999999999
10
2.4619550000000001
20
2.015021
10
2.457662
20
2.0723149999999997
10
2.4520939999999998
20
2.12941
10
2.4452250000000002
20
2.186264
10
2.4370339999999997
20
2.2428340000000002
10
2.4274990000000001
20
2.2990740000000001
10
2.416604
20
2.3549389999999999
10
2.4043329999999998
20
2.4103849999999993
10
2.3906749999999999
20
2.4653650000000003
10
2.3756209999999998
20
2.5198339999999995
10
2.3591639999999998
20
2.5737480000000001
10
2.3412980000000001
20
2.6270639999999998
10
2.3220230000000002
20
2.6797409999999999
10
2.3013379999999999
20
2.7317360000000002
10
2.2792439999999994
20
2.7830119999999998
10
2.2557439999999995
20
2.8335300000000001
10
2.2308430000000001
20
2.883257
10
2.2045470000000003
20
2.9321580000000003
10
2.1768619999999999
20
2.9802029999999999
10
2.147796
20
3.0273609999999995
10
2.1173549999999999
20
3.0736060000000003
10
2.0855490000000003
20
3.118913
10
2.052384
20
3.1632569999999993
10
2.0178700000000003
20
3.2066169999999992
10
1.9820149999999999
20
3.2489710000000001
10
1.9448270000000001
20
3.2903019999999996
10
1.9063130000000001
20
3.3305910000000005
10
1.8664829999999999
20
3.3698199999999994
10
1.8253429999999999
20
3.4079749999999995
10
1.7829029999999997
20
3.4450389999999995
10
1.739171
20
3.4809989999999993
10
1.6941560000000002
20
3.5158389999999997
10
1.6478669999999995
20
3.5495459999999999
10
1.6003149999999999
20
3.5821059999999991
10
1.5515119999999998
20
3.6135080000000004
10
1.5014689999999999
20
3.6437379999999999
10
1.4502019999999998
20
3.6727839999999992
10
1.3977249999999999
20
3.7006349999999992
10
1.3440570000000001
20
3.7272809999999992
10
1.289215
20
3.7527109999999997
10
1.233223
20
3.7769169999999996
10
1.176105
20
3.7998889999999999
10
1.117885
20
3.8216209999999999
10
1.0585929999999999
20
3.8421069999999999
10
0.99826100000000006
20
3.8613430000000002
10
0.93692199999999992
20
3.879324
10
0.87461499999999981
20
3.8960489999999997
10
0.81137899999999996
20
3.9115169999999999
10
0.74725799999999998
20
3.9257279999999994
10
0.68229899999999999
20
3.9386829999999997
10
0.61655299999999991
20
3.950386
10
0.55007299999999992
20
3.960839
10
0.48291999999999996
20
3.9700470000000001
10
0.415157
20
3.9780129999999998
10
0.34685199999999994
20
3.9847439999999996
10
0.27807800000000005
20
3.9902429999999995
10
0.20891599999999996
20
3.9945149999999998
10
0.13945199999999999
20
3.9975629999999991
10
0.069779999999999995
20
3.9993910000000001
10
-1.9999999999963179e-06
20
3.9999999999999996
10
-0.069808000000000009
20
3.9993910000000001
10
-0.13958900000000002
20
3.9975629999999991
10
-0.20931599999999997
20
3.9945179999999998
10
-0.27896299999999996
20
3.9902549999999999
10
-0.34850499999999995
20
3.9847769999999998
10
-0.41791399999999995
20
3.9780830000000003
10
-0.48716499999999996
20
3.9701749999999993
10
-0.55623199999999995
20
3.9610569999999994
10
-0.62508999999999992
20
3.9507279999999994
10
-0.69371399999999994
20
3.9391929999999995
10
-0.76207799999999981
20
3.926453
10
-0.83015699999999992
20
3.912512
10
-0.89792499999999997
20
3.8973739999999992
10
-0.96535899999999986
20
3.8810419999999994
10
-1.0324329999999999
20
3.8635209999999995
10
-1.099121
20
3.8448139999999995
10
-1.1654
20
3.8249279999999994
10
-1.2312450000000001
20
3.8038679999999996
10
-1.296632
20
3.7816399999999999
10
-1.361534
20
3.7582489999999993
10
-1.425929
20
3.7337039999999995
10
-1.489792
20
3.7080109999999999
10
-1.5530979999999999
20
3.6811780000000001
10
-1.6158239999999997
20
3.6532139999999993
10
-1.6779439999999997
20
3.6241269999999992
10
-1.7394369999999999
20
3.5939269999999999
10
-1.8002759999999995
20
3.5626229999999999
10
-1.8604399999999999
20
3.5302269999999996
10
-1.9199029999999999
20
3.4967489999999999
10
-1.9786429999999997
20
3.4622010000000003
10
-2.0366369999999998
20
3.4265949999999994
10
-2.0938620000000001
20
3.3899440000000003
10
-2.1502950000000003
20
3.3522609999999995
10
-2.2059119999999997
20
3.3135609999999995
10
-2.2606929999999998
20
3.2738569999999996
10
-2.3146139999999997
20
3.2331649999999996
10
-2.3676550000000001
20
3.1915
10
-2.4197929999999994
20
3.1488799999999997
10
-2.4710070000000002
20
3.1053199999999994
10
-2.5212779999999997
20
3.0608389999999996
10
-2.5705830000000001
20
3.0154549999999993
10
-2.6189040000000001
20
2.9691860000000001
10
-2.6662199999999996
20
2.9220519999999999
10
-2.712513
20
2.874072
10
-2.7577629999999997
20
2.8252669999999993
10
-2.8019519999999996
20
2.7756579999999995
10
-2.8450629999999997
20
2.7252659999999995
10
-2.8870779999999994
20
2.6741139999999999
10
-2.9279809999999999
20
2.6222249999999998
10
-2.9677540000000002
20
2.5696209999999997
10
-3.0063839999999997
20
2.5163259999999994
10
-3.0438529999999999
20
2.462364
10
-3.080149
20
2.4077599999999997
10
-3.1152579999999999
20
2.352538
10
-3.1491649999999995
20
2.2967249999999999
10
-3.1818590000000002
20
2.2403459999999993
10
-3.2133279999999997
20
2.1834279999999993
10
-3.2435599999999996
20
2.1259969999999999
10
-3.2725459999999997
20
2.0680800000000001
10
-3.3002749999999996
20
2.0097040000000002
10
-3.3267379999999998
20
1.9508969999999999
10
-3.3519279999999996
20
1.891688
10
-3.3758369999999998
20
1.8321040000000002
10
-3.3984580000000002
20
1.7721729999999998
10
-3.4197850000000001
20
1.711924
10
-3.4398140000000001
20
1.6513869999999999
10
-3.4585389999999996
20
1.5905899999999999
10
-3.4759569999999997
20
1.5295619999999999
10
-3.4920660000000003
20
1.4683319999999997
10
-3.5068639999999993
20
1.40693
10
-3.5203489999999995
20
1.3453850000000001
10
-3.5325219999999997
20
1.2837259999999999
10
-3.5433819999999998
20
1.221983
10
-3.5529309999999996
20
1.160185
10
-3.5611709999999999
20
1.0983609999999999
10
-3.5681059999999998
20
1.03654
10
-3.5737389999999993
20
0.97475199999999995
10
-3.5780749999999997
20
0.91302499999999998
10
-3.581118
20
0.85138799999999992
10
-3.5828759999999997
20
0.78986899999999993
10
-3.5833550000000001
20
0.72849699999999995
10
-3.5825629999999995
20
0.66729999999999989
10
-3.5805089999999993
20
0.60630499999999998
10
-3.5772010000000001
20
0.54554099999999994
10
-3.572651
20
0.48503299999999994
10
-3.5668669999999998
20
0.42480899999999999
10
-3.5598629999999996
20
0.36489499999999997
10
-3.5516499999999995
20
0.30531700000000001
10
-3.5422410000000002
20
0.24610099999999999
10
-3.5316499999999995
20
0.18727099999999997
10
-3.5198900000000002
20
0.12885199999999997
10
-3.5069769999999991
20
0.070868
10
-3.4929259999999998
20
0.013342999999999999
10
-3.4777519999999993
20
-0.043700000000000003
10
-3.4614739999999999
20
-0.10023999999999998
10
-3.4441069999999998
20
-0.156253
10
-3.4256690000000001
20
-0.21171899999999999
10
-3.4061789999999998
20
-0.26661799999999997
10
-3.3856539999999997
20
-0.32092800000000005
10
-3.3641149999999995
20
-0.37463099999999994
10
-3.3415809999999992
20
-0.42770899999999995
10
-3.3180709999999993
20
-0.48014199999999996
10
-3.2936059999999996
20
-0.531914
10
-3.2682059999999997
20
-0.58300799999999997
10
-3.2418930000000001
20
-0.63340799999999986
10
-3.2146869999999996
20
-0.68309799999999998
10
-3.1866110000000001
20
-0.73206499999999985
10
-3.1576849999999999
20
-0.78029300000000001
10
-3.1279319999999999
20
-0.82777099999999981
10
-3.0973749999999995
20
-0.87448599999999999
10
-3.0660349999999994
20
-0.92042499999999994
10
-3.0339339999999999
20
-0.96557899999999997
10
-3.001096
20
-1.0099360000000002
10
-2.967543
20
-1.053488
10
-2.9332979999999997
20
-1.0962259999999997
10
-2.8983830000000004
20
-1.1381399999999997
10
-2.8628209999999994
20
-1.179225
10
-2.8266349999999996
20
-1.219473
10
-2.789847
20
-1.2588790000000001
10
-2.7524799999999994
20
-1.2974370000000002
10
-2.7145569999999997
20
-1.3351429999999997
10
-2.6760989999999998
20
-1.3719920000000001
10
-2.6371290000000003
20
-1.4079820000000001
10
-2.5976689999999998
20
-1.4431099999999999
10
-2.557741
20
-1.4773739999999997
10
-2.5173650000000003
20
-1.5107719999999998
10
-2.4765650000000003
20
-1.5433039999999998
10
-2.4353599999999993
20
-1.57497
10
-2.3937719999999998
20
-1.6057709999999996
10
-2.3518209999999993
20
-1.6357059999999997
10
-2.3095270000000001
20
-1.6647779999999996
10
-2.2669099999999998
20
-1.6929880000000002
10
-2.2239909999999994
20
-1.7203400000000002
10
-2.180787
20
-1.7468360000000001
10
-2.1373179999999996
20
-1.7724799999999998
10
-2.0936029999999999
20
-1.797275
10
-2.0496599999999994
20
-1.8212259999999998
10
-2.005506
20
-1.8443379999999998
10
-1.961158
20
-1.8666160000000001
10
-1.9166349999999999
20
-1.8880649999999999
10
-1.8719519999999998
20
-1.9086909999999997
10
-1.8271249999999999
20
-1.9284999999999999
10
-1.7821699999999998
20
-1.9474979999999997
10
-1.7371029999999996
20
-1.9656930000000001
10
-1.6919389999999999
20
-1.9830909999999997
10
-1.6466909999999999
20
-1.9996990000000001
10
-1.601375
20
-2.0155249999999998
10
-1.5560029999999998
20
-2.0305759999999999
10
-1.5105899999999997
20
-2.0448590000000002
10
-1.4651479999999997
20
-2.0583829999999996
10
-1.419689
20
-2.0711560000000002
10
-1.3742259999999999
20
-2.0831849999999998
10
-1.3287699999999998
20
-2.0944790000000002
10
-1.2833330000000001
20
-2.1050459999999998
10
-1.237927
20
-2.1148939999999996
10
-1.1925600000000001
20
-2.124031
10
-1.1472450000000001
20
-2.132466
10
-1.1019909999999999
20
-2.1402069999999997
10
-1.056808
20
-2.147262
10
-1.0117040000000002
20
-2.1536400000000002
10
-0.96668999999999983
20
-2.159348
10
-0.92177500000000001
20
-2.1643949999999998
10
-0.87696599999999991
20
-2.1687880000000002
10
-0.83227199999999979
20
-2.1725369999999997
10
-0.78770099999999987
20
-2.1756479999999994
10
-0.74326199999999998
20
-2.1781290000000002
10
-0.69896199999999997
20
-2.1799889999999995
10
-0.65480799999999995
20
-2.1812339999999999
10
-0.61080800000000002
20
-2.1818719999999998
10
-0.56696899999999983
20
-2.1819109999999995
10
-0.52329799999999993
20
-2.1813569999999998
10
-0.47980200000000001
20
-2.1802169999999998
10
-0.43648799999999993
20
-2.178499
10
-0.39336199999999993
20
-2.1762080000000004
10
-0.35043000000000002
20
-2.1733529999999996
10
-0.30770099999999995
20
-2.1699380000000001
10
-0.26517899999999994
20
-2.1659700000000002
10
-0.22287100000000001
20
-2.1614560000000003
10
-0.18078299999999997
20
-2.1564000000000001
10
-0.13892199999999996
20
-2.1508099999999994
10
-0.097294000000000005
20
-2.1446900000000002
10
-0.055903999999999988
20
-2.1380470000000003
10
-0.014760000000000002
20
-2.130884
10
0.026133999999999998
20
-2.123208
10
0.066769999999999996
20
-2.115024
10
0.107143
20
-2.1063359999999998
10
0.14724699999999999
20
-2.0971500000000001
10
0.18707599999999999
20
-2.0874689999999996
10
0.22662399999999996
20
-2.077299
10
0.26588299999999998
20
-2.066643
10
0.30485000000000001
20
-2.0555069999999995
10
0.34351699999999996
20
-2.0438939999999999
10
0.381878
20
-2.0318079999999998
10
0.41992700000000005
20
-2.0192540000000001
10
0.45765899999999998
20
-2.0062349999999993
10
0.49506599999999995
20
-1.9927560000000002
10
0.53214300000000003
20
-1.9788199999999998
10
0.56888399999999995
20
-1.9644299999999999
10
0.60528199999999999
20
-1.9495909999999999
10
0.64133200000000001
20
-1.9343069999999998
10
0.67702699999999993
20
-1.91858
10
0.71236099999999991
20
-1.902415
10
0.74732699999999996
20
-1.885815
10
0.78192099999999987
20
-1.8687839999999998
10
0.81613499999999994
20
-1.8513249999999999
10
0.84996299999999991
20
-1.8334419999999996
10
0.88339999999999985
20
-1.8151389999999996
10
0.91643899999999989
20
-1.7964189999999998
10
0.94907399999999986
20
-1.7772849999999998
10
0.98129999999999995
20
-1.7577419999999999
10
1.0131099999999997
20
-1.7377939999999998
10
1.0444990000000001
20
-1.7174430000000001
10
1.0754600000000001
20
-1.6966939999999997
10
1.1059889999999999
20
-1.6755499999999999
10
1.1360779999999999
20
-1.6540159999999997
10
1.165724
20
-1.6320950000000001
10
1.1949199999999998
20
-1.6097909999999997
10
1.2236610000000001
20
-1.587108
10
1.2519420000000001
20
-1.5640499999999999
10
1.279757
20
-1.5406199999999999
10
1.3071030000000001
20
-1.516824
10
1.3339729999999999
20
-1.4926649999999999
10
1.3603639999999997
20
-1.468146
10
1.3862700000000001
20
-1.443273
10
1.411689
20
-1.418048
10
1.4366139999999996
20
-1.3924769999999997
10
1.461044
20
-1.3665609999999999
10
1.484972
20
-1.3403069999999997
10
1.5083979999999997
20
-1.3137169999999998
10
1.5313159999999997
20
-1.2867950000000001
10
1.5537239999999997
20
-1.259544
10
1.5756189999999999
20
-1.2319679999999997
10
1.5969990000000001
20
-1.2040699999999998
10
1.6178600000000001
20
-1.175853
10
1.6382019999999999
20
-1.1473209999999998
10
1.6580209999999997
20
-1.1184749999999999
10
1.6773169999999995
20
-1.089318
10
1.6960879999999998
20
-1.0598519999999998
10
1.7143329999999999
20
-1.0300790000000002
10
1.7320519999999999
20
-0.9999969999999998
10
1.7492639999999999
20
-0.96957599999999999
10
1.7660139999999998
20
-0.93873099999999987
10
1.782359
20
-0.90735900000000003
10
1.7983509999999996
20
-0.87536299999999978
10
1.8140330000000002
20
-0.84265800000000002
10
1.8294429999999999
20
-0.80917099999999997
10
1.8446159999999998
20
-0.774837
10
1.8595799999999998
20
-0.73960300000000001
10
1.874363
20
-0.70342399999999983
10
1.8889899999999999
20
-0.66626600000000002
10
1.9034839999999997
20
-0.62810100000000002
10
1.9178689999999996
20
-0.58891400000000005
10
1.9321649999999999
20
-0.54869499999999982
10
1.9463949999999999
20
-0.50744299999999998
10
1.9605799999999998
20
-0.46516400000000002
10
1.9747399999999999
20
-0.42187299999999989
10
1.9888949999999999
20
-0.37758899999999995
10
2.0030649999999999
20
-0.332339
10
2.0172669999999999
20
-0.28615699999999999
10
2.0315180000000002
20
-0.23908099999999999
10
2.0458319999999999
20
-0.19115399999999996
10
2.0602209999999999
20
-0.14242199999999997
10
2.0746919999999998
20
-0.092935000000000004
10
2.0892520000000001
20
-0.042745999999999985
10
2.1039029999999994
20
0.008091999999999995
10
2.1186419999999999
20
0.059524000000000001
10
2.1334629999999999
20
0.111498
10
2.1483560000000002
20
0.16395999999999999
10
2.1633070000000001
20
0.21686199999999997
10
2.1782970000000001
20
0.27015700000000004
10
2.1933049999999996
20
0.32380199999999998
10
2.2083049999999993
20
0.37775699999999995
10
2.2232689999999997
20
0.43198899999999996
10
2.238165
20
0.48646699999999993
10
2.2529599999999994
20
0.54116799999999998
10
2.2676159999999999
20
0.59607100000000002
10
2.2820960000000001
20
0.65115899999999993
10
2.2963599999999995
20
0.70642199999999988
10
2.3103669999999994
20
0.76185000000000003
10
2.3240729999999998
20
0.81743899999999992
10
2.3374359999999998
20
0.87318499999999988
10
2.3504110000000003
20
0.92908599999999997
10
2.3629519999999999
20
0.98514400000000002
10
2.3750139999999997
20
1.0413589999999997
10
2.3865500000000002
20
1.0977309999999998
10
2.3975129999999996
20
1.1542600000000001
10
2.4078579999999996
20
1.2109450000000002
10
2.417535
20
1.267784
10
2.4264989999999997
20
1.3247709999999999
0
ENDSEC
0
SECTION
2
OBJECTS
0
DICTIONARY
5
C
100
AcDbDictionary
3
ACAD_GROUP
350
D
3
ACAD_MLINESTYLE
350
17
0
DICTIONARY
5
D
100
AcDbDictionary
0
DICTIONARY
5
1A
330
C
100
AcDbDictionary
0
DICTIONARY
5
17
100
AcDbDictionary
0
ENDSEC
0
EOF
