  0
SECTION
  2
HEADER
  9
$EXTMIN
 10
-3.693072
 20
-2.419732
  9
$EXTMAX
 10
2.000000
 20
4.000000
  0
ENDSEC
  0
SECTION
  2
TABLES
  0
TABLE
  2
LTYPE
 70
1
  0
LTYPE
  2
CONTINUOUS
 70
64
  3
Solid Line
 72
65
 73
0
 40
0.000000
  0
ENDTAB
  0
TABLE
  2
LAYER
 70
16
  0
LAYER
  2
0
 70
0
 62
7
  6
CONTINUOUS
  0
LAYER
  2
1
 70
0
 62
7
  6
CONTINUOUS
  0
LAYER
  2
2
 70
0
 62
7
  6
CONTINUOUS
  0
LAYER
  2
3
 70
0
 62
7
  6
CONTINUOUS
  0
LAYER
  2
4
 70
0
 62
7
  6
CONTINUOUS
  0
LAYER
  2
5
 70
0
 62
7
  6
CONTINUOUS
  0
LAYER
  2
6
 70
0
 62
7
  6
CONTINUOUS
  0
LAYER
  2
7
 70
0
 62
7
  6
CONTINUOUS
  0
LAYER
  2
8
 70
0
 62
7
  6
CONTINUOUS
  0
LAYER
  2
9
 70
0
 62
7
  6
CONTINUOUS
  0
LAYER
  2
10
 70
0
 62
7
  6
CONTINUOUS
  0
LAYER
  2
11
 70
0
 62
7
  6
CONTINUOUS
  0
LAYER
  2
12
 70
0
 62
7
  6
CONTINUOUS
  0
LAYER
  2
13
 70
0
 62
7
  6
CONTINUOUS
  0
LAYER
  2
14
 70
0
 62
7
  6
CONTINUOUS
  0
LAYER
  2
15
 70
0
 62
7
  6
CONTINUOUS
  0
ENDTAB
  0
ENDSEC
  0
SECTION
  2
ENTITIES
  0
LINE
  8
1
 10
-0.000006
 20
4.000000
 11
0.069717
 21
3.999391
  0
LINE
  8
1
 10
0.069717
 20
3.999391
 11
0.139147
 21
3.997563
  0
LINE
  8
1
 10
0.139147
 20
3.997563
 11
0.208030
 21
3.994508
  0
LINE
  8
1
 10
0.208030
 20
3.994508
 11
0.276138
 21
3.990217
  0
LINE
  8
1
 10
0.276138
 20
3.990217
 11
0.343273
 21
3.984677
  0
LINE
  8
1
 10
0.343273
 20
3.984677
 11
0.409265
 21
3.977876
  0
LINE
  8
1
 10
0.409265
 20
3.977876
 11
0.473967
 21
3.969804
  0
LINE
  8
1
 10
0.473967
 20
3.969804
 11
0.537257
 21
3.960450
  0
LINE
  8
1
 10
0.537257
 20
3.960450
 11
0.599034
 21
3.949807
  0
LINE
  8
1
 10
0.599034
 20
3.949807
 11
0.659218
 21
3.937873
  0
LINE
  8
1
 10
0.659218
 20
3.937873
 11
0.717746
 21
3.924647
  0
LINE
  8
1
 10
0.717746
 20
3.924647
 11
0.774574
 21
3.910133
  0
LINE
  8
1
 10
0.774574
 20
3.910133
 11
0.829676
 21
3.894337
  0
LINE
  8
1
 10
0.829676
 20
3.894337
 11
0.883042
 21
3.877265
  0
LINE
  8
1
 10
0.883042
 20
3.877265
 11
0.934675
 21
3.858925
  0
LINE
  8
1
 10
0.934675
 20
3.858925
 11
0.984594
 21
3.839325
  0
LINE
  8
1
 10
0.984594
 20
3.839325
 11
1.032831
 21
3.818467
  0
LINE
  8
1
 10
1.032831
 20
3.818467
 11
1.079426
 21
3.796353
  0
LINE
  8
1
 10
1.079426
 20
3.796353
 11
1.124430
 21
3.772978
  0
LINE
  8
1
 10
1.124430
 20
3.772978
 11
1.167898
 21
3.748330
  0
LINE
  8
1
 10
1.167898
 20
3.748330
 11
1.209892
 21
3.722392
  0
LINE
  8
1
 10
1.209892
 20
3.722392
 11
1.250474
 21
3.695140
  0
LINE
  8
1
 10
1.250474
 20
3.695140
 11
1.289703
 21
3.666542
  0
LINE
  8
1
 10
1.289703
 20
3.666542
 11
1.327635
 21
3.636562
  0
LINE
  8
1
 10
1.327635
 20
3.636562
 11
1.364323
 21
3.605159
  0
LINE
  8
1
 10
1.364323
 20
3.605159
 11
1.399807
 21
3.572289
  0
LINE
  8
1
 10
1.399807
 20
3.572289
 11
1.434122
 21
3.537908
  0
LINE
  8
1
 10
1.434122
 20
3.537908
 11
1.467291
 21
3.501974
  0
LINE
  8
1
 10
1.467291
 20
3.501974
 11
1.499326
 21
3.464447
  0
LINE
  8
1
 10
1.499326
 20
3.464447
 11
1.530230
 21
3.425295
  0
LINE
  8
1
 10
1.530230
 20
3.425295
 11
1.559996
 21
3.384492
  0
LINE
  8
1
 10
1.559996
 20
3.384492
 11
1.588608
 21
3.342023
  0
LINE
  8
1
 10
1.588608
 20
3.342023
 11
1.616045
 21
3.297885
  0
LINE
  8
1
 10
1.616045
 20
3.297885
 11
1.642278
 21
3.252084
  0
LINE
  8
1
 10
1.642278
 20
3.252084
 11
1.667277
 21
3.204640
  0
LINE
  8
1
 10
1.667277
 20
3.204640
 11
1.691012
 21
3.155586
  0
LINE
  8
1
 10
1.691012
 20
3.155586
 11
1.713449
 21
3.104966
  0
LINE
  8
1
 10
1.713449
 20
3.104966
 11
1.734563
 21
3.052835
  0
LINE
  8
1
 10
1.734563
 20
3.052835
 11
1.754328
 21
2.999258
  0
LINE
  8
1
 10
1.754328
 20
2.999258
 11
1.772726
 21
2.944309
  0
LINE
  8
1
 10
1.772726
 20
2.944309
 11
1.789747
 21
2.888069
  0
LINE
  8
1
 10
1.789747
 20
2.888069
 11
1.805387
 21
2.830624
  0
LINE
  8
1
 10
1.805387
 20
2.830624
 11
1.819651
 21
2.772064
  0
LINE
  8
1
 10
1.819651
 20
2.772064
 11
1.832554
 21
2.712481
  0
LINE
  8
1
 10
1.832554
 20
2.712481
 11
1.844119
 21
2.651967
  0
LINE
  8
1
 10
1.844119
 20
2.651967
 11
1.854380
 21
2.590609
  0
LINE
  8
1
 10
1.854380
 20
2.590609
 11
1.863379
 21
2.528496
  0
LINE
  8
1
 10
1.863379
 20
2.528496
 11
1.871165
 21
2.465707
  0
LINE
  8
1
 10
1.871165
 20
2.465707
 11
1.877800
 21
2.402318
  0
LINE
  8
1
 10
1.877800
 20
2.402318
 11
1.883349
 21
2.338394
  0
LINE
  8
1
 10
1.883349
 20
2.338394
 11
1.887887
 21
2.273996
  0
LINE
  8
1
 10
1.887887
 20
2.273996
 11
1.891495
 21
2.209174
  0
LINE
  8
1
 10
1.891495
 20
2.209174
 11
1.894259
 21
2.143967
  0
LINE
  8
1
 10
1.894259
 20
2.143967
 11
1.896273
 21
2.078407
  0
LINE
  8
1
 10
1.896273
 20
2.078407
 11
1.897631
 21
2.012519
  0
LINE
  8
1
 10
1.897631
 20
2.012519
 11
1.898436
 21
1.946318
  0
LINE
  8
1
 10
1.898436
 20
1.946318
 11
1.898791
 21
1.879813
  0
LINE
  8
1
 10
1.898791
 20
1.879813
 11
1.898805
 21
1.813011
  0
LINE
  8
1
 10
1.898805
 20
1.813011
 11
1.898587
 21
1.745916
  0
LINE
  8
1
 10
1.898587
 20
1.745916
 11
1.898249
 21
1.678535
  0
LINE
  8
1
 10
1.898249
 20
1.678535
 11
1.897901
 21
1.610878
  0
LINE
  8
1
 10
1.897901
 20
1.610878
 11
1.897655
 21
1.542968
  0
LINE
  8
1
 10
1.897655
 20
1.542968
 11
1.897619
 21
1.474837
  0
LINE
  8
1
 10
1.897619
 20
1.474837
 11
1.897896
 21
1.406536
  0
LINE
  8
1
 10
1.897896
 20
1.406536
 11
1.898582
 21
1.338137
  0
LINE
  8
1
 10
1.898582
 20
1.338137
 11
1.899762
 21
1.269734
  0
LINE
  8
1
 10
1.899762
 20
1.269734
 11
1.901509
 21
1.201447
  0
LINE
  8
1
 10
1.901509
 20
1.201447
 11
1.903874
 21
1.133420
  0
LINE
  8
1
 10
1.903874
 20
1.133420
 11
1.906890
 21
1.065822
  0
LINE
  8
1
 10
1.906890
 20
1.065822
 11
1.910567
 21
0.998838
  0
LINE
  8
1
 10
1.910567
 20
0.998838
 11
1.914888
 21
0.932673
  0
LINE
  8
1
 10
1.914888
 20
0.932673
 11
1.919809
 21
0.867534
  0
LINE
  8
1
 10
1.919809
 20
0.867534
 11
1.925263
 21
0.803634
  0
LINE
  8
1
 10
1.925263
 20
0.803634
 11
1.931161
 21
0.741174
  0
LINE
  8
1
 10
1.931161
 20
0.741174
 11
1.937394
 21
0.680343
  0
LINE
  8
1
 10
1.937394
 20
0.680343
 11
1.943842
 21
0.621308
  0
LINE
  8
1
 10
1.943842
 20
0.621308
 11
1.950377
 21
0.564210
  0
LINE
  8
1
 10
1.950377
 20
0.564210
 11
1.956868
 21
0.509159
  0
LINE
  8
1
 10
1.956868
 20
0.509159
 11
1.963192
 21
0.456233
  0
LINE
  8
1
 10
1.963192
 20
0.456233
 11
1.969233
 21
0.405475
  0
LINE
  8
1
 10
1.969233
 20
0.405475
 11
1.974889
 21
0.356892
  0
LINE
  8
1
 10
1.974889
 20
0.356892
 11
1.980076
 21
0.310457
  0
LINE
  8
1
 10
1.980076
 20
0.310457
 11
1.984725
 21
0.266104
  0
LINE
  8
1
 10
1.984725
 20
0.266104
 11
1.988789
 21
0.223731
  0
LINE
  8
1
 10
1.988789
 20
0.223731
 11
1.992236
 21
0.183196
  0
LINE
  8
1
 10
1.992236
 20
0.183196
 11
1.995049
 21
0.144315
  0
LINE
  8
1
 10
1.995049
 20
0.144315
 11
1.997227
 21
0.106859
  0
LINE
  8
1
 10
1.997227
 20
0.106859
 11
1.998772
 21
0.070550
  0
LINE
  8
1
 10
1.998772
 20
0.070550
 11
1.999694
 21
0.035059
  0
LINE
  8
1
 10
1.999694
 20
0.035059
 11
2.000000
 21
0.000010
  0
LINE
  8
1
 10
2.000000
 20
0.000010
 11
1.999695
 21
-0.034907
  0
LINE
  8
1
 10
1.999695
 20
-0.034907
 11
1.998782
 21
-0.069809
  0
LINE
  8
1
 10
1.998782
 20
-0.069809
 11
1.997259
 21
-0.104701
  0
LINE
  8
1
 10
1.997259
 20
-0.104701
 11
1.995127
 21
-0.139578
  0
LINE
  8
1
 10
1.995127
 20
-0.139578
 11
1.992386
 21
-0.174435
  0
LINE
  8
1
 10
1.992386
 20
-0.174435
 11
1.989038
 21
-0.209266
  0
LINE
  8
1
 10
1.989038
 20
-0.209266
 11
1.985082
 21
-0.244065
  0
LINE
  8
1
 10
1.985082
 20
-0.244065
 11
1.980520
 21
-0.278826
  0
LINE
  8
1
 10
1.980520
 20
-0.278826
 11
1.975351
 21
-0.313543
  0
LINE
  8
1
 10
1.975351
 20
-0.313543
 11
1.969577
 21
-0.348210
  0
LINE
  8
1
 10
1.969577
 20
-0.348210
 11
1.963199
 21
-0.382820
  0
LINE
  8
1
 10
1.963199
 20
-0.382820
 11
1.956219
 21
-0.417367
  0
LINE
  8
1
 10
1.956219
 20
-0.417367
 11
1.948637
 21
-0.451845
  0
LINE
  8
1
 10
1.948637
 20
-0.451845
 11
1.940455
 21
-0.486245
  0
LINE
  8
1
 10
1.940455
 20
-0.486245
 11
1.931675
 21
-0.520563
  0
LINE
  8
1
 10
1.931675
 20
-0.520563
 11
1.922298
 21
-0.554790
  0
LINE
  8
1
 10
1.922298
 20
-0.554790
 11
1.912327
 21
-0.588921
  0
LINE
  8
1
 10
1.912327
 20
-0.588921
 11
1.901763
 21
-0.622947
  0
LINE
  8
1
 10
1.901763
 20
-0.622947
 11
1.890608
 21
-0.656863
  0
LINE
  8
1
 10
1.890608
 20
-0.656863
 11
1.878866
 21
-0.690660
  0
LINE
  8
1
 10
1.878866
 20
-0.690660
 11
1.866537
 21
-0.724333
  0
LINE
  8
1
 10
1.866537
 20
-0.724333
 11
1.853626
 21
-0.757874
  0
LINE
  8
1
 10
1.853626
 20
-0.757874
 11
1.840134
 21
-0.791277
  0
LINE
  8
1
 10
1.840134
 20
-0.791277
 11
1.826064
 21
-0.824533
  0
LINE
  8
1
 10
1.826064
 20
-0.824533
 11
1.811420
 21
-0.857636
  0
LINE
  8
1
 10
1.811420
 20
-0.857636
 11
1.796204
 21
-0.890580
  0
LINE
  8
1
 10
1.796204
 20
-0.890580
 11
1.780419
 21
-0.923357
  0
LINE
  8
1
 10
1.780419
 20
-0.923357
 11
1.764068
 21
-0.955961
  0
LINE
  8
1
 10
1.764068
 20
-0.955961
 11
1.747156
 21
-0.988384
  0
LINE
  8
1
 10
1.747156
 20
-0.988384
 11
1.729684
 21
-1.020620
  0
LINE
  8
1
 10
1.729684
 20
-1.020620
 11
1.711658
 21
-1.052661
  0
LINE
  8
1
 10
1.711658
 20
-1.052661
 11
1.693079
 21
-1.084502
  0
LINE
  8
1
 10
1.693079
 20
-1.084502
 11
1.673953
 21
-1.116135
  0
LINE
  8
1
 10
1.673953
 20
-1.116135
 11
1.654282
 21
-1.147554
  0
LINE
  8
1
 10
1.654282
 20
-1.147554
 11
1.634071
 21
-1.178753
  0
LINE
  8
1
 10
1.634071
 20
-1.178753
 11
1.613322
 21
-1.209724
  0
LINE
  8
1
 10
1.613322
 20
-1.209724
 11
1.592041
 21
-1.240461
  0
LINE
  8
1
 10
1.592041
 20
-1.240461
 11
1.570230
 21
-1.270957
  0
LINE
  8
1
 10
1.570230
 20
-1.270957
 11
1.547895
 21
-1.301207
  0
LINE
  8
1
 10
1.547895
 20
-1.301207
 11
1.525038
 21
-1.331203
  0
LINE
  8
1
 10
1.525038
 20
-1.331203
 11
1.501664
 21
-1.360940
  0
LINE
  8
1
 10
1.501664
 20
-1.360940
 11
1.477777
 21
-1.390411
  0
LINE
  8
1
 10
1.477777
 20
-1.390411
 11
1.453381
 21
-1.419609
  0
LINE
  8
1
 10
1.453381
 20
-1.419609
 11
1.428480
 21
-1.448529
  0
LINE
  8
1
 10
1.428480
 20
-1.448529
 11
1.403078
 21
-1.477164
  0
LINE
  8
1
 10
1.403078
 20
-1.477164
 11
1.377179
 21
-1.505507
  0
LINE
  8
1
 10
1.377179
 20
-1.505507
 11
1.350788
 21
-1.533554
  0
LINE
  8
1
 10
1.350788
 20
-1.533554
 11
1.323908
 21
-1.561296
  0
LINE
  8
1
 10
1.323908
 20
-1.561296
 11
1.296544
 21
-1.588729
  0
LINE
  8
1
 10
1.296544
 20
-1.588729
 11
1.268699
 21
-1.615846
  0
LINE
  8
1
 10
1.268699
 20
-1.615846
 11
1.240379
 21
-1.642640
  0
LINE
  8
1
 10
1.240379
 20
-1.642640
 11
1.211586
 21
-1.669106
  0
LINE
  8
1
 10
1.211586
 20
-1.669106
 11
1.182326
 21
-1.695238
  0
LINE
  8
1
 10
1.182326
 20
-1.695238
 11
1.152601
 21
-1.721028
  0
LINE
  8
1
 10
1.152601
 20
-1.721028
 11
1.122417
 21
-1.746471
  0
LINE
  8
1
 10
1.122417
 20
-1.746471
 11
1.091778
 21
-1.771560
  0
LINE
  8
1
 10
1.091778
 20
-1.771560
 11
1.060687
 21
-1.796290
  0
LINE
  8
1
 10
1.060687
 20
-1.796290
 11
1.029148
 21
-1.820653
  0
LINE
  8
1
 10
1.029148
 20
-1.820653
 11
0.997166
 21
-1.844643
  0
LINE
  8
1
 10
0.997166
 20
-1.844643
 11
0.964745
 21
-1.868255
  0
LINE
  8
1
 10
0.964745
 20
-1.868255
 11
0.931888
 21
-1.891480
  0
LINE
  8
1
 10
0.931888
 20
-1.891480
 11
0.898600
 21
-1.914313
  0
LINE
  8
1
 10
0.898600
 20
-1.914313
 11
0.864885
 21
-1.936747
  0
LINE
  8
1
 10
0.864885
 20
-1.936747
 11
0.830748
 21
-1.958776
  0
LINE
  8
1
 10
0.830748
 20
-1.958776
 11
0.796191
 21
-1.980392
  0
LINE
  8
1
 10
0.796191
 20
-1.980392
 11
0.761219
 21
-2.001589
  0
LINE
  8
1
 10
0.761219
 20
-2.001589
 11
0.725836
 21
-2.022359
  0
LINE
  8
1
 10
0.725836
 20
-2.022359
 11
0.690047
 21
-2.042697
  0
LINE
  8
1
 10
0.690047
 20
-2.042697
 11
0.653855
 21
-2.062593
  0
LINE
  8
1
 10
0.653855
 20
-2.062593
 11
0.617264
 21
-2.082043
  0
LINE
  8
1
 10
0.617264
 20
-2.082043
 11
0.580280
 21
-2.101037
  0
LINE
  8
1
 10
0.580280
 20
-2.101037
 11
0.542905
 21
-2.119569
  0
LINE
  8
1
 10
0.542905
 20
-2.119569
 11
0.505145
 21
-2.137632
  0
LINE
  8
1
 10
0.505145
 20
-2.137632
 11
0.467004
 21
-2.155216
  0
LINE
  8
1
 10
0.467004
 20
-2.155216
 11
0.428485
 21
-2.172316
  0
LINE
  8
1
 10
0.428485
 20
-2.172316
 11
0.389595
 21
-2.188924
  0
LINE
  8
1
 10
0.389595
 20
-2.188924
 11
0.350336
 21
-2.205030
  0
LINE
  8
1
 10
0.350336
 20
-2.205030
 11
0.310714
 21
-2.220627
  0
LINE
  8
1
 10
0.310714
 20
-2.220627
 11
0.270733
 21
-2.235708
  0
LINE
  8
1
 10
0.270733
 20
-2.235708
 11
0.230399
 21
-2.250264
  0
LINE
  8
1
 10
0.230399
 20
-2.250264
 11
0.189716
 21
-2.264286
  0
LINE
  8
1
 10
0.189716
 20
-2.264286
 11
0.148690
 21
-2.277766
  0
LINE
  8
1
 10
0.148690
 20
-2.277766
 11
0.107325
 21
-2.290695
  0
LINE
  8
1
 10
0.107325
 20
-2.290695
 11
0.065627
 21
-2.303066
  0
LINE
  8
1
 10
0.065627
 20
-2.303066
 11
0.023601
 21
-2.314868
  0
LINE
  8
1
 10
0.023601
 20
-2.314868
 11
-0.018747
 21
-2.326094
  0
LINE
  8
1
 10
-0.018747
 20
-2.326094
 11
-0.061410
 21
-2.336734
  0
LINE
  8
1
 10
-0.061410
 20
-2.336734
 11
-0.104384
 21
-2.346780
  0
LINE
  8
1
 10
-0.104384
 20
-2.346780
 11
-0.147662
 21
-2.356221
  0
LINE
  8
1
 10
-0.147662
 20
-2.356221
 11
-0.191237
 21
-2.365050
  0
LINE
  8
1
 10
-0.191237
 20
-2.365050
 11
-0.235103
 21
-2.373256
  0
LINE
  8
1
 10
-0.235103
 20
-2.373256
 11
-0.279254
 21
-2.380830
  0
LINE
  8
1
 10
-0.279254
 20
-2.380830
 11
-0.323681
 21
-2.387763
  0
LINE
  8
1
 10
-0.323681
 20
-2.387763
 11
-0.368377
 21
-2.394046
  0
LINE
  8
1
 10
-0.368377
 20
-2.394046
 11
-0.413336
 21
-2.399668
  0
LINE
  8
1
 10
-0.413336
 20
-2.399668
 11
-0.458549
 21
-2.404621
  0
LINE
  8
1
 10
-0.458549
 20
-2.404621
 11
-0.504008
 21
-2.408894
  0
LINE
  8
1
 10
-0.504008
 20
-2.408894
 11
-0.549704
 21
-2.412478
  0
LINE
  8
1
 10
-0.549704
 20
-2.412478
 11
-0.595629
 21
-2.415364
  0
LINE
  8
1
 10
-0.595629
 20
-2.415364
 11
-0.641774
 21
-2.417541
  0
LINE
  8
1
 10
-0.641774
 20
-2.417541
 11
-0.688130
 21
-2.419000
  0
LINE
  8
1
 10
-0.688130
 20
-2.419000
 11
-0.734686
 21
-2.419732
  0
LINE
  8
1
 10
-0.734686
 20
-2.419732
 11
-0.781434
 21
-2.419727
  0
LINE
  8
1
 10
-0.781434
 20
-2.419727
 11
-0.828361
 21
-2.418975
  0
LINE
  8
1
 10
-0.828361
 20
-2.418975
 11
-0.875459
 21
-2.417466
  0
LINE
  8
1
 10
-0.875459
 20
-2.417466
 11
-0.922716
 21
-2.415192
  0
LINE
  8
1
 10
-0.922716
 20
-2.415192
 11
-0.970120
 21
-2.412143
  0
LINE
  8
1
 10
-0.970120
 20
-2.412143
 11
-1.017660
 21
-2.408310
  0
LINE
  8
1
 10
-1.017660
 20
-2.408310
 11
-1.065323
 21
-2.403683
  0
LINE
  8
1
 10
-1.065323
 20
-2.403683
 11
-1.113098
 21
-2.398254
  0
LINE
  8
1
 10
-1.113098
 20
-2.398254
 11
-1.160971
 21
-2.392013
  0
LINE
  8
1
 10
-1.160971
 20
-2.392013
 11
-1.208929
 21
-2.384953
  0
LINE
  8
1
 10
-1.208929
 20
-2.384953
 11
-1.256959
 21
-2.377064
  0
LINE
  8
1
 10
-1.256959
 20
-2.377064
 11
-1.305046
 21
-2.368338
  0
LINE
  8
1
 10
-1.305046
 20
-2.368338
 11
-1.353177
 21
-2.358766
  0
LINE
  8
1
 10
-1.353177
 20
-2.358766
 11
-1.401336
 21
-2.348342
  0
LINE
  8
1
 10
-1.401336
 20
-2.348342
 11
-1.449508
 21
-2.337057
  0
LINE
  8
1
 10
-1.449508
 20
-2.337057
 11
-1.497678
 21
-2.324903
  0
LINE
  8
1
 10
-1.497678
 20
-2.324903
 11
-1.545830
 21
-2.311874
  0
LINE
  8
1
 10
-1.545830
 20
-2.311874
 11
-1.593948
 21
-2.297963
  0
LINE
  8
1
 10
-1.593948
 20
-2.297963
 11
-1.642016
 21
-2.283163
  0
LINE
  8
1
 10
-1.642016
 20
-2.283163
 11
-1.690015
 21
-2.267467
  0
LINE
  8
1
 10
-1.690015
 20
-2.267467
 11
-1.737929
 21
-2.250870
  0
LINE
  8
1
 10
-1.737929
 20
-2.250870
 11
-1.785741
 21
-2.233366
  0
LINE
  8
1
 10
-1.785741
 20
-2.233366
 11
-1.833431
 21
-2.214951
  0
LINE
  8
1
 10
-1.833431
 20
-2.214951
 11
-1.880982
 21
-2.195618
  0
LINE
  8
1
 10
-1.880982
 20
-2.195618
 11
-1.928375
 21
-2.175363
  0
LINE
  8
1
 10
-1.928375
 20
-2.175363
 11
-1.975592
 21
-2.154184
  0
LINE
  8
1
 10
-1.975592
 20
-2.154184
 11
-2.022612
 21
-2.132075
  0
LINE
  8
1
 10
-2.022612
 20
-2.132075
 11
-2.069416
 21
-2.109034
  0
LINE
  8
1
 10
-2.069416
 20
-2.109034
 11
-2.115984
 21
-2.085058
  0
LINE
  8
1
 10
-2.115984
 20
-2.085058
 11
-2.162296
 21
-2.060144
  0
LINE
  8
1
 10
-2.162296
 20
-2.060144
 11
-2.208332
 21
-2.034292
  0
LINE
  8
1
 10
-2.208332
 20
-2.034292
 11
-2.254070
 21
-2.007499
  0
LINE
  8
1
 10
-2.254070
 20
-2.007499
 11
-2.299490
 21
-1.979766
  0
LINE
  8
1
 10
-2.299490
 20
-1.979766
 11
-2.344571
 21
-1.951091
  0
LINE
  8
1
 10
-2.344571
 20
-1.951091
 11
-2.389291
 21
-1.921476
  0
LINE
  8
1
 10
-2.389291
 20
-1.921476
 11
-2.433629
 21
-1.890921
  0
LINE
  8
1
 10
-2.433629
 20
-1.890921
 11
-2.477563
 21
-1.859427
  0
LINE
  8
1
 10
-2.477563
 20
-1.859427
 11
-2.521071
 21
-1.826996
  0
LINE
  8
1
 10
-2.521071
 20
-1.826996
 11
-2.564131
 21
-1.793632
  0
LINE
  8
1
 10
-2.564131
 20
-1.793632
 11
-2.606721
 21
-1.759337
  0
LINE
  8
1
 10
-2.606721
 20
-1.759337
 11
-2.648818
 21
-1.724116
  0
LINE
  8
1
 10
-2.648818
 20
-1.724116
 11
-2.690401
 21
-1.687971
  0
LINE
  8
1
 10
-2.690401
 20
-1.687971
 11
-2.731447
 21
-1.650910
  0
LINE
  8
1
 10
-2.731447
 20
-1.650910
 11
-2.771933
 21
-1.612937
  0
LINE
  8
1
 10
-2.771933
 20
-1.612937
 11
-2.811838
 21
-1.574058
  0
LINE
  8
1
 10
-2.811838
 20
-1.574058
 11
-2.851137
 21
-1.534280
  0
LINE
  8
1
 10
-2.851137
 20
-1.534280
 11
-2.889810
 21
-1.493611
  0
LINE
  8
1
 10
-2.889810
 20
-1.493611
 11
-2.927834
 21
-1.452060
  0
LINE
  8
1
 10
-2.927834
 20
-1.452060
 11
-2.965186
 21
-1.409634
  0
LINE
  8
1
 10
-2.965186
 20
-1.409634
 11
-3.001844
 21
-1.366344
  0
LINE
  8
1
 10
-3.001844
 20
-1.366344
 11
-3.037786
 21
-1.322199
  0
LINE
  8
1
 10
-3.037786
 20
-1.322199
 11
-3.072990
 21
-1.277210
  0
LINE
  8
1
 10
-3.072990
 20
-1.277210
 11
-3.107434
 21
-1.231389
  0
LINE
  8
1
 10
-3.107434
 20
-1.231389
 11
-3.141096
 21
-1.184748
  0
LINE
  8
1
 10
-3.141096
 20
-1.184748
 11
-3.173956
 21
-1.137299
  0
LINE
  8
1
 10
-3.173956
 20
-1.137299
 11
-3.205990
 21
-1.089055
  0
LINE
  8
1
 10
-3.205990
 20
-1.089055
 11
-3.237179
 21
-1.040031
  0
LINE
  8
1
 10
-3.237179
 20
-1.040031
 11
-3.267501
 21
-0.990242
  0
LINE
  8
1
 10
-3.267501
 20
-0.990242
 11
-3.296937
 21
-0.939701
  0
LINE
  8
1
 10
-3.296937
 20
-0.939701
 11
-3.325465
 21
-0.888426
  0
LINE
  8
1
 10
-3.325465
 20
-0.888426
 11
-3.353066
 21
-0.836432
  0
LINE
  8
1
 10
-3.353066
 20
-0.836432
 11
-3.379721
 21
-0.783736
  0
LINE
  8
1
 10
-3.379721
 20
-0.783736
 11
-3.405409
 21
-0.730357
  0
LINE
  8
1
 10
-3.405409
 20
-0.730357
 11
-3.430113
 21
-0.676312
  0
LINE
  8
1
 10
-3.430113
 20
-0.676312
 11
-3.453813
 21
-0.621620
  0
LINE
  8
1
 10
-3.453813
 20
-0.621620
 11
-3.476492
 21
-0.566301
  0
LINE
  8
1
 10
-3.476492
 20
-0.566301
 11
-3.498133
 21
-0.510373
  0
LINE
  8
1
 10
-3.498133
 20
-0.510373
 11
-3.518717
 21
-0.453859
  0
LINE
  8
1
 10
-3.518717
 20
-0.453859
 11
-3.538229
 21
-0.396777
  0
LINE
  8
1
 10
-3.538229
 20
-0.396777
 11
-3.556652
 21
-0.339151
  0
LINE
  8
1
 10
-3.556652
 20
-0.339151
 11
-3.573970
 21
-0.281001
  0
LINE
  8
1
 10
-3.573970
 20
-0.281001
 11
-3.590170
 21
-0.222351
  0
LINE
  8
1
 10
-3.590170
 20
-0.222351
 11
-3.605235
 21
-0.163222
  0
LINE
  8
1
 10
-3.605235
 20
-0.163222
 11
-3.619152
 21
-0.103639
  0
LINE
  8
1
 10
-3.619152
 20
-0.103639
 11
-3.631908
 21
-0.043624
  0
LINE
  8
1
 10
-3.631908
 20
-0.043624
 11
-3.643489
 21
0.016797
  0
LINE
  8
1
 10
-3.643489
 20
0.016797
 11
-3.653884
 21
0.077601
  0
LINE
  8
1
 10
-3.653884
 20
0.077601
 11
-3.663081
 21
0.138763
  0
LINE
  8
1
 10
-3.663081
 20
0.138763
 11
-3.671069
 21
0.200257
  0
LINE
  8
1
 10
-3.671069
 20
0.200257
 11
-3.677837
 21
0.262058
  0
LINE
  8
1
 10
-3.677837
 20
0.262058
 11
-3.683376
 21
0.324140
  0
LINE
  8
1
 10
-3.683376
 20
0.324140
 11
-3.687677
 21
0.386476
  0
LINE
  8
1
 10
-3.687677
 20
0.386476
 11
-3.690732
 21
0.449042
  0
LINE
  8
1
 10
-3.690732
 20
0.449042
 11
-3.692532
 21
0.511809
  0
LINE
  8
1
 10
-3.692532
 20
0.511809
 11
-3.693072
 21
0.574751
  0
LINE
  8
1
 10
-3.693072
 20
0.574751
 11
-3.692344
 21
0.637841
  0
LINE
  8
1
 10
-3.692344
 20
0.637841
 11
-3.690342
 21
0.701052
  0
LINE
  8
1
 10
-3.690342
 20
0.701052
 11
-3.687063
 21
0.764356
  0
LINE
  8
1
 10
-3.687063
 20
0.764356
 11
-3.682502
 21
0.827726
  0
LINE
  8
1
 10
-3.682502
 20
0.827726
 11
-3.676655
 21
0.891133
  0
LINE
  8
1
 10
-3.676655
 20
0.891133
 11
-3.669520
 21
0.954551
  0
LINE
  8
1
 10
-3.669520
 20
0.954551
 11
-3.661095
 21
1.017951
  0
LINE
  8
1
 10
-3.661095
 20
1.017951
 11
-3.651378
 21
1.081306
  0
LINE
  8
1
 10
-3.651378
 20
1.081306
 11
-3.640368
 21
1.144588
  0
LINE
  8
1
 10
-3.640368
 20
1.144588
 11
-3.628067
 21
1.207768
  0
LINE
  8
1
 10
-3.628067
 20
1.207768
 11
-3.614474
 21
1.270819
  0
LINE
  8
1
 10
-3.614474
 20
1.270819
 11
-3.599591
 21
1.333712
  0
LINE
  8
1
 10
-3.599591
 20
1.333712
 11
-3.583421
 21
1.396421
  0
LINE
  8
1
 10
-3.583421
 20
1.396421
 11
-3.565967
 21
1.458918
  0
LINE
  8
1
 10
-3.565967
 20
1.458918
 11
-3.547231
 21
1.521174
  0
LINE
  8
1
 10
-3.547231
 20
1.521174
 11
-3.527220
 21
1.583163
  0
LINE
  8
1
 10
-3.527220
 20
1.583163
 11
-3.505937
 21
1.644856
  0
LINE
  8
1
 10
-3.505937
 20
1.644856
 11
-3.483388
 21
1.706228
  0
LINE
  8
1
 10
-3.483388
 20
1.706228
 11
-3.459580
 21
1.767251
  0
LINE
  8
1
 10
-3.459580
 20
1.767251
 11
-3.434521
 21
1.827898
  0
LINE
  8
1
 10
-3.434521
 20
1.827898
 11
-3.408216
 21
1.888142
  0
LINE
  8
1
 10
-3.408216
 20
1.888142
 11
-3.380677
 21
1.947958
  0
LINE
  8
1
 10
-3.380677
 20
1.947958
 11
-3.351910
 21
2.007319
  0
LINE
  8
1
 10
-3.351910
 20
2.007319
 11
-3.321926
 21
2.066201
  0
LINE
  8
1
 10
-3.321926
 20
2.066201
 11
-3.290736
 21
2.124576
  0
LINE
  8
1
 10
-3.290736
 20
2.124576
 11
-3.258350
 21
2.182421
  0
LINE
  8
1
 10
-3.258350
 20
2.182421
 11
-3.224779
 21
2.239710
  0
LINE
  8
1
 10
-3.224779
 20
2.239710
 11
-3.190036
 21
2.296419
  0
LINE
  8
1
 10
-3.190036
 20
2.296419
 11
-3.154134
 21
2.352524
  0
LINE
  8
1
 10
-3.154134
 20
2.352524
 11
-3.117085
 21
2.408001
  0
LINE
  8
1
 10
-3.117085
 20
2.408001
 11
-3.078904
 21
2.462828
  0
LINE
  8
1
 10
-3.078904
 20
2.462828
 11
-3.039605
 21
2.516981
  0
LINE
  8
1
 10
-3.039605
 20
2.516981
 11
-2.999202
 21
2.570437
  0
LINE
  8
1
 10
-2.999202
 20
2.570437
 11
-2.957711
 21
2.623175
  0
LINE
  8
1
 10
-2.957711
 20
2.623175
 11
-2.915148
 21
2.675173
  0
LINE
  8
1
 10
-2.915148
 20
2.675173
 11
-2.871528
 21
2.726411
  0
LINE
  8
1
 10
-2.871528
 20
2.726411
 11
-2.826869
 21
2.776866
  0
LINE
  8
1
 10
-2.826869
 20
2.776866
 11
-2.781188
 21
2.826520
  0
LINE
  8
1
 10
-2.781188
 20
2.826520
 11
-2.734502
 21
2.875353
  0
LINE
  8
1
 10
-2.734502
 20
2.875353
 11
-2.686829
 21
2.923345
  0
LINE
  8
1
 10
-2.686829
 20
2.923345
 11
-2.638187
 21
2.970477
  0
LINE
  8
1
 10
-2.638187
 20
2.970477
 11
-2.588596
 21
3.016732
  0
LINE
  8
1
 10
-2.588596
 20
3.016732
 11
-2.538074
 21
3.062091
  0
LINE
  8
1
 10
-2.538074
 20
3.062091
 11
-2.486640
 21
3.106538
  0
LINE
  8
1
 10
-2.486640
 20
3.106538
 11
-2.434314
 21
3.150055
  0
LINE
  8
1
 10
-2.434314
 20
3.150055
 11
-2.381117
 21
3.192627
  0
LINE
  8
1
 10
-2.381117
 20
3.192627
 11
-2.327068
 21
3.234237
  0
LINE
  8
1
 10
-2.327068
 20
3.234237
 11
-2.272187
 21
3.274871
  0
LINE
  8
1
 10
-2.272187
 20
3.274871
 11
-2.216497
 21
3.314514
  0
LINE
  8
1
 10
-2.216497
 20
3.314514
 11
-2.160017
 21
3.353152
  0
LINE
  8
1
 10
-2.160017
 20
3.353152
 11
-2.102769
 21
3.390770
  0
LINE
  8
1
 10
-2.102769
 20
3.390770
 11
-2.044775
 21
3.427357
  0
LINE
  8
1
 10
-2.044775
 20
3.427357
 11
-1.986056
 21
3.462899
  0
LINE
  8
1
 10
-1.986056
 20
3.462899
 11
-1.926634
 21
3.497385
  0
LINE
  8
1
 10
-1.926634
 20
3.497385
 11
-1.866530
 21
3.530802
  0
LINE
  8
1
 10
-1.866530
 20
3.530802
 11
-1.805768
 21
3.563139
  0
LINE
  8
1
 10
-1.805768
 20
3.563139
 11
-1.744369
 21
3.594386
  0
LINE
  8
1
 10
-1.744369
 20
3.594386
 11
-1.682356
 21
3.624533
  0
LINE
  8
1
 10
-1.682356
 20
3.624533
 11
-1.619751
 21
3.653571
  0
LINE
  8
1
 10
-1.619751
 20
3.653571
 11
-1.556578
 21
3.681488
  0
LINE
  8
1
 10
-1.556578
 20
3.681488
 11
-1.492858
 21
3.708278
  0
LINE
  8
1
 10
-1.492858
 20
3.708278
 11
-1.428615
 21
3.733932
  0
LINE
  8
1
 10
-1.428615
 20
3.733932
 11
-1.363872
 21
3.758442
  0
LINE
  8
1
 10
-1.363872
 20
3.758442
 11
-1.298651
 21
3.781801
  0
LINE
  8
1
 10
-1.298651
 20
3.781801
 11
-1.232977
 21
3.804001
  0
LINE
  8
1
 10
-1.232977
 20
3.804001
 11
-1.166871
 21
3.825036
  0
LINE
  8
1
 10
-1.166871
 20
3.825036
 11
-1.100359
 21
3.844901
  0
LINE
  8
1
 10
-1.100359
 20
3.844901
 11
-1.033462
 21
3.863589
  0
LINE
  8
1
 10
-1.033462
 20
3.863589
 11
-0.966204
 21
3.881095
  0
LINE
  8
1
 10
-0.966204
 20
3.881095
 11
-0.898609
 21
3.897414
  0
LINE
  8
1
 10
-0.898609
 20
3.897414
 11
-0.830700
 21
3.912542
  0
LINE
  8
1
 10
-0.830700
 20
3.912542
 11
-0.762501
 21
3.926474
  0
LINE
  8
1
 10
-0.762501
 20
3.926474
 11
-0.694036
 21
3.939207
  0
LINE
  8
1
 10
-0.694036
 20
3.939207
 11
-0.625328
 21
3.950738
  0
LINE
  8
1
 10
-0.625328
 20
3.950738
 11
-0.556402
 21
3.961062
  0
LINE
  8
1
 10
-0.556402
 20
3.961062
 11
-0.487280
 21
3.970179
  0
LINE
  8
1
 10
-0.487280
 20
3.970179
 11
-0.417988
 21
3.978085
  0
LINE
  8
1
 10
-0.417988
 20
3.978085
 11
-0.348549
 21
3.984777
  0
LINE
  8
1
 10
-0.348549
 20
3.984777
 11
-0.278987
 21
3.990256
  0
LINE
  8
1
 10
-0.278987
 20
3.990256
 11
-0.209326
 21
3.994518
  0
LINE
  8
1
 10
-0.209326
 20
3.994518
 11
-0.139592
 21
3.997563
  0
LINE
  8
1
 10
-0.139592
 20
3.997563
 11
-0.069808
 21
3.999391
  0
LINE
  8
1
 10
-0.069808
 20
3.999391
 11
-0.000006
 21
4.000000
  0
ENDSEC
  0
EOF
