  0
SECTION
  2
HEADER
  9
$EXTMIN
 10
-3.742898
 20
-2.565737
  9
$EXTMAX
 10
2.000923
 20
4.000000
  0
ENDSEC
  0
SECTION
  2
TABLES
  0
TABLE
  2
LTYPE
 70
1
  0
LTYPE
  2
CONTINUOUS
 70
64
  3
Solid Line
 72
65
 73
0
 40
0.000000
  0
ENDTAB
  0
TABLE
  2
LAYER
 70
16
  0
LAYER
  2
0
 70
0
 62
7
  6
CONTINUOUS
  0
LAYER
  2
1
 70
0
 62
7
  6
CONTINUOUS
  0
LAYER
  2
2
 70
0
 62
7
  6
CONTINUOUS
  0
LAYER
  2
3
 70
0
 62
7
  6
CONTINUOUS
  0
LAYER
  2
4
 70
0
 62
7
  6
CONTINUOUS
  0
LAYER
  2
5
 70
0
 62
7
  6
CONTINUOUS
  0
LAYER
  2
6
 70
0
 62
7
  6
CONTINUOUS
  0
LAYER
  2
7
 70
0
 62
7
  6
CONTINUOUS
  0
LAYER
  2
8
 70
0
 62
7
  6
CONTINUOUS
  0
LAYER
  2
9
 70
0
 62
7
  6
CONTINUOUS
  0
LAYER
  2
10
 70
0
 62
7
  6
CONTINUOUS
  0
LAYER
  2
11
 70
0
 62
7
  6
CONTINUOUS
  0
LAYER
  2
12
 70
0
 62
7
  6
CONTINUOUS
  0
LAYER
  2
13
 70
0
 62
7
  6
CONTINUOUS
  0
LAYER
  2
14
 70
0
 62
7
  6
CONTINUOUS
  0
LAYER
  2
15
 70
0
 62
7
  6
CONTINUOUS
  0
ENDTAB
  0
ENDSEC
  0
SECTION
  2
ENTITIES
  0
LINE
  8
1
 10
-0.000014
 20
4.000000
 11
0.069586
 21
3.999392
  0
LINE
  8
1
 10
0.069586
 20
3.999392
 11
0.138520
 21
3.997563
  0
LINE
  8
1
 10
0.138520
 20
3.997563
 11
0.206227
 21
3.994495
  0
LINE
  8
1
 10
0.206227
 20
3.994495
 11
0.272234
 21
3.990171
  0
LINE
  8
1
 10
0.272234
 20
3.990171
 11
0.336154
 21
3.984570
  0
LINE
  8
1
 10
0.336154
 20
3.984570
 11
0.397683
 21
3.977680
  0
LINE
  8
1
 10
0.397683
 20
3.977680
 11
0.456594
 21
3.969501
  0
LINE
  8
1
 10
0.456594
 20
3.969501
 11
0.512730
 21
3.960043
  0
LINE
  8
1
 10
0.512730
 20
3.960043
 11
0.566001
 21
3.949332
  0
LINE
  8
1
 10
0.566001
 20
3.949332
 11
0.616383
 21
3.937400
  0
LINE
  8
1
 10
0.616383
 20
3.937400
 11
0.663913
 21
3.924287
  0
LINE
  8
1
 10
0.663913
 20
3.924287
 11
0.708686
 21
3.910029
  0
LINE
  8
1
 10
0.708686
 20
3.910029
 11
0.750852
 21
3.894652
  0
LINE
  8
1
 10
0.750852
 20
3.894652
 11
0.790606
 21
3.878164
  0
LINE
  8
1
 10
0.790606
 20
3.878164
 11
0.828178
 21
3.860544
  0
LINE
  8
1
 10
0.828178
 20
3.860544
 11
0.863826
 21
3.841739
  0
LINE
  8
1
 10
0.863826
 20
3.841739
 11
0.897816
 21
3.821658
  0
LINE
  8
1
 10
0.897816
 20
3.821658
 11
0.930412
 21
3.800172
  0
LINE
  8
1
 10
0.930412
 20
3.800172
 11
0.961858
 21
3.777121
  0
LINE
  8
1
 10
0.961858
 20
3.777121
 11
0.992371
 21
3.752316
  0
LINE
  8
1
 10
0.992371
 20
3.752316
 11
1.022123
 21
3.725551
  0
LINE
  8
1
 10
1.022123
 20
3.725551
 11
1.051241
 21
3.696617
  0
LINE
  8
1
 10
1.051241
 20
3.696617
 11
1.079800
 21
3.665313
  0
LINE
  8
1
 10
1.079800
 20
3.665313
 11
1.107828
 21
3.631455
  0
LINE
  8
1
 10
1.107828
 20
3.631455
 11
1.135306
 21
3.594892
  0
LINE
  8
1
 10
1.135306
 20
3.594892
 11
1.162180
 21
3.555510
  0
LINE
  8
1
 10
1.162180
 20
3.555510
 11
1.188367
 21
3.513238
  0
LINE
  8
1
 10
1.188367
 20
3.513238
 11
1.213765
 21
3.468049
  0
LINE
  8
1
 10
1.213765
 20
3.468049
 11
1.238263
 21
3.419963
  0
LINE
  8
1
 10
1.238263
 20
3.419963
 11
1.261749
 21
3.369040
  0
LINE
  8
1
 10
1.261749
 20
3.369040
 11
1.284118
 21
3.315379
  0
LINE
  8
1
 10
1.284118
 20
3.315379
 11
1.305278
 21
3.259112
  0
LINE
  8
1
 10
1.305278
 20
3.259112
 11
1.325158
 21
3.200395
  0
LINE
  8
1
 10
1.325158
 20
3.200395
 11
1.343704
 21
3.139403
  0
LINE
  8
1
 10
1.343704
 20
3.139403
 11
1.360891
 21
3.076324
  0
LINE
  8
1
 10
1.360891
 20
3.076324
 11
1.376717
 21
3.011350
  0
LINE
  8
1
 10
1.376717
 20
3.011350
 11
1.391206
 21
2.944672
  0
LINE
  8
1
 10
1.391206
 20
2.944672
 11
1.404409
 21
2.876471
  0
LINE
  8
1
 10
1.404409
 20
2.876471
 11
1.416397
 21
2.806917
  0
LINE
  8
1
 10
1.416397
 20
2.806917
 11
1.427270
 21
2.736161
  0
LINE
  8
1
 10
1.427270
 20
2.736161
 11
1.437145
 21
2.664333
  0
LINE
  8
1
 10
1.437145
 20
2.664333
 11
1.446160
 21
2.591538
  0
LINE
  8
1
 10
1.446160
 20
2.591538
 11
1.454475
 21
2.517856
  0
LINE
  8
1
 10
1.454475
 20
2.517856
 11
1.462264
 21
2.443338
  0
LINE
  8
1
 10
1.462264
 20
2.443338
 11
1.469719
 21
2.368014
  0
LINE
  8
1
 10
1.469719
 20
2.368014
 11
1.477047
 21
2.291894
  0
LINE
  8
1
 10
1.477047
 20
2.291894
 11
1.484471
 21
2.214972
  0
LINE
  8
1
 10
1.484471
 20
2.214972
 11
1.492226
 21
2.137241
  0
LINE
  8
1
 10
1.492226
 20
2.137241
 11
1.500558
 21
2.058702
  0
LINE
  8
1
 10
1.500558
 20
2.058702
 11
1.509719
 21
1.979381
  0
LINE
  8
1
 10
1.509719
 20
1.979381
 11
1.519957
 21
1.899347
  0
LINE
  8
1
 10
1.519957
 20
1.899347
 11
1.531512
 21
1.818729
  0
LINE
  8
1
 10
1.531512
 20
1.818729
 11
1.544592
 21
1.737734
  0
LINE
  8
1
 10
1.544592
 20
1.737734
 11
1.559361
 21
1.656656
  0
LINE
  8
1
 10
1.559361
 20
1.656656
 11
1.575916
 21
1.575886
  0
LINE
  8
1
 10
1.575916
 20
1.575886
 11
1.594265
 21
1.495894
  0
LINE
  8
1
 10
1.594265
 20
1.495894
 11
1.614318
 21
1.417218
  0
LINE
  8
1
 10
1.614318
 20
1.417218
 11
1.635872
 21
1.340425
  0
LINE
  8
1
 10
1.635872
 20
1.340425
 11
1.658627
 21
1.266081
  0
LINE
  8
1
 10
1.658627
 20
1.266081
 11
1.682193
 21
1.194704
  0
LINE
  8
1
 10
1.682193
 20
1.194704
 11
1.706131
 21
1.126733
  0
LINE
  8
1
 10
1.706131
 20
1.126733
 11
1.729977
 21
1.062504
  0
LINE
  8
1
 10
1.729977
 20
1.062504
 11
1.753286
 21
1.002238
  0
LINE
  8
1
 10
1.753286
 20
1.002238
 11
1.775661
 21
0.946033
  0
LINE
  8
1
 10
1.775661
 20
0.946033
 11
1.796776
 21
0.893874
  0
LINE
  8
1
 10
1.796776
 20
0.893874
 11
1.816400
 21
0.845638
  0
LINE
  8
1
 10
1.816400
 20
0.845638
 11
1.834399
 21
0.801095
  0
LINE
  8
1
 10
1.834399
 20
0.801095
 11
1.850741
 21
0.759913
  0
LINE
  8
1
 10
1.850741
 20
0.759913
 11
1.865493
 21
0.721650
  0
LINE
  8
1
 10
1.865493
 20
0.721650
 11
1.878809
 21
0.685742
  0
LINE
  8
1
 10
1.878809
 20
0.685742
 11
1.890918
 21
0.651489
  0
LINE
  8
1
 10
1.890918
 20
0.651489
 11
1.902106
 21
0.618057
  0
LINE
  8
1
 10
1.902106
 20
0.618057
 11
1.912610
 21
0.584742
  0
LINE
  8
1
 10
1.912610
 20
0.584742
 11
1.922526
 21
0.551267
  0
LINE
  8
1
 10
1.922526
 20
0.551267
 11
1.931858
 21
0.517617
  0
LINE
  8
1
 10
1.931858
 20
0.517617
 11
1.940606
 21
0.483795
  0
LINE
  8
1
 10
1.940606
 20
0.483795
 11
1.948768
 21
0.449810
  0
LINE
  8
1
 10
1.948768
 20
0.449810
 11
1.956341
 21
0.415668
  0
LINE
  8
1
 10
1.956341
 20
0.415668
 11
1.963325
 21
0.381375
  0
LINE
  8
1
 10
1.963325
 20
0.381375
 11
1.969718
 21
0.346938
  0
LINE
  8
1
 10
1.969718
 20
0.346938
 11
1.975519
 21
0.312364
  0
LINE
  8
1
 10
1.975519
 20
0.312364
 11
1.980727
 21
0.277661
  0
LINE
  8
1
 10
1.980727
 20
0.277661
 11
1.985340
 21
0.242835
  0
LINE
  8
1
 10
1.985340
 20
0.242835
 11
1.989358
 21
0.207894
  0
LINE
  8
1
 10
1.989358
 20
0.207894
 11
1.992780
 21
0.172846
  0
LINE
  8
1
 10
1.992780
 20
0.172846
 11
1.995605
 21
0.137697
  0
LINE
  8
1
 10
1.995605
 20
0.137697
 11
1.997832
 21
0.102456
  0
LINE
  8
1
 10
1.997832
 20
0.102456
 11
1.999461
 21
0.067131
  0
LINE
  8
1
 10
1.999461
 20
0.067131
 11
2.000491
 21
0.031728
  0
LINE
  8
1
 10
2.000491
 20
0.031728
 11
2.000923
 21
-0.003743
  0
LINE
  8
1
 10
2.000923
 20
-0.003743
 11
2.000756
 21
-0.039276
  0
LINE
  8
1
 10
2.000756
 20
-0.039276
 11
1.999990
 21
-0.074862
  0
LINE
  8
1
 10
1.999990
 20
-0.074862
 11
1.998626
 21
-0.110494
  0
LINE
  8
1
 10
1.998626
 20
-0.110494
 11
1.996663
 21
-0.146163
  0
LINE
  8
1
 10
1.996663
 20
-0.146163
 11
1.994102
 21
-0.181862
  0
LINE
  8
1
 10
1.994102
 20
-0.181862
 11
1.990944
 21
-0.217582
  0
LINE
  8
1
 10
1.990944
 20
-0.217582
 11
1.987189
 21
-0.253315
  0
LINE
  8
1
 10
1.987189
 20
-0.253315
 11
1.982837
 21
-0.289054
  0
LINE
  8
1
 10
1.982837
 20
-0.289054
 11
1.977891
 21
-0.324790
  0
LINE
  8
1
 10
1.977891
 20
-0.324790
 11
1.972350
 21
-0.360516
  0
LINE
  8
1
 10
1.972350
 20
-0.360516
 11
1.966216
 21
-0.396224
  0
LINE
  8
1
 10
1.966216
 20
-0.396224
 11
1.959490
 21
-0.431905
  0
LINE
  8
1
 10
1.959490
 20
-0.431905
 11
1.952173
 21
-0.467551
  0
LINE
  8
1
 10
1.952173
 20
-0.467551
 11
1.944267
 21
-0.503156
  0
LINE
  8
1
 10
1.944267
 20
-0.503156
 11
1.935773
 21
-0.538710
  0
LINE
  8
1
 10
1.935773
 20
-0.538710
 11
1.926693
 21
-0.574207
  0
LINE
  8
1
 10
1.926693
 20
-0.574207
 11
1.917028
 21
-0.609637
  0
LINE
  8
1
 10
1.917028
 20
-0.609637
 11
1.906781
 21
-0.644995
  0
LINE
  8
1
 10
1.906781
 20
-0.644995
 11
1.895952
 21
-0.680271
  0
LINE
  8
1
 10
1.895952
 20
-0.680271
 11
1.884545
 21
-0.715458
  0
LINE
  8
1
 10
1.884545
 20
-0.715458
 11
1.872560
 21
-0.750548
  0
LINE
  8
1
 10
1.872560
 20
-0.750548
 11
1.860000
 21
-0.785535
  0
LINE
  8
1
 10
1.860000
 20
-0.785535
 11
1.846867
 21
-0.820409
  0
LINE
  8
1
 10
1.846867
 20
-0.820409
 11
1.833163
 21
-0.855165
  0
LINE
  8
1
 10
1.833163
 20
-0.855165
 11
1.818891
 21
-0.889794
  0
LINE
  8
1
 10
1.818891
 20
-0.889794
 11
1.804052
 21
-0.924288
  0
LINE
  8
1
 10
1.804052
 20
-0.924288
 11
1.788648
 21
-0.958641
  0
LINE
  8
1
 10
1.788648
 20
-0.958641
 11
1.772683
 21
-0.992844
  0
LINE
  8
1
 10
1.772683
 20
-0.992844
 11
1.756159
 21
-1.026891
  0
LINE
  8
1
 10
1.756159
 20
-1.026891
 11
1.739077
 21
-1.060775
  0
LINE
  8
1
 10
1.739077
 20
-1.060775
 11
1.721441
 21
-1.094487
  0
LINE
  8
1
 10
1.721441
 20
-1.094487
 11
1.703252
 21
-1.128021
  0
LINE
  8
1
 10
1.703252
 20
-1.128021
 11
1.684514
 21
-1.161369
  0
LINE
  8
1
 10
1.684514
 20
-1.161369
 11
1.665229
 21
-1.194524
  0
LINE
  8
1
 10
1.665229
 20
-1.194524
 11
1.645399
 21
-1.227479
  0
LINE
  8
1
 10
1.645399
 20
-1.227479
 11
1.625026
 21
-1.260226
  0
LINE
  8
1
 10
1.625026
 20
-1.260226
 11
1.604114
 21
-1.292759
  0
LINE
  8
1
 10
1.604114
 20
-1.292759
 11
1.582665
 21
-1.325070
  0
LINE
  8
1
 10
1.582665
 20
-1.325070
 11
1.560682
 21
-1.357152
  0
LINE
  8
1
 10
1.560682
 20
-1.357152
 11
1.538166
 21
-1.388997
  0
LINE
  8
1
 10
1.538166
 20
-1.388997
 11
1.515121
 21
-1.420599
  0
LINE
  8
1
 10
1.515121
 20
-1.420599
 11
1.491550
 21
-1.451950
  0
LINE
  8
1
 10
1.491550
 20
-1.451950
 11
1.467454
 21
-1.483043
  0
LINE
  8
1
 10
1.467454
 20
-1.483043
 11
1.442836
 21
-1.513870
  0
LINE
  8
1
 10
1.442836
 20
-1.513870
 11
1.417700
 21
-1.544425
  0
LINE
  8
1
 10
1.417700
 20
-1.544425
 11
1.392047
 21
-1.574700
  0
LINE
  8
1
 10
1.392047
 20
-1.574700
 11
1.365881
 21
-1.604687
  0
LINE
  8
1
 10
1.365881
 20
-1.604687
 11
1.339204
 21
-1.634379
  0
LINE
  8
1
 10
1.339204
 20
-1.634379
 11
1.312018
 21
-1.663768
  0
LINE
  8
1
 10
1.312018
 20
-1.663768
 11
1.284326
 21
-1.692848
  0
LINE
  8
1
 10
1.284326
 20
-1.692848
 11
1.256131
 21
-1.721611
  0
LINE
  8
1
 10
1.256131
 20
-1.721611
 11
1.227436
 21
-1.750048
  0
LINE
  8
1
 10
1.227436
 20
-1.750048
 11
1.198243
 21
-1.778153
  0
LINE
  8
1
 10
1.198243
 20
-1.778153
 11
1.168555
 21
-1.805917
  0
LINE
  8
1
 10
1.168555
 20
-1.805917
 11
1.138375
 21
-1.833333
  0
LINE
  8
1
 10
1.138375
 20
-1.833333
 11
1.107706
 21
-1.860392
  0
LINE
  8
1
 10
1.107706
 20
-1.860392
 11
1.076549
 21
-1.887088
  0
LINE
  8
1
 10
1.076549
 20
-1.887088
 11
1.044910
 21
-1.913411
  0
LINE
  8
1
 10
1.044910
 20
-1.913411
 11
1.012789
 21
-1.939354
  0
LINE
  8
1
 10
1.012789
 20
-1.939354
 11
0.980190
 21
-1.964909
  0
LINE
  8
1
 10
0.980190
 20
-1.964909
 11
0.947116
 21
-1.990067
  0
LINE
  8
1
 10
0.947116
 20
-1.990067
 11
0.913571
 21
-2.014820
  0
LINE
  8
1
 10
0.913571
 20
-2.014820
 11
0.879557
 21
-2.039160
  0
LINE
  8
1
 10
0.879557
 20
-2.039160
 11
0.845077
 21
-2.063077
  0
LINE
  8
1
 10
0.845077
 20
-2.063077
 11
0.810135
 21
-2.086564
  0
LINE
  8
1
 10
0.810135
 20
-2.086564
 11
0.774735
 21
-2.109611
  0
LINE
  8
1
 10
0.774735
 20
-2.109611
 11
0.738878
 21
-2.132210
  0
LINE
  8
1
 10
0.738878
 20
-2.132210
 11
0.702570
 21
-2.154352
  0
LINE
  8
1
 10
0.702570
 20
-2.154352
 11
0.665814
 21
-2.176028
  0
LINE
  8
1
 10
0.665814
 20
-2.176028
 11
0.628614
 21
-2.197228
  0
LINE
  8
1
 10
0.628614
 20
-2.197228
 11
0.590973
 21
-2.217944
  0
LINE
  8
1
 10
0.590973
 20
-2.217944
 11
0.552895
 21
-2.238166
  0
LINE
  8
1
 10
0.552895
 20
-2.238166
 11
0.514386
 21
-2.257885
  0
LINE
  8
1
 10
0.514386
 20
-2.257885
 11
0.475448
 21
-2.277091
  0
LINE
  8
1
 10
0.475448
 20
-2.277091
 11
0.436087
 21
-2.295774
  0
LINE
  8
1
 10
0.436087
 20
-2.295774
 11
0.396307
 21
-2.313926
  0
LINE
  8
1
 10
0.396307
 20
-2.313926
 11
0.356113
 21
-2.331535
  0
LINE
  8
1
 10
0.356113
 20
-2.331535
 11
0.315511
 21
-2.348593
  0
LINE
  8
1
 10
0.315511
 20
-2.348593
 11
0.274504
 21
-2.365089
  0
LINE
  8
1
 10
0.274504
 20
-2.365089
 11
0.233100
 21
-2.381014
  0
LINE
  8
1
 10
0.233100
 20
-2.381014
 11
0.191302
 21
-2.396356
  0
LINE
  8
1
 10
0.191302
 20
-2.396356
 11
0.149118
 21
-2.411106
  0
LINE
  8
1
 10
0.149118
 20
-2.411106
 11
0.106553
 21
-2.425254
  0
LINE
  8
1
 10
0.106553
 20
-2.425254
 11
0.063614
 21
-2.438790
  0
LINE
  8
1
 10
0.063614
 20
-2.438790
 11
0.020306
 21
-2.451702
  0
LINE
  8
1
 10
0.020306
 20
-2.451702
 11
-0.023362
 21
-2.463981
  0
LINE
  8
1
 10
-0.023362
 20
-2.463981
 11
-0.067384
 21
-2.475616
  0
LINE
  8
1
 10
-0.067384
 20
-2.475616
 11
-0.111753
 21
-2.486597
  0
LINE
  8
1
 10
-0.111753
 20
-2.486597
 11
-0.156460
 21
-2.496913
  0
LINE
  8
1
 10
-0.156460
 20
-2.496913
 11
-0.201499
 21
-2.506553
  0
LINE
  8
1
 10
-0.201499
 20
-2.506553
 11
-0.246860
 21
-2.515508
  0
LINE
  8
1
 10
-0.246860
 20
-2.515508
 11
-0.292536
 21
-2.523766
  0
LINE
  8
1
 10
-0.292536
 20
-2.523766
 11
-0.338516
 21
-2.531317
  0
LINE
  8
1
 10
-0.338516
 20
-2.531317
 11
-0.384793
 21
-2.538150
  0
LINE
  8
1
 10
-0.384793
 20
-2.538150
 11
-0.431357
 21
-2.544255
  0
LINE
  8
1
 10
-0.431357
 20
-2.544255
 11
-0.478197
 21
-2.549622
  0
LINE
  8
1
 10
-0.478197
 20
-2.549622
 11
-0.525304
 21
-2.554240
  0
LINE
  8
1
 10
-0.525304
 20
-2.554240
 11
-0.572667
 21
-2.558099
  0
LINE
  8
1
 10
-0.572667
 20
-2.558099
 11
-0.620276
 21
-2.561188
  0
LINE
  8
1
 10
-0.620276
 20
-2.561188
 11
-0.668118
 21
-2.563497
  0
LINE
  8
1
 10
-0.668118
 20
-2.563497
 11
-0.716183
 21
-2.565017
  0
LINE
  8
1
 10
-0.716183
 20
-2.565017
 11
-0.764458
 21
-2.565737
  0
LINE
  8
1
 10
-0.764458
 20
-2.565737
 11
-0.812931
 21
-2.565648
  0
LINE
  8
1
 10
-0.812931
 20
-2.565648
 11
-0.861591
 21
-2.564740
  0
LINE
  8
1
 10
-0.861591
 20
-2.564740
 11
-0.910422
 21
-2.563002
  0
LINE
  8
1
 10
-0.910422
 20
-2.563002
 11
-0.959413
 21
-2.560427
  0
LINE
  8
1
 10
-0.959413
 20
-2.560427
 11
-1.008549
 21
-2.557005
  0
LINE
  8
1
 10
-1.008549
 20
-2.557005
 11
-1.057816
 21
-2.552726
  0
LINE
  8
1
 10
-1.057816
 20
-2.552726
 11
-1.107200
 21
-2.547582
  0
LINE
  8
1
 10
-1.107200
 20
-2.547582
 11
-1.156686
 21
-2.541564
  0
LINE
  8
1
 10
-1.156686
 20
-2.541564
 11
-1.206258
 21
-2.534665
  0
LINE
  8
1
 10
-1.206258
 20
-2.534665
 11
-1.255902
 21
-2.526875
  0
LINE
  8
1
 10
-1.255902
 20
-2.526875
 11
-1.305600
 21
-2.518188
  0
LINE
  8
1
 10
-1.305600
 20
-2.518188
 11
-1.355337
 21
-2.508595
  0
LINE
  8
1
 10
-1.355337
 20
-2.508595
 11
-1.405096
 21
-2.498090
  0
LINE
  8
1
 10
-1.405096
 20
-2.498090
 11
-1.454860
 21
-2.486665
  0
LINE
  8
1
 10
-1.454860
 20
-2.486665
 11
-1.504612
 21
-2.474315
  0
LINE
  8
1
 10
-1.504612
 20
-2.474315
 11
-1.554334
 21
-2.461031
  0
LINE
  8
1
 10
-1.554334
 20
-2.461031
 11
-1.604008
 21
-2.446810
  0
LINE
  8
1
 10
-1.604008
 20
-2.446810
 11
-1.653615
 21
-2.431645
  0
LINE
  8
1
 10
-1.653615
 20
-2.431645
 11
-1.703138
 21
-2.415532
  0
LINE
  8
1
 10
-1.703138
 20
-2.415532
 11
-1.752556
 21
-2.398464
  0
LINE
  8
1
 10
-1.752556
 20
-2.398464
 11
-1.801851
 21
-2.380439
  0
LINE
  8
1
 10
-1.801851
 20
-2.380439
 11
-1.851003
 21
-2.361452
  0
LINE
  8
1
 10
-1.851003
 20
-2.361452
 11
-1.899992
 21
-2.341499
  0
LINE
  8
1
 10
-1.899992
 20
-2.341499
 11
-1.948799
 21
-2.320579
  0
LINE
  8
1
 10
-1.948799
 20
-2.320579
 11
-1.997402
 21
-2.298687
  0
LINE
  8
1
 10
-1.997402
 20
-2.298687
 11
-2.045782
 21
-2.275822
  0
LINE
  8
1
 10
-2.045782
 20
-2.275822
 11
-2.093917
 21
-2.251983
  0
LINE
  8
1
 10
-2.093917
 20
-2.251983
 11
-2.141787
 21
-2.227169
  0
LINE
  8
1
 10
-2.141787
 20
-2.227169
 11
-2.189370
 21
-2.201378
  0
LINE
  8
1
 10
-2.189370
 20
-2.201378
 11
-2.236645
 21
-2.174610
  0
LINE
  8
1
 10
-2.236645
 20
-2.174610
 11
-2.283590
 21
-2.146867
  0
LINE
  8
1
 10
-2.283590
 20
-2.146867
 11
-2.330183
 21
-2.118149
  0
LINE
  8
1
 10
-2.330183
 20
-2.118149
 11
-2.376403
 21
-2.088458
  0
LINE
  8
1
 10
-2.376403
 20
-2.088458
 11
-2.422227
 21
-2.057796
  0
LINE
  8
1
 10
-2.422227
 20
-2.057796
 11
-2.467634
 21
-2.026164
  0
LINE
  8
1
 10
-2.467634
 20
-2.026164
 11
-2.512601
 21
-1.993568
  0
LINE
  8
1
 10
-2.512601
 20
-1.993568
 11
-2.557106
 21
-1.960010
  0
LINE
  8
1
 10
-2.557106
 20
-1.960010
 11
-2.601126
 21
-1.925495
  0
LINE
  8
1
 10
-2.601126
 20
-1.925495
 11
-2.644640
 21
-1.890028
  0
LINE
  8
1
 10
-2.644640
 20
-1.890028
 11
-2.687624
 21
-1.853614
  0
LINE
  8
1
 10
-2.687624
 20
-1.853614
 11
-2.730056
 21
-1.816260
  0
LINE
  8
1
 10
-2.730056
 20
-1.816260
 11
-2.771915
 21
-1.777972
  0
LINE
  8
1
 10
-2.771915
 20
-1.777972
 11
-2.813177
 21
-1.738758
  0
LINE
  8
1
 10
-2.813177
 20
-1.738758
 11
-2.853820
 21
-1.698625
  0
LINE
  8
1
 10
-2.853820
 20
-1.698625
 11
-2.893822
 21
-1.657583
  0
LINE
  8
1
 10
-2.893822
 20
-1.657583
 11
-2.933161
 21
-1.615640
  0
LINE
  8
1
 10
-2.933161
 20
-1.615640
 11
-2.971814
 21
-1.572807
  0
LINE
  8
1
 10
-2.971814
 20
-1.572807
 11
-3.009761
 21
-1.529093
  0
LINE
  8
1
 10
-3.009761
 20
-1.529093
 11
-3.046978
 21
-1.484510
  0
LINE
  8
1
 10
-3.046978
 20
-1.484510
 11
-3.083445
 21
-1.439069
  0
LINE
  8
1
 10
-3.083445
 20
-1.439069
 11
-3.119140
 21
-1.392783
  0
LINE
  8
1
 10
-3.119140
 20
-1.392783
 11
-3.154041
 21
-1.345665
  0
LINE
  8
1
 10
-3.154041
 20
-1.345665
 11
-3.188129
 21
-1.297727
  0
LINE
  8
1
 10
-3.188129
 20
-1.297727
 11
-3.221382
 21
-1.248984
  0
LINE
  8
1
 10
-3.221382
 20
-1.248984
 11
-3.253779
 21
-1.199450
  0
LINE
  8
1
 10
-3.253779
 20
-1.199450
 11
-3.285300
 21
-1.149141
  0
LINE
  8
1
 10
-3.285300
 20
-1.149141
 11
-3.315927
 21
-1.098073
  0
LINE
  8
1
 10
-3.315927
 20
-1.098073
 11
-3.345638
 21
-1.046261
  0
LINE
  8
1
 10
-3.345638
 20
-1.046261
 11
-3.374415
 21
-0.993723
  0
LINE
  8
1
 10
-3.374415
 20
-0.993723
 11
-3.402239
 21
-0.940475
  0
LINE
  8
1
 10
-3.402239
 20
-0.940475
 11
-3.429091
 21
-0.886537
  0
LINE
  8
1
 10
-3.429091
 20
-0.886537
 11
-3.454954
 21
-0.831926
  0
LINE
  8
1
 10
-3.454954
 20
-0.831926
 11
-3.479809
 21
-0.776661
  0
LINE
  8
1
 10
-3.479809
 20
-0.776661
 11
-3.503639
 21
-0.720763
  0
LINE
  8
1
 10
-3.503639
 20
-0.720763
 11
-3.526428
 21
-0.664250
  0
LINE
  8
1
 10
-3.526428
 20
-0.664250
 11
-3.548160
 21
-0.607144
  0
LINE
  8
1
 10
-3.548160
 20
-0.607144
 11
-3.568817
 21
-0.549465
  0
LINE
  8
1
 10
-3.568817
 20
-0.549465
 11
-3.588386
 21
-0.491235
  0
LINE
  8
1
 10
-3.588386
 20
-0.491235
 11
-3.606850
 21
-0.432476
  0
LINE
  8
1
 10
-3.606850
 20
-0.432476
 11
-3.624196
 21
-0.373209
  0
LINE
  8
1
 10
-3.624196
 20
-0.373209
 11
-3.640410
 21
-0.313458
  0
LINE
  8
1
 10
-3.640410
 20
-0.313458
 11
-3.655478
 21
-0.253246
  0
LINE
  8
1
 10
-3.655478
 20
-0.253246
 11
-3.669388
 21
-0.192596
  0
LINE
  8
1
 10
-3.669388
 20
-0.192596
 11
-3.682127
 21
-0.131532
  0
LINE
  8
1
 10
-3.682127
 20
-0.131532
 11
-3.693685
 21
-0.070078
  0
LINE
  8
1
 10
-3.693685
 20
-0.070078
 11
-3.704049
 21
-0.008259
  0
LINE
  8
1
 10
-3.704049
 20
-0.008259
 11
-3.713210
 21
0.053901
  0
LINE
  8
1
 10
-3.713210
 20
0.053901
 11
-3.721158
 21
0.116376
  0
LINE
  8
1
 10
-3.721158
 20
0.116376
 11
-3.727884
 21
0.179141
  0
LINE
  8
1
 10
-3.727884
 20
0.179141
 11
-3.733378
 21
0.242171
  0
LINE
  8
1
 10
-3.733378
 20
0.242171
 11
-3.737634
 21
0.305440
  0
LINE
  8
1
 10
-3.737634
 20
0.305440
 11
-3.740643
 21
0.368921
  0
LINE
  8
1
 10
-3.740643
 20
0.368921
 11
-3.742400
 21
0.432588
  0
LINE
  8
1
 10
-3.742400
 20
0.432588
 11
-3.742898
 21
0.496415
  0
LINE
  8
1
 10
-3.742898
 20
0.496415
 11
-3.742132
 21
0.560375
  0
LINE
  8
1
 10
-3.742132
 20
0.560375
 11
-3.740098
 21
0.624441
  0
LINE
  8
1
 10
-3.740098
 20
0.624441
 11
-3.736790
 21
0.688587
  0
LINE
  8
1
 10
-3.736790
 20
0.688587
 11
-3.732207
 21
0.752785
  0
LINE
  8
1
 10
-3.732207
 20
0.752785
 11
-3.726346
 21
0.817009
  0
LINE
  8
1
 10
-3.726346
 20
0.817009
 11
-3.719204
 21
0.881232
  0
LINE
  8
1
 10
-3.719204
 20
0.881232
 11
-3.710780
 21
0.945425
  0
LINE
  8
1
 10
-3.710780
 20
0.945425
 11
-3.701074
 21
1.009563
  0
LINE
  8
1
 10
-3.701074
 20
1.009563
 11
-3.690086
 21
1.073617
  0
LINE
  8
1
 10
-3.690086
 20
1.073617
 11
-3.677815
 21
1.137561
  0
LINE
  8
1
 10
-3.677815
 20
1.137561
 11
-3.664265
 21
1.201368
  0
LINE
  8
1
 10
-3.664265
 20
1.201368
 11
-3.649437
 21
1.265010
  0
LINE
  8
1
 10
-3.649437
 20
1.265010
 11
-3.633333
 21
1.328460
  0
LINE
  8
1
 10
-3.633333
 20
1.328460
 11
-3.615957
 21
1.391693
  0
LINE
  8
1
 10
-3.615957
 20
1.391693
 11
-3.597313
 21
1.454680
  0
LINE
  8
1
 10
-3.597313
 20
1.454680
 11
-3.577406
 21
1.517396
  0
LINE
  8
1
 10
-3.577406
 20
1.517396
 11
-3.556241
 21
1.579813
  0
LINE
  8
1
 10
-3.556241
 20
1.579813
 11
-3.533824
 21
1.641906
  0
LINE
  8
1
 10
-3.533824
 20
1.641906
 11
-3.510162
 21
1.703648
  0
LINE
  8
1
 10
-3.510162
 20
1.703648
 11
-3.485261
 21
1.765014
  0
LINE
  8
1
 10
-3.485261
 20
1.765014
 11
-3.459130
 21
1.825977
  0
LINE
  8
1
 10
-3.459130
 20
1.825977
 11
-3.431777
 21
1.886513
  0
LINE
  8
1
 10
-3.431777
 20
1.886513
 11
-3.403212
 21
1.946596
  0
LINE
  8
1
 10
-3.403212
 20
1.946596
 11
-3.373443
 21
2.006202
  0
LINE
  8
1
 10
-3.373443
 20
2.006202
 11
-3.342480
 21
2.065304
  0
LINE
  8
1
 10
-3.342480
 20
2.065304
 11
-3.310336
 21
2.123881
  0
LINE
  8
1
 10
-3.310336
 20
2.123881
 11
-3.277020
 21
2.181906
  0
LINE
  8
1
 10
-3.277020
 20
2.181906
 11
-3.242545
 21
2.239357
  0
LINE
  8
1
 10
-3.242545
 20
2.239357
 11
-3.206923
 21
2.296210
  0
LINE
  8
1
 10
-3.206923
 20
2.296210
 11
-3.170167
 21
2.352443
  0
LINE
  8
1
 10
-3.170167
 20
2.352443
 11
-3.132290
 21
2.408032
  0
LINE
  8
1
 10
-3.132290
 20
2.408032
 11
-3.093307
 21
2.462955
  0
LINE
  8
1
 10
-3.093307
 20
2.462955
 11
-3.053231
 21
2.517191
  0
LINE
  8
1
 10
-3.053231
 20
2.517191
 11
-3.012077
 21
2.570718
  0
LINE
  8
1
 10
-3.012077
 20
2.570718
 11
-2.969861
 21
2.623515
  0
LINE
  8
1
 10
-2.969861
 20
2.623515
 11
-2.926599
 21
2.675561
  0
LINE
  8
1
 10
-2.926599
 20
2.675561
 11
-2.882305
 21
2.726836
  0
LINE
  8
1
 10
-2.882305
 20
2.726836
 11
-2.836998
 21
2.777321
  0
LINE
  8
1
 10
-2.836998
 20
2.777321
 11
-2.790693
 21
2.826996
  0
LINE
  8
1
 10
-2.790693
 20
2.826996
 11
-2.743409
 21
2.875842
  0
LINE
  8
1
 10
-2.743409
 20
2.875842
 11
-2.695162
 21
2.923840
  0
LINE
  8
1
 10
-2.695162
 20
2.923840
 11
-2.645971
 21
2.970973
  0
LINE
  8
1
 10
-2.645971
 20
2.970973
 11
-2.595854
 21
3.017224
  0
LINE
  8
1
 10
-2.595854
 20
3.017224
 11
-2.544830
 21
3.062574
  0
LINE
  8
1
 10
-2.544830
 20
3.062574
 11
-2.492917
 21
3.107008
  0
LINE
  8
1
 10
-2.492917
 20
3.107008
 11
-2.440135
 21
3.150509
  0
LINE
  8
1
 10
-2.440135
 20
3.150509
 11
-2.386504
 21
3.193063
  0
LINE
  8
1
 10
-2.386504
 20
3.193063
 11
-2.332043
 21
3.234652
  0
LINE
  8
1
 10
-2.332043
 20
3.234652
 11
-2.276772
 21
3.275264
  0
LINE
  8
1
 10
-2.276772
 20
3.275264
 11
-2.220711
 21
3.314883
  0
LINE
  8
1
 10
-2.220711
 20
3.314883
 11
-2.163882
 21
3.353496
  0
LINE
  8
1
 10
-2.163882
 20
3.353496
 11
-2.106304
 21
3.391090
  0
LINE
  8
1
 10
-2.106304
 20
3.391090
 11
-2.047999
 21
3.427652
  0
LINE
  8
1
 10
-2.047999
 20
3.427652
 11
-1.988988
 21
3.463169
  0
LINE
  8
1
 10
-1.988988
 20
3.463169
 11
-1.929291
 21
3.497630
  0
LINE
  8
1
 10
-1.929291
 20
3.497630
 11
-1.868931
 21
3.531023
  0
LINE
  8
1
 10
-1.868931
 20
3.531023
 11
-1.807929
 21
3.563338
  0
LINE
  8
1
 10
-1.807929
 20
3.563338
 11
-1.746307
 21
3.594564
  0
LINE
  8
1
 10
-1.746307
 20
3.594564
 11
-1.684087
 21
3.624690
  0
LINE
  8
1
 10
-1.684087
 20
3.624690
 11
-1.621290
 21
3.653708
  0
LINE
  8
1
 10
-1.621290
 20
3.653708
 11
-1.557938
 21
3.681608
  0
LINE
  8
1
 10
-1.557938
 20
3.681608
 11
-1.494055
 21
3.708381
  0
LINE
  8
1
 10
-1.494055
 20
3.708381
 11
-1.429662
 21
3.734020
  0
LINE
  8
1
 10
-1.429662
 20
3.734020
 11
-1.364781
 21
3.758516
  0
LINE
  8
1
 10
-1.364781
 20
3.758516
 11
-1.299436
 21
3.781862
  0
LINE
  8
1
 10
-1.299436
 20
3.781862
 11
-1.233649
 21
3.804052
  0
LINE
  8
1
 10
-1.233649
 20
3.804052
 11
-1.167441
 21
3.825077
  0
LINE
  8
1
 10
-1.167441
 20
3.825077
 11
-1.100837
 21
3.844934
  0
LINE
  8
1
 10
-1.100837
 20
3.844934
 11
-1.033859
 21
3.863614
  0
LINE
  8
1
 10
-1.033859
 20
3.863614
 11
-0.966530
 21
3.881114
  0
LINE
  8
1
 10
-0.966530
 20
3.881114
 11
-0.898872
 21
3.897429
  0
LINE
  8
1
 10
-0.898872
 20
3.897429
 11
-0.830909
 21
3.912553
  0
LINE
  8
1
 10
-0.830909
 20
3.912553
 11
-0.762664
 21
3.926482
  0
LINE
  8
1
 10
-0.762664
 20
3.926482
 11
-0.694160
 21
3.939213
  0
LINE
  8
1
 10
-0.694160
 20
3.939213
 11
-0.625419
 21
3.950741
  0
LINE
  8
1
 10
-0.625419
 20
3.950741
 11
-0.556467
 21
3.961065
  0
LINE
  8
1
 10
-0.556467
 20
3.961065
 11
-0.487324
 21
3.970180
  0
LINE
  8
1
 10
-0.487324
 20
3.970180
 11
-0.418016
 21
3.978085
  0
LINE
  8
1
 10
-0.418016
 20
3.978085
 11
-0.348565
 21
3.984778
  0
LINE
  8
1
 10
-0.348565
 20
3.984778
 11
-0.278995
 21
3.990256
  0
LINE
  8
1
 10
-0.278995
 20
3.990256
 11
-0.209330
 21
3.994518
  0
LINE
  8
1
 10
-0.209330
 20
3.994518
 11
-0.139593
 21
3.997563
  0
LINE
  8
1
 10
-0.139593
 20
3.997563
 11
-0.069809
 21
3.999391
  0
LINE
  8
1
 10
-0.069809
 20
3.999391
 11
-0.000014
 21
4.000000
  0
ENDSEC
  0
EOF
