  0
SECTION
  2
HEADER
  9
$EXTMIN
 10
-2.467481
 20
-2.181911
  9
$EXTMAX
 10
3.583355
 20
4.000000
  0
ENDSEC
  0
SECTION
  2
TABLES
  0
TABLE
  2
LTYPE
 70
1
  0
LTYPE
  2
CONTINUOUS
 70
64
  3
Solid Line
 72
65
 73
0
 40
0.000000
  0
ENDTAB
  0
TABLE
  2
LAYER
 70
16
  0
LAYER
  2
0
 70
0
 62
7
  6
CONTINUOUS
  0
LAYER
  2
1
 70
0
 62
7
  6
CONTINUOUS
  0
LAYER
  2
2
 70
0
 62
7
  6
CONTINUOUS
  0
LAYER
  2
3
 70
0
 62
7
  6
CONTINUOUS
  0
LAYER
  2
4
 70
0
 62
7
  6
CONTINUOUS
  0
LAYER
  2
5
 70
0
 62
7
  6
CONTINUOUS
  0
LAYER
  2
6
 70
0
 62
7
  6
CONTINUOUS
  0
LAYER
  2
7
 70
0
 62
7
  6
CONTINUOUS
  0
LAYER
  2
8
 70
0
 62
7
  6
CONTINUOUS
  0
LAYER
  2
9
 70
0
 62
7
  6
CONTINUOUS
  0
LAYER
  2
10
 70
0
 62
7
  6
CONTINUOUS
  0
LAYER
  2
11
 70
0
 62
7
  6
CONTINUOUS
  0
LAYER
  2
12
 70
0
 62
7
  6
CONTINUOUS
  0
LAYER
  2
13
 70
0
 62
7
  6
CONTINUOUS
  0
LAYER
  2
14
 70
0
 62
7
  6
CONTINUOUS
  0
LAYER
  2
15
 70
0
 62
7
  6
CONTINUOUS
  0
ENDTAB
  0
ENDSEC
  0
SECTION
  2
ENTITIES
  0
LINE
  8
1
 10
0.000002
 20
4.000000
 11
0.069808
 21
3.999391
  0
LINE
  8
1
 10
0.069808
 20
3.999391
 11
0.139589
 21
3.997563
  0
LINE
  8
1
 10
0.139589
 20
3.997563
 11
0.209316
 21
3.994518
  0
LINE
  8
1
 10
0.209316
 20
3.994518
 11
0.278963
 21
3.990255
  0
LINE
  8
1
 10
0.278963
 20
3.990255
 11
0.348505
 21
3.984777
  0
LINE
  8
1
 10
0.348505
 20
3.984777
 11
0.417914
 21
3.978083
  0
LINE
  8
1
 10
0.417914
 20
3.978083
 11
0.487165
 21
3.970175
  0
LINE
  8
1
 10
0.487165
 20
3.970175
 11
0.556232
 21
3.961057
  0
LINE
  8
1
 10
0.556232
 20
3.961057
 11
0.625090
 21
3.950728
  0
LINE
  8
1
 10
0.625090
 20
3.950728
 11
0.693714
 21
3.939193
  0
LINE
  8
1
 10
0.693714
 20
3.939193
 11
0.762078
 21
3.926453
  0
LINE
  8
1
 10
0.762078
 20
3.926453
 11
0.830157
 21
3.912512
  0
LINE
  8
1
 10
0.830157
 20
3.912512
 11
0.897925
 21
3.897374
  0
LINE
  8
1
 10
0.897925
 20
3.897374
 11
0.965359
 21
3.881042
  0
LINE
  8
1
 10
0.965359
 20
3.881042
 11
1.032433
 21
3.863521
  0
LINE
  8
1
 10
1.032433
 20
3.863521
 11
1.099121
 21
3.844814
  0
LINE
  8
1
 10
1.099121
 20
3.844814
 11
1.165400
 21
3.824928
  0
LINE
  8
1
 10
1.165400
 20
3.824928
 11
1.231245
 21
3.803868
  0
LINE
  8
1
 10
1.231245
 20
3.803868
 11
1.296632
 21
3.781640
  0
LINE
  8
1
 10
1.296632
 20
3.781640
 11
1.361534
 21
3.758249
  0
LINE
  8
1
 10
1.361534
 20
3.758249
 11
1.425929
 21
3.733704
  0
LINE
  8
1
 10
1.425929
 20
3.733704
 11
1.489792
 21
3.708011
  0
LINE
  8
1
 10
1.489792
 20
3.708011
 11
1.553098
 21
3.681178
  0
LINE
  8
1
 10
1.553098
 20
3.681178
 11
1.615824
 21
3.653214
  0
LINE
  8
1
 10
1.615824
 20
3.653214
 11
1.677944
 21
3.624127
  0
LINE
  8
1
 10
1.677944
 20
3.624127
 11
1.739437
 21
3.593927
  0
LINE
  8
1
 10
1.739437
 20
3.593927
 11
1.800276
 21
3.562623
  0
LINE
  8
1
 10
1.800276
 20
3.562623
 11
1.860440
 21
3.530227
  0
LINE
  8
1
 10
1.860440
 20
3.530227
 11
1.919903
 21
3.496749
  0
LINE
  8
1
 10
1.919903
 20
3.496749
 11
1.978643
 21
3.462201
  0
LINE
  8
1
 10
1.978643
 20
3.462201
 11
2.036637
 21
3.426595
  0
LINE
  8
1
 10
2.036637
 20
3.426595
 11
2.093862
 21
3.389944
  0
LINE
  8
1
 10
2.093862
 20
3.389944
 11
2.150295
 21
3.352261
  0
LINE
  8
1
 10
2.150295
 20
3.352261
 11
2.205912
 21
3.313561
  0
LINE
  8
1
 10
2.205912
 20
3.313561
 11
2.260693
 21
3.273857
  0
LINE
  8
1
 10
2.260693
 20
3.273857
 11
2.314614
 21
3.233165
  0
LINE
  8
1
 10
2.314614
 20
3.233165
 11
2.367655
 21
3.191500
  0
LINE
  8
1
 10
2.367655
 20
3.191500
 11
2.419793
 21
3.148880
  0
LINE
  8
1
 10
2.419793
 20
3.148880
 11
2.471007
 21
3.105320
  0
LINE
  8
1
 10
2.471007
 20
3.105320
 11
2.521278
 21
3.060839
  0
LINE
  8
1
 10
2.521278
 20
3.060839
 11
2.570583
 21
3.015455
  0
LINE
  8
1
 10
2.570583
 20
3.015455
 11
2.618904
 21
2.969186
  0
LINE
  8
1
 10
2.618904
 20
2.969186
 11
2.666220
 21
2.922052
  0
LINE
  8
1
 10
2.666220
 20
2.922052
 11
2.712513
 21
2.874072
  0
LINE
  8
1
 10
2.712513
 20
2.874072
 11
2.757763
 21
2.825267
  0
LINE
  8
1
 10
2.757763
 20
2.825267
 11
2.801952
 21
2.775658
  0
LINE
  8
1
 10
2.801952
 20
2.775658
 11
2.845063
 21
2.725266
  0
LINE
  8
1
 10
2.845063
 20
2.725266
 11
2.887078
 21
2.674114
  0
LINE
  8
1
 10
2.887078
 20
2.674114
 11
2.927981
 21
2.622225
  0
LINE
  8
1
 10
2.927981
 20
2.622225
 11
2.967754
 21
2.569621
  0
LINE
  8
1
 10
2.967754
 20
2.569621
 11
3.006384
 21
2.516326
  0
LINE
  8
1
 10
3.006384
 20
2.516326
 11
3.043853
 21
2.462364
  0
LINE
  8
1
 10
3.043853
 20
2.462364
 11
3.080149
 21
2.407760
  0
LINE
  8
1
 10
3.080149
 20
2.407760
 11
3.115258
 21
2.352538
  0
LINE
  8
1
 10
3.115258
 20
2.352538
 11
3.149165
 21
2.296725
  0
LINE
  8
1
 10
3.149165
 20
2.296725
 11
3.181859
 21
2.240346
  0
LINE
  8
1
 10
3.181859
 20
2.240346
 11
3.213328
 21
2.183428
  0
LINE
  8
1
 10
3.213328
 20
2.183428
 11
3.243560
 21
2.125997
  0
LINE
  8
1
 10
3.243560
 20
2.125997
 11
3.272546
 21
2.068080
  0
LINE
  8
1
 10
3.272546
 20
2.068080
 11
3.300275
 21
2.009704
  0
LINE
  8
1
 10
3.300275
 20
2.009704
 11
3.326738
 21
1.950897
  0
LINE
  8
1
 10
3.326738
 20
1.950897
 11
3.351928
 21
1.891688
  0
LINE
  8
1
 10
3.351928
 20
1.891688
 11
3.375837
 21
1.832104
  0
LINE
  8
1
 10
3.375837
 20
1.832104
 11
3.398458
 21
1.772173
  0
LINE
  8
1
 10
3.398458
 20
1.772173
 11
3.419785
 21
1.711924
  0
LINE
  8
1
 10
3.419785
 20
1.711924
 11
3.439814
 21
1.651387
  0
LINE
  8
1
 10
3.439814
 20
1.651387
 11
3.458539
 21
1.590590
  0
LINE
  8
1
 10
3.458539
 20
1.590590
 11
3.475957
 21
1.529562
  0
LINE
  8
1
 10
3.475957
 20
1.529562
 11
3.492066
 21
1.468332
  0
LINE
  8
1
 10
3.492066
 20
1.468332
 11
3.506864
 21
1.406930
  0
LINE
  8
1
 10
3.506864
 20
1.406930
 11
3.520349
 21
1.345385
  0
LINE
  8
1
 10
3.520349
 20
1.345385
 11
3.532522
 21
1.283726
  0
LINE
  8
1
 10
3.532522
 20
1.283726
 11
3.543382
 21
1.221983
  0
LINE
  8
1
 10
3.543382
 20
1.221983
 11
3.552931
 21
1.160185
  0
LINE
  8
1
 10
3.552931
 20
1.160185
 11
3.561171
 21
1.098361
  0
LINE
  8
1
 10
3.561171
 20
1.098361
 11
3.568106
 21
1.036540
  0
LINE
  8
1
 10
3.568106
 20
1.036540
 11
3.573739
 21
0.974752
  0
LINE
  8
1
 10
3.573739
 20
0.974752
 11
3.578075
 21
0.913025
  0
LINE
  8
1
 10
3.578075
 20
0.913025
 11
3.581118
 21
0.851388
  0
LINE
  8
1
 10
3.581118
 20
0.851388
 11
3.582876
 21
0.789869
  0
LINE
  8
1
 10
3.582876
 20
0.789869
 11
3.583355
 21
0.728497
  0
LINE
  8
1
 10
3.583355
 20
0.728497
 11
3.582563
 21
0.667300
  0
LINE
  8
1
 10
3.582563
 20
0.667300
 11
3.580509
 21
0.606305
  0
LINE
  8
1
 10
3.580509
 20
0.606305
 11
3.577201
 21
0.545541
  0
LINE
  8
1
 10
3.577201
 20
0.545541
 11
3.572651
 21
0.485033
  0
LINE
  8
1
 10
3.572651
 20
0.485033
 11
3.566867
 21
0.424809
  0
LINE
  8
1
 10
3.566867
 20
0.424809
 11
3.559863
 21
0.364895
  0
LINE
  8
1
 10
3.559863
 20
0.364895
 11
3.551650
 21
0.305317
  0
LINE
  8
1
 10
3.551650
 20
0.305317
 11
3.542241
 21
0.246101
  0
LINE
  8
1
 10
3.542241
 20
0.246101
 11
3.531650
 21
0.187271
  0
LINE
  8
1
 10
3.531650
 20
0.187271
 11
3.519890
 21
0.128852
  0
LINE
  8
1
 10
3.519890
 20
0.128852
 11
3.506977
 21
0.070868
  0
LINE
  8
1
 10
3.506977
 20
0.070868
 11
3.492926
 21
0.013343
  0
LINE
  8
1
 10
3.492926
 20
0.013343
 11
3.477752
 21
-0.043700
  0
LINE
  8
1
 10
3.477752
 20
-0.043700
 11
3.461474
 21
-0.100240
  0
LINE
  8
1
 10
3.461474
 20
-0.100240
 11
3.444107
 21
-0.156253
  0
LINE
  8
1
 10
3.444107
 20
-0.156253
 11
3.425669
 21
-0.211719
  0
LINE
  8
1
 10
3.425669
 20
-0.211719
 11
3.406179
 21
-0.266618
  0
LINE
  8
1
 10
3.406179
 20
-0.266618
 11
3.385654
 21
-0.320928
  0
LINE
  8
1
 10
3.385654
 20
-0.320928
 11
3.364115
 21
-0.374631
  0
LINE
  8
1
 10
3.364115
 20
-0.374631
 11
3.341581
 21
-0.427709
  0
LINE
  8
1
 10
3.341581
 20
-0.427709
 11
3.318071
 21
-0.480142
  0
LINE
  8
1
 10
3.318071
 20
-0.480142
 11
3.293606
 21
-0.531914
  0
LINE
  8
1
 10
3.293606
 20
-0.531914
 11
3.268206
 21
-0.583008
  0
LINE
  8
1
 10
3.268206
 20
-0.583008
 11
3.241893
 21
-0.633408
  0
LINE
  8
1
 10
3.241893
 20
-0.633408
 11
3.214687
 21
-0.683098
  0
LINE
  8
1
 10
3.214687
 20
-0.683098
 11
3.186611
 21
-0.732065
  0
LINE
  8
1
 10
3.186611
 20
-0.732065
 11
3.157685
 21
-0.780293
  0
LINE
  8
1
 10
3.157685
 20
-0.780293
 11
3.127932
 21
-0.827771
  0
LINE
  8
1
 10
3.127932
 20
-0.827771
 11
3.097375
 21
-0.874486
  0
LINE
  8
1
 10
3.097375
 20
-0.874486
 11
3.066035
 21
-0.920425
  0
LINE
  8
1
 10
3.066035
 20
-0.920425
 11
3.033934
 21
-0.965579
  0
LINE
  8
1
 10
3.033934
 20
-0.965579
 11
3.001096
 21
-1.009936
  0
LINE
  8
1
 10
3.001096
 20
-1.009936
 11
2.967543
 21
-1.053488
  0
LINE
  8
1
 10
2.967543
 20
-1.053488
 11
2.933298
 21
-1.096226
  0
LINE
  8
1
 10
2.933298
 20
-1.096226
 11
2.898383
 21
-1.138140
  0
LINE
  8
1
 10
2.898383
 20
-1.138140
 11
2.862821
 21
-1.179225
  0
LINE
  8
1
 10
2.862821
 20
-1.179225
 11
2.826635
 21
-1.219473
  0
LINE
  8
1
 10
2.826635
 20
-1.219473
 11
2.789847
 21
-1.258879
  0
LINE
  8
1
 10
2.789847
 20
-1.258879
 11
2.752480
 21
-1.297437
  0
LINE
  8
1
 10
2.752480
 20
-1.297437
 11
2.714557
 21
-1.335143
  0
LINE
  8
1
 10
2.714557
 20
-1.335143
 11
2.676099
 21
-1.371992
  0
LINE
  8
1
 10
2.676099
 20
-1.371992
 11
2.637129
 21
-1.407982
  0
LINE
  8
1
 10
2.637129
 20
-1.407982
 11
2.597669
 21
-1.443110
  0
LINE
  8
1
 10
2.597669
 20
-1.443110
 11
2.557741
 21
-1.477374
  0
LINE
  8
1
 10
2.557741
 20
-1.477374
 11
2.517365
 21
-1.510772
  0
LINE
  8
1
 10
2.517365
 20
-1.510772
 11
2.476565
 21
-1.543304
  0
LINE
  8
1
 10
2.476565
 20
-1.543304
 11
2.435360
 21
-1.574970
  0
LINE
  8
1
 10
2.435360
 20
-1.574970
 11
2.393772
 21
-1.605771
  0
LINE
  8
1
 10
2.393772
 20
-1.605771
 11
2.351821
 21
-1.635706
  0
LINE
  8
1
 10
2.351821
 20
-1.635706
 11
2.309527
 21
-1.664778
  0
LINE
  8
1
 10
2.309527
 20
-1.664778
 11
2.266910
 21
-1.692988
  0
LINE
  8
1
 10
2.266910
 20
-1.692988
 11
2.223991
 21
-1.720340
  0
LINE
  8
1
 10
2.223991
 20
-1.720340
 11
2.180787
 21
-1.746836
  0
LINE
  8
1
 10
2.180787
 20
-1.746836
 11
2.137318
 21
-1.772480
  0
LINE
  8
1
 10
2.137318
 20
-1.772480
 11
2.093603
 21
-1.797275
  0
LINE
  8
1
 10
2.093603
 20
-1.797275
 11
2.049660
 21
-1.821226
  0
LINE
  8
1
 10
2.049660
 20
-1.821226
 11
2.005506
 21
-1.844338
  0
LINE
  8
1
 10
2.005506
 20
-1.844338
 11
1.961158
 21
-1.866616
  0
LINE
  8
1
 10
1.961158
 20
-1.866616
 11
1.916635
 21
-1.888065
  0
LINE
  8
1
 10
1.916635
 20
-1.888065
 11
1.871952
 21
-1.908691
  0
LINE
  8
1
 10
1.871952
 20
-1.908691
 11
1.827125
 21
-1.928500
  0
LINE
  8
1
 10
1.827125
 20
-1.928500
 11
1.782170
 21
-1.947498
  0
LINE
  8
1
 10
1.782170
 20
-1.947498
 11
1.737103
 21
-1.965693
  0
LINE
  8
1
 10
1.737103
 20
-1.965693
 11
1.691939
 21
-1.983091
  0
LINE
  8
1
 10
1.691939
 20
-1.983091
 11
1.646691
 21
-1.999699
  0
LINE
  8
1
 10
1.646691
 20
-1.999699
 11
1.601375
 21
-2.015525
  0
LINE
  8
1
 10
1.601375
 20
-2.015525
 11
1.556003
 21
-2.030576
  0
LINE
  8
1
 10
1.556003
 20
-2.030576
 11
1.510590
 21
-2.044859
  0
LINE
  8
1
 10
1.510590
 20
-2.044859
 11
1.465148
 21
-2.058383
  0
LINE
  8
1
 10
1.465148
 20
-2.058383
 11
1.419689
 21
-2.071156
  0
LINE
  8
1
 10
1.419689
 20
-2.071156
 11
1.374226
 21
-2.083185
  0
LINE
  8
1
 10
1.374226
 20
-2.083185
 11
1.328770
 21
-2.094479
  0
LINE
  8
1
 10
1.328770
 20
-2.094479
 11
1.283333
 21
-2.105046
  0
LINE
  8
1
 10
1.283333
 20
-2.105046
 11
1.237927
 21
-2.114894
  0
LINE
  8
1
 10
1.237927
 20
-2.114894
 11
1.192560
 21
-2.124031
  0
LINE
  8
1
 10
1.192560
 20
-2.124031
 11
1.147245
 21
-2.132466
  0
LINE
  8
1
 10
1.147245
 20
-2.132466
 11
1.101991
 21
-2.140207
  0
LINE
  8
1
 10
1.101991
 20
-2.140207
 11
1.056808
 21
-2.147262
  0
LINE
  8
1
 10
1.056808
 20
-2.147262
 11
1.011704
 21
-2.153640
  0
LINE
  8
1
 10
1.011704
 20
-2.153640
 11
0.966690
 21
-2.159348
  0
LINE
  8
1
 10
0.966690
 20
-2.159348
 11
0.921775
 21
-2.164395
  0
LINE
  8
1
 10
0.921775
 20
-2.164395
 11
0.876966
 21
-2.168788
  0
LINE
  8
1
 10
0.876966
 20
-2.168788
 11
0.832272
 21
-2.172537
  0
LINE
  8
1
 10
0.832272
 20
-2.172537
 11
0.787701
 21
-2.175648
  0
LINE
  8
1
 10
0.787701
 20
-2.175648
 11
0.743262
 21
-2.178129
  0
LINE
  8
1
 10
0.743262
 20
-2.178129
 11
0.698962
 21
-2.179989
  0
LINE
  8
1
 10
0.698962
 20
-2.179989
 11
0.654808
 21
-2.181234
  0
LINE
  8
1
 10
0.654808
 20
-2.181234
 11
0.610808
 21
-2.181872
  0
LINE
  8
1
 10
0.610808
 20
-2.181872
 11
0.566969
 21
-2.181911
  0
LINE
  8
1
 10
0.566969
 20
-2.181911
 11
0.523298
 21
-2.181357
  0
LINE
  8
1
 10
0.523298
 20
-2.181357
 11
0.479802
 21
-2.180217
  0
LINE
  8
1
 10
0.479802
 20
-2.180217
 11
0.436488
 21
-2.178499
  0
LINE
  8
1
 10
0.436488
 20
-2.178499
 11
0.393362
 21
-2.176208
  0
LINE
  8
1
 10
0.393362
 20
-2.176208
 11
0.350430
 21
-2.173353
  0
LINE
  8
1
 10
0.350430
 20
-2.173353
 11
0.307701
 21
-2.169938
  0
LINE
  8
1
 10
0.307701
 20
-2.169938
 11
0.265179
 21
-2.165970
  0
LINE
  8
1
 10
0.265179
 20
-2.165970
 11
0.222871
 21
-2.161456
  0
LINE
  8
1
 10
0.222871
 20
-2.161456
 11
0.180783
 21
-2.156400
  0
LINE
  8
1
 10
0.180783
 20
-2.156400
 11
0.138922
 21
-2.150810
  0
LINE
  8
1
 10
0.138922
 20
-2.150810
 11
0.097294
 21
-2.144690
  0
LINE
  8
1
 10
0.097294
 20
-2.144690
 11
0.055904
 21
-2.138047
  0
LINE
  8
1
 10
0.055904
 20
-2.138047
 11
0.014760
 21
-2.130884
  0
LINE
  8
1
 10
0.014760
 20
-2.130884
 11
-0.026134
 21
-2.123208
  0
LINE
  8
1
 10
-0.026134
 20
-2.123208
 11
-0.066770
 21
-2.115024
  0
LINE
  8
1
 10
-0.066770
 20
-2.115024
 11
-0.107143
 21
-2.106336
  0
LINE
  8
1
 10
-0.107143
 20
-2.106336
 11
-0.147247
 21
-2.097150
  0
LINE
  8
1
 10
-0.147247
 20
-2.097150
 11
-0.187076
 21
-2.087469
  0
LINE
  8
1
 10
-0.187076
 20
-2.087469
 11
-0.226624
 21
-2.077299
  0
LINE
  8
1
 10
-0.226624
 20
-2.077299
 11
-0.265883
 21
-2.066643
  0
LINE
  8
1
 10
-0.265883
 20
-2.066643
 11
-0.304850
 21
-2.055507
  0
LINE
  8
1
 10
-0.304850
 20
-2.055507
 11
-0.343517
 21
-2.043894
  0
LINE
  8
1
 10
-0.343517
 20
-2.043894
 11
-0.381878
 21
-2.031808
  0
LINE
  8
1
 10
-0.381878
 20
-2.031808
 11
-0.419927
 21
-2.019254
  0
LINE
  8
1
 10
-0.419927
 20
-2.019254
 11
-0.457659
 21
-2.006235
  0
LINE
  8
1
 10
-0.457659
 20
-2.006235
 11
-0.495066
 21
-1.992756
  0
LINE
  8
1
 10
-0.495066
 20
-1.992756
 11
-0.532143
 21
-1.978820
  0
LINE
  8
1
 10
-0.532143
 20
-1.978820
 11
-0.568884
 21
-1.964430
  0
LINE
  8
1
 10
-0.568884
 20
-1.964430
 11
-0.605282
 21
-1.949591
  0
LINE
  8
1
 10
-0.605282
 20
-1.949591
 11
-0.641332
 21
-1.934307
  0
LINE
  8
1
 10
-0.641332
 20
-1.934307
 11
-0.677027
 21
-1.918580
  0
LINE
  8
1
 10
-0.677027
 20
-1.918580
 11
-0.712361
 21
-1.902415
  0
LINE
  8
1
 10
-0.712361
 20
-1.902415
 11
-0.747327
 21
-1.885815
  0
LINE
  8
1
 10
-0.747327
 20
-1.885815
 11
-0.781921
 21
-1.868784
  0
LINE
  8
1
 10
-0.781921
 20
-1.868784
 11
-0.816135
 21
-1.851325
  0
LINE
  8
1
 10
-0.816135
 20
-1.851325
 11
-0.849963
 21
-1.833442
  0
LINE
  8
1
 10
-0.849963
 20
-1.833442
 11
-0.883400
 21
-1.815139
  0
LINE
  8
1
 10
-0.883400
 20
-1.815139
 11
-0.916439
 21
-1.796419
  0
LINE
  8
1
 10
-0.916439
 20
-1.796419
 11
-0.949074
 21
-1.777285
  0
LINE
  8
1
 10
-0.949074
 20
-1.777285
 11
-0.981300
 21
-1.757742
  0
LINE
  8
1
 10
-0.981300
 20
-1.757742
 11
-1.013110
 21
-1.737794
  0
LINE
  8
1
 10
-1.013110
 20
-1.737794
 11
-1.044499
 21
-1.717443
  0
LINE
  8
1
 10
-1.044499
 20
-1.717443
 11
-1.075460
 21
-1.696694
  0
LINE
  8
1
 10
-1.075460
 20
-1.696694
 11
-1.105989
 21
-1.675550
  0
LINE
  8
1
 10
-1.105989
 20
-1.675550
 11
-1.136078
 21
-1.654016
  0
LINE
  8
1
 10
-1.136078
 20
-1.654016
 11
-1.165724
 21
-1.632095
  0
LINE
  8
1
 10
-1.165724
 20
-1.632095
 11
-1.194920
 21
-1.609791
  0
LINE
  8
1
 10
-1.194920
 20
-1.609791
 11
-1.223661
 21
-1.587108
  0
LINE
  8
1
 10
-1.223661
 20
-1.587108
 11
-1.251942
 21
-1.564050
  0
LINE
  8
1
 10
-1.251942
 20
-1.564050
 11
-1.279757
 21
-1.540620
  0
LINE
  8
1
 10
-1.279757
 20
-1.540620
 11
-1.307103
 21
-1.516824
  0
LINE
  8
1
 10
-1.307103
 20
-1.516824
 11
-1.333973
 21
-1.492665
  0
LINE
  8
1
 10
-1.333973
 20
-1.492665
 11
-1.360364
 21
-1.468146
  0
LINE
  8
1
 10
-1.360364
 20
-1.468146
 11
-1.386270
 21
-1.443273
  0
LINE
  8
1
 10
-1.386270
 20
-1.443273
 11
-1.411689
 21
-1.418048
  0
LINE
  8
1
 10
-1.411689
 20
-1.418048
 11
-1.436614
 21
-1.392477
  0
LINE
  8
1
 10
-1.436614
 20
-1.392477
 11
-1.461044
 21
-1.366561
  0
LINE
  8
1
 10
-1.461044
 20
-1.366561
 11
-1.484972
 21
-1.340307
  0
LINE
  8
1
 10
-1.484972
 20
-1.340307
 11
-1.508398
 21
-1.313717
  0
LINE
  8
1
 10
-1.508398
 20
-1.313717
 11
-1.531316
 21
-1.286795
  0
LINE
  8
1
 10
-1.531316
 20
-1.286795
 11
-1.553724
 21
-1.259544
  0
LINE
  8
1
 10
-1.553724
 20
-1.259544
 11
-1.575619
 21
-1.231968
  0
LINE
  8
1
 10
-1.575619
 20
-1.231968
 11
-1.596999
 21
-1.204070
  0
LINE
  8
1
 10
-1.596999
 20
-1.204070
 11
-1.617860
 21
-1.175853
  0
LINE
  8
1
 10
-1.617860
 20
-1.175853
 11
-1.638202
 21
-1.147321
  0
LINE
  8
1
 10
-1.638202
 20
-1.147321
 11
-1.658021
 21
-1.118475
  0
LINE
  8
1
 10
-1.658021
 20
-1.118475
 11
-1.677317
 21
-1.089318
  0
LINE
  8
1
 10
-1.677317
 20
-1.089318
 11
-1.696088
 21
-1.059852
  0
LINE
  8
1
 10
-1.696088
 20
-1.059852
 11
-1.714333
 21
-1.030079
  0
LINE
  8
1
 10
-1.714333
 20
-1.030079
 11
-1.732052
 21
-0.999997
  0
LINE
  8
1
 10
-1.732052
 20
-0.999997
 11
-1.749264
 21
-0.969576
  0
LINE
  8
1
 10
-1.749264
 20
-0.969576
 11
-1.766014
 21
-0.938731
  0
LINE
  8
1
 10
-1.766014
 20
-0.938731
 11
-1.782359
 21
-0.907359
  0
LINE
  8
1
 10
-1.782359
 20
-0.907359
 11
-1.798351
 21
-0.875363
  0
LINE
  8
1
 10
-1.798351
 20
-0.875363
 11
-1.814033
 21
-0.842658
  0
LINE
  8
1
 10
-1.814033
 20
-0.842658
 11
-1.829443
 21
-0.809171
  0
LINE
  8
1
 10
-1.829443
 20
-0.809171
 11
-1.844616
 21
-0.774837
  0
LINE
  8
1
 10
-1.844616
 20
-0.774837
 11
-1.859580
 21
-0.739603
  0
LINE
  8
1
 10
-1.859580
 20
-0.739603
 11
-1.874363
 21
-0.703424
  0
LINE
  8
1
 10
-1.874363
 20
-0.703424
 11
-1.888990
 21
-0.666266
  0
LINE
  8
1
 10
-1.888990
 20
-0.666266
 11
-1.903484
 21
-0.628101
  0
LINE
  8
1
 10
-1.903484
 20
-0.628101
 11
-1.917869
 21
-0.588914
  0
LINE
  8
1
 10
-1.917869
 20
-0.588914
 11
-1.932165
 21
-0.548695
  0
LINE
  8
1
 10
-1.932165
 20
-0.548695
 11
-1.946395
 21
-0.507443
  0
LINE
  8
1
 10
-1.946395
 20
-0.507443
 11
-1.960580
 21
-0.465164
  0
LINE
  8
1
 10
-1.960580
 20
-0.465164
 11
-1.974740
 21
-0.421873
  0
LINE
  8
1
 10
-1.974740
 20
-0.421873
 11
-1.988895
 21
-0.377589
  0
LINE
  8
1
 10
-1.988895
 20
-0.377589
 11
-2.003065
 21
-0.332339
  0
LINE
  8
1
 10
-2.003065
 20
-0.332339
 11
-2.017267
 21
-0.286157
  0
LINE
  8
1
 10
-2.017267
 20
-0.286157
 11
-2.031518
 21
-0.239081
  0
LINE
  8
1
 10
-2.031518
 20
-0.239081
 11
-2.045832
 21
-0.191154
  0
LINE
  8
1
 10
-2.045832
 20
-0.191154
 11
-2.060221
 21
-0.142422
  0
LINE
  8
1
 10
-2.060221
 20
-0.142422
 11
-2.074692
 21
-0.092935
  0
LINE
  8
1
 10
-2.074692
 20
-0.092935
 11
-2.089252
 21
-0.042746
  0
LINE
  8
1
 10
-2.089252
 20
-0.042746
 11
-2.103903
 21
0.008092
  0
LINE
  8
1
 10
-2.103903
 20
0.008092
 11
-2.118642
 21
0.059524
  0
LINE
  8
1
 10
-2.118642
 20
0.059524
 11
-2.133463
 21
0.111498
  0
LINE
  8
1
 10
-2.133463
 20
0.111498
 11
-2.148356
 21
0.163960
  0
LINE
  8
1
 10
-2.148356
 20
0.163960
 11
-2.163307
 21
0.216862
  0
LINE
  8
1
 10
-2.163307
 20
0.216862
 11
-2.178297
 21
0.270157
  0
LINE
  8
1
 10
-2.178297
 20
0.270157
 11
-2.193305
 21
0.323802
  0
LINE
  8
1
 10
-2.193305
 20
0.323802
 11
-2.208305
 21
0.377757
  0
LINE
  8
1
 10
-2.208305
 20
0.377757
 11
-2.223269
 21
0.431989
  0
LINE
  8
1
 10
-2.223269
 20
0.431989
 11
-2.238165
 21
0.486467
  0
LINE
  8
1
 10
-2.238165
 20
0.486467
 11
-2.252960
 21
0.541168
  0
LINE
  8
1
 10
-2.252960
 20
0.541168
 11
-2.267616
 21
0.596071
  0
LINE
  8
1
 10
-2.267616
 20
0.596071
 11
-2.282096
 21
0.651159
  0
LINE
  8
1
 10
-2.282096
 20
0.651159
 11
-2.296360
 21
0.706422
  0
LINE
  8
1
 10
-2.296360
 20
0.706422
 11
-2.310367
 21
0.761850
  0
LINE
  8
1
 10
-2.310367
 20
0.761850
 11
-2.324073
 21
0.817439
  0
LINE
  8
1
 10
-2.324073
 20
0.817439
 11
-2.337436
 21
0.873185
  0
LINE
  8
1
 10
-2.337436
 20
0.873185
 11
-2.350411
 21
0.929086
  0
LINE
  8
1
 10
-2.350411
 20
0.929086
 11
-2.362952
 21
0.985144
  0
LINE
  8
1
 10
-2.362952
 20
0.985144
 11
-2.375014
 21
1.041359
  0
LINE
  8
1
 10
-2.375014
 20
1.041359
 11
-2.386550
 21
1.097731
  0
LINE
  8
1
 10
-2.386550
 20
1.097731
 11
-2.397513
 21
1.154260
  0
LINE
  8
1
 10
-2.397513
 20
1.154260
 11
-2.407858
 21
1.210945
  0
LINE
  8
1
 10
-2.407858
 20
1.210945
 11
-2.417535
 21
1.267784
  0
LINE
  8
1
 10
-2.417535
 20
1.267784
 11
-2.426499
 21
1.324771
  0
LINE
  8
1
 10
-2.426499
 20
1.324771
 11
-2.434702
 21
1.381901
  0
LINE
  8
1
 10
-2.434702
 20
1.381901
 11
-2.442098
 21
1.439164
  0
LINE
  8
1
 10
-2.442098
 20
1.439164
 11
-2.448640
 21
1.496548
  0
LINE
  8
1
 10
-2.448640
 20
1.496548
 11
-2.454282
 21
1.554039
  0
LINE
  8
1
 10
-2.454282
 20
1.554039
 11
-2.458981
 21
1.611618
  0
LINE
  8
1
 10
-2.458981
 20
1.611618
 11
-2.462691
 21
1.669264
  0
LINE
  8
1
 10
-2.462691
 20
1.669264
 11
-2.465372
 21
1.726954
  0
LINE
  8
1
 10
-2.465372
 20
1.726954
 11
-2.466982
 21
1.784661
  0
LINE
  8
1
 10
-2.466982
 20
1.784661
 11
-2.467481
 21
1.842354
  0
LINE
  8
1
 10
-2.467481
 20
1.842354
 11
-2.466833
 21
1.900003
  0
LINE
  8
1
 10
-2.466833
 20
1.900003
 11
-2.465002
 21
1.957571
  0
LINE
  8
1
 10
-2.465002
 20
1.957571
 11
-2.461955
 21
2.015021
  0
LINE
  8
1
 10
-2.461955
 20
2.015021
 11
-2.457662
 21
2.072315
  0
LINE
  8
1
 10
-2.457662
 20
2.072315
 11
-2.452094
 21
2.129410
  0
LINE
  8
1
 10
-2.452094
 20
2.129410
 11
-2.445225
 21
2.186264
  0
LINE
  8
1
 10
-2.445225
 20
2.186264
 11
-2.437034
 21
2.242834
  0
LINE
  8
1
 10
-2.437034
 20
2.242834
 11
-2.427499
 21
2.299074
  0
LINE
  8
1
 10
-2.427499
 20
2.299074
 11
-2.416604
 21
2.354939
  0
LINE
  8
1
 10
-2.416604
 20
2.354939
 11
-2.404333
 21
2.410385
  0
LINE
  8
1
 10
-2.404333
 20
2.410385
 11
-2.390675
 21
2.465365
  0
LINE
  8
1
 10
-2.390675
 20
2.465365
 11
-2.375621
 21
2.519834
  0
LINE
  8
1
 10
-2.375621
 20
2.519834
 11
-2.359164
 21
2.573748
  0
LINE
  8
1
 10
-2.359164
 20
2.573748
 11
-2.341298
 21
2.627064
  0
LINE
  8
1
 10
-2.341298
 20
2.627064
 11
-2.322023
 21
2.679741
  0
LINE
  8
1
 10
-2.322023
 20
2.679741
 11
-2.301338
 21
2.731736
  0
LINE
  8
1
 10
-2.301338
 20
2.731736
 11
-2.279244
 21
2.783012
  0
LINE
  8
1
 10
-2.279244
 20
2.783012
 11
-2.255744
 21
2.833530
  0
LINE
  8
1
 10
-2.255744
 20
2.833530
 11
-2.230843
 21
2.883257
  0
LINE
  8
1
 10
-2.230843
 20
2.883257
 11
-2.204547
 21
2.932158
  0
LINE
  8
1
 10
-2.204547
 20
2.932158
 11
-2.176862
 21
2.980203
  0
LINE
  8
1
 10
-2.176862
 20
2.980203
 11
-2.147796
 21
3.027361
  0
LINE
  8
1
 10
-2.147796
 20
3.027361
 11
-2.117355
 21
3.073606
  0
LINE
  8
1
 10
-2.117355
 20
3.073606
 11
-2.085549
 21
3.118913
  0
LINE
  8
1
 10
-2.085549
 20
3.118913
 11
-2.052384
 21
3.163257
  0
LINE
  8
1
 10
-2.052384
 20
3.163257
 11
-2.017870
 21
3.206617
  0
LINE
  8
1
 10
-2.017870
 20
3.206617
 11
-1.982015
 21
3.248971
  0
LINE
  8
1
 10
-1.982015
 20
3.248971
 11
-1.944827
 21
3.290302
  0
LINE
  8
1
 10
-1.944827
 20
3.290302
 11
-1.906313
 21
3.330591
  0
LINE
  8
1
 10
-1.906313
 20
3.330591
 11
-1.866483
 21
3.369820
  0
LINE
  8
1
 10
-1.866483
 20
3.369820
 11
-1.825343
 21
3.407975
  0
LINE
  8
1
 10
-1.825343
 20
3.407975
 11
-1.782903
 21
3.445039
  0
LINE
  8
1
 10
-1.782903
 20
3.445039
 11
-1.739171
 21
3.480999
  0
LINE
  8
1
 10
-1.739171
 20
3.480999
 11
-1.694156
 21
3.515839
  0
LINE
  8
1
 10
-1.694156
 20
3.515839
 11
-1.647867
 21
3.549546
  0
LINE
  8
1
 10
-1.647867
 20
3.549546
 11
-1.600315
 21
3.582106
  0
LINE
  8
1
 10
-1.600315
 20
3.582106
 11
-1.551512
 21
3.613508
  0
LINE
  8
1
 10
-1.551512
 20
3.613508
 11
-1.501469
 21
3.643738
  0
LINE
  8
1
 10
-1.501469
 20
3.643738
 11
-1.450202
 21
3.672784
  0
LINE
  8
1
 10
-1.450202
 20
3.672784
 11
-1.397725
 21
3.700635
  0
LINE
  8
1
 10
-1.397725
 20
3.700635
 11
-1.344057
 21
3.727281
  0
LINE
  8
1
 10
-1.344057
 20
3.727281
 11
-1.289215
 21
3.752711
  0
LINE
  8
1
 10
-1.289215
 20
3.752711
 11
-1.233223
 21
3.776917
  0
LINE
  8
1
 10
-1.233223
 20
3.776917
 11
-1.176105
 21
3.799889
  0
LINE
  8
1
 10
-1.176105
 20
3.799889
 11
-1.117885
 21
3.821621
  0
LINE
  8
1
 10
-1.117885
 20
3.821621
 11
-1.058593
 21
3.842107
  0
LINE
  8
1
 10
-1.058593
 20
3.842107
 11
-0.998261
 21
3.861343
  0
LINE
  8
1
 10
-0.998261
 20
3.861343
 11
-0.936922
 21
3.879324
  0
LINE
  8
1
 10
-0.936922
 20
3.879324
 11
-0.874615
 21
3.896049
  0
LINE
  8
1
 10
-0.874615
 20
3.896049
 11
-0.811379
 21
3.911517
  0
LINE
  8
1
 10
-0.811379
 20
3.911517
 11
-0.747258
 21
3.925728
  0
LINE
  8
1
 10
-0.747258
 20
3.925728
 11
-0.682299
 21
3.938683
  0
LINE
  8
1
 10
-0.682299
 20
3.938683
 11
-0.616553
 21
3.950386
  0
LINE
  8
1
 10
-0.616553
 20
3.950386
 11
-0.550073
 21
3.960839
  0
LINE
  8
1
 10
-0.550073
 20
3.960839
 11
-0.482920
 21
3.970047
  0
LINE
  8
1
 10
-0.482920
 20
3.970047
 11
-0.415157
 21
3.978013
  0
LINE
  8
1
 10
-0.415157
 20
3.978013
 11
-0.346852
 21
3.984744
  0
LINE
  8
1
 10
-0.346852
 20
3.984744
 11
-0.278078
 21
3.990243
  0
LINE
  8
1
 10
-0.278078
 20
3.990243
 11
-0.208916
 21
3.994515
  0
LINE
  8
1
 10
-0.208916
 20
3.994515
 11
-0.139452
 21
3.997563
  0
LINE
  8
1
 10
-0.139452
 20
3.997563
 11
-0.069780
 21
3.999391
  0
LINE
  8
1
 10
-0.069780
 20
3.999391
 11
0.000002
 21
4.000000
  0
ENDSEC
  0
EOF
