  0
SECTION
  2
HEADER
  9
$EXTMIN
 10
-2.005715
 20
-2.659493
  9
$EXTMAX
 10
3.770871
 20
4.000000
  0
ENDSEC
  0
SECTION
  2
TABLES
  0
TABLE
  2
LTYPE
 70
1
  0
LTYPE
  2
CONTINUOUS
 70
64
  3
Solid Line
 72
65
 73
0
 40
0.000000
  0
ENDTAB
  0
TABLE
  2
LAYER
 70
16
  0
LAYER
  2
0
 70
0
 62
7
  6
CONTINUOUS
  0
LAYER
  2
1
 70
0
 62
7
  6
CONTINUOUS
  0
LAYER
  2
2
 70
0
 62
7
  6
CONTINUOUS
  0
LAYER
  2
3
 70
0
 62
7
  6
CONTINUOUS
  0
LAYER
  2
4
 70
0
 62
7
  6
CONTINUOUS
  0
LAYER
  2
5
 70
0
 62
7
  6
CONTINUOUS
  0
LAYER
  2
6
 70
0
 62
7
  6
CONTINUOUS
  0
LAYER
  2
7
 70
0
 62
7
  6
CONTINUOUS
  0
LAYER
  2
8
 70
0
 62
7
  6
CONTINUOUS
  0
LAYER
  2
9
 70
0
 62
7
  6
CONTINUOUS
  0
LAYER
  2
10
 70
0
 62
7
  6
CONTINUOUS
  0
LAYER
  2
11
 70
0
 62
7
  6
CONTINUOUS
  0
LAYER
  2
12
 70
0
 62
7
  6
CONTINUOUS
  0
LAYER
  2
13
 70
0
 62
7
  6
CONTINUOUS
  0
LAYER
  2
14
 70
0
 62
7
  6
CONTINUOUS
  0
LAYER
  2
15
 70
0
 62
7
  6
CONTINUOUS
  0
ENDTAB
  0
ENDSEC
  0
SECTION
  2
ENTITIES
  0
LINE
  8
1
 10
0.000030
 20
4.000000
 11
0.069809
 21
3.999391
  0
LINE
  8
1
 10
0.069809
 20
3.999391
 11
0.139594
 21
3.997563
  0
LINE
  8
1
 10
0.139594
 20
3.997563
 11
0.209332
 21
3.994518
  0
LINE
  8
1
 10
0.209332
 20
3.994518
 11
0.279000
 21
3.990256
  0
LINE
  8
1
 10
0.279000
 20
3.990256
 11
0.348574
 21
3.984778
  0
LINE
  8
1
 10
0.348574
 20
3.984778
 11
0.418031
 21
3.978086
  0
LINE
  8
1
 10
0.418031
 20
3.978086
 11
0.487347
 21
3.970181
  0
LINE
  8
1
 10
0.487347
 20
3.970181
 11
0.556500
 21
3.961066
  0
LINE
  8
1
 10
0.556500
 20
3.961066
 11
0.625466
 21
3.950743
  0
LINE
  8
1
 10
0.625466
 20
3.950743
 11
0.694223
 21
3.939215
  0
LINE
  8
1
 10
0.694223
 20
3.939215
 11
0.762748
 21
3.926486
  0
LINE
  8
1
 10
0.762748
 20
3.926486
 11
0.831017
 21
3.912558
  0
LINE
  8
1
 10
0.831017
 20
3.912558
 11
0.899008
 21
3.897436
  0
LINE
  8
1
 10
0.899008
 20
3.897436
 11
0.966698
 21
3.881125
  0
LINE
  8
1
 10
0.966698
 20
3.881125
 11
1.034065
 21
3.863628
  0
LINE
  8
1
 10
1.034065
 20
3.863628
 11
1.101085
 21
3.844951
  0
LINE
  8
1
 10
1.101085
 20
3.844951
 11
1.167737
 21
3.825099
  0
LINE
  8
1
 10
1.167737
 20
3.825099
 11
1.233997
 21
3.804078
  0
LINE
  8
1
 10
1.233997
 20
3.804078
 11
1.299843
 21
3.781894
  0
LINE
  8
1
 10
1.299843
 20
3.781894
 11
1.365254
 21
3.758554
  0
LINE
  8
1
 10
1.365254
 20
3.758554
 11
1.430206
 21
3.734065
  0
LINE
  8
1
 10
1.430206
 20
3.734065
 11
1.494678
 21
3.708434
  0
LINE
  8
1
 10
1.494678
 20
3.708434
 11
1.558647
 21
3.681669
  0
LINE
  8
1
 10
1.558647
 20
3.681669
 11
1.622091
 21
3.653778
  0
LINE
  8
1
 10
1.622091
 20
3.653778
 11
1.684989
 21
3.624771
  0
LINE
  8
1
 10
1.684989
 20
3.624771
 11
1.747319
 21
3.594655
  0
LINE
  8
1
 10
1.747319
 20
3.594655
 11
1.809058
 21
3.563441
  0
LINE
  8
1
 10
1.809058
 20
3.563441
 11
1.870186
 21
3.531138
  0
LINE
  8
1
 10
1.870186
 20
3.531138
 11
1.930682
 21
3.497757
  0
LINE
  8
1
 10
1.930682
 20
3.497757
 11
1.990523
 21
3.463308
  0
LINE
  8
1
 10
1.990523
 20
3.463308
 11
2.049688
 21
3.427804
  0
LINE
  8
1
 10
2.049688
 20
3.427804
 11
2.108158
 21
3.391255
  0
LINE
  8
1
 10
2.108158
 20
3.391255
 11
2.165910
 21
3.353674
  0
LINE
  8
1
 10
2.165910
 20
3.353674
 11
2.222925
 21
3.315074
  0
LINE
  8
1
 10
2.222925
 20
3.315074
 11
2.279182
 21
3.275467
  0
LINE
  8
1
 10
2.279182
 20
3.275467
 11
2.334661
 21
3.234867
  0
LINE
  8
1
 10
2.334661
 20
3.234867
 11
2.389341
 21
3.193287
  0
LINE
  8
1
 10
2.389341
 20
3.193287
 11
2.443204
 21
3.150744
  0
LINE
  8
1
 10
2.443204
 20
3.150744
 11
2.496229
 21
3.107250
  0
LINE
  8
1
 10
2.496229
 20
3.107250
 11
2.548397
 21
3.062823
  0
LINE
  8
1
 10
2.548397
 20
3.062823
 11
2.599690
 21
3.017476
  0
LINE
  8
1
 10
2.599690
 20
3.017476
 11
2.650089
 21
2.971228
  0
LINE
  8
1
 10
2.650089
 20
2.971228
 11
2.699574
 21
2.924094
  0
LINE
  8
1
 10
2.699574
 20
2.924094
 11
2.748129
 21
2.876091
  0
LINE
  8
1
 10
2.748129
 20
2.876091
 11
2.795735
 21
2.827237
  0
LINE
  8
1
 10
2.795735
 20
2.827237
 11
2.842375
 21
2.777551
  0
LINE
  8
1
 10
2.842375
 20
2.777551
 11
2.888032
 21
2.727050
  0
LINE
  8
1
 10
2.888032
 20
2.727050
 11
2.932688
 21
2.675753
  0
LINE
  8
1
 10
2.932688
 20
2.675753
 11
2.976329
 21
2.623681
  0
LINE
  8
1
 10
2.976329
 20
2.623681
 11
3.018937
 21
2.570851
  0
LINE
  8
1
 10
3.018937
 20
2.570851
 11
3.060497
 21
2.517285
  0
LINE
  8
1
 10
3.060497
 20
2.517285
 11
3.100994
 21
2.463004
  0
LINE
  8
1
 10
3.100994
 20
2.463004
 11
3.140413
 21
2.408027
  0
LINE
  8
1
 10
3.140413
 20
2.408027
 11
3.178740
 21
2.352377
  0
LINE
  8
1
 10
3.178740
 20
2.352377
 11
3.215961
 21
2.296074
  0
LINE
  8
1
 10
3.215961
 20
2.296074
 11
3.252062
 21
2.239142
  0
LINE
  8
1
 10
3.252062
 20
2.239142
 11
3.287031
 21
2.181602
  0
LINE
  8
1
 10
3.287031
 20
2.181602
 11
3.320855
 21
2.123477
  0
LINE
  8
1
 10
3.320855
 20
2.123477
 11
3.353522
 21
2.064790
  0
LINE
  8
1
 10
3.353522
 20
2.064790
 11
3.385021
 21
2.005565
  0
LINE
  8
1
 10
3.385021
 20
2.005565
 11
3.415340
 21
1.945825
  0
LINE
  8
1
 10
3.415340
 20
1.945825
 11
3.444470
 21
1.885595
  0
LINE
  8
1
 10
3.444470
 20
1.885595
 11
3.472401
 21
1.824898
  0
LINE
  8
1
 10
3.472401
 20
1.824898
 11
3.499123
 21
1.763760
  0
LINE
  8
1
 10
3.499123
 20
1.763760
 11
3.524627
 21
1.702204
  0
LINE
  8
1
 10
3.524627
 20
1.702204
 11
3.548905
 21
1.640257
  0
LINE
  8
1
 10
3.548905
 20
1.640257
 11
3.571951
 21
1.577942
  0
LINE
  8
1
 10
3.571951
 20
1.577942
 11
3.593756
 21
1.515287
  0
LINE
  8
1
 10
3.593756
 20
1.515287
 11
3.614314
 21
1.452316
  0
LINE
  8
1
 10
3.614314
 20
1.452316
 11
3.633620
 21
1.389056
  0
LINE
  8
1
 10
3.633620
 20
1.389056
 11
3.651668
 21
1.325532
  0
LINE
  8
1
 10
3.651668
 20
1.325532
 11
3.668454
 21
1.261770
  0
LINE
  8
1
 10
3.668454
 20
1.261770
 11
3.683974
 21
1.197798
  0
LINE
  8
1
 10
3.683974
 20
1.197798
 11
3.698224
 21
1.133641
  0
LINE
  8
1
 10
3.698224
 20
1.133641
 11
3.711202
 21
1.069326
  0
LINE
  8
1
 10
3.711202
 20
1.069326
 11
3.722906
 21
1.004879
  0
LINE
  8
1
 10
3.722906
 20
1.004879
 11
3.733334
 21
0.940327
  0
LINE
  8
1
 10
3.733334
 20
0.940327
 11
3.742485
 21
0.875698
  0
LINE
  8
1
 10
3.742485
 20
0.875698
 11
3.750360
 21
0.811017
  0
LINE
  8
1
 10
3.750360
 20
0.811017
 11
3.756958
 21
0.746311
  0
LINE
  8
1
 10
3.756958
 20
0.746311
 11
3.762282
 21
0.681607
  0
LINE
  8
1
 10
3.762282
 20
0.681607
 11
3.766332
 21
0.616932
  0
LINE
  8
1
 10
3.766332
 20
0.616932
 11
3.769111
 21
0.552312
  0
LINE
  8
1
 10
3.769111
 20
0.552312
 11
3.770623
 21
0.487774
  0
LINE
  8
1
 10
3.770623
 20
0.487774
 11
3.770871
 21
0.423345
  0
LINE
  8
1
 10
3.770871
 20
0.423345
 11
3.769859
 21
0.359050
  0
LINE
  8
1
 10
3.769859
 20
0.359050
 11
3.767592
 21
0.294917
  0
LINE
  8
1
 10
3.767592
 20
0.294917
 11
3.764076
 21
0.230970
  0
LINE
  8
1
 10
3.764076
 20
0.230970
 11
3.759318
 21
0.167237
  0
LINE
  8
1
 10
3.759318
 20
0.167237
 11
3.753324
 21
0.103743
  0
LINE
  8
1
 10
3.753324
 20
0.103743
 11
3.746101
 21
0.040513
  0
LINE
  8
1
 10
3.746101
 20
0.040513
 11
3.737659
 21
-0.022427
  0
LINE
  8
1
 10
3.737659
 20
-0.022427
 11
3.728005
 21
-0.085052
  0
LINE
  8
1
 10
3.728005
 20
-0.085052
 11
3.717149
 21
-0.147338
  0
LINE
  8
1
 10
3.717149
 20
-0.147338
 11
3.705101
 21
-0.209259
  0
LINE
  8
1
 10
3.705101
 20
-0.209259
 11
3.691871
 21
-0.270791
  0
LINE
  8
1
 10
3.691871
 20
-0.270791
 11
3.677471
 21
-0.331910
  0
LINE
  8
1
 10
3.677471
 20
-0.331910
 11
3.661912
 21
-0.392593
  0
LINE
  8
1
 10
3.661912
 20
-0.392593
 11
3.645207
 21
-0.452816
  0
LINE
  8
1
 10
3.645207
 20
-0.452816
 11
3.627368
 21
-0.512556
  0
LINE
  8
1
 10
3.627368
 20
-0.512556
 11
3.608408
 21
-0.571791
  0
LINE
  8
1
 10
3.608408
 20
-0.571791
 11
3.588342
 21
-0.630498
  0
LINE
  8
1
 10
3.588342
 20
-0.630498
 11
3.567184
 21
-0.688655
  0
LINE
  8
1
 10
3.567184
 20
-0.688655
 11
3.544948
 21
-0.746241
  0
LINE
  8
1
 10
3.544948
 20
-0.746241
 11
3.521650
 21
-0.803235
  0
LINE
  8
1
 10
3.521650
 20
-0.803235
 11
3.497306
 21
-0.859617
  0
LINE
  8
1
 10
3.497306
 20
-0.859617
 11
3.471932
 21
-0.915365
  0
LINE
  8
1
 10
3.471932
 20
-0.915365
 11
3.445545
 21
-0.970460
  0
LINE
  8
1
 10
3.445545
 20
-0.970460
 11
3.418162
 21
-1.024884
  0
LINE
  8
1
 10
3.418162
 20
-1.024884
 11
3.389800
 21
-1.078618
  0
LINE
  8
1
 10
3.389800
 20
-1.078618
 11
3.360478
 21
-1.131642
  0
LINE
  8
1
 10
3.360478
 20
-1.131642
 11
3.330214
 21
-1.183940
  0
LINE
  8
1
 10
3.330214
 20
-1.183940
 11
3.299026
 21
-1.235494
  0
LINE
  8
1
 10
3.299026
 20
-1.235494
 11
3.266934
 21
-1.286288
  0
LINE
  8
1
 10
3.266934
 20
-1.286288
 11
3.233957
 21
-1.336305
  0
LINE
  8
1
 10
3.233957
 20
-1.336305
 11
3.200115
 21
-1.385530
  0
LINE
  8
1
 10
3.200115
 20
-1.385530
 11
3.165427
 21
-1.433947
  0
LINE
  8
1
 10
3.165427
 20
-1.433947
 11
3.129915
 21
-1.481543
  0
LINE
  8
1
 10
3.129915
 20
-1.481543
 11
3.093598
 21
-1.528304
  0
LINE
  8
1
 10
3.093598
 20
-1.528304
 11
3.056498
 21
-1.574215
  0
LINE
  8
1
 10
3.056498
 20
-1.574215
 11
3.018635
 21
-1.619264
  0
LINE
  8
1
 10
3.018635
 20
-1.619264
 11
2.980032
 21
-1.663439
  0
LINE
  8
1
 10
2.980032
 20
-1.663439
 11
2.940708
 21
-1.706728
  0
LINE
  8
1
 10
2.940708
 20
-1.706728
 11
2.900687
 21
-1.749121
  0
LINE
  8
1
 10
2.900687
 20
-1.749121
 11
2.859989
 21
-1.790606
  0
LINE
  8
1
 10
2.859989
 20
-1.790606
 11
2.818637
 21
-1.831174
  0
LINE
  8
1
 10
2.818637
 20
-1.831174
 11
2.776653
 21
-1.870815
  0
LINE
  8
1
 10
2.776653
 20
-1.870815
 11
2.734058
 21
-1.909522
  0
LINE
  8
1
 10
2.734058
 20
-1.909522
 11
2.690876
 21
-1.947285
  0
LINE
  8
1
 10
2.690876
 20
-1.947285
 11
2.647128
 21
-1.984097
  0
LINE
  8
1
 10
2.647128
 20
-1.984097
 11
2.602837
 21
-2.019951
  0
LINE
  8
1
 10
2.602837
 20
-2.019951
 11
2.558025
 21
-2.054841
  0
LINE
  8
1
 10
2.558025
 20
-2.054841
 11
2.512715
 21
-2.088762
  0
LINE
  8
1
 10
2.512715
 20
-2.088762
 11
2.466929
 21
-2.121707
  0
LINE
  8
1
 10
2.466929
 20
-2.121707
 11
2.420689
 21
-2.153672
  0
LINE
  8
1
 10
2.420689
 20
-2.153672
 11
2.374018
 21
-2.184654
  0
LINE
  8
1
 10
2.374018
 20
-2.184654
 11
2.326938
 21
-2.214648
  0
LINE
  8
1
 10
2.326938
 20
-2.214648
 11
2.279472
 21
-2.243652
  0
LINE
  8
1
 10
2.279472
 20
-2.243652
 11
2.231641
 21
-2.271664
  0
LINE
  8
1
 10
2.231641
 20
-2.271664
 11
2.183467
 21
-2.298681
  0
LINE
  8
1
 10
2.183467
 20
-2.298681
 11
2.134973
 21
-2.324703
  0
LINE
  8
1
 10
2.134973
 20
-2.324703
 11
2.086180
 21
-2.349728
  0
LINE
  8
1
 10
2.086180
 20
-2.349728
 11
2.037110
 21
-2.373756
  0
LINE
  8
1
 10
2.037110
 20
-2.373756
 11
1.987784
 21
-2.396788
  0
LINE
  8
1
 10
1.987784
 20
-2.396788
 11
1.938224
 21
-2.418825
  0
LINE
  8
1
 10
1.938224
 20
-2.418825
 11
1.888450
 21
-2.439868
  0
LINE
  8
1
 10
1.888450
 20
-2.439868
 11
1.838484
 21
-2.459918
  0
LINE
  8
1
 10
1.838484
 20
-2.459918
 11
1.788347
 21
-2.478978
  0
LINE
  8
1
 10
1.788347
 20
-2.478978
 11
1.738058
 21
-2.497050
  0
LINE
  8
1
 10
1.738058
 20
-2.497050
 11
1.687638
 21
-2.514138
  0
LINE
  8
1
 10
1.687638
 20
-2.514138
 11
1.637108
 21
-2.530246
  0
LINE
  8
1
 10
1.637108
 20
-2.530246
 11
1.586486
 21
-2.545377
  0
LINE
  8
1
 10
1.586486
 20
-2.545377
 11
1.535792
 21
-2.559537
  0
LINE
  8
1
 10
1.535792
 20
-2.559537
 11
1.485046
 21
-2.572729
  0
LINE
  8
1
 10
1.485046
 20
-2.572729
 11
1.434265
 21
-2.584959
  0
LINE
  8
1
 10
1.434265
 20
-2.584959
 11
1.383470
 21
-2.596234
  0
LINE
  8
1
 10
1.383470
 20
-2.596234
 11
1.332678
 21
-2.606558
  0
LINE
  8
1
 10
1.332678
 20
-2.606558
 11
1.281906
 21
-2.615939
  0
LINE
  8
1
 10
1.281906
 20
-2.615939
 11
1.231173
 21
-2.624383
  0
LINE
  8
1
 10
1.231173
 20
-2.624383
 11
1.180497
 21
-2.631897
  0
LINE
  8
1
 10
1.180497
 20
-2.631897
 11
1.129893
 21
-2.638489
  0
LINE
  8
1
 10
1.129893
 20
-2.638489
 11
1.079378
 21
-2.644166
  0
LINE
  8
1
 10
1.079378
 20
-2.644166
 11
1.028969
 21
-2.648937
  0
LINE
  8
1
 10
1.028969
 20
-2.648937
 11
0.978682
 21
-2.652810
  0
LINE
  8
1
 10
0.978682
 20
-2.652810
 11
0.928532
 21
-2.655793
  0
LINE
  8
1
 10
0.928532
 20
-2.655793
 11
0.878535
 21
-2.657895
  0
LINE
  8
1
 10
0.878535
 20
-2.657895
 11
0.828705
 21
-2.659125
  0
LINE
  8
1
 10
0.828705
 20
-2.659125
 11
0.779057
 21
-2.659493
  0
LINE
  8
1
 10
0.779057
 20
-2.659493
 11
0.729605
 21
-2.659008
  0
LINE
  8
1
 10
0.729605
 20
-2.659008
 11
0.680362
 21
-2.657679
  0
LINE
  8
1
 10
0.680362
 20
-2.657679
 11
0.631343
 21
-2.655517
  0
LINE
  8
1
 10
0.631343
 20
-2.655517
 11
0.582560
 21
-2.652531
  0
LINE
  8
1
 10
0.582560
 20
-2.652531
 11
0.534025
 21
-2.648732
  0
LINE
  8
1
 10
0.534025
 20
-2.648732
 11
0.485752
 21
-2.644130
  0
LINE
  8
1
 10
0.485752
 20
-2.644130
 11
0.437752
 21
-2.638735
  0
LINE
  8
1
 10
0.437752
 20
-2.638735
 11
0.390037
 21
-2.632559
  0
LINE
  8
1
 10
0.390037
 20
-2.632559
 11
0.342618
 21
-2.625611
  0
LINE
  8
1
 10
0.342618
 20
-2.625611
 11
0.295506
 21
-2.617903
  0
LINE
  8
1
 10
0.295506
 20
-2.617903
 11
0.248711
 21
-2.609445
  0
LINE
  8
1
 10
0.248711
 20
-2.609445
 11
0.202244
 21
-2.600249
  0
LINE
  8
1
 10
0.202244
 20
-2.600249
 11
0.156114
 21
-2.590325
  0
LINE
  8
1
 10
0.156114
 20
-2.590325
 11
0.110331
 21
-2.579684
  0
LINE
  8
1
 10
0.110331
 20
-2.579684
 11
0.064905
 21
-2.568338
  0
LINE
  8
1
 10
0.064905
 20
-2.568338
 11
0.019843
 21
-2.556298
  0
LINE
  8
1
 10
0.019843
 20
-2.556298
 11
-0.024845
 21
-2.543574
  0
LINE
  8
1
 10
-0.024845
 20
-2.543574
 11
-0.069151
 21
-2.530179
  0
LINE
  8
1
 10
-0.069151
 20
-2.530179
 11
-0.113067
 21
-2.516122
  0
LINE
  8
1
 10
-0.113067
 20
-2.516122
 11
-0.156586
 21
-2.501416
  0
LINE
  8
1
 10
-0.156586
 20
-2.501416
 11
-0.199700
 21
-2.486071
  0
LINE
  8
1
 10
-0.199700
 20
-2.486071
 11
-0.242402
 21
-2.470098
  0
LINE
  8
1
 10
-0.242402
 20
-2.470098
 11
-0.284686
 21
-2.453509
  0
LINE
  8
1
 10
-0.284686
 20
-2.453509
 11
-0.326545
 21
-2.436315
  0
LINE
  8
1
 10
-0.326545
 20
-2.436315
 11
-0.367973
 21
-2.418526
  0
LINE
  8
1
 10
-0.367973
 20
-2.418526
 11
-0.408964
 21
-2.400153
  0
LINE
  8
1
 10
-0.408964
 20
-2.400153
 11
-0.449511
 21
-2.381208
  0
LINE
  8
1
 10
-0.449511
 20
-2.381208
 11
-0.489611
 21
-2.361702
  0
LINE
  8
1
 10
-0.489611
 20
-2.361702
 11
-0.529256
 21
-2.341644
  0
LINE
  8
1
 10
-0.529256
 20
-2.341644
 11
-0.568443
 21
-2.321046
  0
LINE
  8
1
 10
-0.568443
 20
-2.321046
 11
-0.607167
 21
-2.299918
  0
LINE
  8
1
 10
-0.607167
 20
-2.299918
 11
-0.645423
 21
-2.278271
  0
LINE
  8
1
 10
-0.645423
 20
-2.278271
 11
-0.683206
 21
-2.256115
  0
LINE
  8
1
 10
-0.683206
 20
-2.256115
 11
-0.720512
 21
-2.233461
  0
LINE
  8
1
 10
-0.720512
 20
-2.233461
 11
-0.757338
 21
-2.210318
  0
LINE
  8
1
 10
-0.757338
 20
-2.210318
 11
-0.793679
 21
-2.186698
  0
LINE
  8
1
 10
-0.793679
 20
-2.186698
 11
-0.829532
 21
-2.162609
  0
LINE
  8
1
 10
-0.829532
 20
-2.162609
 11
-0.864894
 21
-2.138063
  0
LINE
  8
1
 10
-0.864894
 20
-2.138063
 11
-0.899760
 21
-2.113069
  0
LINE
  8
1
 10
-0.899760
 20
-2.113069
 11
-0.934128
 21
-2.087636
  0
LINE
  8
1
 10
-0.934128
 20
-2.087636
 11
-0.967995
 21
-2.061775
  0
LINE
  8
1
 10
-0.967995
 20
-2.061775
 11
-1.001357
 21
-2.035496
  0
LINE
  8
1
 10
-1.001357
 20
-2.035496
 11
-1.034212
 21
-2.008806
  0
LINE
  8
1
 10
-1.034212
 20
-2.008806
 11
-1.066556
 21
-1.981717
  0
LINE
  8
1
 10
-1.066556
 20
-1.981717
 11
-1.098389
 21
-1.954237
  0
LINE
  8
1
 10
-1.098389
 20
-1.954237
 11
-1.129706
 21
-1.926375
  0
LINE
  8
1
 10
-1.129706
 20
-1.926375
 11
-1.160505
 21
-1.898141
  0
LINE
  8
1
 10
-1.160505
 20
-1.898141
 11
-1.190784
 21
-1.869544
  0
LINE
  8
1
 10
-1.190784
 20
-1.869544
 11
-1.220542
 21
-1.840593
  0
LINE
  8
1
 10
-1.220542
 20
-1.840593
 11
-1.249774
 21
-1.811296
  0
LINE
  8
1
 10
-1.249774
 20
-1.811296
 11
-1.278481
 21
-1.781662
  0
LINE
  8
1
 10
-1.278481
 20
-1.781662
 11
-1.306658
 21
-1.751700
  0
LINE
  8
1
 10
-1.306658
 20
-1.751700
 11
-1.334305
 21
-1.721418
  0
LINE
  8
1
 10
-1.334305
 20
-1.721418
 11
-1.361419
 21
-1.690826
  0
LINE
  8
1
 10
-1.361419
 20
-1.690826
 11
-1.387999
 21
-1.659931
  0
LINE
  8
1
 10
-1.387999
 20
-1.659931
 11
-1.414042
 21
-1.628742
  0
LINE
  8
1
 10
-1.414042
 20
-1.628742
 11
-1.439547
 21
-1.597267
  0
LINE
  8
1
 10
-1.439547
 20
-1.597267
 11
-1.464512
 21
-1.565514
  0
LINE
  8
1
 10
-1.464512
 20
-1.565514
 11
-1.488935
 21
-1.533492
  0
LINE
  8
1
 10
-1.488935
 20
-1.533492
 11
-1.512815
 21
-1.501209
  0
LINE
  8
1
 10
-1.512815
 20
-1.501209
 11
-1.536149
 21
-1.468672
  0
LINE
  8
1
 10
-1.536149
 20
-1.468672
 11
-1.558937
 21
-1.435891
  0
LINE
  8
1
 10
-1.558937
 20
-1.435891
 11
-1.581176
 21
-1.402872
  0
LINE
  8
1
 10
-1.581176
 20
-1.402872
 11
-1.602865
 21
-1.369623
  0
LINE
  8
1
 10
-1.602865
 20
-1.369623
 11
-1.624002
 21
-1.336153
  0
LINE
  8
1
 10
-1.624002
 20
-1.336153
 11
-1.644586
 21
-1.302470
  0
LINE
  8
1
 10
-1.644586
 20
-1.302470
 11
-1.664614
 21
-1.268581
  0
LINE
  8
1
 10
-1.664614
 20
-1.268581
 11
-1.684087
 21
-1.234493
  0
LINE
  8
1
 10
-1.684087
 20
-1.234493
 11
-1.703001
 21
-1.200216
  0
LINE
  8
1
 10
-1.703001
 20
-1.200216
 11
-1.721356
 21
-1.165756
  0
LINE
  8
1
 10
-1.721356
 20
-1.165756
 11
-1.739149
 21
-1.131121
  0
LINE
  8
1
 10
-1.739149
 20
-1.131121
 11
-1.756381
 21
-1.096319
  0
LINE
  8
1
 10
-1.756381
 20
-1.096319
 11
-1.773048
 21
-1.061357
  0
LINE
  8
1
 10
-1.773048
 20
-1.061357
 11
-1.789149
 21
-1.026244
  0
LINE
  8
1
 10
-1.789149
 20
-1.026244
 11
-1.804684
 21
-0.990987
  0
LINE
  8
1
 10
-1.804684
 20
-0.990987
 11
-1.819651
 21
-0.955593
  0
LINE
  8
1
 10
-1.819651
 20
-0.955593
 11
-1.834048
 21
-0.920070
  0
LINE
  8
1
 10
-1.834048
 20
-0.920070
 11
-1.847873
 21
-0.884427
  0
LINE
  8
1
 10
-1.847873
 20
-0.884427
 11
-1.861127
 21
-0.848670
  0
LINE
  8
1
 10
-1.861127
 20
-0.848670
 11
-1.873807
 21
-0.812807
  0
LINE
  8
1
 10
-1.873807
 20
-0.812807
 11
-1.885911
 21
-0.776847
  0
LINE
  8
1
 10
-1.885911
 20
-0.776847
 11
-1.897440
 21
-0.740797
  0
LINE
  8
1
 10
-1.897440
 20
-0.740797
 11
-1.908391
 21
-0.704664
  0
LINE
  8
1
 10
-1.908391
 20
-0.704664
 11
-1.918764
 21
-0.668456
  0
LINE
  8
1
 10
-1.918764
 20
-0.668456
 11
-1.928557
 21
-0.632182
  0
LINE
  8
1
 10
-1.928557
 20
-0.632182
 11
-1.937769
 21
-0.595848
  0
LINE
  8
1
 10
-1.937769
 20
-0.595848
 11
-1.946400
 21
-0.559463
  0
LINE
  8
1
 10
-1.946400
 20
-0.559463
 11
-1.954448
 21
-0.523036
  0
LINE
  8
1
 10
-1.954448
 20
-0.523036
 11
-1.961912
 21
-0.486572
  0
LINE
  8
1
 10
-1.961912
 20
-0.486572
 11
-1.968791
 21
-0.450082
  0
LINE
  8
1
 10
-1.968791
 20
-0.450082
 11
-1.975085
 21
-0.413571
  0
LINE
  8
1
 10
-1.975085
 20
-0.413571
 11
-1.980794
 21
-0.377050
  0
LINE
  8
1
 10
-1.980794
 20
-0.377050
 11
-1.985915
 21
-0.340524
  0
LINE
  8
1
 10
-1.985915
 20
-0.340524
 11
-1.990449
 21
-0.304004
  0
LINE
  8
1
 10
-1.990449
 20
-0.304004
 11
-1.994396
 21
-0.267496
  0
LINE
  8
1
 10
-1.994396
 20
-0.267496
 11
-1.997754
 21
-0.231009
  0
LINE
  8
1
 10
-1.997754
 20
-0.231009
 11
-2.000524
 21
-0.194551
  0
LINE
  8
1
 10
-2.000524
 20
-0.194551
 11
-2.002705
 21
-0.158130
  0
LINE
  8
1
 10
-2.002705
 20
-0.158130
 11
-2.004297
 21
-0.121754
  0
LINE
  8
1
 10
-2.004297
 20
-0.121754
 11
-2.005300
 21
-0.085431
  0
LINE
  8
1
 10
-2.005300
 20
-0.085431
 11
-2.005715
 21
-0.049171
  0
LINE
  8
1
 10
-2.005715
 20
-0.049171
 11
-2.005540
 21
-0.012980
  0
LINE
  8
1
 10
-2.005540
 20
-0.012980
 11
-2.004777
 21
0.023133
  0
LINE
  8
1
 10
-2.004777
 20
0.023133
 11
-2.003426
 21
0.059159
  0
LINE
  8
1
 10
-2.003426
 20
0.059159
 11
-2.001487
 21
0.095091
  0
LINE
  8
1
 10
-2.001487
 20
0.095091
 11
-1.998962
 21
0.130919
  0
LINE
  8
1
 10
-1.998962
 20
0.130919
 11
-1.995849
 21
0.166636
  0
LINE
  8
1
 10
-1.995849
 20
0.166636
 11
-1.992152
 21
0.202234
  0
LINE
  8
1
 10
-1.992152
 20
0.202234
 11
-1.987870
 21
0.237704
  0
LINE
  8
1
 10
-1.987870
 20
0.237704
 11
-1.983004
 21
0.273038
  0
LINE
  8
1
 10
-1.983004
 20
0.273038
 11
-1.977556
 21
0.308228
  0
LINE
  8
1
 10
-1.977556
 20
0.308228
 11
-1.971527
 21
0.343266
  0
LINE
  8
1
 10
-1.971527
 20
0.343266
 11
-1.964919
 21
0.378143
  0
LINE
  8
1
 10
-1.964919
 20
0.378143
 11
-1.957732
 21
0.412852
  0
LINE
  8
1
 10
-1.957732
 20
0.412852
 11
-1.949970
 21
0.447384
  0
LINE
  8
1
 10
-1.949970
 20
0.447384
 11
-1.941633
 21
0.481732
  0
LINE
  8
1
 10
-1.941633
 20
0.481732
 11
-1.932724
 21
0.515887
  0
LINE
  8
1
 10
-1.932724
 20
0.515887
 11
-1.923244
 21
0.549841
  0
LINE
  8
1
 10
-1.923244
 20
0.549841
 11
-1.913196
 21
0.583588
  0
LINE
  8
1
 10
-1.913196
 20
0.583588
 11
-1.902582
 21
0.617119
  0
LINE
  8
1
 10
-1.902582
 20
0.617119
 11
-1.891404
 21
0.650426
  0
LINE
  8
1
 10
-1.891404
 20
0.650426
 11
-1.879666
 21
0.683502
  0
LINE
  8
1
 10
-1.879666
 20
0.683502
 11
-1.867369
 21
0.716340
  0
LINE
  8
1
 10
-1.867369
 20
0.716340
 11
-1.854517
 21
0.748932
  0
LINE
  8
1
 10
-1.854517
 20
0.748932
 11
-1.841112
 21
0.781272
  0
LINE
  8
1
 10
-1.841112
 20
0.781272
 11
-1.827157
 21
0.813352
  0
LINE
  8
1
 10
-1.827157
 20
0.813352
 11
-1.812655
 21
0.845165
  0
LINE
  8
1
 10
-1.812655
 20
0.845165
 11
-1.797609
 21
0.876705
  0
LINE
  8
1
 10
-1.797609
 20
0.876705
 11
-1.782022
 21
0.907964
  0
LINE
  8
1
 10
-1.782022
 20
0.907964
 11
-1.765898
 21
0.938938
  0
LINE
  8
1
 10
-1.765898
 20
0.938938
 11
-1.749240
 21
0.969618
  0
LINE
  8
1
 10
-1.749240
 20
0.969618
 11
-1.732026
 21
1.000043
  0
LINE
  8
1
 10
-1.732026
 20
1.000043
 11
-1.713947
 21
1.030731
  0
LINE
  8
1
 10
-1.713947
 20
1.030731
 11
-1.694237
 21
1.062977
  0
LINE
  8
1
 10
-1.694237
 20
1.062977
 11
-1.672024
 21
1.098277
  0
LINE
  8
1
 10
-1.672024
 20
1.098277
 11
-1.646668
 21
1.137849
  0
LINE
  8
1
 10
-1.646668
 20
1.137849
 11
-1.617822
 21
1.182647
  0
LINE
  8
1
 10
-1.617822
 20
1.182647
 11
-1.585454
 21
1.233397
  0
LINE
  8
1
 10
-1.585454
 20
1.233397
 11
-1.549871
 21
1.290611
  0
LINE
  8
1
 10
-1.549871
 20
1.290611
 11
-1.511705
 21
1.354559
  0
LINE
  8
1
 10
-1.511705
 20
1.354559
 11
-1.471873
 21
1.425226
  0
LINE
  8
1
 10
-1.471873
 20
1.425226
 11
-1.431496
 21
1.502270
  0
LINE
  8
1
 10
-1.431496
 20
1.502270
 11
-1.391773
 21
1.585004
  0
LINE
  8
1
 10
-1.391773
 20
1.585004
 11
-1.353835
 21
1.672433
  0
LINE
  8
1
 10
-1.353835
 20
1.672433
 11
-1.318602
 21
1.763353
  0
LINE
  8
1
 10
-1.318602
 20
1.763353
 11
-1.286687
 21
1.856492
  0
LINE
  8
1
 10
-1.286687
 20
1.856492
 11
-1.258367
 21
1.950660
  0
LINE
  8
1
 10
-1.258367
 20
1.950660
 11
-1.233606
 21
2.044864
  0
LINE
  8
1
 10
-1.233606
 20
2.044864
 11
-1.212132
 21
2.138371
  0
LINE
  8
1
 10
-1.212132
 20
2.138371
 11
-1.193520
 21
2.230714
  0
LINE
  8
1
 10
-1.193520
 20
2.230714
 11
-1.177267
 21
2.321649
  0
LINE
  8
1
 10
-1.177267
 20
2.321649
 11
-1.162852
 21
2.411098
  0
LINE
  8
1
 10
-1.162852
 20
2.411098
 11
-1.149768
 21
2.499084
  0
LINE
  8
1
 10
-1.149768
 20
2.499084
 11
-1.137547
 21
2.585674
  0
LINE
  8
1
 10
-1.137547
 20
2.585674
 11
-1.125760
 21
2.670932
  0
LINE
  8
1
 10
-1.125760
 20
2.670932
 11
-1.114025
 21
2.754890
  0
LINE
  8
1
 10
-1.114025
 20
2.754890
 11
-1.102003
 21
2.837528
  0
LINE
  8
1
 10
-1.102003
 20
2.837528
 11
-1.089399
 21
2.918763
  0
LINE
  8
1
 10
-1.089399
 20
2.918763
 11
-1.075961
 21
2.998446
  0
LINE
  8
1
 10
-1.075961
 20
2.998446
 11
-1.061482
 21
3.076367
  0
LINE
  8
1
 10
-1.061482
 20
3.076367
 11
-1.045801
 21
3.152257
  0
LINE
  8
1
 10
-1.045801
 20
3.152257
 11
-1.028808
 21
3.225803
  0
LINE
  8
1
 10
-1.028808
 20
3.225803
 11
-1.010446
 21
3.296656
  0
LINE
  8
1
 10
-1.010446
 20
3.296656
 11
-0.990715
 21
3.364448
  0
LINE
  8
1
 10
-0.990715
 20
3.364448
 11
-0.969673
 21
3.428808
  0
LINE
  8
1
 10
-0.969673
 20
3.428808
 11
-0.947435
 21
3.489378
  0
LINE
  8
1
 10
-0.947435
 20
3.489378
 11
-0.924175
 21
3.545836
  0
LINE
  8
1
 10
-0.924175
 20
3.545836
 11
-0.900113
 21
3.597912
  0
LINE
  8
1
 10
-0.900113
 20
3.597912
 11
-0.875510
 21
3.645417
  0
LINE
  8
1
 10
-0.875510
 20
3.645417
 11
-0.850645
 21
3.688252
  0
LINE
  8
1
 10
-0.850645
 20
3.688252
 11
-0.825798
 21
3.726435
  0
LINE
  8
1
 10
-0.825798
 20
3.726435
 11
-0.801217
 21
3.760105
  0
LINE
  8
1
 10
-0.801217
 20
3.760105
 11
-0.777088
 21
3.789529
  0
LINE
  8
1
 10
-0.777088
 20
3.789529
 11
-0.753497
 21
3.815089
  0
LINE
  8
1
 10
-0.753497
 20
3.815089
 11
-0.730401
 21
3.837266
  0
LINE
  8
1
 10
-0.730401
 20
3.837266
 11
-0.707605
 21
3.856598
  0
LINE
  8
1
 10
-0.707605
 20
3.856598
 11
-0.684756
 21
3.873640
  0
LINE
  8
1
 10
-0.684756
 20
3.873640
 11
-0.661351
 21
3.888918
  0
LINE
  8
1
 10
-0.661351
 20
3.888918
 11
-0.636770
 21
3.902878
  0
LINE
  8
1
 10
-0.636770
 20
3.902878
 11
-0.610319
 21
3.915857
  0
LINE
  8
1
 10
-0.610319
 20
3.915857
 11
-0.581290
 21
3.928065
  0
LINE
  8
1
 10
-0.581290
 20
3.928065
 11
-0.549018
 21
3.939589
  0
LINE
  8
1
 10
-0.549018
 20
3.939589
 11
-0.512926
 21
3.950411
  0
LINE
  8
1
 10
-0.512926
 20
3.950411
 11
-0.472573
 21
3.960441
  0
LINE
  8
1
 10
-0.472573
 20
3.960441
 11
-0.427673
 21
3.969548
  0
LINE
  8
1
 10
-0.427673
 20
3.969548
 11
-0.378114
 21
3.977600
  0
LINE
  8
1
 10
-0.378114
 20
3.977600
 11
-0.323960
 21
3.984482
  0
LINE
  8
1
 10
-0.323960
 20
3.984482
 11
-0.265464
 21
3.990120
  0
LINE
  8
1
 10
-0.265464
 20
3.990120
 11
-0.203066
 21
3.994479
  0
LINE
  8
1
 10
-0.203066
 20
3.994479
 11
-0.137408
 21
3.997562
  0
LINE
  8
1
 10
-0.137408
 20
3.997562
 11
-0.069353
 21
3.999394
  0
LINE
  8
1
 10
-0.069353
 20
3.999394
 11
0.000030
 21
4.000000
  0
ENDSEC
  0
EOF
