  0
SECTION
  2
HEADER
  9
$EXTMIN
 10
-2.013751
 20
-2.727057
  9
$EXTMAX
 10
3.789617
 20
4.000000
  0
ENDSEC
  0
SECTION
  2
TABLES
  0
TABLE
  2
LTYPE
 70
1
  0
LTYPE
  2
CONTINUOUS
 70
64
  3
Solid Line
 72
65
 73
0
 40
0.000000
  0
ENDTAB
  0
TABLE
  2
LAYER
 70
16
  0
LAYER
  2
0
 70
0
 62
7
  6
CONTINUOUS
  0
LAYER
  2
1
 70
0
 62
7
  6
CONTINUOUS
  0
LAYER
  2
2
 70
0
 62
7
  6
CONTINUOUS
  0
LAYER
  2
3
 70
0
 62
7
  6
CONTINUOUS
  0
LAYER
  2
4
 70
0
 62
7
  6
CONTINUOUS
  0
LAYER
  2
5
 70
0
 62
7
  6
CONTINUOUS
  0
LAYER
  2
6
 70
0
 62
7
  6
CONTINUOUS
  0
LAYER
  2
7
 70
0
 62
7
  6
CONTINUOUS
  0
LAYER
  2
8
 70
0
 62
7
  6
CONTINUOUS
  0
LAYER
  2
9
 70
0
 62
7
  6
CONTINUOUS
  0
LAYER
  2
10
 70
0
 62
7
  6
CONTINUOUS
  0
LAYER
  2
11
 70
0
 62
7
  6
CONTINUOUS
  0
LAYER
  2
12
 70
0
 62
7
  6
CONTINUOUS
  0
LAYER
  2
13
 70
0
 62
7
  6
CONTINUOUS
  0
LAYER
  2
14
 70
0
 62
7
  6
CONTINUOUS
  0
LAYER
  2
15
 70
0
 62
7
  6
CONTINUOUS
  0
ENDTAB
  0
ENDSEC
  0
SECTION
  2
ENTITIES
  0
LINE
  8
1
 10
0.000056
 20
4.000000
 11
0.069809
 21
3.999391
  0
LINE
  8
1
 10
0.069809
 20
3.999391
 11
0.139595
 21
3.997563
  0
LINE
  8
1
 10
0.139595
 20
3.997563
 11
0.209334
 21
3.994518
  0
LINE
  8
1
 10
0.209334
 20
3.994518
 11
0.279003
 21
3.990256
  0
LINE
  8
1
 10
0.279003
 20
3.990256
 11
0.348579
 21
3.984778
  0
LINE
  8
1
 10
0.348579
 20
3.984778
 11
0.418040
 21
3.978086
  0
LINE
  8
1
 10
0.418040
 20
3.978086
 11
0.487361
 21
3.970181
  0
LINE
  8
1
 10
0.487361
 20
3.970181
 11
0.556521
 21
3.961067
  0
LINE
  8
1
 10
0.556521
 20
3.961067
 11
0.625496
 21
3.950744
  0
LINE
  8
1
 10
0.625496
 20
3.950744
 11
0.694264
 21
3.939217
  0
LINE
  8
1
 10
0.694264
 20
3.939217
 11
0.762801
 21
3.926488
  0
LINE
  8
1
 10
0.762801
 20
3.926488
 11
0.831085
 21
3.912562
  0
LINE
  8
1
 10
0.831085
 20
3.912562
 11
0.899094
 21
3.897441
  0
LINE
  8
1
 10
0.899094
 20
3.897441
 11
0.966805
 21
3.881131
  0
LINE
  8
1
 10
0.966805
 20
3.881131
 11
1.034195
 21
3.863636
  0
LINE
  8
1
 10
1.034195
 20
3.863636
 11
1.101242
 21
3.844961
  0
LINE
  8
1
 10
1.101242
 20
3.844961
 11
1.167924
 21
3.825112
  0
LINE
  8
1
 10
1.167924
 20
3.825112
 11
1.234218
 21
3.804094
  0
LINE
  8
1
 10
1.234218
 20
3.804094
 11
1.300102
 21
3.781914
  0
LINE
  8
1
 10
1.300102
 20
3.781914
 11
1.365554
 21
3.758578
  0
LINE
  8
1
 10
1.365554
 20
3.758578
 11
1.430552
 21
3.734093
  0
LINE
  8
1
 10
1.430552
 20
3.734093
 11
1.495073
 21
3.708467
  0
LINE
  8
1
 10
1.495073
 20
3.708467
 11
1.559097
 21
3.681708
  0
LINE
  8
1
 10
1.559097
 20
3.681708
 11
1.622601
 21
3.653823
  0
LINE
  8
1
 10
1.622601
 20
3.653823
 11
1.685563
 21
3.624822
  0
LINE
  8
1
 10
1.685563
 20
3.624822
 11
1.747963
 21
3.594713
  0
LINE
  8
1
 10
1.747963
 20
3.594713
 11
1.809777
 21
3.563505
  0
LINE
  8
1
 10
1.809777
 20
3.563505
 11
1.870986
 21
3.531210
  0
LINE
  8
1
 10
1.870986
 20
3.531210
 11
1.931568
 21
3.497837
  0
LINE
  8
1
 10
1.931568
 20
3.497837
 11
1.991502
 21
3.463396
  0
LINE
  8
1
 10
1.991502
 20
3.463396
 11
2.050767
 21
3.427900
  0
LINE
  8
1
 10
2.050767
 20
3.427900
 11
2.109342
 21
3.391360
  0
LINE
  8
1
 10
2.109342
 20
3.391360
 11
2.167207
 21
3.353787
  0
LINE
  8
1
 10
2.167207
 20
3.353787
 11
2.224341
 21
3.315194
  0
LINE
  8
1
 10
2.224341
 20
3.315194
 11
2.280724
 21
3.275595
  0
LINE
  8
1
 10
2.280724
 20
3.275595
 11
2.336336
 21
3.235002
  0
LINE
  8
1
 10
2.336336
 20
3.235002
 11
2.391158
 21
3.193429
  0
LINE
  8
1
 10
2.391158
 20
3.193429
 11
2.445170
 21
3.150891
  0
LINE
  8
1
 10
2.445170
 20
3.150891
 11
2.498352
 21
3.107403
  0
LINE
  8
1
 10
2.498352
 20
3.107403
 11
2.550685
 21
3.062979
  0
LINE
  8
1
 10
2.550685
 20
3.062979
 11
2.602152
 21
3.017635
  0
LINE
  8
1
 10
2.602152
 20
3.017635
 11
2.652732
 21
2.971388
  0
LINE
  8
1
 10
2.652732
 20
2.971388
 11
2.702408
 21
2.924252
  0
LINE
  8
1
 10
2.702408
 20
2.924252
 11
2.751163
 21
2.876247
  0
LINE
  8
1
 10
2.751163
 20
2.876247
 11
2.798977
 21
2.827388
  0
LINE
  8
1
 10
2.798977
 20
2.827388
 11
2.845835
 21
2.777693
  0
LINE
  8
1
 10
2.845835
 20
2.777693
 11
2.891718
 21
2.727182
  0
LINE
  8
1
 10
2.891718
 20
2.727182
 11
2.936611
 21
2.675871
  0
LINE
  8
1
 10
2.936611
 20
2.675871
 11
2.980497
 21
2.623781
  0
LINE
  8
1
 10
2.980497
 20
2.623781
 11
3.023360
 21
2.570930
  0
LINE
  8
1
 10
3.023360
 20
2.570930
 11
3.065185
 21
2.517339
  0
LINE
  8
1
 10
3.065185
 20
2.517339
 11
3.105957
 21
2.463027
  0
LINE
  8
1
 10
3.105957
 20
2.463027
 11
3.145660
 21
2.408015
  0
LINE
  8
1
 10
3.145660
 20
2.408015
 11
3.184281
 21
2.352324
  0
LINE
  8
1
 10
3.184281
 20
2.352324
 11
3.221805
 21
2.295976
  0
LINE
  8
1
 10
3.221805
 20
2.295976
 11
3.258220
 21
2.238991
  0
LINE
  8
1
 10
3.258220
 20
2.238991
 11
3.293512
 21
2.181392
  0
LINE
  8
1
 10
3.293512
 20
2.181392
 11
3.327669
 21
2.123202
  0
LINE
  8
1
 10
3.327669
 20
2.123202
 11
3.360679
 21
2.064443
  0
LINE
  8
1
 10
3.360679
 20
2.064443
 11
3.392530
 21
2.005137
  0
LINE
  8
1
 10
3.392530
 20
2.005137
 11
3.423211
 21
1.945309
  0
LINE
  8
1
 10
3.423211
 20
1.945309
 11
3.452712
 21
1.884982
  0
LINE
  8
1
 10
3.452712
 20
1.884982
 11
3.481022
 21
1.824179
  0
LINE
  8
1
 10
3.481022
 20
1.824179
 11
3.508133
 21
1.762925
  0
LINE
  8
1
 10
3.508133
 20
1.762925
 11
3.534035
 21
1.701244
  0
LINE
  8
1
 10
3.534035
 20
1.701244
 11
3.558721
 21
1.639161
  0
LINE
  8
1
 10
3.558721
 20
1.639161
 11
3.582181
 21
1.576701
  0
LINE
  8
1
 10
3.582181
 20
1.576701
 11
3.604409
 21
1.513888
  0
LINE
  8
1
 10
3.604409
 20
1.513888
 11
3.625399
 21
1.450748
  0
LINE
  8
1
 10
3.625399
 20
1.450748
 11
3.645143
 21
1.387307
  0
LINE
  8
1
 10
3.645143
 20
1.387307
 11
3.663637
 21
1.323590
  0
LINE
  8
1
 10
3.663637
 20
1.323590
 11
3.680876
 21
1.259622
  0
LINE
  8
1
 10
3.680876
 20
1.259622
 11
3.696856
 21
1.195431
  0
LINE
  8
1
 10
3.696856
 20
1.195431
 11
3.711571
 21
1.131041
  0
LINE
  8
1
 10
3.711571
 20
1.131041
 11
3.725021
 21
1.066479
  0
LINE
  8
1
 10
3.725021
 20
1.066479
 11
3.737201
 21
1.001771
  0
LINE
  8
1
 10
3.737201
 20
1.001771
 11
3.748111
 21
0.936944
  0
LINE
  8
1
 10
3.748111
 20
0.936944
 11
3.757748
 21
0.872024
  0
LINE
  8
1
 10
3.757748
 20
0.872024
 11
3.766113
 21
0.807037
  0
LINE
  8
1
 10
3.766113
 20
0.807037
 11
3.773205
 21
0.742009
  0
LINE
  8
1
 10
3.773205
 20
0.742009
 11
3.779025
 21
0.676968
  0
LINE
  8
1
 10
3.779025
 20
0.676968
 11
3.783574
 21
0.611939
  0
LINE
  8
1
 10
3.783574
 20
0.611939
 11
3.786854
 21
0.546949
  0
LINE
  8
1
 10
3.786854
 20
0.546949
 11
3.788867
 21
0.482024
  0
LINE
  8
1
 10
3.788867
 20
0.482024
 11
3.789617
 21
0.417190
  0
LINE
  8
1
 10
3.789617
 20
0.417190
 11
3.789108
 21
0.352474
  0
LINE
  8
1
 10
3.789108
 20
0.352474
 11
3.787343
 21
0.287902
  0
LINE
  8
1
 10
3.787343
 20
0.287902
 11
3.784328
 21
0.223500
  0
LINE
  8
1
 10
3.784328
 20
0.223500
 11
3.780069
 21
0.159293
  0
LINE
  8
1
 10
3.780069
 20
0.159293
 11
3.774571
 21
0.095307
  0
LINE
  8
1
 10
3.774571
 20
0.095307
 11
3.767841
 21
0.031568
  0
LINE
  8
1
 10
3.767841
 20
0.031568
 11
3.759888
 21
-0.031899
  0
LINE
  8
1
 10
3.759888
 20
-0.031899
 11
3.750718
 21
-0.095069
  0
LINE
  8
1
 10
3.750718
 20
-0.095069
 11
3.740341
 21
-0.157917
  0
LINE
  8
1
 10
3.740341
 20
-0.157917
 11
3.728766
 21
-0.220419
  0
LINE
  8
1
 10
3.728766
 20
-0.220419
 11
3.716003
 21
-0.282550
  0
LINE
  8
1
 10
3.716003
 20
-0.282550
 11
3.702062
 21
-0.344285
  0
LINE
  8
1
 10
3.702062
 20
-0.344285
 11
3.686953
 21
-0.405602
  0
LINE
  8
1
 10
3.686953
 20
-0.405602
 11
3.670690
 21
-0.466477
  0
LINE
  8
1
 10
3.670690
 20
-0.466477
 11
3.653283
 21
-0.526886
  0
LINE
  8
1
 10
3.653283
 20
-0.526886
 11
3.634745
 21
-0.586806
  0
LINE
  8
1
 10
3.634745
 20
-0.586806
 11
3.615089
 21
-0.646216
  0
LINE
  8
1
 10
3.615089
 20
-0.646216
 11
3.594329
 21
-0.705093
  0
LINE
  8
1
 10
3.594329
 20
-0.705093
 11
3.572480
 21
-0.763415
  0
LINE
  8
1
 10
3.572480
 20
-0.763415
 11
3.549555
 21
-0.821160
  0
LINE
  8
1
 10
3.549555
 20
-0.821160
 11
3.525570
 21
-0.878309
  0
LINE
  8
1
 10
3.525570
 20
-0.878309
 11
3.500540
 21
-0.934840
  0
LINE
  8
1
 10
3.500540
 20
-0.934840
 11
3.474482
 21
-0.990733
  0
LINE
  8
1
 10
3.474482
 20
-0.990733
 11
3.447412
 21
-1.045969
  0
LINE
  8
1
 10
3.447412
 20
-1.045969
 11
3.419346
 21
-1.100528
  0
LINE
  8
1
 10
3.419346
 20
-1.100528
 11
3.390303
 21
-1.154392
  0
LINE
  8
1
 10
3.390303
 20
-1.154392
 11
3.360299
 21
-1.207542
  0
LINE
  8
1
 10
3.360299
 20
-1.207542
 11
3.329354
 21
-1.259961
  0
LINE
  8
1
 10
3.329354
 20
-1.259961
 11
3.297485
 21
-1.311631
  0
LINE
  8
1
 10
3.297485
 20
-1.311631
 11
3.264711
 21
-1.362536
  0
LINE
  8
1
 10
3.264711
 20
-1.362536
 11
3.231052
 21
-1.412659
  0
LINE
  8
1
 10
3.231052
 20
-1.412659
 11
3.196527
 21
-1.461985
  0
LINE
  8
1
 10
3.196527
 20
-1.461985
 11
3.161155
 21
-1.510498
  0
LINE
  8
1
 10
3.161155
 20
-1.510498
 11
3.124957
 21
-1.558184
  0
LINE
  8
1
 10
3.124957
 20
-1.558184
 11
3.087954
 21
-1.605028
  0
LINE
  8
1
 10
3.087954
 20
-1.605028
 11
3.050165
 21
-1.651018
  0
LINE
  8
1
 10
3.050165
 20
-1.651018
 11
3.011612
 21
-1.696139
  0
LINE
  8
1
 10
3.011612
 20
-1.696139
 11
2.972316
 21
-1.740380
  0
LINE
  8
1
 10
2.972316
 20
-1.740380
 11
2.932297
 21
-1.783729
  0
LINE
  8
1
 10
2.932297
 20
-1.783729
 11
2.891578
 21
-1.826175
  0
LINE
  8
1
 10
2.891578
 20
-1.826175
 11
2.850181
 21
-1.867706
  0
LINE
  8
1
 10
2.850181
 20
-1.867706
 11
2.808126
 21
-1.908312
  0
LINE
  8
1
 10
2.808126
 20
-1.908312
 11
2.765436
 21
-1.947984
  0
LINE
  8
1
 10
2.765436
 20
-1.947984
 11
2.722133
 21
-1.986714
  0
LINE
  8
1
 10
2.722133
 20
-1.986714
 11
2.678239
 21
-2.024491
  0
LINE
  8
1
 10
2.678239
 20
-2.024491
 11
2.633776
 21
-2.061310
  0
LINE
  8
1
 10
2.633776
 20
-2.061310
 11
2.588767
 21
-2.097161
  0
LINE
  8
1
 10
2.588767
 20
-2.097161
 11
2.543234
 21
-2.132039
  0
LINE
  8
1
 10
2.543234
 20
-2.132039
 11
2.497200
 21
-2.165938
  0
LINE
  8
1
 10
2.497200
 20
-2.165938
 11
2.450686
 21
-2.198851
  0
LINE
  8
1
 10
2.450686
 20
-2.198851
 11
2.403715
 21
-2.230774
  0
LINE
  8
1
 10
2.403715
 20
-2.230774
 11
2.356310
 21
-2.261702
  0
LINE
  8
1
 10
2.356310
 20
-2.261702
 11
2.308493
 21
-2.291632
  0
LINE
  8
1
 10
2.308493
 20
-2.291632
 11
2.260286
 21
-2.320561
  0
LINE
  8
1
 10
2.260286
 20
-2.320561
 11
2.211712
 21
-2.348484
  0
LINE
  8
1
 10
2.211712
 20
-2.348484
 11
2.162792
 21
-2.375401
  0
LINE
  8
1
 10
2.162792
 20
-2.375401
 11
2.113549
 21
-2.401309
  0
LINE
  8
1
 10
2.113549
 20
-2.401309
 11
2.064005
 21
-2.426208
  0
LINE
  8
1
 10
2.064005
 20
-2.426208
 11
2.014181
 21
-2.450097
  0
LINE
  8
1
 10
2.014181
 20
-2.450097
 11
1.964100
 21
-2.472975
  0
LINE
  8
1
 10
1.964100
 20
-2.472975
 11
1.913782
 21
-2.494843
  0
LINE
  8
1
 10
1.913782
 20
-2.494843
 11
1.863249
 21
-2.515701
  0
LINE
  8
1
 10
1.863249
 20
-2.515701
 11
1.812523
 21
-2.535553
  0
LINE
  8
1
 10
1.812523
 20
-2.535553
 11
1.761624
 21
-2.554398
  0
LINE
  8
1
 10
1.761624
 20
-2.554398
 11
1.710574
 21
-2.572240
  0
LINE
  8
1
 10
1.710574
 20
-2.572240
 11
1.659392
 21
-2.589081
  0
LINE
  8
1
 10
1.659392
 20
-2.589081
 11
1.608099
 21
-2.604925
  0
LINE
  8
1
 10
1.608099
 20
-2.604925
 11
1.556715
 21
-2.619776
  0
LINE
  8
1
 10
1.556715
 20
-2.619776
 11
1.505261
 21
-2.633637
  0
LINE
  8
1
 10
1.505261
 20
-2.633637
 11
1.453755
 21
-2.646513
  0
LINE
  8
1
 10
1.453755
 20
-2.646513
 11
1.402217
 21
-2.658409
  0
LINE
  8
1
 10
1.402217
 20
-2.658409
 11
1.350666
 21
-2.669331
  0
LINE
  8
1
 10
1.350666
 20
-2.669331
 11
1.299121
 21
-2.679283
  0
LINE
  8
1
 10
1.299121
 20
-2.679283
 11
1.247601
 21
-2.688274
  0
LINE
  8
1
 10
1.247601
 20
-2.688274
 11
1.196122
 21
-2.696308
  0
LINE
  8
1
 10
1.196122
 20
-2.696308
 11
1.144704
 21
-2.703393
  0
LINE
  8
1
 10
1.144704
 20
-2.703393
 11
1.093364
 21
-2.709536
  0
LINE
  8
1
 10
1.093364
 20
-2.709536
 11
1.042119
 21
-2.714745
  0
LINE
  8
1
 10
1.042119
 20
-2.714745
 11
0.990986
 21
-2.719027
  0
LINE
  8
1
 10
0.990986
 20
-2.719027
 11
0.939981
 21
-2.722391
  0
LINE
  8
1
 10
0.939981
 20
-2.722391
 11
0.889121
 21
-2.724844
  0
LINE
  8
1
 10
0.889121
 20
-2.724844
 11
0.838421
 21
-2.726397
  0
LINE
  8
1
 10
0.838421
 20
-2.726397
 11
0.787898
 21
-2.727057
  0
LINE
  8
1
 10
0.787898
 20
-2.727057
 11
0.737565
 21
-2.726834
  0
LINE
  8
1
 10
0.737565
 20
-2.726834
 11
0.687438
 21
-2.725737
  0
LINE
  8
1
 10
0.687438
 20
-2.725737
 11
0.637532
 21
-2.723776
  0
LINE
  8
1
 10
0.637532
 20
-2.723776
 11
0.587860
 21
-2.720961
  0
LINE
  8
1
 10
0.587860
 20
-2.720961
 11
0.538436
 21
-2.717302
  0
LINE
  8
1
 10
0.538436
 20
-2.717302
 11
0.489274
 21
-2.712809
  0
LINE
  8
1
 10
0.489274
 20
-2.712809
 11
0.440386
 21
-2.707493
  0
LINE
  8
1
 10
0.440386
 20
-2.707493
 11
0.391786
 21
-2.701364
  0
LINE
  8
1
 10
0.391786
 20
-2.701364
 11
0.343484
 21
-2.694433
  0
LINE
  8
1
 10
0.343484
 20
-2.694433
 11
0.295494
 21
-2.686711
  0
LINE
  8
1
 10
0.295494
 20
-2.686711
 11
0.247827
 21
-2.678208
  0
LINE
  8
1
 10
0.247827
 20
-2.678208
 11
0.200494
 21
-2.668937
  0
LINE
  8
1
 10
0.200494
 20
-2.668937
 11
0.153506
 21
-2.658908
  0
LINE
  8
1
 10
0.153506
 20
-2.658908
 11
0.106874
 21
-2.648132
  0
LINE
  8
1
 10
0.106874
 20
-2.648132
 11
0.060607
 21
-2.636621
  0
LINE
  8
1
 10
0.060607
 20
-2.636621
 11
0.014715
 21
-2.624386
  0
LINE
  8
1
 10
0.014715
 20
-2.624386
 11
-0.030792
 21
-2.611438
  0
LINE
  8
1
 10
-0.030792
 20
-2.611438
 11
-0.075904
 21
-2.597790
  0
LINE
  8
1
 10
-0.075904
 20
-2.597790
 11
-0.120614
 21
-2.583453
  0
LINE
  8
1
 10
-0.120614
 20
-2.583453
 11
-0.164913
 21
-2.568438
  0
LINE
  8
1
 10
-0.164913
 20
-2.568438
 11
-0.208792
 21
-2.552757
  0
LINE
  8
1
 10
-0.208792
 20
-2.552757
 11
-0.252244
 21
-2.536421
  0
LINE
  8
1
 10
-0.252244
 20
-2.536421
 11
-0.295260
 21
-2.519443
  0
LINE
  8
1
 10
-0.295260
 20
-2.519443
 11
-0.337835
 21
-2.501833
  0
LINE
  8
1
 10
-0.337835
 20
-2.501833
 11
-0.379961
 21
-2.483604
  0
LINE
  8
1
 10
-0.379961
 20
-2.483604
 11
-0.421630
 21
-2.464766
  0
LINE
  8
1
 10
-0.421630
 20
-2.464766
 11
-0.462838
 21
-2.445332
  0
LINE
  8
1
 10
-0.462838
 20
-2.445332
 11
-0.503578
 21
-2.425313
  0
LINE
  8
1
 10
-0.503578
 20
-2.425313
 11
-0.543843
 21
-2.404720
  0
LINE
  8
1
 10
-0.543843
 20
-2.404720
 11
-0.583628
 21
-2.383565
  0
LINE
  8
1
 10
-0.583628
 20
-2.383565
 11
-0.622929
 21
-2.361859
  0
LINE
  8
1
 10
-0.622929
 20
-2.361859
 11
-0.661739
 21
-2.339613
  0
LINE
  8
1
 10
-0.661739
 20
-2.339613
 11
-0.700055
 21
-2.316838
  0
LINE
  8
1
 10
-0.700055
 20
-2.316838
 11
-0.737871
 21
-2.293546
  0
LINE
  8
1
 10
-0.737871
 20
-2.293546
 11
-0.775182
 21
-2.269748
  0
LINE
  8
1
 10
-0.775182
 20
-2.269748
 11
-0.811986
 21
-2.245454
  0
LINE
  8
1
 10
-0.811986
 20
-2.245454
 11
-0.848277
 21
-2.220676
  0
LINE
  8
1
 10
-0.848277
 20
-2.220676
 11
-0.884053
 21
-2.195424
  0
LINE
  8
1
 10
-0.884053
 20
-2.195424
 11
-0.919309
 21
-2.169709
  0
LINE
  8
1
 10
-0.919309
 20
-2.169709
 11
-0.954042
 21
-2.143542
  0
LINE
  8
1
 10
-0.954042
 20
-2.143542
 11
-0.988248
 21
-2.116932
  0
LINE
  8
1
 10
-0.988248
 20
-2.116932
 11
-1.021926
 21
-2.089892
  0
LINE
  8
1
 10
-1.021926
 20
-2.089892
 11
-1.055071
 21
-2.062430
  0
LINE
  8
1
 10
-1.055071
 20
-2.062430
 11
-1.087681
 21
-2.034557
  0
LINE
  8
1
 10
-1.087681
 20
-2.034557
 11
-1.119754
 21
-2.006283
  0
LINE
  8
1
 10
-1.119754
 20
-2.006283
 11
-1.151286
 21
-1.977619
  0
LINE
  8
1
 10
-1.151286
 20
-1.977619
 11
-1.182277
 21
-1.948574
  0
LINE
  8
1
 10
-1.182277
 20
-1.948574
 11
-1.212722
 21
-1.919157
  0
LINE
  8
1
 10
-1.212722
 20
-1.919157
 11
-1.242621
 21
-1.889380
  0
LINE
  8
1
 10
-1.242621
 20
-1.889380
 11
-1.271971
 21
-1.859251
  0
LINE
  8
1
 10
-1.271971
 20
-1.859251
 11
-1.300770
 21
-1.828780
  0
LINE
  8
1
 10
-1.300770
 20
-1.828780
 11
-1.329017
 21
-1.797976
  0
LINE
  8
1
 10
-1.329017
 20
-1.797976
 11
-1.356709
 21
-1.766850
  0
LINE
  8
1
 10
-1.356709
 20
-1.766850
 11
-1.383846
 21
-1.735409
  0
LINE
  8
1
 10
-1.383846
 20
-1.735409
 11
-1.410426
 21
-1.703663
  0
LINE
  8
1
 10
-1.410426
 20
-1.703663
 11
-1.436446
 21
-1.671622
  0
LINE
  8
1
 10
-1.436446
 20
-1.671622
 11
-1.461907
 21
-1.639294
  0
LINE
  8
1
 10
-1.461907
 20
-1.639294
 11
-1.486806
 21
-1.606688
  0
LINE
  8
1
 10
-1.486806
 20
-1.606688
 11
-1.511142
 21
-1.573814
  0
LINE
  8
1
 10
-1.511142
 20
-1.573814
 11
-1.534914
 21
-1.540679
  0
LINE
  8
1
 10
-1.534914
 20
-1.540679
 11
-1.558120
 21
-1.507293
  0
LINE
  8
1
 10
-1.558120
 20
-1.507293
 11
-1.580761
 21
-1.473664
  0
LINE
  8
1
 10
-1.580761
 20
-1.473664
 11
-1.602834
 21
-1.439800
  0
LINE
  8
1
 10
-1.602834
 20
-1.439800
 11
-1.624339
 21
-1.405711
  0
LINE
  8
1
 10
-1.624339
 20
-1.405711
 11
-1.645274
 21
-1.371405
  0
LINE
  8
1
 10
-1.645274
 20
-1.371405
 11
-1.665639
 21
-1.336889
  0
LINE
  8
1
 10
-1.665639
 20
-1.336889
 11
-1.685432
 21
-1.302173
  0
LINE
  8
1
 10
-1.685432
 20
-1.302173
 11
-1.704654
 21
-1.267264
  0
LINE
  8
1
 10
-1.704654
 20
-1.267264
 11
-1.723302
 21
-1.232172
  0
LINE
  8
1
 10
-1.723302
 20
-1.232172
 11
-1.741376
 21
-1.196903
  0
LINE
  8
1
 10
-1.741376
 20
-1.196903
 11
-1.758876
 21
-1.161466
  0
LINE
  8
1
 10
-1.758876
 20
-1.161466
 11
-1.775800
 21
-1.125869
  0
LINE
  8
1
 10
-1.775800
 20
-1.125869
 11
-1.792148
 21
-1.090121
  0
LINE
  8
1
 10
-1.792148
 20
-1.090121
 11
-1.807920
 21
-1.054229
  0
LINE
  8
1
 10
-1.807920
 20
-1.054229
 11
-1.823113
 21
-1.018201
  0
LINE
  8
1
 10
-1.823113
 20
-1.018201
 11
-1.837728
 21
-0.982045
  0
LINE
  8
1
 10
-1.837728
 20
-0.982045
 11
-1.851764
 21
-0.945770
  0
LINE
  8
1
 10
-1.851764
 20
-0.945770
 11
-1.865221
 21
-0.909382
  0
LINE
  8
1
 10
-1.865221
 20
-0.909382
 11
-1.878097
 21
-0.872891
  0
LINE
  8
1
 10
-1.878097
 20
-0.872891
 11
-1.890392
 21
-0.836303
  0
LINE
  8
1
 10
-1.890392
 20
-0.836303
 11
-1.902106
 21
-0.799628
  0
LINE
  8
1
 10
-1.902106
 20
-0.799628
 11
-1.913238
 21
-0.762872
  0
LINE
  8
1
 10
-1.913238
 20
-0.762872
 11
-1.923788
 21
-0.726043
  0
LINE
  8
1
 10
-1.923788
 20
-0.726043
 11
-1.933755
 21
-0.689150
  0
LINE
  8
1
 10
-1.933755
 20
-0.689150
 11
-1.943138
 21
-0.652201
  0
LINE
  8
1
 10
-1.943138
 20
-0.652201
 11
-1.951938
 21
-0.615203
  0
LINE
  8
1
 10
-1.951938
 20
-0.615203
 11
-1.960153
 21
-0.578164
  0
LINE
  8
1
 10
-1.960153
 20
-0.578164
 11
-1.967785
 21
-0.541093
  0
LINE
  8
1
 10
-1.967785
 20
-0.541093
 11
-1.974831
 21
-0.503996
  0
LINE
  8
1
 10
-1.974831
 20
-0.503996
 11
-1.981293
 21
-0.466883
  0
LINE
  8
1
 10
-1.981293
 20
-0.466883
 11
-1.987169
 21
-0.429760
  0
LINE
  8
1
 10
-1.987169
 20
-0.429760
 11
-1.992460
 21
-0.392637
  0
LINE
  8
1
 10
-1.992460
 20
-0.392637
 11
-1.997166
 21
-0.355520
  0
LINE
  8
1
 10
-1.997166
 20
-0.355520
 11
-2.001287
 21
-0.318419
  0
LINE
  8
1
 10
-2.001287
 20
-0.318419
 11
-2.004822
 21
-0.281340
  0
LINE
  8
1
 10
-2.004822
 20
-0.281340
 11
-2.007772
 21
-0.244293
  0
LINE
  8
1
 10
-2.007772
 20
-0.244293
 11
-2.010137
 21
-0.207285
  0
LINE
  8
1
 10
-2.010137
 20
-0.207285
 11
-2.011916
 21
-0.170324
  0
LINE
  8
1
 10
-2.011916
 20
-0.170324
 11
-2.013112
 21
-0.133418
  0
LINE
  8
1
 10
-2.013112
 20
-0.133418
 11
-2.013723
 21
-0.096577
  0
LINE
  8
1
 10
-2.013723
 20
-0.096577
 11
-2.013751
 21
-0.059807
  0
LINE
  8
1
 10
-2.013751
 20
-0.059807
 11
-2.013195
 21
-0.023116
  0
LINE
  8
1
 10
-2.013195
 20
-0.023116
 11
-2.012057
 21
0.013486
  0
LINE
  8
1
 10
-2.012057
 20
0.013486
 11
-2.010337
 21
0.049991
  0
LINE
  8
1
 10
-2.010337
 20
0.049991
 11
-2.008037
 21
0.086392
  0
LINE
  8
1
 10
-2.008037
 20
0.086392
 11
-2.005156
 21
0.122681
  0
LINE
  8
1
 10
-2.005156
 20
0.122681
 11
-2.001696
 21
0.158848
  0
LINE
  8
1
 10
-2.001696
 20
0.158848
 11
-1.997658
 21
0.194886
  0
LINE
  8
1
 10
-1.997658
 20
0.194886
 11
-1.993043
 21
0.230786
  0
LINE
  8
1
 10
-1.993043
 20
0.230786
 11
-1.987854
 21
0.266540
  0
LINE
  8
1
 10
-1.987854
 20
0.266540
 11
-1.982090
 21
0.302140
  0
LINE
  8
1
 10
-1.982090
 20
0.302140
 11
-1.975754
 21
0.337577
  0
LINE
  8
1
 10
-1.975754
 20
0.337577
 11
-1.968847
 21
0.372844
  0
LINE
  8
1
 10
-1.968847
 20
0.372844
 11
-1.961371
 21
0.407932
  0
LINE
  8
1
 10
-1.961371
 20
0.407932
 11
-1.953328
 21
0.442832
  0
LINE
  8
1
 10
-1.953328
 20
0.442832
 11
-1.944720
 21
0.477537
  0
LINE
  8
1
 10
-1.944720
 20
0.477537
 11
-1.935550
 21
0.512038
  0
LINE
  8
1
 10
-1.935550
 20
0.512038
 11
-1.925819
 21
0.546328
  0
LINE
  8
1
 10
-1.925819
 20
0.546328
 11
-1.915530
 21
0.580397
  0
LINE
  8
1
 10
-1.915530
 20
0.580397
 11
-1.904685
 21
0.614239
  0
LINE
  8
1
 10
-1.904685
 20
0.614239
 11
-1.893287
 21
0.647844
  0
LINE
  8
1
 10
-1.893287
 20
0.647844
 11
-1.881339
 21
0.681205
  0
LINE
  8
1
 10
-1.881339
 20
0.681205
 11
-1.868843
 21
0.714314
  0
LINE
  8
1
 10
-1.868843
 20
0.714314
 11
-1.855804
 21
0.747163
  0
LINE
  8
1
 10
-1.855804
 20
0.747163
 11
-1.842223
 21
0.779745
  0
LINE
  8
1
 10
-1.842223
 20
0.779745
 11
-1.828104
 21
0.812051
  0
LINE
  8
1
 10
-1.828104
 20
0.812051
 11
-1.813450
 21
0.844074
  0
LINE
  8
1
 10
-1.813450
 20
0.844074
 11
-1.798266
 21
0.875806
  0
LINE
  8
1
 10
-1.798266
 20
0.875806
 11
-1.782554
 21
0.907240
  0
LINE
  8
1
 10
-1.782554
 20
0.907240
 11
-1.766318
 21
0.938369
  0
LINE
  8
1
 10
-1.766318
 20
0.938369
 11
-1.749562
 21
0.969185
  0
LINE
  8
1
 10
-1.749562
 20
0.969185
 11
-1.732289
 21
0.999681
  0
LINE
  8
1
 10
-1.732289
 20
0.999681
 11
-1.714505
 21
1.029850
  0
LINE
  8
1
 10
-1.714505
 20
1.029850
 11
-1.696212
 21
1.059685
  0
LINE
  8
1
 10
-1.696212
 20
1.059685
 11
-1.677416
 21
1.089180
  0
LINE
  8
1
 10
-1.677416
 20
1.089180
 11
-1.658120
 21
1.118328
  0
LINE
  8
1
 10
-1.658120
 20
1.118328
 11
-1.638328
 21
1.147123
  0
LINE
  8
1
 10
-1.638328
 20
1.147123
 11
-1.618044
 21
1.175557
  0
LINE
  8
1
 10
-1.618044
 20
1.175557
 11
-1.597275
 21
1.203626
  0
LINE
  8
1
 10
-1.597275
 20
1.203626
 11
-1.576022
 21
1.231322
  0
LINE
  8
1
 10
-1.576022
 20
1.231322
 11
-1.554233
 21
1.258714
  0
LINE
  8
1
 10
-1.554233
 20
1.258714
 11
-1.531174
 21
1.286683
  0
LINE
  8
1
 10
-1.531174
 20
1.286683
 11
-1.505067
 21
1.317389
  0
LINE
  8
1
 10
-1.505067
 20
1.317389
 11
-1.473993
 21
1.353284
  0
LINE
  8
1
 10
-1.473993
 20
1.353284
 11
-1.436706
 21
1.396336
  0
LINE
  8
1
 10
-1.436706
 20
1.396336
 11
-1.392792
 21
1.448092
  0
LINE
  8
1
 10
-1.392792
 20
1.448092
 11
-1.342730
 21
1.509707
  0
LINE
  8
1
 10
-1.342730
 20
1.509707
 11
-1.287897
 21
1.581846
  0
LINE
  8
1
 10
-1.287897
 20
1.581846
 11
-1.230446
 21
1.664489
  0
LINE
  8
1
 10
-1.230446
 20
1.664489
 11
-1.173000
 21
1.756750
  0
LINE
  8
1
 10
-1.173000
 20
1.756750
 11
-1.118180
 21
1.856867
  0
LINE
  8
1
 10
-1.118180
 20
1.856867
 11
-1.068107
 21
1.962443
  0
LINE
  8
1
 10
-1.068107
 20
1.962443
 11
-1.024060
 21
2.070901
  0
LINE
  8
1
 10
-1.024060
 20
2.070901
 11
-0.986405
 21
2.179963
  0
LINE
  8
1
 10
-0.986405
 20
2.179963
 11
-0.954770
 21
2.287959
  0
LINE
  8
1
 10
-0.954770
 20
2.287959
 11
-0.928333
 21
2.393906
  0
LINE
  8
1
 10
-0.928333
 20
2.393906
 11
-0.906083
 21
2.497409
  0
LINE
  8
1
 10
-0.906083
 20
2.497409
 11
-0.887000
 21
2.598460
  0
LINE
  8
1
 10
-0.887000
 20
2.598460
 11
-0.870150
 21
2.697253
  0
LINE
  8
1
 10
-0.870150
 20
2.697253
 11
-0.854718
 21
2.794024
  0
LINE
  8
1
 10
-0.854718
 20
2.794024
 11
-0.840008
 21
2.888954
  0
LINE
  8
1
 10
-0.840008
 20
2.888954
 11
-0.825430
 21
2.982105
  0
LINE
  8
1
 10
-0.825430
 20
2.982105
 11
-0.810494
 21
3.073397
  0
LINE
  8
1
 10
-0.810494
 20
3.073397
 11
-0.794800
 21
3.162604
  0
LINE
  8
1
 10
-0.794800
 20
3.162604
 11
-0.778034
 21
3.249358
  0
LINE
  8
1
 10
-0.778034
 20
3.249358
 11
-0.759978
 21
3.333172
  0
LINE
  8
1
 10
-0.759978
 20
3.333172
 11
-0.740509
 21
3.413465
  0
LINE
  8
1
 10
-0.740509
 20
3.413465
 11
-0.719612
 21
3.489589
  0
LINE
  8
1
 10
-0.719612
 20
3.489589
 11
-0.697388
 21
3.560865
  0
LINE
  8
1
 10
-0.697388
 20
3.560865
 11
-0.674057
 21
3.626623
  0
LINE
  8
1
 10
-0.674057
 20
3.626623
 11
-0.649961
 21
3.686244
  0
LINE
  8
1
 10
-0.649961
 20
3.686244
 11
-0.625557
 21
3.739219
  0
LINE
  8
1
 10
-0.625557
 20
3.739219
 11
-0.601395
 21
3.785195
  0
LINE
  8
1
 10
-0.601395
 20
3.785195
 11
-0.578077
 21
3.824040
  0
LINE
  8
1
 10
-0.578077
 20
3.824040
 11
-0.556198
 21
3.855887
  0
LINE
  8
1
 10
-0.556198
 20
3.855887
 11
-0.536259
 21
3.881178
  0
LINE
  8
1
 10
-0.536259
 20
3.881178
 11
-0.518567
 21
3.900658
  0
LINE
  8
1
 10
-0.518567
 20
3.900658
 11
-0.503119
 21
3.915344
  0
LINE
  8
1
 10
-0.503119
 20
3.915344
 11
-0.489525
 21
3.926425
  0
LINE
  8
1
 10
-0.489525
 20
3.926425
 11
-0.476964
 21
3.935127
  0
LINE
  8
1
 10
-0.476964
 20
3.935127
 11
-0.464223
 21
3.942551
  0
LINE
  8
1
 10
-0.464223
 20
3.942551
 11
-0.449816
 21
3.949539
  0
LINE
  8
1
 10
-0.449816
 20
3.949539
 11
-0.432159
 21
3.956584
  0
LINE
  8
1
 10
-0.432159
 20
3.956584
 11
-0.409760
 21
3.963828
  0
LINE
  8
1
 10
-0.409760
 20
3.963828
 11
-0.381389
 21
3.971133
  0
LINE
  8
1
 10
-0.381389
 20
3.971133
 11
-0.346192
 21
3.978186
  0
LINE
  8
1
 10
-0.346192
 20
3.978186
 11
-0.303746
 21
3.984623
  0
LINE
  8
1
 10
-0.303746
 20
3.984623
 11
-0.254083
 21
3.990123
  0
LINE
  8
1
 10
-0.254083
 20
3.990123
 11
-0.197684
 21
3.994471
  0
LINE
  8
1
 10
-0.197684
 20
3.994471
 11
-0.135495
 21
3.997564
  0
LINE
  8
1
 10
-0.135495
 20
3.997564
 11
-0.068947
 21
3.999396
  0
LINE
  8
1
 10
-0.068947
 20
3.999396
 11
0.000056
 21
4.000000
  0
ENDSEC
  0
EOF
