  0
SECTION
  2
HEADER
  9
$EXTMIN
 10
-2.021907
 20
-2.770612
  9
$EXTMAX
 10
3.801021
 20
4.000000
  0
ENDSEC
  0
SECTION
  2
TABLES
  0
TABLE
  2
LTYPE
 70
1
  0
LTYPE
  2
CONTINUOUS
 70
64
  3
Solid Line
 72
65
 73
0
 40
0.000000
  0
ENDTAB
  0
TABLE
  2
LAYER
 70
16
  0
LAYER
  2
0
 70
0
 62
7
  6
CONTINUOUS
  0
LAYER
  2
1
 70
0
 62
7
  6
CONTINUOUS
  0
LAYER
  2
2
 70
0
 62
7
  6
CONTINUOUS
  0
LAYER
  2
3
 70
0
 62
7
  6
CONTINUOUS
  0
LAYER
  2
4
 70
0
 62
7
  6
CONTINUOUS
  0
LAYER
  2
5
 70
0
 62
7
  6
CONTINUOUS
  0
LAYER
  2
6
 70
0
 62
7
  6
CONTINUOUS
  0
LAYER
  2
7
 70
0
 62
7
  6
CONTINUOUS
  0
LAYER
  2
8
 70
0
 62
7
  6
CONTINUOUS
  0
LAYER
  2
9
 70
0
 62
7
  6
CONTINUOUS
  0
LAYER
  2
10
 70
0
 62
7
  6
CONTINUOUS
  0
LAYER
  2
11
 70
0
 62
7
  6
CONTINUOUS
  0
LAYER
  2
12
 70
0
 62
7
  6
CONTINUOUS
  0
LAYER
  2
13
 70
0
 62
7
  6
CONTINUOUS
  0
LAYER
  2
14
 70
0
 62
7
  6
CONTINUOUS
  0
LAYER
  2
15
 70
0
 62
7
  6
CONTINUOUS
  0
ENDTAB
  0
ENDSEC
  0
SECTION
  2
ENTITIES
  0
LINE
  8
1
 10
0.000093
 20
4.000000
 11
0.069809
 21
3.999391
  0
LINE
  8
1
 10
0.069809
 20
3.999391
 11
0.139595
 21
3.997563
  0
LINE
  8
1
 10
0.139595
 20
3.997563
 11
0.209334
 21
3.994518
  0
LINE
  8
1
 10
0.209334
 20
3.994518
 11
0.279005
 21
3.990256
  0
LINE
  8
1
 10
0.279005
 20
3.990256
 11
0.348582
 21
3.984778
  0
LINE
  8
1
 10
0.348582
 20
3.984778
 11
0.418045
 21
3.978086
  0
LINE
  8
1
 10
0.418045
 20
3.978086
 11
0.487370
 21
3.970182
  0
LINE
  8
1
 10
0.487370
 20
3.970182
 11
0.556533
 21
3.961067
  0
LINE
  8
1
 10
0.556533
 20
3.961067
 11
0.625514
 21
3.950745
  0
LINE
  8
1
 10
0.625514
 20
3.950745
 11
0.694287
 21
3.939218
  0
LINE
  8
1
 10
0.694287
 20
3.939218
 11
0.762832
 21
3.926490
  0
LINE
  8
1
 10
0.762832
 20
3.926490
 11
0.831126
 21
3.912564
  0
LINE
  8
1
 10
0.831126
 20
3.912564
 11
0.899145
 21
3.897444
  0
LINE
  8
1
 10
0.899145
 20
3.897444
 11
0.966868
 21
3.881135
  0
LINE
  8
1
 10
0.966868
 20
3.881135
 11
1.034272
 21
3.863641
  0
LINE
  8
1
 10
1.034272
 20
3.863641
 11
1.101335
 21
3.844968
  0
LINE
  8
1
 10
1.101335
 20
3.844968
 11
1.168035
 21
3.825120
  0
LINE
  8
1
 10
1.168035
 20
3.825120
 11
1.234349
 21
3.804104
  0
LINE
  8
1
 10
1.234349
 20
3.804104
 11
1.300255
 21
3.781926
  0
LINE
  8
1
 10
1.300255
 20
3.781926
 11
1.365732
 21
3.758592
  0
LINE
  8
1
 10
1.365732
 20
3.758592
 11
1.430757
 21
3.734110
  0
LINE
  8
1
 10
1.430757
 20
3.734110
 11
1.495308
 21
3.708487
  0
LINE
  8
1
 10
1.495308
 20
3.708487
 11
1.559365
 21
3.681731
  0
LINE
  8
1
 10
1.559365
 20
3.681731
 11
1.622904
 21
3.653849
  0
LINE
  8
1
 10
1.622904
 20
3.653849
 11
1.685905
 21
3.624852
  0
LINE
  8
1
 10
1.685905
 20
3.624852
 11
1.748346
 21
3.594747
  0
LINE
  8
1
 10
1.748346
 20
3.594747
 11
1.810205
 21
3.563544
  0
LINE
  8
1
 10
1.810205
 20
3.563544
 11
1.871463
 21
3.531253
  0
LINE
  8
1
 10
1.871463
 20
3.531253
 11
1.932096
 21
3.497884
  0
LINE
  8
1
 10
1.932096
 20
3.497884
 11
1.992085
 21
3.463448
  0
LINE
  8
1
 10
1.992085
 20
3.463448
 11
2.051409
 21
3.427957
  0
LINE
  8
1
 10
2.051409
 20
3.427957
 11
2.110048
 21
3.391421
  0
LINE
  8
1
 10
2.110048
 20
3.391421
 11
2.167980
 21
3.353853
  0
LINE
  8
1
 10
2.167980
 20
3.353853
 11
2.225185
 21
3.315265
  0
LINE
  8
1
 10
2.225185
 20
3.315265
 11
2.281644
 21
3.275670
  0
LINE
  8
1
 10
2.281644
 20
3.275670
 11
2.337337
 21
3.235082
  0
LINE
  8
1
 10
2.337337
 20
3.235082
 11
2.392243
 21
3.193513
  0
LINE
  8
1
 10
2.392243
 20
3.193513
 11
2.446344
 21
3.150979
  0
LINE
  8
1
 10
2.446344
 20
3.150979
 11
2.499621
 21
3.107493
  0
LINE
  8
1
 10
2.499621
 20
3.107493
 11
2.552053
 21
3.063071
  0
LINE
  8
1
 10
2.552053
 20
3.063071
 11
2.603624
 21
3.017729
  0
LINE
  8
1
 10
2.603624
 20
3.017729
 11
2.654314
 21
2.971482
  0
LINE
  8
1
 10
2.654314
 20
2.971482
 11
2.704105
 21
2.924346
  0
LINE
  8
1
 10
2.704105
 20
2.924346
 11
2.752979
 21
2.876338
  0
LINE
  8
1
 10
2.752979
 20
2.876338
 11
2.800919
 21
2.827476
  0
LINE
  8
1
 10
2.800919
 20
2.827476
 11
2.847907
 21
2.777777
  0
LINE
  8
1
 10
2.847907
 20
2.777777
 11
2.893928
 21
2.727258
  0
LINE
  8
1
 10
2.893928
 20
2.727258
 11
2.938963
 21
2.675939
  0
LINE
  8
1
 10
2.938963
 20
2.675939
 11
2.982997
 21
2.623838
  0
LINE
  8
1
 10
2.982997
 20
2.623838
 11
3.026014
 21
2.570974
  0
LINE
  8
1
 10
3.026014
 20
2.570974
 11
3.067999
 21
2.517367
  0
LINE
  8
1
 10
3.067999
 20
2.517367
 11
3.108937
 21
2.463037
  0
LINE
  8
1
 10
3.108937
 20
2.463037
 11
3.148812
 21
2.408004
  0
LINE
  8
1
 10
3.148812
 20
2.408004
 11
3.187610
 21
2.352289
  0
LINE
  8
1
 10
3.187610
 20
2.352289
 11
3.225319
 21
2.295912
  0
LINE
  8
1
 10
3.225319
 20
2.295912
 11
3.261923
 21
2.238896
  0
LINE
  8
1
 10
3.261923
 20
2.238896
 11
3.297411
 21
2.181262
  0
LINE
  8
1
 10
3.297411
 20
2.181262
 11
3.331770
 21
2.123032
  0
LINE
  8
1
 10
3.331770
 20
2.123032
 11
3.364987
 21
2.064228
  0
LINE
  8
1
 10
3.364987
 20
2.064228
 11
3.397052
 21
2.004874
  0
LINE
  8
1
 10
3.397052
 20
2.004874
 11
3.427953
 21
1.944992
  0
LINE
  8
1
 10
3.427953
 20
1.944992
 11
3.457679
 21
1.884605
  0
LINE
  8
1
 10
3.457679
 20
1.884605
 11
3.486221
 21
1.823738
  0
LINE
  8
1
 10
3.486221
 20
1.823738
 11
3.513568
 21
1.762413
  0
LINE
  8
1
 10
3.513568
 20
1.762413
 11
3.539713
 21
1.700656
  0
LINE
  8
1
 10
3.539713
 20
1.700656
 11
3.564646
 21
1.638491
  0
LINE
  8
1
 10
3.564646
 20
1.638491
 11
3.588359
 21
1.575941
  0
LINE
  8
1
 10
3.588359
 20
1.575941
 11
3.610845
 21
1.513032
  0
LINE
  8
1
 10
3.610845
 20
1.513032
 11
3.632098
 21
1.449790
  0
LINE
  8
1
 10
3.632098
 20
1.449790
 11
3.652110
 21
1.386238
  0
LINE
  8
1
 10
3.652110
 20
1.386238
 11
3.670877
 21
1.322403
  0
LINE
  8
1
 10
3.670877
 20
1.322403
 11
3.688393
 21
1.258310
  0
LINE
  8
1
 10
3.688393
 20
1.258310
 11
3.704653
 21
1.193984
  0
LINE
  8
1
 10
3.704653
 20
1.193984
 11
3.719654
 21
1.129452
  0
LINE
  8
1
 10
3.719654
 20
1.129452
 11
3.733392
 21
1.064739
  0
LINE
  8
1
 10
3.733392
 20
1.064739
 11
3.745865
 21
0.999871
  0
LINE
  8
1
 10
3.745865
 20
0.999871
 11
3.757070
 21
0.934875
  0
LINE
  8
1
 10
3.757070
 20
0.934875
 11
3.767006
 21
0.869777
  0
LINE
  8
1
 10
3.767006
 20
0.869777
 11
3.775672
 21
0.804602
  0
LINE
  8
1
 10
3.775672
 20
0.804602
 11
3.783067
 21
0.739377
  0
LINE
  8
1
 10
3.783067
 20
0.739377
 11
3.789193
 21
0.674128
  0
LINE
  8
1
 10
3.789193
 20
0.674128
 11
3.794049
 21
0.608882
  0
LINE
  8
1
 10
3.794049
 20
0.608882
 11
3.797638
 21
0.543664
  0
LINE
  8
1
 10
3.797638
 20
0.543664
 11
3.799961
 21
0.478501
  0
LINE
  8
1
 10
3.799961
 20
0.478501
 11
3.801021
 21
0.413419
  0
LINE
  8
1
 10
3.801021
 20
0.413419
 11
3.800822
 21
0.348444
  0
LINE
  8
1
 10
3.800822
 20
0.348444
 11
3.799368
 21
0.283602
  0
LINE
  8
1
 10
3.799368
 20
0.283602
 11
3.796663
 21
0.218918
  0
LINE
  8
1
 10
3.796663
 20
0.218918
 11
3.792713
 21
0.154419
  0
LINE
  8
1
 10
3.792713
 20
0.154419
 11
3.787523
 21
0.090130
  0
LINE
  8
1
 10
3.787523
 20
0.090130
 11
3.781099
 21
0.026076
  0
LINE
  8
1
 10
3.781099
 20
0.026076
 11
3.773450
 21
-0.037717
  0
LINE
  8
1
 10
3.773450
 20
-0.037717
 11
3.764582
 21
-0.101225
  0
LINE
  8
1
 10
3.764582
 20
-0.101225
 11
3.754503
 21
-0.164422
  0
LINE
  8
1
 10
3.754503
 20
-0.164422
 11
3.743223
 21
-0.227283
  0
LINE
  8
1
 10
3.743223
 20
-0.227283
 11
3.730751
 21
-0.289785
  0
LINE
  8
1
 10
3.730751
 20
-0.289785
 11
3.717097
 21
-0.351903
  0
LINE
  8
1
 10
3.717097
 20
-0.351903
 11
3.702271
 21
-0.413614
  0
LINE
  8
1
 10
3.702271
 20
-0.413614
 11
3.686284
 21
-0.474894
  0
LINE
  8
1
 10
3.686284
 20
-0.474894
 11
3.669148
 21
-0.535719
  0
LINE
  8
1
 10
3.669148
 20
-0.535719
 11
3.650875
 21
-0.596066
  0
LINE
  8
1
 10
3.650875
 20
-0.596066
 11
3.631478
 21
-0.655914
  0
LINE
  8
1
 10
3.631478
 20
-0.655914
 11
3.610969
 21
-0.715239
  0
LINE
  8
1
 10
3.610969
 20
-0.715239
 11
3.589364
 21
-0.774020
  0
LINE
  8
1
 10
3.589364
 20
-0.774020
 11
3.566675
 21
-0.832236
  0
LINE
  8
1
 10
3.566675
 20
-0.832236
 11
3.542917
 21
-0.889864
  0
LINE
  8
1
 10
3.542917
 20
-0.889864
 11
3.518106
 21
-0.946885
  0
LINE
  8
1
 10
3.518106
 20
-0.946885
 11
3.492258
 21
-1.003278
  0
LINE
  8
1
 10
3.492258
 20
-1.003278
 11
3.465387
 21
-1.059023
  0
LINE
  8
1
 10
3.465387
 20
-1.059023
 11
3.437511
 21
-1.114100
  0
LINE
  8
1
 10
3.437511
 20
-1.114100
 11
3.408647
 21
-1.168491
  0
LINE
  8
1
 10
3.408647
 20
-1.168491
 11
3.378812
 21
-1.222178
  0
LINE
  8
1
 10
3.378812
 20
-1.222178
 11
3.348023
 21
-1.275141
  0
LINE
  8
1
 10
3.348023
 20
-1.275141
 11
3.316299
 21
-1.327363
  0
LINE
  8
1
 10
3.316299
 20
-1.327363
 11
3.283658
 21
-1.378828
  0
LINE
  8
1
 10
3.283658
 20
-1.378828
 11
3.250119
 21
-1.429518
  0
LINE
  8
1
 10
3.250119
 20
-1.429518
 11
3.215702
 21
-1.479418
  0
LINE
  8
1
 10
3.215702
 20
-1.479418
 11
3.180424
 21
-1.528511
  0
LINE
  8
1
 10
3.180424
 20
-1.528511
 11
3.144308
 21
-1.576784
  0
LINE
  8
1
 10
3.144308
 20
-1.576784
 11
3.107371
 21
-1.624220
  0
LINE
  8
1
 10
3.107371
 20
-1.624220
 11
3.069635
 21
-1.670807
  0
LINE
  8
1
 10
3.069635
 20
-1.670807
 11
3.031121
 21
-1.716530
  0
LINE
  8
1
 10
3.031121
 20
-1.716530
 11
2.991848
 21
-1.761377
  0
LINE
  8
1
 10
2.991848
 20
-1.761377
 11
2.951838
 21
-1.805336
  0
LINE
  8
1
 10
2.951838
 20
-1.805336
 11
2.911113
 21
-1.848394
  0
LINE
  8
1
 10
2.911113
 20
-1.848394
 11
2.869694
 21
-1.890540
  0
LINE
  8
1
 10
2.869694
 20
-1.890540
 11
2.827602
 21
-1.931764
  0
LINE
  8
1
 10
2.827602
 20
-1.931764
 11
2.784859
 21
-1.972056
  0
LINE
  8
1
 10
2.784859
 20
-1.972056
 11
2.741487
 21
-2.011405
  0
LINE
  8
1
 10
2.741487
 20
-2.011405
 11
2.697508
 21
-2.049803
  0
LINE
  8
1
 10
2.697508
 20
-2.049803
 11
2.652944
 21
-2.087242
  0
LINE
  8
1
 10
2.652944
 20
-2.087242
 11
2.607818
 21
-2.123713
  0
LINE
  8
1
 10
2.607818
 20
-2.123713
 11
2.562151
 21
-2.159210
  0
LINE
  8
1
 10
2.562151
 20
-2.159210
 11
2.515966
 21
-2.193725
  0
LINE
  8
1
 10
2.515966
 20
-2.193725
 11
2.469286
 21
-2.227253
  0
LINE
  8
1
 10
2.469286
 20
-2.227253
 11
2.422132
 21
-2.259787
  0
LINE
  8
1
 10
2.422132
 20
-2.259787
 11
2.374528
 21
-2.291323
  0
LINE
  8
1
 10
2.374528
 20
-2.291323
 11
2.326495
 21
-2.321856
  0
LINE
  8
1
 10
2.326495
 20
-2.321856
 11
2.278056
 21
-2.351383
  0
LINE
  8
1
 10
2.278056
 20
-2.351383
 11
2.229233
 21
-2.379900
  0
LINE
  8
1
 10
2.229233
 20
-2.379900
 11
2.180049
 21
-2.407403
  0
LINE
  8
1
 10
2.180049
 20
-2.407403
 11
2.130526
 21
-2.433892
  0
LINE
  8
1
 10
2.130526
 20
-2.433892
 11
2.080686
 21
-2.459364
  0
LINE
  8
1
 10
2.080686
 20
-2.459364
 11
2.030550
 21
-2.483817
  0
LINE
  8
1
 10
2.030550
 20
-2.483817
 11
1.980142
 21
-2.507252
  0
LINE
  8
1
 10
1.980142
 20
-2.507252
 11
1.929482
 21
-2.529668
  0
LINE
  8
1
 10
1.929482
 20
-2.529668
 11
1.878592
 21
-2.551065
  0
LINE
  8
1
 10
1.878592
 20
-2.551065
 11
1.827494
 21
-2.571445
  0
LINE
  8
1
 10
1.827494
 20
-2.571445
 11
1.776209
 21
-2.590807
  0
LINE
  8
1
 10
1.776209
 20
-2.590807
 11
1.724758
 21
-2.609156
  0
LINE
  8
1
 10
1.724758
 20
-2.609156
 11
1.673163
 21
-2.626491
  0
LINE
  8
1
 10
1.673163
 20
-2.626491
 11
1.621443
 21
-2.642817
  0
LINE
  8
1
 10
1.621443
 20
-2.642817
 11
1.569619
 21
-2.658137
  0
LINE
  8
1
 10
1.569619
 20
-2.658137
 11
1.517711
 21
-2.672454
  0
LINE
  8
1
 10
1.517711
 20
-2.672454
 11
1.465741
 21
-2.685772
  0
LINE
  8
1
 10
1.465741
 20
-2.685772
 11
1.413726
 21
-2.698096
  0
LINE
  8
1
 10
1.413726
 20
-2.698096
 11
1.361688
 21
-2.709430
  0
LINE
  8
1
 10
1.361688
 20
-2.709430
 11
1.309644
 21
-2.719781
  0
LINE
  8
1
 10
1.309644
 20
-2.719781
 11
1.257615
 21
-2.729154
  0
LINE
  8
1
 10
1.257615
 20
-2.729154
 11
1.205618
 21
-2.737554
  0
LINE
  8
1
 10
1.205618
 20
-2.737554
 11
1.153672
 21
-2.744989
  0
LINE
  8
1
 10
1.153672
 20
-2.744989
 11
1.101796
 21
-2.751465
  0
LINE
  8
1
 10
1.101796
 20
-2.751465
 11
1.050006
 21
-2.756990
  0
LINE
  8
1
 10
1.050006
 20
-2.756990
 11
0.998321
 21
-2.761570
  0
LINE
  8
1
 10
0.998321
 20
-2.761570
 11
0.946757
 21
-2.765214
  0
LINE
  8
1
 10
0.946757
 20
-2.765214
 11
0.895331
 21
-2.767930
  0
LINE
  8
1
 10
0.895331
 20
-2.767930
 11
0.844061
 21
-2.769727
  0
LINE
  8
1
 10
0.844061
 20
-2.769727
 11
0.792961
 21
-2.770612
  0
LINE
  8
1
 10
0.792961
 20
-2.770612
 11
0.742047
 21
-2.770596
  0
LINE
  8
1
 10
0.742047
 20
-2.770596
 11
0.691336
 21
-2.769687
  0
LINE
  8
1
 10
0.691336
 20
-2.769687
 11
0.640842
 21
-2.767895
  0
LINE
  8
1
 10
0.640842
 20
-2.767895
 11
0.590580
 21
-2.765229
  0
LINE
  8
1
 10
0.590580
 20
-2.765229
 11
0.540564
 21
-2.761700
  0
LINE
  8
1
 10
0.540564
 20
-2.761700
 11
0.490808
 21
-2.757317
  0
LINE
  8
1
 10
0.490808
 20
-2.757317
 11
0.441326
 21
-2.752092
  0
LINE
  8
1
 10
0.441326
 20
-2.752092
 11
0.392131
 21
-2.746034
  0
LINE
  8
1
 10
0.392131
 20
-2.746034
 11
0.343236
 21
-2.739154
  0
LINE
  8
1
 10
0.343236
 20
-2.739154
 11
0.294654
 21
-2.731464
  0
LINE
  8
1
 10
0.294654
 20
-2.731464
 11
0.246397
 21
-2.722973
  0
LINE
  8
1
 10
0.246397
 20
-2.722973
 11
0.198476
 21
-2.713694
  0
LINE
  8
1
 10
0.198476
 20
-2.713694
 11
0.150904
 21
-2.703638
  0
LINE
  8
1
 10
0.150904
 20
-2.703638
 11
0.103691
 21
-2.692815
  0
LINE
  8
1
 10
0.103691
 20
-2.692815
 11
0.056849
 21
-2.681238
  0
LINE
  8
1
 10
0.056849
 20
-2.681238
 11
0.010387
 21
-2.668917
  0
LINE
  8
1
 10
0.010387
 20
-2.668917
 11
-0.035684
 21
-2.655866
  0
LINE
  8
1
 10
-0.035684
 20
-2.655866
 11
-0.081355
 21
-2.642094
  0
LINE
  8
1
 10
-0.081355
 20
-2.642094
 11
-0.126616
 21
-2.627615
  0
LINE
  8
1
 10
-0.126616
 20
-2.627615
 11
-0.171457
 21
-2.612440
  0
LINE
  8
1
 10
-0.171457
 20
-2.612440
 11
-0.215871
 21
-2.596580
  0
LINE
  8
1
 10
-0.215871
 20
-2.596580
 11
-0.259849
 21
-2.580048
  0
LINE
  8
1
 10
-0.259849
 20
-2.580048
 11
-0.303383
 21
-2.562856
  0
LINE
  8
1
 10
-0.303383
 20
-2.562856
 11
-0.346464
 21
-2.545014
  0
LINE
  8
1
 10
-0.346464
 20
-2.545014
 11
-0.389086
 21
-2.526537
  0
LINE
  8
1
 10
-0.389086
 20
-2.526537
 11
-0.431241
 21
-2.507434
  0
LINE
  8
1
 10
-0.431241
 20
-2.507434
 11
-0.472923
 21
-2.487719
  0
LINE
  8
1
 10
-0.472923
 20
-2.487719
 11
-0.514124
 21
-2.467403
  0
LINE
  8
1
 10
-0.514124
 20
-2.467403
 11
-0.554839
 21
-2.446497
  0
LINE
  8
1
 10
-0.554839
 20
-2.446497
 11
-0.595061
 21
-2.425014
  0
LINE
  8
1
 10
-0.595061
 20
-2.425014
 11
-0.634785
 21
-2.402965
  0
LINE
  8
1
 10
-0.634785
 20
-2.402965
 11
-0.674006
 21
-2.380363
  0
LINE
  8
1
 10
-0.674006
 20
-2.380363
 11
-0.712717
 21
-2.357218
  0
LINE
  8
1
 10
-0.712717
 20
-2.357218
 11
-0.750915
 21
-2.333543
  0
LINE
  8
1
 10
-0.750915
 20
-2.333543
 11
-0.788594
 21
-2.309348
  0
LINE
  8
1
 10
-0.788594
 20
-2.309348
 11
-0.825749
 21
-2.284645
  0
LINE
  8
1
 10
-0.825749
 20
-2.284645
 11
-0.862378
 21
-2.259446
  0
LINE
  8
1
 10
-0.862378
 20
-2.259446
 11
-0.898475
 21
-2.233763
  0
LINE
  8
1
 10
-0.898475
 20
-2.233763
 11
-0.934037
 21
-2.207605
  0
LINE
  8
1
 10
-0.934037
 20
-2.207605
 11
-0.969059
 21
-2.180984
  0
LINE
  8
1
 10
-0.969059
 20
-2.180984
 11
-1.003540
 21
-2.153912
  0
LINE
  8
1
 10
-1.003540
 20
-2.153912
 11
-1.037475
 21
-2.126399
  0
LINE
  8
1
 10
-1.037475
 20
-2.126399
 11
-1.070861
 21
-2.098456
  0
LINE
  8
1
 10
-1.070861
 20
-2.098456
 11
-1.103696
 21
-2.070095
  0
LINE
  8
1
 10
-1.103696
 20
-2.070095
 11
-1.135977
 21
-2.041324
  0
LINE
  8
1
 10
-1.135977
 20
-2.041324
 11
-1.167701
 21
-2.012156
  0
LINE
  8
1
 10
-1.167701
 20
-2.012156
 11
-1.198866
 21
-1.982600
  0
LINE
  8
1
 10
-1.198866
 20
-1.982600
 11
-1.229470
 21
-1.952668
  0
LINE
  8
1
 10
-1.229470
 20
-1.952668
 11
-1.259510
 21
-1.922368
  0
LINE
  8
1
 10
-1.259510
 20
-1.922368
 11
-1.288985
 21
-1.891712
  0
LINE
  8
1
 10
-1.288985
 20
-1.891712
 11
-1.317893
 21
-1.860709
  0
LINE
  8
1
 10
-1.317893
 20
-1.860709
 11
-1.346232
 21
-1.829370
  0
LINE
  8
1
 10
-1.346232
 20
-1.829370
 11
-1.374000
 21
-1.797704
  0
LINE
  8
1
 10
-1.374000
 20
-1.797704
 11
-1.401196
 21
-1.765722
  0
LINE
  8
1
 10
-1.401196
 20
-1.765722
 11
-1.427819
 21
-1.733431
  0
LINE
  8
1
 10
-1.427819
 20
-1.733431
 11
-1.453867
 21
-1.700844
  0
LINE
  8
1
 10
-1.453867
 20
-1.700844
 11
-1.479340
 21
-1.667968
  0
LINE
  8
1
 10
-1.479340
 20
-1.667968
 11
-1.504235
 21
-1.634813
  0
LINE
  8
1
 10
-1.504235
 20
-1.634813
 11
-1.528552
 21
-1.601389
  0
LINE
  8
1
 10
-1.528552
 20
-1.601389
 11
-1.552290
 21
-1.567705
  0
LINE
  8
1
 10
-1.552290
 20
-1.567705
 11
-1.575449
 21
-1.533769
  0
LINE
  8
1
 10
-1.575449
 20
-1.533769
 11
-1.598026
 21
-1.499591
  0
LINE
  8
1
 10
-1.598026
 20
-1.499591
 11
-1.620022
 21
-1.465181
  0
LINE
  8
1
 10
-1.620022
 20
-1.465181
 11
-1.641436
 21
-1.430546
  0
LINE
  8
1
 10
-1.641436
 20
-1.430546
 11
-1.662267
 21
-1.395695
  0
LINE
  8
1
 10
-1.662267
 20
-1.395695
 11
-1.682515
 21
-1.360638
  0
LINE
  8
1
 10
-1.682515
 20
-1.360638
 11
-1.702179
 21
-1.325384
  0
LINE
  8
1
 10
-1.702179
 20
-1.325384
 11
-1.721258
 21
-1.289939
  0
LINE
  8
1
 10
-1.721258
 20
-1.289939
 11
-1.739752
 21
-1.254314
  0
LINE
  8
1
 10
-1.739752
 20
-1.254314
 11
-1.757661
 21
-1.218517
  0
LINE
  8
1
 10
-1.757661
 20
-1.218517
 11
-1.774984
 21
-1.182556
  0
LINE
  8
1
 10
-1.774984
 20
-1.182556
 11
-1.791720
 21
-1.146439
  0
LINE
  8
1
 10
-1.791720
 20
-1.146439
 11
-1.807871
 21
-1.110175
  0
LINE
  8
1
 10
-1.807871
 20
-1.110175
 11
-1.823434
 21
-1.073772
  0
LINE
  8
1
 10
-1.823434
 20
-1.073772
 11
-1.838411
 21
-1.037239
  0
LINE
  8
1
 10
-1.838411
 20
-1.037239
 11
-1.852800
 21
-1.000583
  0
LINE
  8
1
 10
-1.852800
 20
-1.000583
 11
-1.866602
 21
-0.963813
  0
LINE
  8
1
 10
-1.866602
 20
-0.963813
 11
-1.879817
 21
-0.926937
  0
LINE
  8
1
 10
-1.879817
 20
-0.926937
 11
-1.892443
 21
-0.889963
  0
LINE
  8
1
 10
-1.892443
 20
-0.889963
 11
-1.904482
 21
-0.852899
  0
LINE
  8
1
 10
-1.904482
 20
-0.852899
 11
-1.915933
 21
-0.815753
  0
LINE
  8
1
 10
-1.915933
 20
-0.815753
 11
-1.926795
 21
-0.778533
  0
LINE
  8
1
 10
-1.926795
 20
-0.778533
 11
-1.937070
 21
-0.741248
  0
LINE
  8
1
 10
-1.937070
 20
-0.741248
 11
-1.946757
 21
-0.703905
  0
LINE
  8
1
 10
-1.946757
 20
-0.703905
 11
-1.955855
 21
-0.666512
  0
LINE
  8
1
 10
-1.955855
 20
-0.666512
 11
-1.964366
 21
-0.629077
  0
LINE
  8
1
 10
-1.964366
 20
-0.629077
 11
-1.972288
 21
-0.591608
  0
LINE
  8
1
 10
-1.972288
 20
-0.591608
 11
-1.979624
 21
-0.554113
  0
LINE
  8
1
 10
-1.979624
 20
-0.554113
 11
-1.986371
 21
-0.516601
  0
LINE
  8
1
 10
-1.986371
 20
-0.516601
 11
-1.992531
 21
-0.479078
  0
LINE
  8
1
 10
-1.992531
 20
-0.479078
 11
-1.998104
 21
-0.441554
  0
LINE
  8
1
 10
-1.998104
 20
-0.441554
 11
-2.003090
 21
-0.404036
  0
LINE
  8
1
 10
-2.003090
 20
-0.404036
 11
-2.007490
 21
-0.366532
  0
LINE
  8
1
 10
-2.007490
 20
-0.366532
 11
-2.011304
 21
-0.329050
  0
LINE
  8
1
 10
-2.011304
 20
-0.329050
 11
-2.014532
 21
-0.291598
  0
LINE
  8
1
 10
-2.014532
 20
-0.291598
 11
-2.017175
 21
-0.254184
  0
LINE
  8
1
 10
-2.017175
 20
-0.254184
 11
-2.019233
 21
-0.216816
  0
LINE
  8
1
 10
-2.019233
 20
-0.216816
 11
-2.020707
 21
-0.179503
  0
LINE
  8
1
 10
-2.020707
 20
-0.179503
 11
-2.021598
 21
-0.142251
  0
LINE
  8
1
 10
-2.021598
 20
-0.142251
 11
-2.021907
 21
-0.105070
  0
LINE
  8
1
 10
-2.021907
 20
-0.105070
 11
-2.021634
 21
-0.067968
  0
LINE
  8
1
 10
-2.021634
 20
-0.067968
 11
-2.020779
 21
-0.030952
  0
LINE
  8
1
 10
-2.020779
 20
-0.030952
 11
-2.019345
 21
0.005969
  0
LINE
  8
1
 10
-2.019345
 20
0.005969
 11
-2.017332
 21
0.042788
  0
LINE
  8
1
 10
-2.017332
 20
0.042788
 11
-2.014741
 21
0.079495
  0
LINE
  8
1
 10
-2.014741
 20
0.079495
 11
-2.011573
 21
0.116083
  0
LINE
  8
1
 10
-2.011573
 20
0.116083
 11
-2.007830
 21
0.152544
  0
LINE
  8
1
 10
-2.007830
 20
0.152544
 11
-2.003513
 21
0.188870
  0
LINE
  8
1
 10
-2.003513
 20
0.188870
 11
-1.998624
 21
0.225051
  0
LINE
  8
1
 10
-1.998624
 20
0.225051
 11
-1.993163
 21
0.261081
  0
LINE
  8
1
 10
-1.993163
 20
0.261081
 11
-1.987134
 21
0.296951
  0
LINE
  8
1
 10
-1.987134
 20
0.296951
 11
-1.980537
 21
0.332652
  0
LINE
  8
1
 10
-1.980537
 20
0.332652
 11
-1.973374
 21
0.368177
  0
LINE
  8
1
 10
-1.973374
 20
0.368177
 11
-1.965647
 21
0.403517
  0
LINE
  8
1
 10
-1.965647
 20
0.403517
 11
-1.957359
 21
0.438664
  0
LINE
  8
1
 10
-1.957359
 20
0.438664
 11
-1.948511
 21
0.473610
  0
LINE
  8
1
 10
-1.948511
 20
0.473610
 11
-1.939107
 21
0.508347
  0
LINE
  8
1
 10
-1.939107
 20
0.508347
 11
-1.929148
 21
0.542866
  0
LINE
  8
1
 10
-1.929148
 20
0.542866
 11
-1.918636
 21
0.577159
  0
LINE
  8
1
 10
-1.918636
 20
0.577159
 11
-1.907575
 21
0.611218
  0
LINE
  8
1
 10
-1.907575
 20
0.611218
 11
-1.895968
 21
0.645036
  0
LINE
  8
1
 10
-1.895968
 20
0.645036
 11
-1.883817
 21
0.678603
  0
LINE
  8
1
 10
-1.883817
 20
0.678603
 11
-1.871125
 21
0.711912
  0
LINE
  8
1
 10
-1.871125
 20
0.711912
 11
-1.857895
 21
0.744956
  0
LINE
  8
1
 10
-1.857895
 20
0.744956
 11
-1.844131
 21
0.777725
  0
LINE
  8
1
 10
-1.844131
 20
0.777725
 11
-1.829836
 21
0.810213
  0
LINE
  8
1
 10
-1.829836
 20
0.810213
 11
-1.815014
 21
0.842411
  0
LINE
  8
1
 10
-1.815014
 20
0.842411
 11
-1.799668
 21
0.874311
  0
LINE
  8
1
 10
-1.799668
 20
0.874311
 11
-1.783802
 21
0.905906
  0
LINE
  8
1
 10
-1.783802
 20
0.905906
 11
-1.767420
 21
0.937188
  0
LINE
  8
1
 10
-1.767420
 20
0.937188
 11
-1.750526
 21
0.968150
  0
LINE
  8
1
 10
-1.750526
 20
0.968150
 11
-1.733124
 21
0.998784
  0
LINE
  8
1
 10
-1.733124
 20
0.998784
 11
-1.715218
 21
1.029083
  0
LINE
  8
1
 10
-1.715218
 20
1.029083
 11
-1.696812
 21
1.059040
  0
LINE
  8
1
 10
-1.696812
 20
1.059040
 11
-1.677912
 21
1.088647
  0
LINE
  8
1
 10
-1.677912
 20
1.088647
 11
-1.658521
 21
1.117897
  0
LINE
  8
1
 10
-1.658521
 20
1.117897
 11
-1.638643
 21
1.146783
  0
LINE
  8
1
 10
-1.638643
 20
1.146783
 11
-1.618285
 21
1.175299
  0
LINE
  8
1
 10
-1.618285
 20
1.175299
 11
-1.597450
 21
1.203438
  0
LINE
  8
1
 10
-1.597450
 20
1.203438
 11
-1.576144
 21
1.231193
  0
LINE
  8
1
 10
-1.576144
 20
1.231193
 11
-1.554370
 21
1.258558
  0
LINE
  8
1
 10
-1.554370
 20
1.258558
 11
-1.532135
 21
1.285527
  0
LINE
  8
1
 10
-1.532135
 20
1.285527
 11
-1.509444
 21
1.312092
  0
LINE
  8
1
 10
-1.509444
 20
1.312092
 11
-1.486301
 21
1.338250
  0
LINE
  8
1
 10
-1.486301
 20
1.338250
 11
-1.462711
 21
1.363993
  0
LINE
  8
1
 10
-1.462711
 20
1.363993
 11
-1.438680
 21
1.389316
  0
LINE
  8
1
 10
-1.438680
 20
1.389316
 11
-1.414104
 21
1.414323
  0
LINE
  8
1
 10
-1.414104
 20
1.414323
 11
-1.387647
 21
1.440319
  0
LINE
  8
1
 10
-1.387647
 20
1.440319
 11
-1.356124
 21
1.470468
  0
LINE
  8
1
 10
-1.356124
 20
1.470468
 11
-1.316256
 21
1.508334
  0
LINE
  8
1
 10
-1.316256
 20
1.508334
 11
-1.266234
 21
1.556815
  0
LINE
  8
1
 10
-1.266234
 20
1.556815
 11
-1.206037
 21
1.618235
  0
LINE
  8
1
 10
-1.206037
 20
1.618235
 11
-1.137557
 21
1.694201
  0
LINE
  8
1
 10
-1.137557
 20
1.694201
 11
-1.064453
 21
1.785115
  0
LINE
  8
1
 10
-1.064453
 20
1.785115
 11
-0.991485
 21
1.889632
  0
LINE
  8
1
 10
-0.991485
 20
1.889632
 11
-0.923339
 21
2.004577
  0
LINE
  8
1
 10
-0.923339
 20
2.004577
 11
-0.863395
 21
2.125641
  0
LINE
  8
1
 10
-0.863395
 20
2.125641
 11
-0.813098
 21
2.248569
  0
LINE
  8
1
 10
-0.813098
 20
2.248569
 11
-0.772150
 21
2.370158
  0
LINE
  8
1
 10
-0.772150
 20
2.370158
 11
-0.739190
 21
2.488631
  0
LINE
  8
1
 10
-0.739190
 20
2.488631
 11
-0.712468
 21
2.603419
  0
LINE
  8
1
 10
-0.712468
 20
2.603419
 11
-0.690282
 21
2.714707
  0
LINE
  8
1
 10
-0.690282
 20
2.714707
 11
-0.671162
 21
2.822989
  0
LINE
  8
1
 10
-0.671162
 20
2.822989
 11
-0.653899
 21
2.928759
  0
LINE
  8
1
 10
-0.653899
 20
2.928759
 11
-0.637514
 21
3.032334
  0
LINE
  8
1
 10
-0.637514
 20
3.032334
 11
-0.621225
 21
3.133772
  0
LINE
  8
1
 10
-0.621225
 20
3.133772
 11
-0.604407
 21
3.232855
  0
LINE
  8
1
 10
-0.604407
 20
3.232855
 11
-0.586586
 21
3.329104
  0
LINE
  8
1
 10
-0.586586
 20
3.329104
 11
-0.567432
 21
3.421815
  0
LINE
  8
1
 10
-0.567432
 20
3.421815
 11
-0.546772
 21
3.510105
  0
LINE
  8
1
 10
-0.546772
 20
3.510105
 11
-0.524605
 21
3.592961
  0
LINE
  8
1
 10
-0.524605
 20
3.592961
 11
-0.501120
 21
3.669308
  0
LINE
  8
1
 10
-0.501120
 20
3.669308
 11
-0.476716
 21
3.738080
  0
LINE
  8
1
 10
-0.476716
 20
3.738080
 11
-0.452005
 21
3.798304
  0
LINE
  8
1
 10
-0.452005
 20
3.798304
 11
-0.427810
 21
3.849201
  0
LINE
  8
1
 10
-0.427810
 20
3.849201
 11
-0.405119
 21
3.890309
  0
LINE
  8
1
 10
-0.405119
 20
3.890309
 11
-0.385002
 21
3.921607
  0
LINE
  8
1
 10
-0.385002
 20
3.921607
 11
-0.368453
 21
3.943630
  0
LINE
  8
1
 10
-0.368453
 20
3.943630
 11
-0.356178
 21
3.957528
  0
LINE
  8
1
 10
-0.356178
 20
3.957528
 11
-0.348324
 21
3.965033
  0
LINE
  8
1
 10
-0.348324
 20
3.965033
 11
-0.344250
 21
3.968267
  0
LINE
  8
1
 10
-0.344250
 20
3.968267
 11
-0.342411
 21
3.969421
  0
LINE
  8
1
 10
-0.342411
 20
3.969421
 11
-0.340462
 21
3.970356
  0
LINE
  8
1
 10
-0.340462
 20
3.970356
 11
-0.335593
 21
3.972284
  0
LINE
  8
1
 10
-0.335593
 20
3.972284
 11
-0.324999
 21
3.975645
  0
LINE
  8
1
 10
-0.324999
 20
3.975645
 11
-0.306333
 21
3.980206
  0
LINE
  8
1
 10
-0.306333
 20
3.980206
 11
-0.278016
 21
3.985336
  0
LINE
  8
1
 10
-0.278016
 20
3.985336
 11
-0.239370
 21
3.990300
  0
LINE
  8
1
 10
-0.239370
 20
3.990300
 11
-0.190637
 21
3.994498
  0
LINE
  8
1
 10
-0.190637
 20
3.994498
 11
-0.132963
 21
3.997572
  0
LINE
  8
1
 10
-0.132963
 20
3.997572
 11
-0.068405
 21
3.999400
  0
LINE
  8
1
 10
-0.068405
 20
3.999400
 11
0.000093
 21
4.000000
  0
ENDSEC
  0
EOF
