  0
SECTION
  2
HEADER
  9
$EXTMIN
 10
-2.030408
 20
-2.806119
  9
$EXTMAX
 10
3.809961
 20
4.006130
  0
ENDSEC
  0
SECTION
  2
TABLES
  0
TABLE
  2
LTYPE
 70
1
  0
LTYPE
  2
CONTINUOUS
 70
64
  3
Solid Line
 72
65
 73
0
 40
0.000000
  0
ENDTAB
  0
TABLE
  2
LAYER
 70
16
  0
LAYER
  2
0
 70
0
 62
7
  6
CONTINUOUS
  0
LAYER
  2
1
 70
0
 62
7
  6
CONTINUOUS
  0
LAYER
  2
2
 70
0
 62
7
  6
CONTINUOUS
  0
LAYER
  2
3
 70
0
 62
7
  6
CONTINUOUS
  0
LAYER
  2
4
 70
0
 62
7
  6
CONTINUOUS
  0
LAYER
  2
5
 70
0
 62
7
  6
CONTINUOUS
  0
LAYER
  2
6
 70
0
 62
7
  6
CONTINUOUS
  0
LAYER
  2
7
 70
0
 62
7
  6
CONTINUOUS
  0
LAYER
  2
8
 70
0
 62
7
  6
CONTINUOUS
  0
LAYER
  2
9
 70
0
 62
7
  6
CONTINUOUS
  0
LAYER
  2
10
 70
0
 62
7
  6
CONTINUOUS
  0
LAYER
  2
11
 70
0
 62
7
  6
CONTINUOUS
  0
LAYER
  2
12
 70
0
 62
7
  6
CONTINUOUS
  0
LAYER
  2
13
 70
0
 62
7
  6
CONTINUOUS
  0
LAYER
  2
14
 70
0
 62
7
  6
CONTINUOUS
  0
LAYER
  2
15
 70
0
 62
7
  6
CONTINUOUS
  0
ENDTAB
  0
ENDSEC
  0
SECTION
  2
ENTITIES
  0
LINE
  8
1
 10
0.000147
 20
4.000000
 11
0.069809
 21
3.999391
  0
LINE
  8
1
 10
0.069809
 20
3.999391
 11
0.139595
 21
3.997563
  0
LINE
  8
1
 10
0.139595
 20
3.997563
 11
0.209335
 21
3.994518
  0
LINE
  8
1
 10
0.209335
 20
3.994518
 11
0.279006
 21
3.990256
  0
LINE
  8
1
 10
0.279006
 20
3.990256
 11
0.348585
 21
3.984778
  0
LINE
  8
1
 10
0.348585
 20
3.984778
 11
0.418049
 21
3.978086
  0
LINE
  8
1
 10
0.418049
 20
3.978086
 11
0.487376
 21
3.970182
  0
LINE
  8
1
 10
0.487376
 20
3.970182
 11
0.556543
 21
3.961067
  0
LINE
  8
1
 10
0.556543
 20
3.961067
 11
0.625527
 21
3.950745
  0
LINE
  8
1
 10
0.625527
 20
3.950745
 11
0.694306
 21
3.939219
  0
LINE
  8
1
 10
0.694306
 20
3.939219
 11
0.762856
 21
3.926491
  0
LINE
  8
1
 10
0.762856
 20
3.926491
 11
0.831157
 21
3.912566
  0
LINE
  8
1
 10
0.831157
 20
3.912566
 11
0.899184
 21
3.897446
  0
LINE
  8
1
 10
0.899184
 20
3.897446
 11
0.966916
 21
3.881138
  0
LINE
  8
1
 10
0.966916
 20
3.881138
 11
1.034331
 21
3.863645
  0
LINE
  8
1
 10
1.034331
 20
3.863645
 11
1.101406
 21
3.844972
  0
LINE
  8
1
 10
1.101406
 20
3.844972
 11
1.168120
 21
3.825126
  0
LINE
  8
1
 10
1.168120
 20
3.825126
 11
1.234449
 21
3.804111
  0
LINE
  8
1
 10
1.234449
 20
3.804111
 11
1.300373
 21
3.781935
  0
LINE
  8
1
 10
1.300373
 20
3.781935
 11
1.365868
 21
3.758603
  0
LINE
  8
1
 10
1.365868
 20
3.758603
 11
1.430914
 21
3.734123
  0
LINE
  8
1
 10
1.430914
 20
3.734123
 11
1.495489
 21
3.708502
  0
LINE
  8
1
 10
1.495489
 20
3.708502
 11
1.559570
 21
3.681748
  0
LINE
  8
1
 10
1.559570
 20
3.681748
 11
1.623137
 21
3.653870
  0
LINE
  8
1
 10
1.623137
 20
3.653870
 11
1.686167
 21
3.624875
  0
LINE
  8
1
 10
1.686167
 20
3.624875
 11
1.748640
 21
3.594773
  0
LINE
  8
1
 10
1.748640
 20
3.594773
 11
1.810534
 21
3.563573
  0
LINE
  8
1
 10
1.810534
 20
3.563573
 11
1.871828
 21
3.531285
  0
LINE
  8
1
 10
1.871828
 20
3.531285
 11
1.932502
 21
3.497920
  0
LINE
  8
1
 10
1.932502
 20
3.497920
 11
1.992534
 21
3.463488
  0
LINE
  8
1
 10
1.992534
 20
3.463488
 11
2.051904
 21
3.428000
  0
LINE
  8
1
 10
2.051904
 20
3.428000
 11
2.110590
 21
3.391468
  0
LINE
  8
1
 10
2.110590
 20
3.391468
 11
2.168574
 21
3.353904
  0
LINE
  8
1
 10
2.168574
 20
3.353904
 11
2.225835
 21
3.315320
  0
LINE
  8
1
 10
2.225835
 20
3.315320
 11
2.282352
 21
3.275728
  0
LINE
  8
1
 10
2.282352
 20
3.275728
 11
2.338107
 21
3.235143
  0
LINE
  8
1
 10
2.338107
 20
3.235143
 11
2.393079
 21
3.193577
  0
LINE
  8
1
 10
2.393079
 20
3.193577
 11
2.447249
 21
3.151045
  0
LINE
  8
1
 10
2.447249
 20
3.151045
 11
2.500598
 21
3.107562
  0
LINE
  8
1
 10
2.500598
 20
3.107562
 11
2.553107
 21
3.063142
  0
LINE
  8
1
 10
2.553107
 20
3.063142
 11
2.604758
 21
3.017801
  0
LINE
  8
1
 10
2.604758
 20
3.017801
 11
2.655533
 21
2.971554
  0
LINE
  8
1
 10
2.655533
 20
2.971554
 11
2.705413
 21
2.924417
  0
LINE
  8
1
 10
2.705413
 20
2.924417
 11
2.754380
 21
2.876408
  0
LINE
  8
1
 10
2.754380
 20
2.876408
 11
2.802417
 21
2.827543
  0
LINE
  8
1
 10
2.802417
 20
2.827543
 11
2.849507
 21
2.777840
  0
LINE
  8
1
 10
2.849507
 20
2.777840
 11
2.895633
 21
2.727316
  0
LINE
  8
1
 10
2.895633
 20
2.727316
 11
2.940779
 21
2.675990
  0
LINE
  8
1
 10
2.940779
 20
2.675990
 11
2.984928
 21
2.623881
  0
LINE
  8
1
 10
2.984928
 20
2.623881
 11
3.028065
 21
2.571007
  0
LINE
  8
1
 10
3.028065
 20
2.571007
 11
3.070174
 21
2.517388
  0
LINE
  8
1
 10
3.070174
 20
2.517388
 11
3.111240
 21
2.463043
  0
LINE
  8
1
 10
3.111240
 20
2.463043
 11
3.151248
 21
2.407993
  0
LINE
  8
1
 10
3.151248
 20
2.407993
 11
3.190185
 21
2.352259
  0
LINE
  8
1
 10
3.190185
 20
2.352259
 11
3.228036
 21
2.295861
  0
LINE
  8
1
 10
3.228036
 20
2.295861
 11
3.264788
 21
2.238820
  0
LINE
  8
1
 10
3.264788
 20
2.238820
 11
3.300429
 21
2.181158
  0
LINE
  8
1
 10
3.300429
 20
2.181158
 11
3.334944
 21
2.122897
  0
LINE
  8
1
 10
3.334944
 20
2.122897
 11
3.368324
 21
2.064058
  0
LINE
  8
1
 10
3.368324
 20
2.064058
 11
3.400555
 21
2.004666
  0
LINE
  8
1
 10
3.400555
 20
2.004666
 11
3.431626
 21
1.944742
  0
LINE
  8
1
 10
3.431626
 20
1.944742
 11
3.461528
 21
1.884309
  0
LINE
  8
1
 10
3.461528
 20
1.884309
 11
3.490250
 21
1.823392
  0
LINE
  8
1
 10
3.490250
 20
1.823392
 11
3.517782
 21
1.762012
  0
LINE
  8
1
 10
3.517782
 20
1.762012
 11
3.544116
 21
1.700196
  0
LINE
  8
1
 10
3.544116
 20
1.700196
 11
3.569242
 21
1.637966
  0
LINE
  8
1
 10
3.569242
 20
1.637966
 11
3.593153
 21
1.575346
  0
LINE
  8
1
 10
3.593153
 20
1.575346
 11
3.615841
 21
1.512363
  0
LINE
  8
1
 10
3.615841
 20
1.512363
 11
3.637299
 21
1.449039
  0
LINE
  8
1
 10
3.637299
 20
1.449039
 11
3.657521
 21
1.385402
  0
LINE
  8
1
 10
3.657521
 20
1.385402
 11
3.676501
 21
1.321474
  0
LINE
  8
1
 10
3.676501
 20
1.321474
 11
3.694233
 21
1.257282
  0
LINE
  8
1
 10
3.694233
 20
1.257282
 11
3.710714
 21
1.192852
  0
LINE
  8
1
 10
3.710714
 20
1.192852
 11
3.725938
 21
1.128208
  0
LINE
  8
1
 10
3.725938
 20
1.128208
 11
3.739903
 21
1.063377
  0
LINE
  8
1
 10
3.739903
 20
1.063377
 11
3.752604
 21
0.998385
  0
LINE
  8
1
 10
3.752604
 20
0.998385
 11
3.764041
 21
0.933256
  0
LINE
  8
1
 10
3.764041
 20
0.933256
 11
3.774212
 21
0.868018
  0
LINE
  8
1
 10
3.774212
 20
0.868018
 11
3.783114
 21
0.802696
  0
LINE
  8
1
 10
3.783114
 20
0.802696
 11
3.790748
 21
0.737316
  0
LINE
  8
1
 10
3.790748
 20
0.737316
 11
3.797114
 21
0.671905
  0
LINE
  8
1
 10
3.797114
 20
0.671905
 11
3.802212
 21
0.606488
  0
LINE
  8
1
 10
3.802212
 20
0.606488
 11
3.806043
 21
0.541091
  0
LINE
  8
1
 10
3.806043
 20
0.541091
 11
3.808610
 21
0.475741
  0
LINE
  8
1
 10
3.808610
 20
0.475741
 11
3.809915
 21
0.410464
  0
LINE
  8
1
 10
3.809915
 20
0.410464
 11
3.809961
 21
0.345284
  0
LINE
  8
1
 10
3.809961
 20
0.345284
 11
3.808752
 21
0.280229
  0
LINE
  8
1
 10
3.808752
 20
0.280229
 11
3.806292
 21
0.215324
  0
LINE
  8
1
 10
3.806292
 20
0.215324
 11
3.802585
 21
0.150595
  0
LINE
  8
1
 10
3.802585
 20
0.150595
 11
3.797639
 21
0.086067
  0
LINE
  8
1
 10
3.797639
 20
0.086067
 11
3.791457
 21
0.021765
  0
LINE
  8
1
 10
3.791457
 20
0.021765
 11
3.784049
 21
-0.042285
  0
LINE
  8
1
 10
3.784049
 20
-0.042285
 11
3.775419
 21
-0.106059
  0
LINE
  8
1
 10
3.775419
 20
-0.106059
 11
3.765577
 21
-0.169531
  0
LINE
  8
1
 10
3.765577
 20
-0.169531
 11
3.754532
 21
-0.232677
  0
LINE
  8
1
 10
3.754532
 20
-0.232677
 11
3.742291
 21
-0.295472
  0
LINE
  8
1
 10
3.742291
 20
-0.295472
 11
3.728864
 21
-0.357893
  0
LINE
  8
1
 10
3.728864
 20
-0.357893
 11
3.714262
 21
-0.419915
  0
LINE
  8
1
 10
3.714262
 20
-0.419915
 11
3.698496
 21
-0.481515
  0
LINE
  8
1
 10
3.698496
 20
-0.481515
 11
3.681576
 21
-0.542669
  0
LINE
  8
1
 10
3.681576
 20
-0.542669
 11
3.663514
 21
-0.603355
  0
LINE
  8
1
 10
3.663514
 20
-0.603355
 11
3.644323
 21
-0.663550
  0
LINE
  8
1
 10
3.644323
 20
-0.663550
 11
3.624016
 21
-0.723231
  0
LINE
  8
1
 10
3.624016
 20
-0.723231
 11
3.602605
 21
-0.782377
  0
LINE
  8
1
 10
3.602605
 20
-0.782377
 11
3.580105
 21
-0.840965
  0
LINE
  8
1
 10
3.580105
 20
-0.840965
 11
3.556530
 21
-0.898975
  0
LINE
  8
1
 10
3.556530
 20
-0.898975
 11
3.531895
 21
-0.956385
  0
LINE
  8
1
 10
3.531895
 20
-0.956385
 11
3.506215
 21
-1.013176
  0
LINE
  8
1
 10
3.506215
 20
-1.013176
 11
3.479505
 21
-1.069326
  0
LINE
  8
1
 10
3.479505
 20
-1.069326
 11
3.451783
 21
-1.124817
  0
LINE
  8
1
 10
3.451783
 20
-1.124817
 11
3.423063
 21
-1.179628
  0
LINE
  8
1
 10
3.423063
 20
-1.179628
 11
3.393365
 21
-1.233742
  0
LINE
  8
1
 10
3.393365
 20
-1.233742
 11
3.362703
 21
-1.287139
  0
LINE
  8
1
 10
3.362703
 20
-1.287139
 11
3.331098
 21
-1.339803
  0
LINE
  8
1
 10
3.331098
 20
-1.339803
 11
3.298566
 21
-1.391715
  0
LINE
  8
1
 10
3.298566
 20
-1.391715
 11
3.265126
 21
-1.442859
  0
LINE
  8
1
 10
3.265126
 20
-1.442859
 11
3.230797
 21
-1.493218
  0
LINE
  8
1
 10
3.230797
 20
-1.493218
 11
3.195598
 21
-1.542777
  0
LINE
  8
1
 10
3.195598
 20
-1.542777
 11
3.159549
 21
-1.591519
  0
LINE
  8
1
 10
3.159549
 20
-1.591519
 11
3.122670
 21
-1.639430
  0
LINE
  8
1
 10
3.122670
 20
-1.639430
 11
3.084979
 21
-1.686496
  0
LINE
  8
1
 10
3.084979
 20
-1.686496
 11
3.046499
 21
-1.732703
  0
LINE
  8
1
 10
3.046499
 20
-1.732703
 11
3.007249
 21
-1.778038
  0
LINE
  8
1
 10
3.007249
 20
-1.778038
 11
2.967251
 21
-1.822487
  0
LINE
  8
1
 10
2.967251
 20
-1.822487
 11
2.926524
 21
-1.866039
  0
LINE
  8
1
 10
2.926524
 20
-1.866039
 11
2.885091
 21
-1.908682
  0
LINE
  8
1
 10
2.885091
 20
-1.908682
 11
2.842973
 21
-1.950404
  0
LINE
  8
1
 10
2.842973
 20
-1.950404
 11
2.800192
 21
-1.991196
  0
LINE
  8
1
 10
2.800192
 20
-1.991196
 11
2.756769
 21
-2.031047
  0
LINE
  8
1
 10
2.756769
 20
-2.031047
 11
2.712726
 21
-2.069947
  0
LINE
  8
1
 10
2.712726
 20
-2.069947
 11
2.668085
 21
-2.107889
  0
LINE
  8
1
 10
2.668085
 20
-2.107889
 11
2.622868
 21
-2.144863
  0
LINE
  8
1
 10
2.622868
 20
-2.144863
 11
2.577098
 21
-2.180861
  0
LINE
  8
1
 10
2.577098
 20
-2.180861
 11
2.530797
 21
-2.215878
  0
LINE
  8
1
 10
2.530797
 20
-2.215878
 11
2.483987
 21
-2.249905
  0
LINE
  8
1
 10
2.483987
 20
-2.249905
 11
2.436691
 21
-2.282937
  0
LINE
  8
1
 10
2.436691
 20
-2.282937
 11
2.388930
 21
-2.314969
  0
LINE
  8
1
 10
2.388930
 20
-2.314969
 11
2.340728
 21
-2.345995
  0
LINE
  8
1
 10
2.340728
 20
-2.345995
 11
2.292107
 21
-2.376011
  0
LINE
  8
1
 10
2.292107
 20
-2.376011
 11
2.243088
 21
-2.405014
  0
LINE
  8
1
 10
2.243088
 20
-2.405014
 11
2.193695
 21
-2.432999
  0
LINE
  8
1
 10
2.193695
 20
-2.432999
 11
2.143950
 21
-2.459964
  0
LINE
  8
1
 10
2.143950
 20
-2.459964
 11
2.093875
 21
-2.485907
  0
LINE
  8
1
 10
2.093875
 20
-2.485907
 11
2.043492
 21
-2.510826
  0
LINE
  8
1
 10
2.043492
 20
-2.510826
 11
1.992823
 21
-2.534720
  0
LINE
  8
1
 10
1.992823
 20
-2.534720
 11
1.941890
 21
-2.557589
  0
LINE
  8
1
 10
1.941890
 20
-2.557589
 11
1.890715
 21
-2.579432
  0
LINE
  8
1
 10
1.890715
 20
-2.579432
 11
1.839320
 21
-2.600249
  0
LINE
  8
1
 10
1.839320
 20
-2.600249
 11
1.787726
 21
-2.620042
  0
LINE
  8
1
 10
1.787726
 20
-2.620042
 11
1.735954
 21
-2.638812
  0
LINE
  8
1
 10
1.735954
 20
-2.638812
 11
1.684026
 21
-2.656560
  0
LINE
  8
1
 10
1.684026
 20
-2.656560
 11
1.631962
 21
-2.673289
  0
LINE
  8
1
 10
1.631962
 20
-2.673289
 11
1.579784
 21
-2.689002
  0
LINE
  8
1
 10
1.579784
 20
-2.689002
 11
1.527511
 21
-2.703702
  0
LINE
  8
1
 10
1.527511
 20
-2.703702
 11
1.475165
 21
-2.717393
  0
LINE
  8
1
 10
1.475165
 20
-2.717393
 11
1.422765
 21
-2.730078
  0
LINE
  8
1
 10
1.422765
 20
-2.730078
 11
1.370332
 21
-2.741763
  0
LINE
  8
1
 10
1.370332
 20
-2.741763
 11
1.317884
 21
-2.752452
  0
LINE
  8
1
 10
1.317884
 20
-2.752452
 11
1.265442
 21
-2.762151
  0
LINE
  8
1
 10
1.265442
 20
-2.762151
 11
1.213023
 21
-2.770865
  0
LINE
  8
1
 10
1.213023
 20
-2.770865
 11
1.160648
 21
-2.778601
  0
LINE
  8
1
 10
1.160648
 20
-2.778601
 11
1.108334
 21
-2.785365
  0
LINE
  8
1
 10
1.108334
 20
-2.785365
 11
1.056100
 21
-2.791164
  0
LINE
  8
1
 10
1.056100
 20
-2.791164
 11
1.003963
 21
-2.796005
  0
LINE
  8
1
 10
1.003963
 20
-2.796005
 11
0.951942
 21
-2.799896
  0
LINE
  8
1
 10
0.951942
 20
-2.799896
 11
0.900053
 21
-2.802844
  0
LINE
  8
1
 10
0.900053
 20
-2.802844
 11
0.848313
 21
-2.804858
  0
LINE
  8
1
 10
0.848313
 20
-2.804858
 11
0.796739
 21
-2.805947
  0
LINE
  8
1
 10
0.796739
 20
-2.805947
 11
0.745348
 21
-2.806119
  0
LINE
  8
1
 10
0.745348
 20
-2.806119
 11
0.694154
 21
-2.805383
  0
LINE
  8
1
 10
0.694154
 20
-2.805383
 11
0.643174
 21
-2.803749
  0
LINE
  8
1
 10
0.643174
 20
-2.803749
 11
0.592424
 21
-2.801226
  0
LINE
  8
1
 10
0.592424
 20
-2.801226
 11
0.541917
 21
-2.797824
  0
LINE
  8
1
 10
0.541917
 20
-2.797824
 11
0.491668
 21
-2.793553
  0
LINE
  8
1
 10
0.491668
 20
-2.793553
 11
0.441692
 21
-2.788423
  0
LINE
  8
1
 10
0.441692
 20
-2.788423
 11
0.392002
 21
-2.782445
  0
LINE
  8
1
 10
0.392002
 20
-2.782445
 11
0.342612
 21
-2.775629
  0
LINE
  8
1
 10
0.342612
 20
-2.775629
 11
0.293535
 21
-2.767987
  0
LINE
  8
1
 10
0.293535
 20
-2.767987
 11
0.244784
 21
-2.759528
  0
LINE
  8
1
 10
0.244784
 20
-2.759528
 11
0.196370
 21
-2.750265
  0
LINE
  8
1
 10
0.196370
 20
-2.750265
 11
0.148307
 21
-2.740209
  0
LINE
  8
1
 10
0.148307
 20
-2.740209
 11
0.100606
 21
-2.729371
  0
LINE
  8
1
 10
0.100606
 20
-2.729371
 11
0.053277
 21
-2.717762
  0
LINE
  8
1
 10
0.053277
 20
-2.717762
 11
0.006333
 21
-2.705395
  0
LINE
  8
1
 10
0.006333
 20
-2.705395
 11
-0.040217
 21
-2.692280
  0
LINE
  8
1
 10
-0.040217
 20
-2.692280
 11
-0.086361
 21
-2.678431
  0
LINE
  8
1
 10
-0.086361
 20
-2.678431
 11
-0.132091
 21
-2.663858
  0
LINE
  8
1
 10
-0.132091
 20
-2.663858
 11
-0.177397
 21
-2.648574
  0
LINE
  8
1
 10
-0.177397
 20
-2.648574
 11
-0.222268
 21
-2.632590
  0
LINE
  8
1
 10
-0.222268
 20
-2.632590
 11
-0.266697
 21
-2.615920
  0
LINE
  8
1
 10
-0.266697
 20
-2.615920
 11
-0.310675
 21
-2.598574
  0
LINE
  8
1
 10
-0.310675
 20
-2.598574
 11
-0.354194
 21
-2.580565
  0
LINE
  8
1
 10
-0.354194
 20
-2.580565
 11
-0.397245
 21
-2.561905
  0
LINE
  8
1
 10
-0.397245
 20
-2.561905
 11
-0.439821
 21
-2.542607
  0
LINE
  8
1
 10
-0.439821
 20
-2.542607
 11
-0.481915
 21
-2.522682
  0
LINE
  8
1
 10
-0.481915
 20
-2.522682
 11
-0.523520
 21
-2.502143
  0
LINE
  8
1
 10
-0.523520
 20
-2.502143
 11
-0.564629
 21
-2.481002
  0
LINE
  8
1
 10
-0.564629
 20
-2.481002
 11
-0.605236
 21
-2.459270
  0
LINE
  8
1
 10
-0.605236
 20
-2.459270
 11
-0.645334
 21
-2.436961
  0
LINE
  8
1
 10
-0.645334
 20
-2.436961
 11
-0.684918
 21
-2.414085
  0
LINE
  8
1
 10
-0.684918
 20
-2.414085
 11
-0.723981
 21
-2.390655
  0
LINE
  8
1
 10
-0.723981
 20
-2.390655
 11
-0.762520
 21
-2.366684
  0
LINE
  8
1
 10
-0.762520
 20
-2.366684
 11
-0.800529
 21
-2.342182
  0
LINE
  8
1
 10
-0.800529
 20
-2.342182
 11
-0.838003
 21
-2.317161
  0
LINE
  8
1
 10
-0.838003
 20
-2.317161
 11
-0.874937
 21
-2.291634
  0
LINE
  8
1
 10
-0.874937
 20
-2.291634
 11
-0.911328
 21
-2.265612
  0
LINE
  8
1
 10
-0.911328
 20
-2.265612
 11
-0.947170
 21
-2.239107
  0
LINE
  8
1
 10
-0.947170
 20
-2.239107
 11
-0.982461
 21
-2.212130
  0
LINE
  8
1
 10
-0.982461
 20
-2.212130
 11
-1.017197
 21
-2.184693
  0
LINE
  8
1
 10
-1.017197
 20
-2.184693
 11
-1.051374
 21
-2.156807
  0
LINE
  8
1
 10
-1.051374
 20
-2.156807
 11
-1.084990
 21
-2.128483
  0
LINE
  8
1
 10
-1.084990
 20
-2.128483
 11
-1.118040
 21
-2.099732
  0
LINE
  8
1
 10
-1.118040
 20
-2.099732
 11
-1.150523
 21
-2.070567
  0
LINE
  8
1
 10
-1.150523
 20
-2.070567
 11
-1.182435
 21
-2.040997
  0
LINE
  8
1
 10
-1.182435
 20
-2.040997
 11
-1.213775
 21
-2.011033
  0
LINE
  8
1
 10
-1.213775
 20
-2.011033
 11
-1.244539
 21
-1.980687
  0
LINE
  8
1
 10
-1.244539
 20
-1.980687
 11
-1.274727
 21
-1.949968
  0
LINE
  8
1
 10
-1.274727
 20
-1.949968
 11
-1.304335
 21
-1.918889
  0
LINE
  8
1
 10
-1.304335
 20
-1.918889
 11
-1.333362
 21
-1.887458
  0
LINE
  8
1
 10
-1.333362
 20
-1.887458
 11
-1.361806
 21
-1.855687
  0
LINE
  8
1
 10
-1.361806
 20
-1.855687
 11
-1.389666
 21
-1.823586
  0
LINE
  8
1
 10
-1.389666
 20
-1.823586
 11
-1.416941
 21
-1.791165
  0
LINE
  8
1
 10
-1.416941
 20
-1.791165
 11
-1.443628
 21
-1.758434
  0
LINE
  8
1
 10
-1.443628
 20
-1.758434
 11
-1.469727
 21
-1.725403
  0
LINE
  8
1
 10
-1.469727
 20
-1.725403
 11
-1.495237
 21
-1.692083
  0
LINE
  8
1
 10
-1.495237
 20
-1.692083
 11
-1.520157
 21
-1.658482
  0
LINE
  8
1
 10
-1.520157
 20
-1.658482
 11
-1.544485
 21
-1.624610
  0
LINE
  8
1
 10
-1.544485
 20
-1.624610
 11
-1.568221
 21
-1.590478
  0
LINE
  8
1
 10
-1.568221
 20
-1.590478
 11
-1.591365
 21
-1.556094
  0
LINE
  8
1
 10
-1.591365
 20
-1.556094
 11
-1.613915
 21
-1.521468
  0
LINE
  8
1
 10
-1.613915
 20
-1.521468
 11
-1.635872
 21
-1.486610
  0
LINE
  8
1
 10
-1.635872
 20
-1.486610
 11
-1.657234
 21
-1.451528
  0
LINE
  8
1
 10
-1.657234
 20
-1.451528
 11
-1.678001
 21
-1.416232
  0
LINE
  8
1
 10
-1.678001
 20
-1.416232
 11
-1.698173
 21
-1.380731
  0
LINE
  8
1
 10
-1.698173
 20
-1.380731
 11
-1.717750
 21
-1.345034
  0
LINE
  8
1
 10
-1.717750
 20
-1.345034
 11
-1.736731
 21
-1.309149
  0
LINE
  8
1
 10
-1.736731
 20
-1.309149
 11
-1.755116
 21
-1.273087
  0
LINE
  8
1
 10
-1.755116
 20
-1.273087
 11
-1.772905
 21
-1.236854
  0
LINE
  8
1
 10
-1.772905
 20
-1.236854
 11
-1.790099
 21
-1.200461
  0
LINE
  8
1
 10
-1.790099
 20
-1.200461
 11
-1.806696
 21
-1.163916
  0
LINE
  8
1
 10
-1.806696
 20
-1.163916
 11
-1.822697
 21
-1.127227
  0
LINE
  8
1
 10
-1.822697
 20
-1.127227
 11
-1.838102
 21
-1.090403
  0
LINE
  8
1
 10
-1.838102
 20
-1.090403
 11
-1.852911
 21
-1.053452
  0
LINE
  8
1
 10
-1.852911
 20
-1.053452
 11
-1.867125
 21
-1.016383
  0
LINE
  8
1
 10
-1.867125
 20
-1.016383
 11
-1.880742
 21
-0.979205
  0
LINE
  8
1
 10
-1.880742
 20
-0.979205
 11
-1.893765
 21
-0.941925
  0
LINE
  8
1
 10
-1.893765
 20
-0.941925
 11
-1.906192
 21
-0.904552
  0
LINE
  8
1
 10
-1.906192
 20
-0.904552
 11
-1.918024
 21
-0.867093
  0
LINE
  8
1
 10
-1.918024
 20
-0.867093
 11
-1.929261
 21
-0.829558
  0
LINE
  8
1
 10
-1.929261
 20
-0.829558
 11
-1.939904
 21
-0.791955
  0
LINE
  8
1
 10
-1.939904
 20
-0.791955
 11
-1.949953
 21
-0.754291
  0
LINE
  8
1
 10
-1.949953
 20
-0.754291
 11
-1.959408
 21
-0.716575
  0
LINE
  8
1
 10
-1.959408
 20
-0.716575
 11
-1.968271
 21
-0.678815
  0
LINE
  8
1
 10
-1.968271
 20
-0.678815
 11
-1.976540
 21
-0.641018
  0
LINE
  8
1
 10
-1.976540
 20
-0.641018
 11
-1.984217
 21
-0.603194
  0
LINE
  8
1
 10
-1.984217
 20
-0.603194
 11
-1.991303
 21
-0.565349
  0
LINE
  8
1
 10
-1.991303
 20
-0.565349
 11
-1.997797
 21
-0.527493
  0
LINE
  8
1
 10
-1.997797
 20
-0.527493
 11
-2.003700
 21
-0.489633
  0
LINE
  8
1
 10
-2.003700
 20
-0.489633
 11
-2.009014
 21
-0.451776
  0
LINE
  8
1
 10
-2.009014
 20
-0.451776
 11
-2.013738
 21
-0.413932
  0
LINE
  8
1
 10
-2.013738
 20
-0.413932
 11
-2.017873
 21
-0.376108
  0
LINE
  8
1
 10
-2.017873
 20
-0.376108
 11
-2.021421
 21
-0.338312
  0
LINE
  8
1
 10
-2.021421
 20
-0.338312
 11
-2.024381
 21
-0.300552
  0
LINE
  8
1
 10
-2.024381
 20
-0.300552
 11
-2.026755
 21
-0.262837
  0
LINE
  8
1
 10
-2.026755
 20
-0.262837
 11
-2.028544
 21
-0.225173
  0
LINE
  8
1
 10
-2.028544
 20
-0.225173
 11
-2.029749
 21
-0.187570
  0
LINE
  8
1
 10
-2.029749
 20
-0.187570
 11
-2.030369
 21
-0.150034
  0
LINE
  8
1
 10
-2.030369
 20
-0.150034
 11
-2.030408
 21
-0.112575
  0
LINE
  8
1
 10
-2.030408
 20
-0.112575
 11
-2.029865
 21
-0.075200
  0
LINE
  8
1
 10
-2.029865
 20
-0.075200
 11
-2.028742
 21
-0.037918
  0
LINE
  8
1
 10
-2.028742
 20
-0.037918
 11
-2.027041
 21
-0.000736
  0
LINE
  8
1
 10
-2.027041
 20
-0.000736
 11
-2.024762
 21
0.036338
  0
LINE
  8
1
 10
-2.024762
 20
0.036338
 11
-2.021906
 21
0.073296
  0
LINE
  8
1
 10
-2.021906
 20
0.073296
 11
-2.018476
 21
0.110129
  0
LINE
  8
1
 10
-2.018476
 20
0.110129
 11
-2.014473
 21
0.146829
  0
LINE
  8
1
 10
-2.014473
 20
0.146829
 11
-2.009898
 21
0.183389
  0
LINE
  8
1
 10
-2.009898
 20
0.183389
 11
-2.004754
 21
0.219799
  0
LINE
  8
1
 10
-2.004754
 20
0.219799
 11
-1.999041
 21
0.256053
  0
LINE
  8
1
 10
-1.999041
 20
0.256053
 11
-1.992762
 21
0.292142
  0
LINE
  8
1
 10
-1.992762
 20
0.292142
 11
-1.985919
 21
0.328057
  0
LINE
  8
1
 10
-1.985919
 20
0.328057
 11
-1.978514
 21
0.363791
  0
LINE
  8
1
 10
-1.978514
 20
0.363791
 11
-1.970549
 21
0.399336
  0
LINE
  8
1
 10
-1.970549
 20
0.399336
 11
-1.962026
 21
0.434683
  0
LINE
  8
1
 10
-1.962026
 20
0.434683
 11
-1.952948
 21
0.469824
  0
LINE
  8
1
 10
-1.952948
 20
0.469824
 11
-1.943317
 21
0.504752
  0
LINE
  8
1
 10
-1.943317
 20
0.504752
 11
-1.933135
 21
0.539458
  0
LINE
  8
1
 10
-1.933135
 20
0.539458
 11
-1.922406
 21
0.573933
  0
LINE
  8
1
 10
-1.922406
 20
0.573933
 11
-1.911132
 21
0.608171
  0
LINE
  8
1
 10
-1.911132
 20
0.608171
 11
-1.899317
 21
0.642162
  0
LINE
  8
1
 10
-1.899317
 20
0.642162
 11
-1.886962
 21
0.675899
  0
LINE
  8
1
 10
-1.886962
 20
0.675899
 11
-1.874072
 21
0.709374
  0
LINE
  8
1
 10
-1.874072
 20
0.709374
 11
-1.860649
 21
0.742579
  0
LINE
  8
1
 10
-1.860649
 20
0.742579
 11
-1.846698
 21
0.775506
  0
LINE
  8
1
 10
-1.846698
 20
0.775506
 11
-1.832220
 21
0.808146
  0
LINE
  8
1
 10
-1.832220
 20
0.808146
 11
-1.817221
 21
0.840493
  0
LINE
  8
1
 10
-1.817221
 20
0.840493
 11
-1.801704
 21
0.872537
  0
LINE
  8
1
 10
-1.801704
 20
0.872537
 11
-1.785673
 21
0.904273
  0
LINE
  8
1
 10
-1.785673
 20
0.904273
 11
-1.769131
 21
0.935691
  0
LINE
  8
1
 10
-1.769131
 20
0.935691
 11
-1.752083
 21
0.966784
  0
LINE
  8
1
 10
-1.752083
 20
0.966784
 11
-1.734533
 21
0.997545
  0
LINE
  8
1
 10
-1.734533
 20
0.997545
 11
-1.716485
 21
1.027965
  0
LINE
  8
1
 10
-1.716485
 20
1.027965
 11
-1.697945
 21
1.058039
  0
LINE
  8
1
 10
-1.697945
 20
1.058039
 11
-1.678915
 21
1.087757
  0
LINE
  8
1
 10
-1.678915
 20
1.087757
 11
-1.659402
 21
1.117114
  0
LINE
  8
1
 10
-1.659402
 20
1.117114
 11
-1.639410
 21
1.146101
  0
LINE
  8
1
 10
-1.639410
 20
1.146101
 11
-1.618943
 21
1.174712
  0
LINE
  8
1
 10
-1.618943
 20
1.174712
 11
-1.598008
 21
1.202940
  0
LINE
  8
1
 10
-1.598008
 20
1.202940
 11
-1.576608
 21
1.230778
  0
LINE
  8
1
 10
-1.576608
 20
1.230778
 11
-1.554749
 21
1.258219
  0
LINE
  8
1
 10
-1.554749
 20
1.258219
 11
-1.532437
 21
1.285257
  0
LINE
  8
1
 10
-1.532437
 20
1.285257
 11
-1.509677
 21
1.311884
  0
LINE
  8
1
 10
-1.509677
 20
1.311884
 11
-1.486473
 21
1.338096
  0
LINE
  8
1
 10
-1.486473
 20
1.338096
 11
-1.462832
 21
1.363885
  0
LINE
  8
1
 10
-1.462832
 20
1.363885
 11
-1.438760
 21
1.389246
  0
LINE
  8
1
 10
-1.438760
 20
1.389246
 11
-1.414261
 21
1.414172
  0
LINE
  8
1
 10
-1.414261
 20
1.414172
 11
-1.389342
 21
1.438658
  0
LINE
  8
1
 10
-1.389342
 20
1.438658
 11
-1.364008
 21
1.462698
  0
LINE
  8
1
 10
-1.364008
 20
1.462698
 11
-1.338265
 21
1.486286
  0
LINE
  8
1
 10
-1.338265
 20
1.486286
 11
-1.312119
 21
1.509419
  0
LINE
  8
1
 10
-1.312119
 20
1.509419
 11
-1.285387
 21
1.532247
  0
LINE
  8
1
 10
-1.285387
 20
1.532247
 11
-1.255788
 21
1.556644
  0
LINE
  8
1
 10
-1.255788
 20
1.556644
 11
-1.218001
 21
1.587111
  0
LINE
  8
1
 10
-1.218001
 20
1.587111
 11
-1.166852
 21
1.628752
  0
LINE
  8
1
 10
-1.166852
 20
1.628752
 11
-1.100164
 21
1.685869
  0
LINE
  8
1
 10
-1.100164
 20
1.685869
 11
-1.019421
 21
1.761932
  0
LINE
  8
1
 10
-1.019421
 20
1.761932
 11
-0.929882
 21
1.858702
  0
LINE
  8
1
 10
-0.929882
 20
1.858702
 11
-0.839537
 21
1.974797
  0
LINE
  8
1
 10
-0.839537
 20
1.974797
 11
-0.756522
 21
2.105141
  0
LINE
  8
1
 10
-0.756522
 20
2.105141
 11
-0.686239
 21
2.242491
  0
LINE
  8
1
 10
-0.686239
 20
2.242491
 11
-0.630164
 21
2.380192
  0
LINE
  8
1
 10
-0.630164
 20
2.380192
 11
-0.586779
 21
2.514082
  0
LINE
  8
1
 10
-0.586779
 20
2.514082
 11
-0.553272
 21
2.642652
  0
LINE
  8
1
 10
-0.553272
 20
2.642652
 11
-0.526780
 21
2.766138
  0
LINE
  8
1
 10
-0.526780
 20
2.766138
 11
-0.504905
 21
2.885493
  0
LINE
  8
1
 10
-0.504905
 20
2.885493
 11
-0.485785
 21
3.001685
  0
LINE
  8
1
 10
-0.485785
 20
3.001685
 11
-0.467998
 21
3.115336
  0
LINE
  8
1
 10
-0.467998
 20
3.115336
 11
-0.450460
 21
3.226588
  0
LINE
  8
1
 10
-0.450460
 20
3.226588
 11
-0.432345
 21
3.335095
  0
LINE
  8
1
 10
-0.432345
 20
3.335095
 11
-0.413055
 21
3.440073
  0
LINE
  8
1
 10
-0.413055
 20
3.440073
 11
-0.392220
 21
3.540376
  0
LINE
  8
1
 10
-0.392220
 20
3.540376
 11
-0.369715
 21
3.634584
  0
LINE
  8
1
 10
-0.369715
 20
3.634584
 11
-0.345696
 21
3.721098
  0
LINE
  8
1
 10
-0.345696
 20
3.721098
 11
-0.320642
 21
3.798259
  0
LINE
  8
1
 10
-0.320642
 20
3.798259
 11
-0.295390
 21
3.864477
  0
LINE
  8
1
 10
-0.295390
 20
3.864477
 11
-0.271155
 21
3.918409
  0
LINE
  8
1
 10
-0.271155
 20
3.918409
 11
-0.249494
 21
3.959176
  0
LINE
  8
1
 10
-0.249494
 20
3.959176
 11
-0.232180
 21
3.986628
  0
LINE
  8
1
 10
-0.232180
 20
3.986628
 11
-0.220921
 21
4.001607
  0
LINE
  8
1
 10
-0.220921
 20
4.001607
 11
-0.216897
 21
4.006130
  0
LINE
  8
1
 10
-0.216897
 20
4.006130
 11
-0.220160
 21
4.003307
  0
LINE
  8
1
 10
-0.220160
 20
4.003307
 11
-0.229110
 21
3.996877
  0
LINE
  8
1
 10
-0.229110
 20
3.996877
 11
-0.240366
 21
3.990377
  0
LINE
  8
1
 10
-0.240366
 20
3.990377
 11
-0.249279
 21
3.986264
  0
LINE
  8
1
 10
-0.249279
 20
3.986264
 11
-0.250958
 21
3.985439
  0
LINE
  8
1
 10
-0.250958
 20
3.985439
 11
-0.241363
 21
3.987409
  0
LINE
  8
1
 10
-0.241363
 20
3.987409
 11
-0.218022
 21
3.990913
  0
LINE
  8
1
 10
-0.218022
 20
3.990913
 11
-0.180269
 21
3.994621
  0
LINE
  8
1
 10
-0.180269
 20
3.994621
 11
-0.129194
 21
3.997593
  0
LINE
  8
1
 10
-0.129194
 20
3.997593
 11
-0.067591
 21
3.999406
  0
LINE
  8
1
 10
-0.067591
 20
3.999406
 11
0.000147
 21
4.000000
  0
ENDSEC
  0
EOF
